<?xml version="1.0" encoding="UTF-8"?>
<COLLADA xmlns="http://www.collada.org/2005/11/COLLADASchema" version="1.4.1">
<!--
# File generated by ImageToStl.com - Free Image and 3D model conversion tools
-->
  <asset>
    <contributor>
      <author>ImageToStl.com</author>
      <authoring_tool>ImageToStl.com</authoring_tool>
    </contributor>
    <created>2026-10-01T05:18:27</created>
    <modified>2026-10-01T05:18:27</modified>
    <up_axis>Z_UP</up_axis>
  </asset>
  <library_effects>
    <effect id="effect_0">
        <profile_COMMON>
          <technique sid="common">
            <phong>
              <diffuse>
                <color>0.9 0.9 0.9 1</color>
              </diffuse>
              <specular>
                <color>0.05 0.05 0.05 1</color>
              </specular>
              <shininess>
                <float>64</float>
              </shininess>
            </phong>
          </technique>
        </profile_COMMON>
    </effect>
  </library_effects>
  <library_materials>
    <material id="mat_0">
      <instance_effect url="#effect_0"/>
    </material>
  </library_materials>
  <library_geometries>
    <geometry id="geometry_63a8d667_85a2_43f3_82ec_0e7546e5dfda">
      <mesh>
        <source id="pos_0">
          <float_array id="pos_0-array" count="981">0.00477676 0.001867 0.0179999 -0.00477676 -0.001867 0.0179999 -0.00199566 -0.00468375 0.0179999 0.00199566 0.00468375 0.0179999 -0.001867 0.00477676 0.01799974 0.001867 -0.00477676 0.01799974 -0.00468375 0.00199566 0.01799987 0.00468375 -0.00199566 0.01799987 -0.00508384 -0.00027337 0.02800004 -0.05883028 0.00568837 0.02799999 -0.05806801 -0.01206737 0.02799996 -0.00338815 -0.00385013 0.0280001 -0.0519973 -0.02804416 0.02799995 -0.0443309 -0.03906624 0.02800048 -0.00385013 0.00338815 0.02800009 -0.05605111 0.01867531 0.02799991 0.00027337 -0.00508384 0.02800004 0.00449136 -0.05893386 0.02800008 0.01813584 -0.05625336 0.02800002 0.00385013 -0.00338815 0.02800009 -0.01200563 -0.05797726 0.02799988 -0.04885368 0.03353368 0.02800014 -0.03081219 0.05043887 0.02799978 -0.03922296 0.04407448 0.028 -0.00027337 0.00508384 0.02800004 -0.01509363 0.05729181 0.02800013 0.05624151 -0.01818112 0.02799997 0.00508384 0.00027337 0.02800004 0.0592401 -0.00123026 0.02799992 -0.03083579 -0.05065726 0.02800031 0.01521367 0.05708397 0.028 0.00190836 0.05906262 0.02799989 0.05697913 0.01570548 0.02800001 0.00338815 0.00385013 0.0280001 0.03081219 -0.05043887 0.02799978 0.05046362 0.03097467 0.0279992 0.03984882 0.04364624 0.02799969 0.03922296 -0.04407448 0.028 0.04885368 -0.03353368 0.02800014 0.0281052 0.05203237 0.02800026 -0.0589684 0.00260772 0.01570376 -0.05862556 0.00667845 0.01159004 -0.05864951 0.00646279 0.00577395 -0.05896913 0.00226505 0.00223872 -0.05897496 -0.00145078 0.00207948 -0.05895153 -0.00261174 0.01560952 -0.05878536 -0.00508886 0.00401522 -0.05857168 -0.00717909 0.00890903 -0.0587425 -0.00553005 0.01338927 -0.04182723 -0.04151948 0.01823438 -0.03882301 -0.0450739 0.01797244 -0.03214913 -0.04972533 0.01817614 0.02838952 -0.05200421 0.01813726 0.02155842 -0.05498488 0.01834814 0.0140966 -0.05749382 0.01811795 0.05202927 -0.02832063 0.01813966 0.04469222 -0.03885849 0.01810427 0.04921085 -0.03896134 0.01799944 -0.05202927 0.02832063 0.01813966 -0.04469222 0.03885849 0.01810427 -0.04921085 0.03896134 0.01799944 0.02388702 0.05421548 0.01813029 0.0299661 0.05087726 0.01832211 0.03881072 0.04485969 0.01808803 -0.04924333 -0.03898126 0.01799939 -0.07486947 -0.00010831 0.01749152 -0.07382365 -0.01261805 0.01754447 -0.06740401 -0.03076214 0.01800032 -0.05857931 -0.04491943 0.01803579 -0.05076903 -0.03038286 0.01814059 -0.04474882 -0.03879707 0.0180932 -0.07261276 0.01473199 0.01800007 -0.06715076 0.03158472 0.01800716 -0.05852288 0.04493915 0.0180204 -0.05576021 -0.01993683 0.01813119 -0.05856608 -0.00870289 0.01812883 -0.05906123 0.00474923 0.01813393 -0.05671892 0.01687904 0.01812676 -0.00567118 0.07402079 0.01800308 0.03889807 0.04892649 0.01799285 0.01478807 0.07343227 0.01747619 0.04491422 0.0585315 0.0180305 0.03154724 0.06716744 0.01800651 -0.03880047 0.0447806 0.01807704 -0.02835787 0.05203313 0.01812027 -0.03903746 0.0493687 0.01799927 -0.02845982 0.06855255 0.01800992 -0.04492887 0.0585876 0.01802658 -0.01860399 0.05623898 0.0181421 -0.00741554 0.05874017 0.0181043 -7.078E-05 0.05919634 0.01820958 0.01214918 0.0578965 0.01815854 0.05076903 0.03038286 0.01814059 0.04924333 0.03898126 0.01799939 0.04474882 0.03879707 0.0180932 0.07472841 -0.00144535 0.01761786 0.0723268 0.01607583 0.01800039 0.07261276 -0.01473199 0.01800007 0.06715082 -0.03158471 0.01800712 0.05852289 -0.04493913 0.01802042 0.0668122 0.03343587 0.01769042 0.05855466 0.04492627 0.01803785 0.05576021 0.01993683 0.01813119 0.05856382 0.00870854 0.01813027 0.05906224 -0.0048708 0.01812639 0.05672971 -0.01684967 0.01812561 0.00567092 -0.07402147 0.01800244 -0.03969497 -0.04926062 0.01783129 -0.01478806 -0.07343227 0.01747619 -0.02153813 -0.05507135 0.01815985 0.03903724 -0.04936877 0.0179995 0.03880051 -0.04478049 0.01807706 -0.03158475 -0.06715082 0.01800709 -0.04493297 -0.05852885 0.01802267 0.02845986 -0.06855261 0.01800985 0.04492893 -0.05858765 0.01802653 0.00524577 -0.05895326 0.01815711 -0.0092588 -0.05853842 0.01815865 -0.0459509 -0.05881197 0.01702885 -0.03966393 -0.0451975 0.01696098 -0.04507625 -0.03981336 0.0170205 -0.04888888 -0.03991935 0.0169546 -0.05871852 -0.04593674 0.01705866 0.05880912 -0.04595181 0.0170293 0.04898014 -0.03993589 0.01699677 0.04401106 -0.03985311 0.01759358 0.0396133 -0.0461013 0.01697224 0.04024202 -0.04955452 0.01698879 0.04062442 -0.04288287 0.01796149 0.0458929 -0.05812128 0.01705465 0.04529811 -0.05989423 0.01707169 0.04598516 0.05882751 0.01696838 0.04017438 0.0494451 0.01700941 0.03968273 0.04514304 0.01698762 0.04182725 0.04151947 0.01823432 0.04507625 0.03981336 0.0170205 0.04889257 0.0399201 0.01695503 0.05815202 0.04592847 0.0170302 -0.04529811 0.05989422 0.01707169 -0.0458929 0.05812129 0.01705465 -0.05880912 0.04595181 0.0170293 -0.04898014 0.03993589 0.01699677 -0.04401106 0.03985311 0.01759358 -0.0396133 0.04610131 0.01697224 -0.04024202 0.04955452 0.01698879 -0.04062442 0.04288287 0.01796149 0.00153852 0.06880141 0.00899975 0.00197896 0.06353743 0.00900006 -0.00212458 0.06351477 0.00900028 -0.00254029 0.06799224 0.00900016 0.00305414 0.06607628 0.009 -0.00153852 -0.06880141 0.00899975 -0.00197896 -0.06353743 0.00900006 0.00212458 -0.06351477 0.00900028 0.00254029 -0.06799224 0.00900016 -0.00305414 -0.06607628 0.009 -0.06493808 -0.03772599 0.01696892 -0.07129572 -0.02363189 0.01695964 -0.07361037 0.01491837 0.01703789 -0.07001854 0.0268776 0.017 -0.06536108 0.03694151 0.01704214 -0.03404929 0.06682549 0.017 -0.02360771 0.07127666 0.01705147 -0.01173259 0.07407662 0.017 -0.00042946 0.07507992 0.01706396 0.0268776 0.07001854 0.017 0.03698246 0.06534085 0.01703729 0.05997191 0.04518242 0.01709506 0.07129572 0.02363189 0.01695964 0.07465107 0.0082923 0.01695964 0.07353126 -0.01519343 0.01705147 0.07001854 -0.0268776 0.017 0.06536109 -0.0369415 0.01704213 0.03404929 -0.06682549 0.017 0.02360771 -0.07127666 0.01705147 0.01173259 -0.07407662 0.017 0.00042946 -0.07507992 0.01706396 -0.0268776 -0.07001854 0.017 -0.0369415 -0.06536109 0.01704213 -0.04608568 -0.05905379 0.01200652 -0.03991813 -0.04882472 0.01200065 -0.04853253 -0.03982239 0.01200032 -0.05882409 -0.04604315 0.01200006 0.05905352 -0.04608582 0.01200802 0.04711042 -0.03939141 0.01199991 0.03985727 -0.04472909 0.01200006 0.04198584 -0.04135048 0.01199946 0.03994184 -0.04886869 0.01200037 0.0460427 -0.05882527 0.01199946 0.0461099 0.05880627 0.0120012 0.03991991 0.0488328 0.01200066 0.04429313 0.03999396 0.01200099 0.04024431 0.04340755 0.0119991 0.04853094 0.03982211 0.01200032 0.05897208 0.0461415 0.01200202 -0.0460427 0.05882527 0.01199946 -0.05905352 0.04608582 0.01200802 -0.04711042 0.03939141 0.01199991 -0.03985727 0.04472909 0.01200006 -0.04198584 0.04135048 0.01199946 -0.03994184 0.04886869 0.01200037 -0.05550086 -0.05062766 0.01199994 -0.05061092 -0.04858398 0.01199931 -0.05053168 -0.04434766 0.0119993 -0.04321689 -0.0494709 0.01199907 -0.04255904 -0.04502447 0.01200009 -0.04024431 -0.04340756 0.0119991 -0.04607504 -0.04227788 0.01200027 -0.04429313 -0.03999396 0.01200099 -0.04731463 -0.05100667 0.01200074 0.05100667 -0.04731463 0.01200074 0.05062766 -0.05550086 0.01199994 0.04858398 -0.05061092 0.01199931 0.04434766 -0.05053168 0.0119993 0.0494709 -0.04321689 0.01199888 0.04493895 -0.04257921 0.01199984 0.04228367 -0.04608779 0.01200005 0.05061092 0.04858398 0.01199931 0.05094585 0.05509477 0.01200003 0.04227474 0.0472982 0.01200004 0.04485809 0.05063934 0.01200034 0.05053168 0.04434766 0.0119993 0.04804731 0.05077179 0.012 0.04320924 0.04413099 0.012 0.04608779 0.04228367 0.01200007 -0.05100667 0.04731463 0.01200074 -0.05062766 0.05550086 0.01199994 -0.0494709 0.04321689 0.01199888 -0.04858398 0.05061092 0.01199931 -0.04434766 0.05053168 0.0119993 -0.04502447 0.04255904 0.01200009 -0.04227788 0.04607504 0.01200025 0.04525082 0.04250859 -1.6E-07 0.04839627 0.0427411 -0 0.07459089 0.00717685 0.00011528 0.05329992 0.05252101 0.00016323 0.04858399 0.05061092 6.9E-07 0.0445181 0.06029197 0.00017077 0.04434766 0.05053168 6.2E-07 0.04228594 0.04582902 -3E-08 0.0114021 0 -0 0.05063934 0.04485808 -2.9E-07 0.06869621 0.02992335 0.00016256 0.03457587 0.06636249 0.00016906 0.02374868 0.07110728 0.0001969 0.06096281 0.04358104 0.00016668 0.05077179 0.04804731 -0 0.01062079 0.07405969 9.135E-05 0.00319914 0.06668899 0.00023282 0.0016998 0.06875282 0.00016523 -0.00125366 0.0690636 0.00019912 -0.00326694 0.06665016 0.00015064 -0.00951225 0.07424266 9.833E-05 -0.02248568 0.07144666 9.523E-05 -0.00227502 0.0631079 1.746E-05 0.00056611 0.06284146 0.00027478 0.00281694 0.06427264 0.00019678 -0.06015268 0.04465595 0.00011026 -0.05061092 0.04858399 7.3E-07 -0.05083725 0.04565013 0 -0.04393197 0.04318979 -8E-08 -0.07493585 -0.00020315 0.00011701 -0.04859083 0.04263846 -4E-08 -0.0422826 0.04731419 -1.5E-07 -0.04485809 0.05063934 -4.9E-07 -0.03471722 0.06629673 8.608E-05 -0.06819193 0.03112888 0.00017308 -0.04804731 0.05077179 0 -0.05370231 0.05214644 0.00017145 -0.04363887 0.06099376 0.00027174 -0.0735397 0.0150692 0.00029828 -0.06629673 -0.03471722 8.608E-05 -0.05063934 -0.04485809 -4.9E-07 -0.05077179 -0.04804731 0 -0.00290126 -0.0642717 5.386E-05 -0.04263846 -0.04859083 -3E-08 -0.04318979 -0.04393197 -7E-08 -0.0714549 -0.02251733 0.00012938 -0.04731419 -0.0422826 -1.5E-07 -0.04565013 -0.05083725 -0 -0.04464665 -0.06016482 0.00012275 -0.04858399 -0.05061092 7.3E-07 -0.03112889 -0.06819192 0.00017306 -0.06102613 -0.04356252 0.00022397 -0.05214641 -0.05370235 0.00017146 -0.01624578 -0.07314987 0.00015851 0.00326706 -0.06665003 0.00015054 0.00227343 -0.06311085 2.119E-05 -0.00056544 -0.06284152 0.00027497 -0.00318035 -0.06667507 0.00028443 0.00719474 -0.07460134 0.00014536 0.00125366 -0.0690636 0.00019912 -0.0016998 -0.06875283 0.00016523 -0.00459743 -0.07468821 0.00016902 0.0188393 -0.07244951 0.00020711 0.02992335 -0.06869621 0.00016256 0.04349908 -0.06100076 0.0001581 0.04485808 -0.05063934 -2.9E-07 0.04804731 -0.05077179 -0 0.05639263 -0.04955015 0.00025468 0.0710688 -0.0237769 0.00012862 0.04582902 -0.04228594 -3E-08 0.04250859 -0.04525082 -1.6E-07 0.0427411 -0.04839627 -0 0.05061092 -0.04858399 6.9E-07 0.06138728 -0.04281537 9.463E-05 0.05053168 -0.04434766 7.1E-07 0.06636254 -0.03457577 0.00016906 0.07246841 0.01892735 0.00028628 0.07447795 -0.0084454 0.00020109 -0.07426984 -0.00955345 0.00011231 -0.07459377 0.0064023 0.01224246 -0.07450696 0.00720476 0.00933793 -0.074737 0.00466694 0.01448459 -0.0748577 0.00165879 0.0160029 -0.07484669 -0.00205622 0.01587836 -0.07468523 -0.00470973 0.01436282 -0.07451828 -0.00684898 0.01139895 -0.0745438 -0.00686556 0.00649713 -0.07472652 -0.00452784 0.0033721 -0.07485597 -0.00183753 0.00203388 -0.07483014 0.0016787 0.00204344 -0.07469739 0.00467679 0.00352928 -0.07452057 0.00679224 0.00663346 -0.0026753 0.06431544 0.00053737 0.0026753 -0.06431544 0.00053737 0.00037927 0.07511318 0.00056252</float_array>
          <technique_common>
            <accessor source="#pos_0-array" count="981" stride="3">
              <param name="X" type="float"/>
              <param name="Y" type="float"/>
              <param name="Z" type="float"/>
            </accessor>
          </technique_common>
        </source>
        <source id="norm_0">
          <float_array id="norm_0-array" count="1998">-0 0 1 0 -0 1 -4E-05 4E-05 1 4E-05 -4E-05 1 4E-05 1E-05 1 -4E-05 -1E-05 1 -0 -0 1 -0 1E-05 1 -0 -0 1 -2E-05 3E-05 1 -1E-05 -1E-05 1 -0 1E-05 1 0 0 1 -1E-05 -0 1 -1E-05 -0 1 -1E-05 -1E-05 1 1E-05 2E-05 1 1E-05 1E-05 1 1E-05 0 1 -2E-05 -1E-05 1 1E-05 1E-05 1 0 0 1 1E-05 -0 1 1E-05 -0 1 2E-05 -1E-05 1 -1E-05 0 1 1E-05 0 1 0 -1E-05 1 0 -1E-05 1 2E-05 0 1 -1E-05 5E-05 1 3E-05 -2E-05 1 -1E-05 -2E-05 1 -1E-05 -1E-05 1 0 1E-05 1 3E-05 -2E-05 1 -1E-05 0 1 -2E-05 1E-05 1 -0.99639 0.08488 0.00096 -0.99699 0.07753 -0.00192 -1 0.00157 1E-05 -0.99999 -0.00326 0.00145 -0.99856 -0.05357 -0.00287 -0.99475 -0.10232 -0.00027 -0.99738 -0.07232 0.00116 -0.19014 -0.23102 0.95419 0.19869 -0.51439 -0.83422 0.02275 -0.0192 0.99956 -0.02275 0.0192 0.99956 0.24336 0.39219 -0.88711 -0.01534 0.00295 0.99988 0.01359 0.02992 0.99946 0.00165 0.00353 0.99999 -0.02004 -0.01997 0.9996 0.0007 -0.00065 1 0.00114 -0.00173 1 -0.01511 -0.00357 0.99988 -0.05755 -0.0266 0.99799 -0.05823 -0.02535 0.99798 -0.07412 -0.03226 0.99673 -0.01044 -0.00076 0.99995 -0.00827 0.00219 0.99996 -0.00917 0.00888 0.99992 -0.09811 0.03909 0.99441 0.02709 0.0477 0.99849 0.01726 0.02302 0.99959 -0.00308 -0.00199 0.99999 -0.03755 -0.01588 0.99917 -0.01536 0.01615 0.99975 -0.01704 0.02291 0.99959 0.0005 -0.00083 1 0.00202 -0.00167 1 -0.00817 0.01376 0.99987 0.00195 0.0064 0.99998 -0.01485 0.00832 0.99986 0.00831 0.01882 0.99979 0.02405 0.04232 0.99881 0.00589 0.01615 0.99985 0.02004 0.01997 0.9996 -0.02511 -0.02526 0.99937 -0.00069 0.00064 1 -0.00114 0.00173 1 0.02579 0.02604 0.99933 0.0104 -0.02275 0.99969 0.01565 0.00383 0.99987 0.05755 0.0266 0.99799 0.04832 0.02103 0.99861 0.07412 0.03226 0.99673 0.00936 6E-05 0.99996 0.00812 -0.00165 0.99997 0.00908 -0.00879 0.99992 0.09884 -0.03928 0.99433 -0.02691 -0.0424 0.99874 -0.05191 -0.10607 0.993 -0.04711 -0.02386 0.9986 0.03859 -0.10398 0.99383 0.0169 -0.01603 0.99973 0.04243 0.02905 0.99868 0.01062 0.01464 0.99984 -0.00201 0.00165 1 0.00842 -0.01128 0.9999 -0.00052 0.00083 1 0.00609 -0.01009 0.99993 -0.00019 -0.01027 0.99995 -0.00378 -0.01373 0.9999 -0.03829 -0.06327 0.99726 -0.69399 0.40451 0.5956 -0.60564 -0.55399 0.57122 -0.76976 0.13931 0.62294 0.00835 -0.72718 0.68639 0.01637 -0.74121 0.67107 -0.52679 -0.53092 0.66379 0.39312 -0.61387 0.68455 0.4108 -0.66018 0.62881 -0.42523 -0.6916 0.58384 -0.39439 -0.61196 0.68554 0.07045 -0.72336 0.68687 0.01005 -0.46217 0.88673 0.82344 0.03291 0.56645 0.64887 0.12174 0.75109 0.45567 -0.38922 0.80054 0.62428 0.40094 0.67047 0.56138 0.37597 0.73722 0.74453 -0.2438 0.62148 0.69352 -0.42698 0.58028 0.65522 -0.41288 0.63262 0.57984 0.54997 0.6011 0.62772 -0.07566 0.77476 0.78404 -0.00231 0.62071 -0.00856 0.72722 0.68636 -0.01635 0.74084 0.67148 0.52679 0.53092 0.66379 -0.39454 0.61353 0.68405 -0.37947 0.57574 0.72425 -0.74452 0.2438 0.6215 0.42523 0.6916 0.58384 0.39439 0.61196 0.68554 -0.07045 0.72336 0.68687 -0.01005 0.46217 0.88673 -0.82343 -0.03293 0.56646 -0.64886 -0.12174 0.7511 -0.45568 0.38922 0.80054 -0.62428 -0.40094 0.67046 -0.56139 -0.37597 0.73722 -5E-05 -6E-05 -1 -9E-05 -4E-05 -1 7E-05 -5E-05 -1 5E-05 6E-05 -1 9E-05 4E-05 -1 -7E-05 5E-05 -1 -0.64466 -0.48184 0.5935 -0.46735 -0.28922 0.83542 -0.78372 -0.35319 0.51091 -0.52536 -0.16491 0.83475 -0.68432 0.07922 0.72486 -0.65743 0.21277 0.72285 -0.56643 0.17267 0.80582 -0.76722 0.35282 0.53562 -0.47774 0.30784 0.8228 -0.62034 0.452 0.64099 -0.30442 0.50446 0.80799 -0.30047 0.49606 0.81465 -0.33647 0.78325 0.52279 -0.12426 0.5189 0.84576 -0.12966 0.56487 0.81493 -0.07839 0.84994 0.52101 0.03734 0.55313 0.83226 0.20019 0.60103 0.77375 0.35331 0.7675 0.53489 0.30738 0.47806 0.82279 0.45641 0.62414 0.63414 0.48315 0.3226 0.81394 0.54205 0.18682 0.81932 0.84374 0.18456 0.50402 0.56833 0.05998 0.82061 0.69332 -0.08983 0.71501 0.64931 -0.21013 0.73092 0.56876 -0.17453 0.80378 0.76723 -0.35282 0.53561 0.47774 -0.30784 0.8228 0.62035 -0.45201 0.64098 0.30442 -0.50446 0.80799 0.30046 -0.49605 0.81465 0.33648 -0.78326 0.52277 0.12424 -0.51887 0.84578 0.12964 -0.5648 0.81498 0.0784 -0.85005 0.52084 -0.03734 -0.55307 0.8323 -0.19999 -0.60023 0.77442 -0.35282 -0.76723 0.53561 -0.30794 -0.47823 0.82248 -0.45232 -0.62094 0.64019 -0.83638 0.54814 -0.00395 -0.85419 0.51507 0.0712 0.51719 -0.85563 0.02045 0.52215 -0.85283 0.00704 -0.52203 -0.85292 -0.00265 -0.48712 -0.86893 0.08759 0.95637 -0.29026 -0.03318 0.84476 -0.5322 0.05611 0.66376 -0.74685 -0.04039 0.3545 -0.92734 0.11988 -0.02832 -0.9948 -0.0978 0.98327 0.17886 -0.03458 0.9983 0.0204 0.05461 0.85248 0.52235 0.02052 0.83381 0.54961 -0.05183 0.94581 -0.31661 0.07212 0.84997 -0.52631 0.0236 0.84946 -0.52722 0.02129 0.45321 0.89057 -0.03866 0.64309 0.76279 0.06772 0.86904 0.4894 -0.07243 0.99289 -0.11328 -0.03659 0.99406 0.05941 0.09124 -0.02826 0.99944 -0.0177 0.04051 0.99874 0.02962 -0.51768 0.85532 0.02087 -0.54326 0.83788 -0.0531 -0.94581 0.31661 0.07212 0.52203 0.85292 -0.00265 0.48712 0.86893 0.08759 -0.95637 0.29026 -0.03318 -0.84476 0.5322 0.05611 -0.66376 0.74685 -0.04039 -0.3545 0.92734 0.11988 0.02832 0.9948 -0.0978 -0.98327 -0.17886 -0.03458 -0.9983 -0.0204 0.05461 -0.85248 -0.52235 0.02052 -0.83381 -0.54961 -0.05183 0.00013 0 1 -0.00045 -0.00016 1 0.00022 0.0003 1 0.00025 0.00025 1 0.00012 -0.00041 1 -0.00016 -0.00019 1 -0.00014 -0.00016 1 -0.00067 0.00098 1 0.00013 0.00074 1 -6E-05 0.00071 1 -8E-05 0.00049 1 0.00015 -0.00029 1 8E-05 4E-05 1 -0.0009 -6E-05 1 -0.00049 -8E-05 1 -0 0.00013 1 -0.00092 0.00011 1 -8E-05 0.00012 1 8E-05 0.00013 1 5E-05 7E-05 1 0.00022 -7E-05 1 -0.00011 5E-05 1 0.00019 -0.00015 1 -0.00127 -0.00105 1 0.00027 7E-05 1 -0.0001 -0 1 -0.00035 -9E-05 1 0.00014 -0.0002 1 -0.00032 0 1 0.00011 -0.00012 1 0.00017 -0.00012 1 8E-05 -0.00028 1 -0.00028 -9E-05 1 -0.00023 -0.00031 1 -8E-05 0.00046 1 0.00017 0.00027 1 9E-05 0.00019 1 0.00011 -0.00012 1 0.00016 -0.00011 1 -0.00041 0.00041 1 0.0009 6E-05 1 0.00127 0.00105 1 0 -0.00013 1 0.00014 -0.00015 1 -0.00026 0.00011 1 0.00092 -0.00011 1 0.00049 8E-05 1 0.0001 0 1 -0.00027 -7E-05 1 -0.0002 0.00012 1 4E-05 -7E-05 1 -2E-05 -0.00017 1 0.00014 -0.00016 1 0.00028 -0.00304 -1 0.02336 0.02737 -0.99935 -0.00059 0.0004 -1 -0.05279 -0.04709 -0.99749 0.00475 -0.00516 -0.99998 0.0107 0.01724 -0.99979 0.00287 0.01241 -0.99992 0.01743 0.01017 -0.9998 -0.00031 0.01743 -0.99985 0.02591 0.02182 -0.99943 0.02552 0.02205 -0.99943 0.0161 -0.00058 -0.99987 -0.00576 0.00377 -0.99998 0.00834 0.00132 -0.99996 0.00782 -0.02706 -0.9996 0.01628 0.0065 -0.99985 0.01318 0.04125 -0.99906 -0.03372 -0.00144 -0.99943 -0.01099 0.00456 -0.99993 -0.00053 -0.0203 -0.99979 0.09207 0.02023 -0.99555 0.04058 0.00848 -0.99914 -0.02007 0.00102 -0.9998 0.00146 -0.00569 -0.99998 -0.01196 0.00117 -0.99993 0.00034 -0.00294 -1 0.00254 0.00187 -0.99999 -0.00217 0.00694 -0.99997 0.00944 -0.00379 -0.99995 -0.01211 0.00255 -0.99992 -0.00615 -0.00457 -0.99997 -0.01131 0.00422 -0.99993 0.13456 -0.0988 -0.98597 7E-05 0.00548 -0.99998 -0.01877 0.02166 -0.99959 -0.02134 0.02396 -0.99949 0.01146 -0.0017 -0.99993 -0.0665 0.07705 -0.99481 -0.08112 0.01924 -0.99652 -0.00548 7E-05 -0.99998 0.00142 0.00016 -1 0.00516 0.01285 -0.9999 -0.00128 -0.0133 -0.99991 -0.00437 -0.01363 -0.9999 0.00457 -0.00615 -0.99997 -0.00255 0.00343 -0.99999 -0.00445 0.00167 -0.99999 -0.02166 -0.01877 -0.99959 -0.02581 -0.0234 -0.99939 -0.05535 -0.04853 -0.99729 -0.00828 -0.00208 -0.99996 -0.00277 -0.01046 -0.99994 -0.00327 -0.00687 -0.99997 0.08481 -0.0126 -0.99632 -0.08787 0.01238 -0.99606 0.06024 -0.10225 -0.99293 -0.01564 -0.00708 -0.99985 0.10949 -0.0252 -0.99367 -0.01387 0.04742 -0.99878 0.00077 -0.00102 -1 0.01085 -0.00594 -0.99992 -0.00206 0.0075 -0.99997 -0.00472 -0.00168 -0.99999 0.00572 -0.00227 -0.99998 -0.00295 -0.00316 -0.99999 -0.00054 -0.01521 -0.99988 0.03502 -0.03101 -0.99891 0.00319 0.0026 -0.99999 2E-05 2E-05 -1 -9E-05 -6E-05 -1 0.03672 -0.04271 -0.99841 0.03549 -0.05004 -0.99812 -0.00626 -0.00405 -0.99997 -0.00516 -0.00475 -0.99998 0.009 -0.01646 -0.99982 0.00863 0.00016 -0.99996 0.00806 0.00416 -0.99996 0.01771 -0.01146 -0.99978 0.00201 0.00422 -0.99999 0.01114 0.00497 -0.99993 0.15676 0.04268 -0.98671 0.00371 0.0039 -0.99999 -0.0041 -0.00061 -0.99999 -0.00139 0.00068 -1 -0.00101 0.00043 -1 0.00198 -0.00133 -1 0.00245 -0.00551 -0.99998 -0.00125 -0.00056 -1 -0.00219 -0.00179 -1 0.01315 0.02341 -0.99964 0.71101 0.70201 0.04049 0.31911 0.94709 -0.03451 0.02406 0.99911 0.03451 -0.42803 0.90286 -0.04049 -0.70201 0.71101 0.04049 -0.94709 0.31911 -0.03451 -0.99911 0.02406 0.03451 -0.90286 -0.42803 -0.04049 -0.71101 -0.70201 0.04049 -0.31911 -0.94709 -0.03451 -0.02406 -0.99911 0.03451 0.42803 -0.90286 -0.04049 0.70201 -0.71101 0.04049 0.94709 -0.31911 -0.03451 0.99911 -0.02406 0.03451 0.90286 0.42803 -0.04049 0.76497 0.6408 0.06471 0.68102 0.73195 -0.02144 0.81326 0.58182 -0.00973 0.90229 0.43112 0.00207 0.91839 0.39189 0.05459 0.9891 0.13205 0.0652 0.97009 0.24222 -0.01596 0.99883 0.03667 -0.03151 0.98365 -0.17401 0.04644 0.98131 -0.19108 0.02275 0.89943 -0.43281 0.06084 0.92531 -0.37917 -0.00538 0.83771 -0.54278 -0.06022 0.82015 -0.57091 -0.0377 0.66702 -0.74502 0.00469 0.73665 -0.67305 0.06592 0.60312 -0.79705 0.03103 0.72141 -0.69226 0.01854 0.57001 -0.82158 -0.00962 0.41675 -0.90858 0.02837 0.4007 -0.91501 0.0468 0.319 -0.94769 -0.01143 0.19258 -0.98028 0.04434 0.16274 -0.98656 0.01442 -0.05784 -0.99749 0.04073 -0.02859 -0.99959 -0.00022 -0.36129 -0.92939 0.07553 -0.27167 -0.96216 -0.02096 -0.44983 -0.89277 -0.02455 -0.65138 -0.75839 0.02352 -0.64659 -0.7627 0.01409 -0.68193 -0.73136 0.0089 -0.81309 -0.58185 0.01849 -0.82049 -0.57069 0.03315 -0.90224 -0.43111 -0.01014 -0.93285 -0.35445 0.0645 -0.96965 -0.24219 -0.03362 -0.99861 -0.03677 0.03785 -0.9987 -0.04288 0.02746 -0.97748 0.20918 0.02806 -0.98185 0.1896 0.00494 -0.89839 0.43518 0.05926 -0.92527 0.37925 -0.00642 -0.83771 0.54278 -0.06022 -0.82015 0.57091 -0.0377 -0.66702 0.74502 0.00469 -0.73665 0.67305 0.06592 -0.60312 0.79705 0.03104 -0.72142 0.69225 0.01854 -0.57038 0.82133 -0.00916 -0.39925 0.91577 0.04437 -0.39556 0.91709 0.04973 -0.21817 0.97555 -0.0265 -0.06308 0.99334 0.09644 -0.10353 0.99403 0.03451 0.147 0.98849 0.03584 0.10574 0.99436 -0.00779 0.36439 0.92991 0.04995 0.29917 0.95409 -0.01439 0.48159 0.87631 -0.01199 0.5807 0.81319 0.03874 0.56266 0.82663 0.00953 0.74205 0.67033 0.00435 0.0058 -0.96392 -0.26613 -0.01136 -0.7904 -0.61248 -0.03808 -0.70871 -0.70447 0.01012 -0.45089 -0.89252 -0.01628 0.018 -0.99971 -0.02081 0.03343 -0.99922 0.00265 0.49608 -0.86828 0.006 0.811 -0.58502 -0.01752 0.6046 -0.79634 -0.03468 0.93746 -0.34637 0.02015 0.99979 -0.00349 -0.04147 0.91818 0.39398 0.00402 0.80085 0.59885 -0.01912 0.46886 0.88306 -0.0134 0.44481 0.89552 -0.01221 -0.00263 0.99992 -0.00183 -0.04281 0.99908 0.00539 -0.44424 0.89589 0.01331 -0.82664 0.56258 -0.03564 -0.64217 0.76573 -0.03837 -0.99857 0.03718 -0.01235 -0.98848 0.15084 0.27897 0.7343 0.61886 -0.87055 -0.48653 -0.07368 -0.99909 0.01608 0.03944 -0.99371 -0.05981 0.09466 0.02809 -0.99945 -0.01754 -0.04043 -0.99874 0.02963 -0.45321 -0.89057 -0.03866 -0.64309 -0.76279 0.06772 0.37435 0.92187 0.10011 -0.8088 -0.58796 -0.01153 -0.87291 -0.48549 -0.04837 -0.92076 0.38994 0.01202 -0.98432 0.15689 -0.08059 -0.53598 0.84401 0.01947 -0.00551 0.99689 -0.07862 0.41717 0.90693 0.05866 0.99416 0.0923 -0.05596 0.96739 0.22631 -0.11375 0.76711 -0.6406 0.03416 0.19378 -0.97685 -0.09058 -0.10461 -0.99451 0.00356 -0.99416 -0.0923 -0.05596 -0.96738 -0.22636 -0.11378 -0.76711 0.64061 0.03416 -0.19378 0.97685 -0.09058 0.10461 0.99451 0.00356 0.81402 0.58072 -0.01167 0.873 0.48554 -0.046 0.92075 -0.38993 0.01346 0.98809 -0.12354 -0.09173 0.52098 -0.85341 0.01633 0.00551 -0.99689 -0.07862 -0.41722 -0.90691 0.05865 -0.79694 -0.60335 0.02932 -0.58675 0.80924 0.02937 -0.75775 0.65243 0.01194 -0.65947 0.75059 -0.04144 -0.74512 0.66683 -0.0113 -0.80934 -0.58668 0.02776 -0.65269 -0.75754 0.01182 -0.75175 -0.65811 -0.04212 -0.66684 -0.74512 -0.01109 0.58685 -0.80938 0.02264 0.66333 -0.74648 -0.05262 0.80313 -0.59577 -0.00622 0.74487 -0.66663 0.02786 0.60875 0.79317 0.0177 0.66236 0.74855 -0.03103 0.7446 0.6675 0.00294 0.75919 0.65074 -0.01308 -0.99425 0.10592 -0.01555 -0.99398 0.10891 -0.01161 -0.99351 0.11375 0.00173 -0.99433 0.10488 0.01766 -0.99883 0.00721 0.04777 -0.9992 0.03309 0.02251 -0.99389 0.09159 -0.06153 -0.99469 -0.10145 0.01719 -0.99624 -0.08639 -0.00638 -0.99702 -0.071 -0.03022 -0.99887 -0.0475 0.00112 -0.99115 0.08934 0.09822 -0.99198 0.08592 0.09274 -0.99994 -0.00259 -0.01099 -0.99288 -0.08264 0.08577 -0.99485 -0.08861 0.04915 -0.74699 0.66414 -0.03031 -0.52456 0.85136 0.00391 -0.51104 0.85953 -0.00669 -0.39206 0.91984 -0.01327 -0.38798 0.92152 -0.01643 -0.22951 0.97329 -0.00543 -0.21064 0.9774 -0.01807 -0.0884 0.99608 -0.00183 -0.08756 0.99616 -0.00228 0.10745 0.99418 0.00727 0.10283 0.99464 0.01125 0.21952 0.97545 -0.01742 0.27215 0.96218 0.01167 0.42007 0.90728 -0.01943 0.40137 0.91591 -0.00179 0.52099 0.85326 -0.02265 0.58615 0.80997 0.01942 0.63092 0.77574 0.01253 -0.99295 0.11853 -0.00312 -0.95774 0.28764 -0.00145 -0.94858 0.31569 -0.02321 -0.90751 0.41995 0.00759 -0.85928 0.51053 -0.03172 -0.80862 0.58802 0.01918 -0.95704 0.28483 0.05418 -0.79896 -0.60095 0.02281 -0.85869 -0.51201 -0.02214 -0.91155 -0.41119 8E-05 -0.92094 -0.38932 -0.01707 -0.97471 -0.22342 -0.00558 -0.97715 -0.21219 -0.01229 -0.99348 -0.11385 0.00541 -0.99341 -0.11446 0.00556 0.73671 -0.67534 -0.03418 0.52459 -0.85136 -0.0001 0.49299 -0.8697 -0.02418 0.39217 -0.91987 0.0061 0.32054 -0.94691 -0.02481 0.22948 -0.97331 0.00281 0.18178 -0.98317 -0.01833 0.08845 -0.99605 0.00719 0.00731 -0.99965 -0.02535 -0.1074 -0.99418 0.00891 -0.13092 -0.99138 -0.00515 -0.272 -0.96227 0.0072 -0.31599 -0.94848 -0.02313 -0.41995 -0.90751 0.00759 -0.51024 -0.85945 -0.03159 -0.58789 -0.80871 0.01936 -0.29263 -0.95471 0.05382 0.74285 0.66917 -0.01982 0.86409 0.50333 0.00297 0.87017 0.49272 -0.00521 0.90973 0.41494 0.01463 0.94568 0.32414 -0.02495 0.97687 0.21368 0.00842 0.98392 0.17795 -0.0153 0.99996 0.00767 -0.00408 0.99991 -0.00729 -0.01145 0.99594 -0.08758 0.02088 0.97569 -0.21681 -0.03201 0.95763 -0.28793 0.0067 0.9073 -0.41997 -0.0207 0.91672 -0.39952 -0.00161 0.85593 -0.51664 -0.02164 0.80869 -0.58807 0.0142 0.89705 -0.43845 0.05536 0.12116 0.42616 -0.8965 0.95659 0.26316 0.12526 -0.95596 -0.26368 0.12892 -0.1205 -0.4247 -0.89728 0.00367 0.43776 -0.89908 -0.99222 -0.11742 0.04146 -0.98856 0.14627 -0.03693 -0.59763 0.80121 0.02996 -0.35074 0.9358 -0.03544 0.0769 0.99673 0.02474 0.59185 0.80524 -0.03605 0.76052 0.64904 0.01883 0.99972 -0.0187 -0.01424 0.99911 -0.04149 -0.0072 0.6121 -0.79028 0.02812 0.42083 -0.90611 -0.0431 -0.37104 -0.92781 0.03868 -0.61513 -0.78744 -0.03936 -0.93523 -0.35053 -0.04965 -0.99922 -0.01869 0.03493 -0.80524 0.59185 -0.03605 -0.64904 0.76052 0.01883 0.0187 0.99972 -0.01424 0.04149 0.99911 -0.0072 0.72703 0.68616 0.02477 0.90597 0.42079 -0.04641 0.997 0.0737 0.02383 0.7971 -0.60324 -0.02713 0.66572 -0.74555 0.03116 -0.13926 -0.98965 -0.03452 -0.40101 -0.91467 0.05075 -0.76052 -0.64904 0.01883 -0.99972 0.0187 -0.01424 -0.99911 0.04149 -0.0072 -0.68616 0.72703 0.02477 -0.42079 0.90597 -0.04641 -0.0737 0.997 0.02383 0.53997 0.8414 -0.02189 0.74541 0.66559 0.03683 0.95858 0.28283 -0.03373 0.9147 -0.40103 0.04995 0.79079 -0.61143 -0.02815 0.04149 -0.99911 0.0072 0.0187 -0.99972 0.01424 -0.64904 -0.76052 -0.01883 -0.79028 -0.6121 0.02812 -0.90611 -0.42083 -0.0431 -0.92781 0.37104 0.03868 -0.78744 0.61513 -0.03936 -0.11742 0.99222 0.04146 0.14627 0.98856 -0.03693 0.80121 0.59763 0.02996 0.9358 0.35074 -0.03544 0.99673 -0.0769 0.02474 0.80524 -0.59185 -0.03605 0.64904 -0.76052 0.01883 -0.0187 -0.99972 -0.01424 -0.04149 -0.99911 -0.0072</float_array>
          <technique_common>
            <accessor source="#norm_0-array" count="1998" stride="3">
              <param name="X" type="float"/>
              <param name="Y" type="float"/>
              <param name="Z" type="float"/>
            </accessor>
          </technique_common>
        </source>
        <vertices id="vert_0">
          <input semantic="POSITION" source="#pos_0"/>
        </vertices>
        <triangles count="666" material="mat_0">
          <input semantic="VERTEX" source="#vert_0" offset="0"/>
          <input semantic="NORMAL" source="#norm_0" offset="1"/>
          <p>0 0 1 0 2 0 1 1 0 1 3 1 3 2 4 2 1 2 0 3 2 3 5 3 1 4 4 4 6 4 0 5 5 5 7 5 8 6 9 6 10 6 8 7 10 7 11 7 11 8 10 8 12 8 11 9 12 9 13 9 14 10 15 10 8 10 8 11 15 11 9 11 16 12 17 12 18 12 16 13 18 13 19 13 16 14 20 14 17 14 14 15 21 15 15 15 14 16 22 16 23 16 14 17 23 17 21 17 24 18 25 18 14 18 14 19 25 19 22 19 19 20 26 20 27 20 27 21 26 21 28 21 13 22 29 22 11 22 11 23 29 23 16 23 16 24 29 24 20 24 24 25 30 25 31 25 24 26 31 26 25 26 28 27 32 27 27 27 27 28 32 28 33 28 19 29 18 29 34 29 32 30 35 30 33 30 33 31 35 31 36 31 19 32 34 32 37 32 19 33 37 33 38 33 19 34 38 34 26 34 33 35 36 35 39 35 33 36 39 36 24 36 24 37 39 37 30 37 40 38 41 38 42 38 40 39 42 39 43 39 43 40 44 40 40 40 45 41 40 41 44 41 46 42 45 42 44 42 46 43 47 43 48 43 46 44 48 44 45 44 49 45 50 45 51 45 52 46 53 46 54 46 55 47 56 47 57 47 58 48 59 48 60 48 61 49 62 49 63 49 64 50 65 50 66 50 64 51 66 51 67 51 64 52 67 52 68 52 69 53 64 53 70 53 71 54 60 54 72 54 72 55 60 55 73 55 71 56 74 56 75 56 64 57 69 57 74 57 65 58 64 58 71 58 71 59 64 59 74 59 71 60 75 60 76 60 76 61 77 61 71 61 60 62 71 62 77 62 60 63 77 63 58 63 78 64 79 64 80 64 79 65 61 65 63 65 81 66 82 66 79 66 79 67 82 67 80 67 83 68 84 68 85 68 85 69 84 69 78 69 78 70 86 70 85 70 85 71 86 71 87 71 78 72 84 72 88 72 78 73 88 73 89 73 78 74 89 74 90 74 91 75 61 75 78 75 79 76 78 76 61 76 78 77 90 77 91 77 92 78 93 78 94 78 93 79 95 79 96 79 97 80 57 80 98 80 98 81 57 81 99 81 93 82 96 82 100 82 93 83 100 83 101 83 97 84 102 84 103 84 93 85 92 85 102 85 95 86 93 86 97 86 97 87 93 87 102 87 103 88 104 88 97 88 104 89 105 89 97 89 57 90 97 90 105 90 57 91 105 91 55 91 106 92 107 92 108 92 109 93 51 93 107 93 107 94 51 94 50 94 52 95 54 95 110 95 52 96 110 96 111 96 108 97 107 97 112 97 112 98 107 98 113 98 110 99 114 99 115 99 110 100 54 100 106 100 110 101 106 101 114 101 106 102 54 102 116 102 106 103 116 103 117 103 117 104 109 104 106 104 107 105 106 105 109 105 118 106 113 106 107 106 119 107 50 107 49 107 119 108 107 108 50 108 120 109 70 109 121 109 121 110 70 110 64 110 70 111 120 111 49 111 64 112 68 112 121 112 121 113 68 113 122 113 123 114 99 114 124 114 124 115 99 115 57 115 124 116 57 116 125 116 125 117 57 117 56 117 126 118 111 118 110 118 126 119 110 119 127 119 126 120 128 120 111 120 110 121 115 121 127 121 127 122 115 122 129 122 115 123 130 123 129 123 131 124 81 124 132 124 132 125 81 125 79 125 133 126 63 126 134 126 132 127 79 127 133 127 133 128 79 128 63 128 135 129 94 129 136 129 136 130 94 130 93 130 94 131 135 131 134 131 93 132 101 132 136 132 136 133 101 133 137 133 87 134 138 134 139 134 140 135 73 135 141 135 141 136 73 136 60 136 141 137 60 137 142 137 142 138 60 138 59 138 143 139 83 139 85 139 143 140 85 140 144 140 143 141 145 141 83 141 85 142 87 142 144 142 144 143 87 143 139 143 146 144 147 144 148 144 146 145 148 145 149 145 147 146 146 146 150 146 151 147 152 147 153 147 153 148 154 148 151 148 152 149 151 149 155 149 122 150 68 150 156 150 156 151 68 151 67 151 156 152 67 152 157 152 157 153 67 153 66 153 65 154 71 154 158 154 158 155 71 155 72 155 158 156 72 156 159 156 159 157 72 157 160 157 160 158 72 158 73 158 160 159 73 159 140 159 138 160 87 160 86 160 138 161 86 161 161 161 161 162 86 162 162 162 162 163 86 163 78 163 162 164 78 164 163 164 163 165 78 165 164 165 164 166 78 166 80 166 80 167 82 167 165 167 165 168 82 168 166 168 166 169 82 169 81 169 166 170 81 170 131 170 167 171 101 171 100 171 168 172 100 172 96 172 168 173 96 173 169 173 169 174 96 174 95 174 95 175 97 175 170 175 170 176 97 176 98 176 170 177 98 177 171 177 171 178 98 178 172 178 172 179 98 179 99 179 172 180 99 180 123 180 130 181 115 181 114 181 130 182 114 182 173 182 173 183 114 183 174 183 174 184 114 184 106 184 174 185 106 185 175 185 175 186 106 186 176 186 176 187 106 187 108 187 108 188 112 188 177 188 177 189 112 189 178 189 178 190 112 190 113 190 178 191 113 191 118 191 118 192 107 192 179 192 179 193 107 193 180 193 181 194 121 194 182 194 182 195 121 195 122 195 123 196 124 196 183 196 183 197 124 197 184 197 185 198 128 198 126 198 186 199 128 199 185 199 186 200 125 200 128 200 184 201 125 201 186 201 184 202 124 202 125 202 127 203 187 203 126 203 126 204 187 204 185 204 187 205 127 205 188 205 188 206 127 206 129 206 130 207 188 207 129 207 131 208 132 208 189 208 189 209 132 209 190 209 134 210 135 210 191 210 192 211 134 211 191 211 192 212 133 212 134 212 190 213 132 213 133 213 190 214 133 214 192 214 136 215 193 215 135 215 135 216 193 216 191 216 193 217 136 217 194 217 194 218 136 218 137 218 138 219 195 219 139 219 140 220 141 220 196 220 196 221 141 221 197 221 198 222 145 222 143 222 199 223 145 223 198 223 199 224 142 224 145 224 197 225 142 225 199 225 197 226 141 226 142 226 144 227 200 227 143 227 143 228 200 228 198 228 200 229 144 229 195 229 195 230 144 230 139 230 201 231 202 231 203 231 204 232 180 232 205 232 205 233 180 233 206 233 205 234 206 234 207 234 207 235 206 235 208 235 207 236 208 236 181 236 207 237 181 237 203 237 204 238 179 238 180 238 204 239 209 239 179 239 179 240 209 240 201 240 209 241 202 241 201 241 203 242 181 242 182 242 203 243 182 243 201 243 210 244 211 244 183 244 212 245 211 245 210 245 211 246 212 246 213 246 210 247 183 247 214 247 215 248 186 248 216 248 216 249 186 249 185 249 216 250 185 250 187 250 216 251 187 251 213 251 186 252 215 252 184 252 184 253 215 253 214 253 184 254 214 254 183 254 213 255 187 255 188 255 213 256 188 256 211 256 217 257 194 257 218 257 219 258 220 258 190 258 194 259 217 259 221 259 190 260 220 260 189 260 218 261 222 261 217 261 219 262 190 262 192 262 219 263 192 263 223 263 223 264 192 264 224 264 224 265 192 265 191 265 224 266 191 266 193 266 224 267 193 267 221 267 189 268 220 268 222 268 189 269 222 269 218 269 221 270 193 270 194 270 225 271 226 271 196 271 227 272 196 272 197 272 226 273 228 273 229 273 199 274 230 274 197 274 197 275 230 275 227 275 196 276 227 276 225 276 225 277 228 277 226 277 195 278 226 278 229 278 195 279 229 279 200 279 200 280 229 280 231 280 200 281 231 281 198 281 198 282 231 282 199 282 199 283 231 283 230 283 232 284 233 284 234 284 235 285 236 285 237 285 238 286 239 286 240 286 239 287 232 287 234 287 233 288 241 288 242 288 237 289 238 289 243 289 243 290 238 290 244 290 242 291 241 291 245 291 237 292 236 292 238 292 245 293 246 293 235 293 235 294 246 294 236 294 245 295 241 295 246 295 244 296 238 296 240 296 244 297 240 297 247 297 247 298 248 298 249 298 250 299 251 299 252 299 253 300 251 300 254 300 240 301 255 301 256 301 247 302 249 302 250 302 247 303 250 303 252 303 254 304 255 304 240 304 240 305 256 305 248 305 240 306 248 306 247 306 252 307 251 307 253 307 257 308 258 308 259 308 260 309 261 309 262 309 253 310 263 310 264 310 253 311 264 311 265 311 260 312 263 312 253 312 257 313 259 313 266 313 266 314 259 314 262 314 266 315 262 315 261 315 261 316 260 316 253 316 265 317 264 317 267 317 265 318 267 318 258 318 257 319 265 319 258 319 268 320 269 320 257 320 257 321 269 321 265 321 261 322 270 322 266 322 271 323 272 323 273 323 274 324 275 324 276 324 277 325 276 325 278 325 279 326 280 326 281 326 280 327 279 327 282 327 282 328 279 328 275 328 277 329 278 329 272 329 277 330 272 330 271 330 273 331 281 331 271 331 271 332 281 332 280 332 271 333 280 333 283 333 283 334 280 334 284 334 282 335 275 335 274 335 282 336 274 336 285 336 240 337 286 337 287 337 240 338 287 338 288 338 274 339 289 339 285 339 290 340 291 340 286 340 240 341 288 341 274 341 285 342 289 342 292 342 285 343 292 343 293 343 293 344 292 344 291 344 293 345 291 345 290 345 290 346 286 346 240 346 290 347 240 347 294 347 294 348 240 348 295 348 296 349 297 349 298 349 296 350 298 350 299 350 300 351 301 351 240 351 240 352 301 352 302 352 240 353 302 353 303 353 298 354 304 354 299 354 299 355 304 355 305 355 240 356 303 356 295 356 295 357 303 357 297 357 295 358 297 358 296 358 305 359 304 359 306 359 305 360 306 360 307 360 307 361 306 361 300 361 300 362 306 362 301 362 233 363 242 363 234 363 234 364 242 364 308 364 309 365 300 365 240 365 254 366 240 366 253 366 253 367 240 367 310 367 253 368 310 368 261 368 239 369 234 369 240 369 240 370 234 370 309 370 310 371 240 371 274 371 310 372 274 372 277 372 277 373 274 373 276 373 1 374 11 374 2 374 2 375 11 375 16 375 2 376 16 376 5 376 5 377 16 377 19 377 5 378 19 378 7 378 7 379 19 379 27 379 7 380 27 380 0 380 0 381 27 381 33 381 0 382 33 382 3 382 3 383 33 383 24 383 3 384 24 384 4 384 4 385 24 385 14 385 4 386 14 386 6 386 6 387 14 387 8 387 6 388 8 388 1 388 1 389 8 389 11 389 35 390 94 390 36 390 36 391 94 391 134 391 94 392 35 392 92 392 92 393 35 393 102 393 102 394 35 394 32 394 28 395 103 395 32 395 32 396 103 396 102 396 103 397 28 397 104 397 104 398 28 398 26 398 104 399 26 399 105 399 38 400 55 400 26 400 26 401 55 401 105 401 38 402 125 402 56 402 38 403 56 403 55 403 37 404 128 404 125 404 37 405 125 405 38 405 34 406 111 406 37 406 37 407 111 407 128 407 34 408 52 408 111 408 18 409 53 409 34 409 34 410 53 410 52 410 18 411 54 411 53 411 54 412 18 412 17 412 54 413 17 413 116 413 20 414 117 414 17 414 17 415 117 415 116 415 29 416 109 416 20 416 20 417 109 417 117 417 109 418 29 418 51 418 13 419 49 419 29 419 29 420 49 420 51 420 13 421 70 421 49 421 70 422 13 422 69 422 69 423 13 423 12 423 69 424 12 424 74 424 74 425 12 425 10 425 10 426 75 426 74 426 75 427 10 427 76 427 76 428 10 428 9 428 15 429 77 429 9 429 9 430 77 430 76 430 21 431 58 431 15 431 15 432 58 432 77 432 21 433 142 433 59 433 21 434 59 434 58 434 23 435 145 435 142 435 23 436 142 436 21 436 22 437 83 437 23 437 23 438 83 438 145 438 22 439 84 439 83 439 25 440 88 440 22 440 22 441 88 441 84 441 25 442 89 442 88 442 89 443 25 443 90 443 90 444 25 444 31 444 30 445 91 445 31 445 31 446 91 446 90 446 39 447 61 447 30 447 30 448 61 448 91 448 61 449 39 449 62 449 36 450 63 450 39 450 39 451 63 451 62 451 36 452 134 452 63 452 41 453 311 453 312 453 41 454 313 454 311 454 313 455 41 455 40 455 40 456 314 456 313 456 45 457 315 457 40 457 40 458 315 458 314 458 45 459 316 459 315 459 48 460 317 460 316 460 48 461 316 461 45 461 47 462 317 462 48 462 47 463 318 463 317 463 46 464 318 464 47 464 318 465 46 465 319 465 44 466 319 466 46 466 44 467 320 467 319 467 43 468 321 468 320 468 43 469 320 469 44 469 43 470 322 470 321 470 42 471 323 471 322 471 42 472 322 472 43 472 41 473 312 473 42 473 42 474 312 474 323 474 137 475 101 475 167 475 206 476 119 476 49 476 180 477 107 477 119 477 180 478 119 478 206 478 121 479 181 479 120 479 120 480 181 480 208 480 49 481 120 481 208 481 206 482 49 482 208 482 167 483 194 483 137 483 146 484 249 484 248 484 146 485 248 485 150 485 150 486 248 486 147 486 147 487 248 487 256 487 147 488 256 488 255 488 147 489 255 489 148 489 148 490 255 490 324 490 148 491 324 491 149 491 149 492 324 492 251 492 149 493 251 493 250 493 149 494 250 494 146 494 146 495 250 495 249 495 153 496 325 496 154 496 154 497 325 497 286 497 154 498 286 498 291 498 154 499 291 499 151 499 151 500 291 500 292 500 151 501 292 501 289 501 151 502 289 502 155 502 155 503 289 503 152 503 152 504 289 504 274 504 152 505 274 505 288 505 152 506 288 506 153 506 153 507 288 507 325 507 182 508 122 508 156 508 226 509 195 509 269 509 257 510 226 510 268 510 268 511 226 511 269 511 257 512 196 512 226 512 201 513 182 513 283 513 280 514 201 514 284 514 284 515 201 515 283 515 280 516 179 516 201 516 211 517 188 517 296 517 299 518 211 518 296 518 305 519 183 519 299 519 299 520 183 520 211 520 189 521 218 521 237 521 237 522 218 522 235 522 235 523 218 523 194 523 235 524 194 524 245 524 270 525 322 525 323 525 270 526 323 526 312 526 312 527 311 527 158 527 158 528 311 528 313 528 320 529 321 529 261 529 321 530 322 530 261 530 261 531 322 531 270 531 317 532 66 532 316 532 310 533 318 533 319 533 310 534 319 534 261 534 261 535 319 535 320 535 65 536 313 536 314 536 158 537 313 537 65 537 65 538 314 538 315 538 65 539 315 539 66 539 66 540 315 540 316 540 195 541 138 541 269 541 269 542 138 542 161 542 269 543 161 543 265 543 265 544 161 544 162 544 265 545 162 545 253 545 253 546 162 546 163 546 253 547 163 547 252 547 252 548 163 548 164 548 252 549 164 549 326 549 326 550 164 550 80 550 326 551 80 551 247 551 247 552 80 552 244 552 244 553 80 553 165 553 244 554 165 554 166 554 244 555 166 555 243 555 243 556 166 556 237 556 237 557 166 557 131 557 237 558 131 558 189 558 312 559 158 559 270 559 270 560 158 560 159 560 270 561 159 561 266 561 266 562 159 562 160 562 266 563 160 563 257 563 257 564 160 564 140 564 257 565 140 565 196 565 182 566 156 566 283 566 283 567 156 567 271 567 271 568 156 568 157 568 271 569 157 569 277 569 277 570 157 570 66 570 277 571 66 571 310 571 310 572 66 572 317 572 310 573 317 573 318 573 188 574 130 574 296 574 296 575 130 575 173 575 296 576 173 576 295 576 295 577 173 577 174 577 295 578 174 578 294 578 294 579 174 579 175 579 294 580 175 580 290 580 290 581 175 581 176 581 290 582 176 582 293 582 293 583 176 583 108 583 293 584 108 584 285 584 285 585 108 585 177 585 285 586 177 586 282 586 282 587 177 587 178 587 282 588 178 588 280 588 280 589 178 589 118 589 280 590 118 590 179 590 194 591 167 591 245 591 245 592 167 592 100 592 245 593 100 593 242 593 242 594 100 594 168 594 242 595 168 595 308 595 308 596 168 596 169 596 308 597 169 597 234 597 234 598 169 598 95 598 234 599 95 599 309 599 309 600 95 600 170 600 309 601 170 601 300 601 300 602 170 602 171 602 300 603 171 603 172 603 300 604 172 604 307 604 307 605 172 605 305 605 305 606 172 606 123 606 305 607 123 607 183 607 255 608 254 608 324 608 324 609 254 609 251 609 325 610 287 610 286 610 288 611 287 611 325 611 326 612 247 612 252 612 205 613 276 613 275 613 205 614 275 614 204 614 204 615 275 615 279 615 204 616 279 616 209 616 209 617 279 617 281 617 209 618 281 618 202 618 202 619 281 619 273 619 202 620 273 620 203 620 203 621 273 621 272 621 203 622 272 622 278 622 203 623 278 623 207 623 207 624 278 624 276 624 207 625 276 625 205 625 214 626 306 626 210 626 210 627 306 627 304 627 210 628 304 628 212 628 212 629 304 629 298 629 212 630 298 630 213 630 213 631 298 631 297 631 213 632 297 632 303 632 213 633 303 633 216 633 216 634 303 634 302 634 216 635 302 635 215 635 215 636 302 636 301 636 215 637 301 637 214 637 214 638 301 638 306 638 217 639 236 639 246 639 217 640 246 640 221 640 221 641 246 641 241 641 221 642 241 642 233 642 221 643 233 643 224 643 224 644 233 644 232 644 224 645 232 645 223 645 223 646 232 646 239 646 223 647 239 647 219 647 219 648 239 648 238 648 219 649 238 649 220 649 220 650 238 650 222 650 222 651 238 651 236 651 222 652 236 652 217 652 229 653 264 653 263 653 229 654 263 654 231 654 231 655 263 655 260 655 231 656 260 656 230 656 230 657 260 657 262 657 230 658 262 658 227 658 227 659 262 659 259 659 227 660 259 660 225 660 225 661 259 661 258 661 225 662 258 662 228 662 228 663 258 663 267 663 228 664 267 664 229 664 229 665 267 665 264 665</p>
        </triangles>
      </mesh>
    </geometry>
  </library_geometries>
  <library_visual_scenes>
    <visual_scene id="DefaultScene">
      <node id="node_6bcfb76c_9a98_4be8_b6f1_c64c36835ab5" type="NODE">
        <matrix>1 0 0 0 0 1 0 0 0 0 1 0 0 0 0 1</matrix>
        <node id="node_a696c631_9db0_48d4_a14e_25ba4d7f4920" type="NODE">
          <matrix>1 0 0 0 0 1 0 0 0 0 1 0 0 0 0 1</matrix>
          <node id="node_a696c631_9db0_48d4_a14e_25ba4d7f4920_mesh0" type="NODE">
            <matrix>1 0 0 0 0 1 0 0 0 0 1 0 0 0 0 1</matrix>
            <instance_geometry url="#geometry_63a8d667_85a2_43f3_82ec_0e7546e5dfda">
              <bind_material>
                <technique_common>
                  <instance_material symbol="mat_0" target="#mat_0"/>
                </technique_common>
              </bind_material>
            </instance_geometry>
          </node>
        </node>
      </node>
    </visual_scene>
  </library_visual_scenes>
  <scene>
    <instance_visual_scene url="#DefaultScene"/>
  </scene>
</COLLADA>
