<?xml version="1.0" encoding="UTF-8"?>
<COLLADA xmlns="http://www.collada.org/2005/11/COLLADASchema" version="1.4.1">
<!--
# File generated by ImageToStl.com - Free Image and 3D model conversion tools
-->
  <asset>
    <contributor>
      <author>ImageToStl.com</author>
      <authoring_tool>ImageToStl.com</authoring_tool>
    </contributor>
    <created>2026-09-30T02:24:58</created>
    <modified>2026-09-30T02:24:58</modified>
    <up_axis>Z_UP</up_axis>
  </asset>
  <library_effects>
    <effect id="effect_0">
        <profile_COMMON>
          <technique sid="common">
            <phong>
              <diffuse>
                <color>0.9 0.9 0.9 1</color>
              </diffuse>
              <specular>
                <color>0.05 0.05 0.05 1</color>
              </specular>
              <shininess>
                <float>64</float>
              </shininess>
            </phong>
          </technique>
        </profile_COMMON>
    </effect>
  </library_effects>
  <library_materials>
    <material id="mat_0">
      <instance_effect url="#effect_0"/>
    </material>
  </library_materials>
  <library_geometries>
    <geometry id="geometry_e2b4af61_8a95_4f24_8747_5592a0ba75bd">
      <mesh>
        <source id="pos_0">
          <float_array id="pos_0-array" count="1125">0.05019693 0.13672142 0.20724784 0.05016726 0.12296972 0.08921255 0.05015633 0.14800902 0.09270312 0.0501574 0.07459332 0.12007798 0.05019582 0.10188146 0.2011359 0.05019545 0.17295378 0.18510146 0.05015651 0.17351183 0.11145683 0.05016444 0.09404823 0.0985534 0.05019493 0.08014663 0.18456987 0.0501823 0.18410966 0.1591136 0.0501535 0.1845794 0.13676991 0.05017529 0.06805842 0.14532495 0.04941081 0.06976521 0.15885471 -0.0367549 0.176879 0.11313768 -0.06129458 0.18705714 0.15791568 -0.04704433 0.18535338 0.13140252 -0.04080177 0.07236549 0.11986654 -0.02743039 0.09111564 0.09784415 -0.0521577 0.0655981 0.14163813 -0.02040732 0.11485415 0.08786146 0.02806877 0.07428809 0.17533943 0.01135787 0.0730437 0.18289421 -0.00015941 0.06878103 0.17323263 -0.06029752 0.06646051 0.15637831 -0.02857431 0.06848873 0.18548286 -0.04521857 0.06957096 0.17833005 -0.05836977 0.07512677 0.18649751 -0.07165034 0.07505783 0.18125874 -0.07872863 0.09562474 0.20088178 -0.08163942 0.11947643 0.20902389 -0.08126807 0.13950123 0.20758575 -0.07852852 0.15899332 0.20004112 -0.07246161 0.17663668 0.1833801 -0.02061715 0.13219021 0.08714472 -0.02741912 0.16126779 0.09782518 -0.04081876 0.18515554 0.17354561 -0.05632094 0.18071873 0.18209006 -0.01972333 0.18550058 0.18526773 0.02527694 0.1818769 0.1691402 0.00348086 0.18668753 0.15312213 0.03728721 0.14734057 0.20361525 0.0373281 0.14019415 0.21442263 0.03907943 0.12997617 0.20774804 0.02494766 0.16498092 0.20596726 0.01300888 0.1767612 0.19336803 0.00221489 0.18126771 0.21463168 0.03368766 0.16018954 0.19762129 0.00473966 0.18174355 0.18509281 0.03073527 0.17467624 0.18266261 0.04075506 0.12191696 0.20661494 0.03406726 0.08498926 0.1898717 0.03832898 0.10196061 0.20150653 0.02977014 0.09232943 0.20141034 0.03496579 0.10789026 0.21440352 0.02316844 0.08718003 0.21403436 0.03707455 0.11155841 0.20725907 0.01337261 0.07647073 0.1938414 -0.00235267 0.07048056 0.2146104 -0.030513 0.06869098 0.21462348 -0.04236324 0.07240209 0.2142839 -0.00950472 0.06892574 0.19624907 -0.05020806 0.07563809 0.20108901 -0.07900195 0.1203533 0.21040118 -0.07723467 0.1097201 0.20873722 -0.07363062 0.09756351 0.20425116 -0.06628555 0.09084614 0.21325028 -0.06758255 0.08705291 0.19879268 -0.06862578 0.16645348 0.19850636 -0.06323175 0.16774514 0.20526405 -0.04435455 0.18103433 0.21462707 -0.04659981 0.18004188 0.1967075 -0.07833008 0.13680848 0.21029365 -0.07500158 0.14960979 0.20746765 -0.01969821 0.18536079 0.21462268 0.02261718 0.16685425 0.21462065 -0.07872443 0.11703852 0.21461898 -0.0730907 0.15473661 0.21462326 -0.09357779 0.09167784 0.1118492 -0.09380424 0.09227188 0.1094469 -0.09380406 0.08882083 0.11100113 -0.09380405 0.0935576 0.11460008 -0.09363241 0.08981596 0.11420508 -0.09080391 0.09152386 0.11000375 -0.09080394 0.08901976 0.11226819 -0.09080406 0.09154205 0.11480267 -0.09080416 0.09429313 0.11305749 -0.08480413 0.09255889 0.11093263 -0.08480413 0.09019187 0.11397685 0.06077686 0.10814279 0.09239078 0.05937713 0.13687092 0.08972182 0.06112161 0.06891844 0.14552563 0.06100778 0.16238268 0.19424935 0.05965766 0.13152486 0.20597112 0.05944061 0.1649572 0.10295471 0.05957515 0.18420047 0.13488817 0.05954503 0.18359014 0.16248892 0.06087016 0.07428774 0.17267297 0.06105356 0.07883587 0.11449286 0.06099203 0.17690434 0.1188397 0.05969048 0.10982399 0.20378442 0.0597614 0.08774284 0.19134934 0.05869586 0.15302631 0.20027646 0.05869586 0.17251787 0.18466 0.05869621 0.11429852 0.09051374 0.05869734 0.08778989 0.10326786 0.05869945 0.06968307 0.13327134 0.0587044 0.07094628 0.16645713 0.05026437 0.18607619 0.15507922 0.050303 0.18021889 0.12325044 0.0502949 0.16132733 0.09955392 0.05034494 0.13447709 0.08955276 0.05024439 0.16470633 0.19383438 0.05013716 0.12187815 0.20706043 0.05019276 0.06861718 0.15832567 0.05030453 0.0778265 0.18028848 0.05030299 0.09241883 0.19566968 0.05024793 0.0734088 0.12101063 0.05029628 0.10474676 0.09228596 -0.0805902 0.14979927 0.20482755 -0.08107808 0.16862687 0.19132648 -0.08432245 0.15073471 0.20332068 -0.07011904 0.18087041 0.17696348 -0.07583787 0.1815872 0.17379352 -0.07643571 0.16789261 0.19307783 -0.08578993 0.12964636 0.20857349 -0.08181477 0.1318678 0.20882136 -0.05708429 0.18788232 0.14925526 -0.07002695 0.18678579 0.15631878 -0.06446153 0.1871345 0.14123698 -0.09891461 0.15667085 0.1158026 -0.09842111 0.15810722 0.11062891 -0.09804355 0.13918695 0.09744105 -0.09086621 0.15796164 0.1125267 -0.09073581 0.16383874 0.10429695 -0.09346652 0.16262564 0.10429922 -0.09250018 0.13855028 0.09192374 -0.09182449 0.1569173 0.09886868 -0.09233965 0.118963 0.09106082 -0.09853838 0.11375412 0.09914307 -0.09074418 0.08955409 0.10415578 -0.09089628 0.09492637 0.11112234 -0.09859073 0.09572545 0.11150847 -0.09594306 0.09233658 0.1066028 -0.09596273 0.10506086 0.09801579 -0.09092489 0.09440196 0.11502451 -0.09869736 0.0944141 0.11571949 -0.09861189 0.09017266 0.11676241 -0.09089097 0.09027726 0.11616745 -0.09672643 0.09612665 0.13242704 -0.09837693 0.12109584 0.14141986 -0.09834804 0.12392574 0.13243262 -0.098113 0.12756181 0.16634828 -0.09808554 0.13543913 0.16588435 -0.09788454 0.11120924 0.14058463 -0.09713475 0.09884302 0.14058593 -0.09772564 0.10901336 0.1662728 -0.09795482 0.11752243 0.16634536 -0.09722222 0.1496945 0.13181251 -0.0978585 0.13826051 0.13229477 -0.09852619 0.13206889 0.15181956 -0.09795903 0.14273621 0.1518916 -0.09755006 0.15021268 0.16546647 -0.0977965 0.14294769 0.16637763 -0.09639257 0.12152834 0.1093442 -0.09640576 0.10297646 0.11679771 -0.09642236 0.08665252 0.13864474 -0.09644246 0.09291339 0.17257451 -0.09643115 0.13944367 0.11091909 -0.09656131 0.15861166 0.12391331 -0.09640995 0.16693889 0.14621283 -0.09643626 0.16361701 0.16580319 -0.09639929 0.1479288 0.18405581 -0.09640633 0.11798967 0.18907586 -0.09856981 0.15920094 0.11606097 -0.09872623 0.17046073 0.14118291 -0.09869424 0.10716171 0.10948765 -0.09873144 0.08777007 0.12698987 -0.09850554 0.09407809 0.1785775 -0.09873745 0.08987246 0.17898455 -0.09758915 0.09444316 0.18009484 -0.09879515 0.09645468 0.18204185 -0.09870569 0.0825234 0.15716322 -0.09849779 0.12875614 0.105129 -0.09871003 0.11435159 0.19173144 -0.09868282 0.13749547 0.19261058 -0.09826703 0.15794092 0.17943852 -0.09871319 0.16851616 0.16499881 -0.0975007 0.15829352 0.18149415 -0.09786186 0.16057885 0.17922109 -0.09093212 0.1582133 0.18398476 -0.09859778 0.15865368 0.18588583 -0.09086622 0.16004987 0.17977586 -0.09086522 0.1634804 0.17966986 -0.09855929 0.16505532 0.1799017 -0.09837869 0.07673562 0.16208428 -0.0984882 0.17568053 0.16482522 -0.09863231 0.07816492 0.13407911 -0.09859516 0.16336364 0.11666439 -0.09831204 0.17759638 0.13555561 -0.09088425 0.16233674 0.11650075 -0.09562477 0.16849415 0.11278167 -0.0907483 0.17043246 0.110589 -0.09149137 0.0982374 0.09793711 -0.09072863 0.0829978 0.11056829 -0.09435418 0.0841932 0.11206746 -0.09553684 0.07870185 0.12075426 -0.09449327 0.08235135 0.18480624 -0.09186469 0.07346597 0.12406355 -0.09348968 0.06930822 0.14271773 -0.09240972 0.06955346 0.16196826 -0.09234607 0.07544458 0.1771833 -0.09067386 0.08154729 0.18625072 -0.09077844 0.09545241 0.1829761 -0.09068365 0.08821573 0.1930925 -0.09091578 0.09113515 0.17911451 -0.09873328 0.09558403 0.18467396 -0.09882508 0.11189722 0.19826467 -0.09845793 0.14426358 0.19802828 -0.094987 0.08991842 0.19170849 -0.09259406 0.12426443 0.2075825 -0.09227 0.10329138 0.20315111 -0.09485455 0.16359375 0.19175971 -0.09239553 0.13856861 0.2065658 -0.09248878 0.15360804 0.20108107 -0.09070407 0.16521493 0.19311273 -0.09058133 0.17196691 0.18631265 -0.09479855 0.1704421 0.18456583 -0.09266286 0.17553444 0.11757176 -0.09186473 0.18142061 0.12783088 -0.09217328 0.18503571 0.14323279 -0.0923696 0.18409219 0.16017494 -0.09300078 0.17846425 0.17594008 -0.04052345 0.11965316 0.08732141 -0.06021855 0.13394469 0.08810681 -0.04172223 0.14517783 0.0898006 -0.06124314 0.15053181 0.09223074 -0.0485023 0.16828597 0.1031747 -0.06699455 0.16872928 0.1044475 -0.07172908 0.18134652 0.12151909 -0.05636775 0.18124473 0.12097179 -0.06268649 0.06696711 0.13611609 -0.0547502 0.07397889 0.11716197 -0.07214966 0.07876848 0.11149085 -0.0469855 0.0886558 0.10043086 -0.06347246 0.09381419 0.09706546 -0.04188548 0.10719586 0.08989893 -0.06906454 0.06612159 0.15346046 -0.08929232 0.06743832 0.15241601 -0.07632421 0.07250313 0.17472777 -0.08091499 0.08425353 0.19080001 -0.08461073 0.10461053 0.20425619 -0.07218525 0.07533364 0.18199562 -0.07845622 0.0929734 0.1988126 -0.08166654 0.11385968 0.20800339 -0.06145674 0.06655963 0.15810262 -0.02657538 0.15927728 0.09599413 -0.03179052 0.08384435 0.10440413 -0.02344814 0.10605619 0.09084854 -0.02095012 0.12980598 0.08702511 -0.04139877 0.18125053 0.1204093 -0.04624983 0.06854562 0.12879109 -0.09357779 0.16246289 0.18261082 -0.09380418 0.16520372 0.1832456 -0.09380388 0.16091131 0.18051076 -0.09362721 0.16235921 0.18584409 -0.09380463 0.15914509 0.18421787 -0.09080392 0.15968843 0.18359372 -0.09080391 0.16273476 0.18084982 -0.09080416 0.16279964 0.18618886 -0.09080409 0.16481842 0.18277539 -0.08480413 0.16356754 0.18180771 -0.08480413 0.16081299 0.18472522 -0.09362517 0.15980013 0.1125073 -0.09364852 0.16421774 0.11168616 -0.09380388 0.16091131 0.10974912 -0.09380394 0.16404474 0.11488868 -0.09080382 0.15968923 0.11346757 -0.09080397 0.16259909 0.11003017 -0.09080385 0.16443628 0.11350885 -0.08480413 0.16095327 0.11116042 -0.08480413 0.16334802 0.11372769 -0.09370115 0.08928838 0.18107189 -0.0936514 0.09030849 0.18562618 -0.0936452 0.09331225 0.18210487 -0.09380397 0.09385964 0.18483475 -0.09080397 0.08909945 0.18468073 -0.09080392 0.09080681 0.18068467 -0.09080386 0.09400448 0.18373337 -0.08480413 0.08978755 0.18223572 -0.08480413 0.09288487 0.18406239 0.00690918 0.17896202 0.51037753 -0.02199014 0.18578994 0.51045108 -0.06245934 0.08579036 0.51232022 -0.05796712 0.17181394 0.51232022 -0.07665284 0.14497389 0.51006454 -0.0279103 0.06831629 0.51072043 0.03838685 0.12054764 0.51069081 0.02241365 0.08556943 0.51063979 0.03285894 0.15256949 0.51050252 0.00280661 0.07241343 0.51028258 -0.07831392 0.12112365 0.51232022 0.03837366 0.13324103 0.50970572 0.0219418 0.16843054 0.50969702 -0.04427436 0.18126729 0.50967431 -0.06567381 0.16481158 0.50969833 -0.07450625 0.10230856 0.5097537 -0.05955558 0.08250768 0.50972509 -0.04430877 0.07269961 0.50967801 0.03393793 0.10309517 0.50973636 -0.03467097 0.06974674 0.21232018 0.03849174 0.1211189 0.2144112 0.02802774 0.09335402 0.21383239 -0.06835055 0.09213983 0.21417111 -0.07218222 0.15432048 0.2136156 -0.05770199 0.17210607 0.21419871 -0.07973218 0.12883241 0.21400702 -0.01724815 0.18617001 0.21415719 0.01021697 0.17692363 0.21232018 0.03717537 0.14115366 0.21413437 0.00122823 0.07133261 0.21410641 0.02122639 0.16909645 0.21486115 0.0031854 0.18165414 0.21491435 -0.03884564 0.1829536 0.21490368 -0.07766925 0.11141185 0.21494173 -0.05477505 0.07858068 0.2149837 -0.036706 0.06956261 0.21498054 -0.0143703 0.06778945 0.21489263 0.02181262 0.08483253 0.21499443 -0.05172909 0.17511547 0.23486593 -0.07040234 0.1556541 0.23567171 -0.03059195 0.17421903 0.30829233 -0.05335979 0.15836862 0.35374358 -0.0582773 0.15725298 0.30900526 -0.06788287 0.13664003 0.30829245 -0.06684531 0.11319517 0.31231105 -0.05465787 0.0923593 0.30779177 -0.03771288 0.08135686 0.30779171 -0.01520396 0.0782596 0.30837524 -0.02276276 0.1726798 0.36419797 -0.0129586 0.17464122 0.3079586 -0.04105592 0.16743603 0.36482161 -0.0632602 0.14242652 0.3654452 -0.06602351 0.12273876 0.3634547 -0.06000644 0.10379436 0.36480749 -0.04851795 0.09071863 0.36544508 -0.03058563 0.0819794 0.36622941 -0.01729245 0.17366078 0.40058559 -0.04353466 0.17040536 0.42192167 -0.06320257 0.14972614 0.41453105 -0.06957467 0.12592554 0.42209089 -0.06167893 0.10107099 0.41453105 -0.04494253 0.08444554 0.41939896 -0.02819391 0.07853473 0.41987371 -0.00986091 0.07991299 0.4098109 -0.07845925 0.1236731 0.49504745 -0.01424636 0.06896654 0.49524915 0.03356642 0.10603482 0.23486599 0.02954855 0.15550509 0.23443595 0.00834196 0.08730189 0.30837524 0.02166691 0.1024855 0.30748096 0.02768527 0.11912087 0.30779189 0.02661091 0.13846725 0.30942118 0.01772604 0.15456781 0.32266623 0.00383485 0.16890205 0.30829239 -0.00613594 0.08311727 0.36480743 0.0129247 0.09474628 0.36678252 0.02108423 0.10711019 0.38954699 0.02555974 0.12688202 0.36350417 0.02418094 0.13844699 0.39131942 0.00664178 0.1638083 0.36480737 0.01580243 0.15709662 0.40309912 0.01155143 0.08990459 0.41661918 0.02855218 0.12416447 0.4199664 0.00135916 0.17073546 0.42168635 -0.00643973 0.18425459 0.50974232</float_array>
          <technique_common>
            <accessor source="#pos_0-array" count="1125" stride="3">
              <param name="X" type="float"/>
              <param name="Y" type="float"/>
              <param name="Z" type="float"/>
            </accessor>
          </technique_common>
        </source>
        <source id="norm_0">
          <float_array id="norm_0-array" count="2154">1 0.00048 -0.00031 1 5E-05 -0.00049 1 0.00038 -0.00053 1 -0.00048 -0.00011 1 -0.00017 -0.00023 1 -0.00019 -0.00037 1 0.00043 -0.00062 1 -5E-05 -0.00053 0.99999 0.00307 -0.00122 1 0.00037 -0.00061 0.95024 -0.29784 0.09126 -0.88092 -0.05701 -0.46981 0.02028 -0.7673 -0.64097 0.02413 -0.95815 -0.28524 0.05348 -0.30691 -0.95024 0.02327 -0.39338 -0.91908 0.03415 -0.74145 -0.67014 0.03229 -0.96759 -0.25047 0.33608 -0.70212 0.62775 0.05682 -0.99013 0.12812 0.10434 -0.94988 0.2947 0.0068 -0.99804 0.06214 -0.1702 -0.95267 0.2519 0.02165 -0.99766 0.06488 -0.14671 -0.91164 0.38391 -0.16989 -0.95278 0.25171 -0.94013 0.00161 -0.3408 -0.93943 -0.00063 -0.34275 -0.94119 -0.00046 -0.33788 -0.93572 -0.00798 -0.35267 -0.77576 -0.03544 -0.63003 -0.87488 -0.07255 -0.47888 -0.88204 -0.00129 -0.47118 -0.87666 0.00297 -0.48111 -0.85402 -0.00043 -0.52025 -0.85478 -0 -0.519 -0.84348 -1E-05 -0.53716 -0.90958 0.00141 -0.41553 -0.91544 -0.00244 -0.40245 -0.12137 0.95374 0.27504 -0.21301 0.93346 0.28857 0.12448 0.98417 0.12619 0.01334 0.99454 0.10353 -0.0263 0.99949 0.01792 0.98986 0.12019 0.07573 0.79266 0.50991 0.33418 0.61236 0.77695 0.14619 0.73395 0.44498 0.51314 0.23854 0.91871 0.31477 0.31252 0.885 0.34511 0.43239 0.68888 0.5818 0.59439 0.7857 0.17139 0.05243 0.99841 0.02092 0.1501 0.96796 0.20133 0.01948 0.96455 0.26317 0.00099 0.99797 -0.0636 -0.00318 0.34413 -0.93892 0.02384 -0.04101 -0.99887 0.04687 0.13794 -0.98933 0.04801 0.59174 -0.8047 0.01356 0.7043 -0.70977 0.02747 0.91259 -0.40794 0.02941 0.91585 -0.40043 0.01297 0.99574 -0.09134 -0.09083 0.2217 0.97088 0.11417 -0.115 0.98678 0.27449 0.4686 0.83968 0.18563 0.51247 0.8384 -0.02412 0.71576 0.69793 0.02032 0.88586 0.46352 0.07619 0.91625 0.39328 0.09023 -0.92446 0.37046 -0.04081 -0.79645 0.60333 0.07919 -0.60428 0.79282 0.02188 -0.56904 0.82202 0.02854 -0.25114 0.96753 0.20074 -0.16928 0.96491 0.84108 -0.48344 0.24264 0.92351 -0.37514 0.07998 0.40109 -0.69791 0.59334 0.3381 -0.06174 0.93908 0.78192 -0.2421 0.57445 0.6089 -0.54684 0.57463 0.68018 -0.73078 0.05761 0.41311 -0.80635 0.42325 0.18874 -0.94655 0.26158 0.542 -0.82234 0.1732 0.45586 -0.41298 0.78844 -0.29848 -0.95432 -0.01323 0.06334 -0.99621 0.05969 0.30916 -0.95017 -0.03996 0.3265 -0.9175 0.22714 -0.27988 -0.94114 0.18953 -0.52928 -0.84151 0.1083 0.01831 -0.9998 0.00816 0.26094 -0.95884 0.11198 0.04597 -0.99863 0.02494 -0.02048 -0.99684 0.07674 -0.10144 -0.99111 0.0861 -0.39825 -0.20606 0.89383 -0.38499 -0.41782 0.82293 -0.65263 -0.31489 0.68915 -0.83417 -0.39088 0.38907 -0.54805 -0.76711 0.33343 -0.55412 -0.79164 0.25741 -0.29253 -0.56789 0.76937 -0.22681 -0.77852 0.58521 -0.7915 -0.56999 0.22055 -0.42784 -0.69667 0.57585 -0.43284 0.69313 0.57639 -0.58478 0.81069 0.02837 -0.64246 0.06674 0.76341 -0.57412 0.36447 0.73317 -0.4782 0.30607 0.82319 -0.47082 0.80958 0.3506 -0.49612 0.83547 0.23632 -0.27561 0.53073 0.80148 -0.15622 0.80054 0.57855 -0.46924 0.02493 0.88272 -0.71327 0.52001 0.46994 -0.2103 0.97724 -0.02777 0.47457 0.87852 0.05471 -0.17283 0.98494 0.00484 0.18361 0.98299 0.00452 0.15194 0.98797 0.0289 -0.18473 0.96838 0.16769 -0.1191 0.97538 0.18562 0.57686 0.81656 -0.02142 0.86849 0.47826 0.13036 0.96597 -0.07079 0.24877 0.90738 -0.10955 0.40579 -0.6063 -0.77686 0.16995 -0.85305 -0.42121 0.30803 -0.98627 -0.15501 -0.05693 -0.99435 0.04124 0.09783 -0.85364 0.12751 0.50501 -0.83738 0.52493 -0.15248 -0.96193 0.26492 0.06707 -0.6441 0.70378 0.29971 0.00018 -1E-05 1 0.00047 -4E-05 1 0.00662 -0.00108 0.99998 0.00903 -0.00245 0.99996 0.00039 -0.00021 1 -0.00044 -0.00017 1 -9E-05 -4E-05 1 0.08322 -0.01255 0.99645 0.05443 -0.04878 0.99733 -0.06496 -0.02835 0.99748 -0.03389 -0.01677 0.99929 -0.9933 0.0474 0.10535 -0.98142 -0.18615 0.04648 -0.9977 -0.03999 -0.05474 -0.99707 0.06952 0.03182 0.0667 -0.40972 -0.90977 0.33682 -0.63153 -0.69837 -0.14056 -0.11032 0.98391 0.27277 -0.68192 0.67866 -0.06319 -0.95212 0.29911 0.28987 0.51268 0.80817 0.29554 0.70769 -0.64174 -0.34069 0.91221 -0.22759 1 6E-05 3E-05 0.22465 -0.65358 -0.72275 0.31255 -0.74989 -0.58307 -0.0623 -0.70743 0.70403 0.25357 0.76364 0.59377 -0.16944 0.98553 -0.00374 0.99817 0.05157 0.03159 0.99845 -0.02476 0.04983 0.99974 0.00792 -0.02161 0.99991 0.01354 0.00139 0.99926 0.0187 -0.03354 0.99982 0.01785 0.00573 0.99995 0.01026 0.00109 0.99638 -0.01927 -0.08282 0.99669 0.02062 0.07862 0.99916 -0.00261 0.04086 0.99415 -0.05056 0.09544 0.77765 0.19324 0.59827 -0.44429 0.56016 0.69916 0.86568 0.43382 0.24981 -0.80858 0.50545 -0.30118 0.59053 -0.04608 -0.8057 -0.42523 -0.39242 -0.81559 0.84587 -0.31605 -0.42966 -0.62104 -0.67107 -0.40494 0.78142 -0.5939 -0.19151 -0.4531 -0.89081 0.03398 0.68114 -0.71702 0.14812 -0.34571 -0.77095 0.5349 0.24248 0.96991 0.02171 -0.19126 0.96529 -0.17787 0.27082 0.82399 -0.49768 -0.07831 0.77954 -0.62144 0.1651 0.42006 -0.89235 -0.07473 0.34795 -0.93453 -0.11308 0.89063 0.44045 -0.27444 0.84213 0.46422 0.25999 0.60376 0.75358 -0.30421 0.28178 0.90998 -0.14116 0.24755 0.95854 0.23074 -0.97231 0.03698 -0.11681 -0.91568 0.38455 0.22178 -0.81263 0.53892 -0.04423 -0.72476 0.68758 0.15385 -0.48448 0.86117 -0.13489 -0.358 0.92392 0.21029 -0.0977 0.97274 -0.24429 -0.96176 -0.12386 0.3488 -0.80239 -0.48426 -0.3707 -0.62725 -0.68494 0.28987 -0.41493 -0.86244 -0.17437 -0.02927 -0.98424 0.04288 -0.09153 -0.99488 -0.99999 0.00074 0.00478 -1 0.00057 -0.00132 -1 -0.00077 -0.00295 -1 -0.00032 0.00021 -1 0.00088 -0.00036 -1 0.00157 -0.00071 -1 0.00283 0.00104 -1 0.00021 -0.00145 -0.99997 -0.00317 -0.00636 -0.18072 0.57005 0.80149 -0.19898 0.81556 0.54339 -0.10072 0.79379 0.5998 -0.21112 0.56599 0.79692 -0.30794 0.25008 0.91795 -0.18575 0.22568 0.95633 -0.0115 0.97065 0.24023 0.08973 0.94607 0.31129 -0.08992 0.9959 -0.01015 -0.99569 0.03882 -0.0842 -0.12886 0.80797 0.57496 -0.38476 0.86669 0.31751 -0.65897 0.28712 -0.69521 -0.76575 0.3138 -0.56139 -0.78502 -0.02615 -0.61892 -0.84322 0.29597 -0.44876 -0.05162 -0.79138 0.60915 -0.24061 -0.85447 0.46041 -0.91394 -0.22775 -0.33593 -0.74237 -0.13485 -0.65628 -0.91436 -0.22747 -0.33497 -0.10898 -0.98508 -0.13318 -0.02812 -0.9542 -0.29786 -0.08684 -0.23952 -0.967 -0.07045 -0.26691 -0.96114 -0.99807 -0.05822 -0.02154 -0.99995 0.00405 0.00954 -0.99986 0.01678 0.00207 -0.99726 -0.04469 -0.05895 -0.99772 -0.0605 -0.02979 -0.99955 -0.02703 0.01305 -0.99875 -0.0499 0.00191 -0.99846 0.05547 -0.00209 -0.99314 0.11689 0.00311 -0.99718 0.07426 -0.01086 -0.99932 0.03524 0.0107 -0.97234 -0.21839 0.08279 -0.9962 -0.03186 -0.08106 -0.99814 -0.06 0.01048 -0.99704 -0.07657 0.00738 -0.99806 -0.05319 -0.03224 -0.99679 -0.06375 -0.04839 -0.99637 0.00532 -0.08494 -0.99734 0.03344 -0.06475 -0.99827 0.02824 -0.05165 -0.99786 0.06447 -0.01071 -0.99851 0.05306 -0.01304 -0.99651 0.08249 0.01265 -0.99416 0.08081 0.07147 -0.99923 0.03776 0.01066 -0.98373 -0.1555 -0.08998 -0.99915 0.0339 -0.02342 -0.99582 -0.04923 0.07699 -0.99727 -0.02744 0.0685 -0.99754 -0.01574 0.06828 -0.99977 -0.01576 0.01467 -0.99709 0.01284 0.07519 -0.99631 0.02034 0.08338 -0.99687 0.0422 0.0669 -0.96254 0.01928 0.27046 -0.99658 0.05277 -0.06362 -0.99725 -0.05816 -0.04595 -0.99817 -0.06052 0.001 -0.96152 0.10511 0.25383 -0.87762 -0.43945 0.1915 -0.99999 -0.00173 -0.00404 -0.86209 0.0957 0.49763 -0.48035 -0.74147 0.4685 -0.82239 0.43474 -0.36698 -0.6541 0.66822 -0.35445 -0.95615 0.28792 -0.05369 -0.36295 0.91798 0.15993 -0.93456 0.28538 0.21252 -0.75183 0.44258 0.48876 -0.91565 0.15042 0.37277 -0.77883 0.1309 0.61343 -0.92967 0.20344 -0.30713 -0.87086 0.23722 -0.43049 -0.77187 0.02504 -0.63529 -0.60001 -0.42461 -0.67801 -0.94682 -0.05299 -0.31736 -0.95643 -0.24884 -0.15269 -0.81473 -0.44055 -0.37701 -0.89964 -0.43029 -0.07417 -0.80152 -0.59603 -0.04823 -0.91071 -0.38487 0.1499 -0.58001 -0.29848 0.75796 -0.92046 -0.22357 0.32057 -0.91778 -0.03673 0.39539 -0.93261 0.16951 0.3186 0.03943 0.99663 -0.07188 -0.1384 0.90851 0.39427 -0.00294 0.70496 0.70924 -0.0767 0.03082 0.99658 -0.00101 -0.15047 0.98861 0.60375 -0.02707 0.79671 -0.99915 -0.0411 0.00077 -0.99702 0.04923 -0.05943 -0.99934 0.03181 0.01771 -0.99907 -0.03325 0.02728 -0.99994 -0.01112 -0.00108 -0.99998 -0.00555 -0.00374 -0.99888 0.04378 -0.01801 -0.99804 0.06238 0.00564 -0.99955 -0.02443 -0.01742 -0.99959 -0.02291 -0.01707 -0.9995 0.03129 -0.00397 -0.99935 -0.01838 -0.03103 -0.99971 -0.01034 -0.02165 -0.99868 -0.05095 0.00644 -0.99863 0.00504 -0.05217 -0.99921 0.01704 -0.03592 -0.99992 0.00695 -0.01064 -0.98855 0.14037 -0.05532 -0.0019 0.14345 -0.98966 -0.22575 0.6545 -0.72157 0.06787 0.97842 -0.19514 -0.12868 -0.58342 -0.80191 -0.09278 -0.56615 -0.81907 -0.99992 0.00787 -0.01023 -0.99989 0.00747 -0.01276 -0.27589 0.61966 -0.73478 -0.70374 0.02551 -0.71 -0.56776 -0.46109 -0.68194 -0.70193 -0.45364 -0.54909 -0.46599 -0.29574 -0.8339 -0.99984 -0.01195 -0.01345 -0.99984 -0.01352 -0.0114 -0.99987 -0.01363 -0.00916 -0.12687 0.60298 -0.78761 -0.0702 0.58464 -0.80825 -0.91823 -0.32495 -0.22641 -0.91311 -0.33107 0.23796 -0.73943 -0.64355 -0.19771 -0.74537 -0.63395 -0.20623 -0.76766 -0.63881 0.0512 -0.74388 -0.62217 0.24401 -0.79352 -0.54516 0.27043 -0.87136 -0.3524 -0.3414 -0.85667 -0.51552 -0.01855 -0.369 -0.73811 0.56483 -0.99997 -0.00639 0.0048 -0.99939 0.00068 0.03479 -0.17631 0.58485 0.79175 -0.10566 0.5707 0.81433 0.02285 -0.24141 0.97016 -0.21352 -0.64752 0.73152 0.03743 -0.96742 0.25038 -0.89812 -0.42335 -0.11893 -0.99984 0.01187 -0.01315 -0.14135 0.98315 -0.11594 -0.99778 -0.04838 -0.04584 -0.99962 0.02608 0.00892 -0.99966 -0.01976 0.01696 -0.99957 0.01154 0.02708 -0.99986 0.00182 -0.01692 -0.13635 -0.80575 -0.57634 -0.13398 -0.80659 -0.57573 -0.92365 -0.24836 0.29187 -0.71339 -0.1554 0.68332 -0.79021 -0.29777 0.53563 -0.89879 0.27758 0.33931 -0.79687 0.05383 0.60175 -0.71033 0.23726 0.66267 -0.77792 0.32032 0.54059 -0.83937 0.01349 0.5434 -0.10345 0.79271 -0.60076 -0.11192 0.78982 -0.60304 -0.99975 0.02188 0.00368 -0.99943 0.03375 -0.00092 -0.99917 0.00155 0.04072 -0.10116 -0.60992 0.78598 -0.10423 -0.61085 0.78485 -0.90785 0.34131 -0.24354 -0.78375 0.53931 -0.30803 -0.72576 0.61957 -0.29902 -0.65576 0.73197 -0.18494 -0.7838 0.62049 0.02547 -0.79904 0.60028 0.03448 -0.73582 0.64655 0.20135 -0.82406 0.49013 0.28408 -0.88327 0.3852 0.26731 -0.47534 0.69146 0.544 -0.12911 0.93553 0.3288 -0.11033 0.99243 0.05399 -0.07587 0.99711 -0.00494 -0.07066 0.96227 0.26277 -0.51328 0.61982 -0.59361 0.03151 0.09809 -0.99468 -0.05554 0.23767 -0.96976 0.03207 0.50769 -0.86094 -0.04442 0.54712 -0.83587 -0.02197 0.80108 -0.59815 -0.0158 0.80497 -0.59311 -0.00363 0.95987 -0.28042 -0.13631 0.68378 -0.71684 -0.09098 0.9641 -0.24947 -0.07133 -0.04354 -0.9965 -0.11128 0.04283 -0.99287 -0.08087 0.23578 -0.96844 -0.12694 0.3549 -0.92624 -0.12372 0.62435 -0.77128 -0.10114 0.78646 -0.60931 -0.10494 0.78905 -0.6053 -0.14837 0.86271 -0.48344 -0.0683 0.97096 -0.22927 -0.069 0.54093 -0.83823 -0.1219 -0.96646 -0.22603 0.00697 -0.75333 -0.65761 -0.05989 -0.67261 -0.73757 0.02106 -0.4982 -0.86681 -0.06114 -0.9956 -0.07102 -0.10564 -0.98392 -0.14399 -0.05536 -0.92868 -0.36673 -0.07916 -0.868 -0.49021 -0.09566 -0.31698 -0.9436 -0.08565 -0.35947 -0.92922 -0.1173 -0.58488 -0.80259 -0.12278 -0.69408 -0.70935 -0.1536 -0.80097 -0.57866 -0.06801 -0.19501 -0.97844 -0.09016 -0.66167 -0.74436 -0.52335 -0.68629 -0.50509 -0.45627 -0.70827 -0.53867 -0.47865 -0.87718 0.03803 -0.04132 -0.96079 0.27419 -0.07364 -0.9785 0.19264 -0.02455 -0.55436 0.83191 -0.10467 -0.20714 0.9727 -0.00878 -0.17033 0.98535 -0.03116 -0.55701 0.82992 -0.115 -0.92619 0.35909 -0.06433 -0.82235 0.56534 -0.04554 -0.81258 0.58107 -0.12571 -0.71053 0.69235 -0.44231 -0.52951 0.72386 -0.44544 0.55227 0.70469 -0.08412 0.83552 0.54299 -0.02688 0.80768 0.589 -0.04594 0.56197 0.82588 -0.02551 0.56846 0.82232 -0.13616 0.33868 0.931 0.02883 0.23971 0.97042 -0.19946 0.07223 0.97724 -0.12048 0.70553 0.69836 -0.32192 -0.80575 0.49713 0.03948 -0.6821 0.73019 -0.40467 -0.55426 0.72736 0.0678 -0.39309 0.917 -0.52947 -0.16832 0.83147 -0.03674 -0.04565 0.99828 0.93126 -0.00086 0.36435 0.93744 0.00137 0.34814 0.94275 0.0001 0.3335 0.95183 0.00329 0.30661 0.93824 -0.00799 0.34588 0.91248 0.00164 0.40912 0.90503 -0.0016 0.42535 0.85204 -0.00055 0.52347 0.84371 -0.00232 0.5368 0.85434 -0.00112 0.51971 0.85991 0.00095 0.51045 0.88761 0.0016 0.4606 0.8783 -0.00225 0.47811 0.0915 0.9802 -0.1756 -0.01101 0.95902 -0.28312 -0.02267 0.8034 -0.59501 0.10093 0.30724 -0.94626 -0.06355 0.09352 -0.99359 0.11182 0.77144 -0.6264 -0.08905 0.47923 -0.87316 -0.12392 -0.94819 0.29255 0.0927 -0.94453 0.31506 0.07113 -0.16583 -0.98359 0.0376 -0.20641 -0.97774 -0.05737 -0.73716 -0.67328 -0.07818 -0.92392 -0.37452 0.08852 -0.99595 -0.016 0.07489 -0.99678 -0.02868 0.01147 -0.52404 -0.85162 0.06456 -0.50627 -0.85996 0.10514 -0.86929 -0.48299 -0.97209 -0.12611 0.19783 -0.99678 -0.07822 -0.01775 -0.99521 0.08833 0.04188 -0.998 0.0618 -0.01327 0.44057 -0.60081 -0.66703 0.0738 -0.90032 -0.42893 -0.03888 -0.44941 0.89248 0.26579 -0.61749 0.74031 -0.19148 0.65546 0.73056 0.18697 0.84555 0.50008 -0.22533 0.52351 -0.82168 -0.02793 0.67843 -0.73413 1 4E-05 4E-05 0.20601 -0.71152 -0.67178 -0.21091 0.15398 0.9653 0.02304 0.67852 -0.73422 0.25373 0.70333 0.66404 0.25667 -0.64684 -0.71813 -0.99769 0.00729 0.06758 -0.99868 -0.01443 -0.04925 0.43997 -0.68539 -0.58023 0.09217 -0.92152 -0.37722 -0.30003 -0.47633 0.82649 0.41869 -0.00789 0.90809 -0.20368 0.50199 -0.84055 0.22535 0.86151 -0.455 -0.10732 0.99304 0.04844 0.38438 -0.67507 0.62971 -0.03802 -0.00869 0.99924 0.1747 0.87066 -0.45983 0.31259 0.6946 -0.64793 -0.08732 -0.76033 -0.64364 -0.9999 0.01178 0.00829 -0.99745 -0.0534 -0.04731 0.39459 -0.84496 -0.36102 -0.32212 -0.92305 0.21027 0.3766 0.17567 0.90957 0.32693 0.21894 0.91934 -0.25294 0.24386 -0.93624 0.23953 0.66996 -0.7027 -0.12105 0.97189 -0.20192 0.37878 -0.47014 0.79718 -0.01845 0.1896 0.98169 0.14062 0.50295 -0.8528 0.29115 0.66015 -0.69241 -0.05457 -0.91821 -0.39232 0.00635 0.01612 0.99985 -0.12941 0.00676 0.99157 0.02835 -0.03541 0.99897 0.00249 -0.0026 0.99999 0.01334 0.00818 0.99988 0.00933 0.0139 0.99986 0.02227 -0.06028 0.99793 0.05295 -0.00277 0.99859 0.17891 0.08028 0.98058 0.38467 0.07182 0.92025 0.15242 0.15448 0.97617 -0.11679 0.42093 0.89954 -0.58009 0.75391 -0.3084 -0.5526 0.32004 0.76955 -0.64703 -0.027 -0.76198 -0.47337 -0.21241 0.85487 -0.79139 -0.59735 -0.1299 -0.49051 -0.76452 0.41822 -0.1672 -0.41256 0.89545 0.25336 -0.1171 0.96026 0.01895 0.0137 -0.99973 -0.06337 -0.01282 -0.99791 0.01388 0.02147 -0.99967 -0.01795 -0.01004 -0.99979 -0.00687 0.0168 -0.99984 -0.0585 0.0245 -0.99799 0.04321 -0.0181 -0.9989 0.03657 -0.0114 -0.99927 0.05293 -0.07681 -0.99564 0.37577 0.23778 -0.89569 0.57062 0.81956 0.0522 0.17265 0.65839 -0.73261 -0.05876 0.16612 -0.98435 -0.24761 -0.08112 -0.96546 -0.25902 -0.31407 -0.91339 -0.41416 -0.82971 -0.37424 -0.07898 -0.98852 -0.12883 0.06472 -0.47917 -0.87534 0.23514 -0.29767 -0.92526 -0.49907 0.86637 0.01808 -0.71529 0.69072 0.10614 -0.77565 0.63069 0.02446 -0.95684 0.28435 0.06002 -0.14295 0.98418 0.10468 -0.39452 0.91101 0.12007 -0.36736 0.92167 0.1248 -0.79954 0.59616 0.07302 -0.71557 0.69087 0.10325 -0.89937 0.41427 0.13967 -0.96204 0.25397 0.09987 -0.99172 -0.02221 0.12647 -0.98752 -0.11094 0.11181 -0.89339 -0.43628 0.1073 -0.84441 -0.52097 0.12472 -0.70592 -0.70048 0.10489 -0.54036 -0.83221 0.12424 -0.44392 -0.88951 0.10822 -0.13841 -0.98266 0.12337 -0.07822 -0.99082 0.11028 -0.02334 0.99925 0.03078 -0.27294 0.95986 0.06465 -0.58655 0.80983 -0.0114 -0.82104 0.56577 0.07614 -0.9064 0.42132 0.03065 -0.989 0.13208 0.06662 -0.99892 -0.04017 0.02355 -0.95214 -0.29736 0.07079 -0.86098 -0.5082 0.02116 -0.7513 -0.65711 0.06131 -0.54426 -0.83822 0.03411 -0.43945 -0.89605 0.06314 -0.13696 -0.9902 0.02725 -0.12898 0.99162 -0.00734 -0.27697 0.95888 -0.06189 -0.55201 0.83112 -0.06718 -0.7212 0.69248 -0.01832 -0.87002 0.4878 -0.07152 -0.96814 0.24785 -0.03572 -0.98706 0.14538 -0.06768 -0.95584 -0.29085 -0.04208 -0.95094 -0.30551 -0.04872 -0.69414 -0.71711 -0.06262 -0.7503 -0.66054 -0.02708 -0.43416 -0.89766 -0.0756 -0.3313 -0.94242 -0.04574 0.03887 -0.99708 -0.06576 -0.19368 0.9742 -0.11583 -0.21902 0.9681 -0.12168 -0.60643 0.78847 -0.10271 -0.69479 0.70733 -0.13016 -0.87143 0.48046 -0.09879 -0.97635 0.17362 -0.12882 -0.96825 0.22397 -0.111 -0.95676 -0.26281 -0.12463 -0.95592 -0.26556 -0.12532 -0.79419 -0.59951 -0.09919 -0.68055 -0.72186 -0.12559 -0.53825 -0.83622 -0.10502 -0.24895 -0.96064 -0.12324 -0.32834 -0.93876 -0.10457 -0.07875 -0.99067 -0.11119 -0.9805 -0.05071 0.18988 0.80936 -0.57231 0.13191 0.93544 -0.35183 -0.03421 0.86795 0.49604 -0.02459 0.22544 -0.96798 0.11043 0.35546 -0.92561 0.12998 0.54262 -0.83397 0.10033 0.74934 -0.65023 0.12529 0.82329 -0.55732 0.10767 0.93081 -0.33929 0.13595 0.97915 -0.17102 0.10965 0.99224 0.04535 0.1158 0.99149 0.06669 0.11181 0.93478 0.33673 0.11313 0.90876 0.39784 0.126 0.76942 0.62924 0.10978 0.64863 0.75122 0.1223 0.5682 0.81585 0.10746 0.31856 0.93948 0.12608 0.21061 0.97139 0.10976 -0.02143 0.99218 0.12293 0.05085 -0.99569 0.07754 0.35841 -0.93329 0.02274 0.51441 -0.8548 0.06859 0.75211 -0.65857 0.02493 0.79902 -0.60001 0.03949 0.93988 -0.34052 0.02586 0.98744 -0.14693 0.05814 0.99813 0.05284 0.03072 0.99842 0.04776 0.02964 0.88424 0.46628 0.02635 0.70306 0.71053 0.02912 0.45259 0.88985 0.05772 0.06469 0.99723 -0.03661 0.32053 0.94307 0.08877 0.04247 -0.99682 -0.06746 0.91428 0.40498 0.00913 0.61771 0.78634 -0.00995 0.43015 -0.9023 -0.02864 0.52474 -0.84854 -0.06798 0.85611 -0.51611 -0.02655 0.95146 -0.30086 -0.06491 0.97559 0.2157 -0.04132 0.66641 0.74502 -0.02884 0.25648 0.96203 -0.09334 0.00496 -0.99191 -0.12683 0.28695 -0.95193 -0.10723 0.45147 -0.88378 -0.12289 0.55554 -0.82518 -0.10223 0.82655 -0.54974 -0.12084 0.79087 -0.60296 -0.10472 0.96444 -0.23977 -0.11115 0.96858 -0.22113 -0.11381 0.99412 -0.00735 -0.10806 0.99073 0.07128 -0.11564 0.95545 0.27683 -0.10237 0.87533 0.46858 -0.11926 0.82154 0.56004 -0.10686 0.56605 0.81569 -0.11933 0.60307 0.78993 -0.11101 0.37085 0.9223 -0.10875 0.28562 0.95072 -0.12067 0.09295 0.99008 -0.10533 0.13289 -0.98822 0.07584 0.07279 0.29783 0.95184</float_array>
          <technique_common>
            <accessor source="#norm_0-array" count="2154" stride="3">
              <param name="X" type="float"/>
              <param name="Y" type="float"/>
              <param name="Z" type="float"/>
            </accessor>
          </technique_common>
        </source>
        <vertices id="vert_0">
          <input semantic="POSITION" source="#pos_0"/>
        </vertices>
        <triangles count="718" material="mat_0">
          <input semantic="VERTEX" source="#vert_0" offset="0"/>
          <input semantic="NORMAL" source="#norm_0" offset="1"/>
          <p>0 0 1 0 2 0 3 1 0 1 4 1 5 2 2 2 6 2 3 3 7 3 0 3 0 4 7 4 1 4 2 5 5 5 0 5 3 6 4 6 8 6 5 7 6 7 9 7 9 8 6 8 10 8 8 9 11 9 3 9 11 10 8 10 12 10 13 11 14 11 15 11 3 12 16 12 17 12 16 13 3 13 18 13 7 14 19 14 1 14 19 15 7 15 17 15 17 16 7 16 3 16 3 17 11 17 18 17 20 18 21 18 12 18 12 19 22 19 11 19 21 20 22 20 12 20 23 21 18 21 24 21 23 22 24 22 25 22 11 23 22 23 18 23 26 24 27 24 25 24 25 25 27 25 23 25 27 26 28 26 29 26 30 27 31 27 32 27 32 28 27 28 29 28 32 29 29 29 30 29 33 30 19 30 17 30 18 31 23 31 16 31 16 32 23 32 14 32 16 33 14 33 13 33 16 34 13 34 34 34 34 35 17 35 16 35 34 36 33 36 17 36 27 37 32 37 23 37 32 38 14 38 23 38 35 39 14 39 36 39 36 40 14 40 32 40 37 41 38 41 39 41 39 42 14 42 35 42 39 43 35 43 37 43 40 44 41 44 42 44 43 45 41 45 40 45 44 46 45 46 43 46 46 47 43 47 40 47 38 48 47 48 44 48 38 49 44 49 48 49 46 50 48 50 44 50 46 51 44 51 43 51 39 52 9 52 10 52 38 53 37 53 47 53 9 54 39 54 38 54 14 55 39 55 15 55 34 56 2 56 33 56 19 57 33 57 1 57 1 58 33 58 2 58 2 59 34 59 6 59 6 60 34 60 13 60 6 61 13 61 15 61 6 62 15 62 10 62 10 63 15 63 39 63 0 64 40 64 42 64 0 65 42 65 49 65 5 66 46 66 40 66 5 67 40 67 0 67 5 68 48 68 46 68 48 69 5 69 38 69 38 70 5 70 9 70 20 71 12 71 8 71 20 72 8 72 50 72 50 73 8 73 4 73 50 74 4 74 51 74 51 75 4 75 49 75 49 76 4 76 0 76 52 77 53 77 54 77 53 78 52 78 55 78 50 79 52 79 56 79 49 80 42 80 55 80 49 81 55 81 51 81 50 82 51 82 52 82 56 83 52 83 54 83 50 84 56 84 20 84 20 85 56 85 21 85 56 86 54 86 57 86 51 87 55 87 52 87 58 88 59 88 24 88 58 89 60 89 57 89 57 90 60 90 56 90 21 91 56 91 60 91 26 92 25 92 61 92 61 93 25 93 59 93 58 94 24 94 60 94 22 95 21 95 60 95 60 96 18 96 22 96 24 97 18 97 60 97 59 98 25 98 24 98 62 99 29 99 63 99 64 100 63 100 28 100 28 101 63 101 29 101 63 102 64 102 65 102 66 103 26 103 61 103 66 104 61 104 65 104 64 105 28 105 66 105 26 106 66 106 27 106 64 107 66 107 65 107 28 108 27 108 66 108 67 109 32 109 31 109 68 110 69 110 70 110 71 111 30 111 29 111 31 112 30 112 72 112 72 113 30 113 71 113 36 114 67 114 70 114 67 115 68 115 70 115 72 116 67 116 31 116 36 117 32 117 67 117 29 118 62 118 71 118 72 119 68 119 67 119 70 120 69 120 37 120 45 121 44 121 47 121 37 122 69 122 73 122 37 123 73 123 45 123 37 124 45 124 47 124 70 125 35 125 36 125 70 126 37 126 35 126 43 127 45 127 74 127 41 128 43 128 74 128 53 129 55 129 41 129 41 130 55 130 42 130 61 131 59 131 65 131 63 132 65 132 75 132 63 133 75 133 62 133 62 134 75 134 71 134 71 135 75 135 76 135 76 136 68 136 72 136 76 137 72 137 71 137 76 138 69 138 68 138 69 139 58 139 73 139 73 140 58 140 57 140 53 141 41 141 57 141 57 142 41 142 74 142 57 143 74 143 45 143 57 144 45 144 73 144 76 145 58 145 69 145 76 146 75 146 65 146 53 147 57 147 54 147 65 148 59 148 76 148 76 149 59 149 58 149 77 150 78 150 79 150 77 151 80 151 78 151 81 152 80 152 77 152 77 153 79 153 81 153 82 154 79 154 78 154 83 155 79 155 82 155 84 156 80 156 81 156 84 157 81 157 83 157 83 158 81 158 79 158 85 159 80 159 84 159 82 160 78 160 85 160 85 161 78 161 80 161 82 162 85 162 84 162 82 163 86 163 83 163 83 164 86 164 87 164 83 165 87 165 84 165 84 166 87 166 86 166 84 167 86 167 82 167 88 168 89 168 90 168 90 169 91 169 92 169 90 170 89 170 93 170 90 171 94 171 95 171 95 172 91 172 90 172 96 173 90 173 92 173 88 174 90 174 97 174 93 175 98 175 90 175 90 176 98 176 94 176 96 177 92 177 99 177 96 178 99 178 100 178 92 179 91 179 101 179 101 180 91 180 102 180 102 181 91 181 95 181 94 182 98 182 93 182 88 183 103 183 89 183 88 184 104 184 103 184 88 185 97 185 104 185 104 186 97 186 105 186 97 187 90 187 105 187 105 188 90 188 106 188 106 189 90 189 96 189 106 190 96 190 100 190 107 191 95 191 94 191 107 192 94 192 108 192 108 193 94 193 93 193 108 194 93 194 109 194 109 195 93 195 89 195 109 196 89 196 110 196 95 197 107 197 102 197 102 198 107 198 111 198 102 199 111 199 101 199 101 200 111 200 112 200 101 201 112 201 92 201 113 202 105 202 106 202 106 203 114 203 113 203 100 204 114 204 106 204 100 205 115 205 114 205 99 206 115 206 100 206 99 207 112 207 115 207 92 208 112 208 99 208 105 209 113 209 116 209 105 210 116 210 104 210 104 211 116 211 117 211 104 212 117 212 103 212 103 213 117 213 89 213 89 214 117 214 110 214 107 215 113 215 114 215 113 216 107 216 108 216 113 217 109 217 110 217 107 218 114 218 115 218 113 219 108 219 109 219 113 220 110 220 117 220 112 221 111 221 107 221 117 222 116 222 113 222 115 223 112 223 107 223 118 224 119 224 120 224 121 225 122 225 119 225 121 226 119 226 123 226 118 227 123 227 119 227 120 228 124 228 118 228 124 229 125 229 118 229 126 230 122 230 121 230 127 231 122 231 126 231 127 232 126 232 128 232 129 233 130 233 131 233 132 234 133 234 130 234 133 235 134 235 130 235 135 236 131 236 136 236 136 237 131 237 134 237 137 238 138 238 131 238 134 239 131 239 130 239 139 240 140 240 141 240 139 241 141 241 142 241 142 242 141 242 138 242 137 243 143 243 138 243 143 244 142 244 138 244 141 245 140 245 144 245 141 246 144 246 145 246 144 247 146 247 145 247 147 248 146 248 144 248 148 249 149 249 150 249 151 250 152 250 149 250 149 251 152 251 150 251 153 252 149 252 148 252 153 253 148 253 154 253 155 254 156 254 149 254 155 255 149 255 153 255 157 256 158 256 152 256 158 257 159 257 152 257 157 258 160 258 161 258 161 259 160 259 162 259 159 260 150 260 152 260 163 261 164 261 150 261 165 262 166 262 154 262 154 263 166 263 155 263 148 264 165 264 154 264 164 265 165 265 148 265 163 266 150 266 167 266 158 267 167 267 150 267 157 268 168 268 167 268 168 269 157 269 161 269 161 270 169 270 168 270 161 271 170 271 169 271 161 272 171 272 170 272 160 273 152 273 162 273 160 274 157 274 152 274 158 275 150 275 159 275 155 276 166 276 172 276 172 277 156 277 155 277 156 278 172 278 151 278 149 279 156 279 151 279 171 280 162 280 172 280 172 281 162 281 151 281 162 282 171 282 161 282 151 283 162 283 152 283 158 284 157 284 167 284 148 285 150 285 164 285 155 286 153 286 154 286 168 287 173 287 129 287 173 288 168 288 174 288 175 289 145 289 176 289 177 290 178 290 179 290 179 291 180 291 177 291 180 292 166 292 177 292 166 293 181 293 177 293 165 294 181 294 166 294 181 295 165 295 176 295 164 296 176 296 165 296 176 297 164 297 175 297 163 298 175 298 164 298 163 299 182 299 175 299 166 300 180 300 172 300 172 301 180 301 183 301 172 302 183 302 184 302 171 303 184 303 185 303 184 304 171 304 172 304 171 305 185 305 186 305 171 306 186 306 170 306 170 307 186 307 169 307 169 308 186 308 174 308 169 309 174 309 168 309 182 310 167 310 129 310 129 311 167 311 168 311 167 312 182 312 163 312 187 313 188 313 185 313 189 314 187 314 190 314 191 315 187 315 189 315 188 316 187 316 191 316 192 317 188 317 191 317 192 318 193 318 188 318 193 319 185 319 188 319 186 320 185 320 193 320 194 321 178 321 177 321 193 322 195 322 186 322 194 323 177 323 181 323 196 324 181 324 176 324 173 325 174 325 197 325 197 326 174 326 198 326 174 327 186 327 198 327 176 328 145 328 146 328 176 329 146 329 196 329 198 330 186 330 195 330 141 331 145 331 138 331 138 332 145 332 175 332 194 333 181 333 196 333 129 334 131 334 182 334 182 335 131 335 138 335 182 336 138 336 175 336 173 337 130 337 129 337 199 338 173 338 197 338 132 339 173 339 199 339 132 340 130 340 173 340 199 341 200 341 201 341 199 342 197 342 200 342 201 343 133 343 132 343 199 344 201 344 132 344 136 345 134 345 133 345 135 346 137 346 131 346 139 347 142 347 143 347 202 348 139 348 143 348 202 349 143 349 137 349 144 350 203 350 147 350 139 351 203 351 140 351 140 352 203 352 144 352 203 353 204 353 147 353 147 354 204 354 146 354 146 355 205 355 196 355 206 356 178 356 194 356 196 357 205 357 207 357 196 358 207 358 208 358 208 359 209 359 194 359 194 360 209 360 210 360 194 361 210 361 206 361 146 362 204 362 205 362 208 363 194 363 196 363 211 364 206 364 210 364 212 365 211 365 213 365 214 366 211 366 212 366 211 367 214 367 206 367 178 368 206 368 214 368 214 369 179 369 178 369 212 370 179 370 214 370 179 371 212 371 215 371 180 372 179 372 215 372 180 373 216 373 183 373 185 374 190 374 187 374 190 375 185 375 217 375 185 376 184 376 217 376 215 377 216 377 180 377 217 378 184 378 216 378 183 379 216 379 184 379 218 380 215 380 212 380 213 381 218 381 212 381 218 382 216 382 215 382 219 383 216 383 220 383 220 384 216 384 218 384 221 385 190 385 217 385 219 386 222 386 217 386 217 387 222 387 223 387 217 388 223 388 221 388 219 389 217 389 216 389 189 390 190 390 221 390 189 391 221 391 224 391 191 392 224 392 225 392 189 393 224 393 191 393 225 394 192 394 191 394 192 395 226 395 193 395 192 396 225 396 226 396 197 397 198 397 200 397 227 398 200 398 198 398 227 399 198 399 228 399 228 400 198 400 229 400 229 401 198 401 230 401 230 402 198 402 195 402 230 403 195 403 231 403 231 404 195 404 226 404 226 405 195 405 193 405 226 406 225 406 231 406 231 407 122 407 230 407 230 408 127 408 229 408 229 409 127 409 128 409 230 410 122 410 127 410 201 411 200 411 227 411 232 412 233 412 234 412 234 413 233 413 235 413 234 414 235 414 236 414 236 415 235 415 237 415 236 416 237 416 238 416 236 417 238 417 239 417 239 418 238 418 128 418 237 419 133 419 201 419 229 420 128 420 238 420 232 421 137 421 233 421 233 422 137 422 135 422 233 423 135 423 235 423 235 424 135 424 136 424 136 425 133 425 237 425 237 426 201 426 238 426 238 427 201 427 227 427 238 428 227 428 228 428 228 429 229 429 238 429 136 430 237 430 235 430 207 431 240 431 208 431 241 432 242 432 243 432 243 433 242 433 244 433 243 434 244 434 245 434 246 435 247 435 240 435 240 436 247 436 208 436 240 437 207 437 241 437 241 438 207 438 242 438 137 439 245 439 202 439 202 440 245 440 244 440 202 441 244 441 139 441 139 442 242 442 203 442 203 443 242 443 207 443 137 444 232 444 245 444 139 445 244 445 242 445 207 446 205 446 204 446 203 447 207 447 204 447 247 448 209 448 208 448 246 449 248 449 209 449 246 450 209 450 247 450 249 451 250 451 220 451 220 452 250 452 219 452 219 453 250 453 124 453 249 454 220 454 213 454 209 455 248 455 210 455 248 456 211 456 210 456 249 457 211 457 248 457 213 458 211 458 249 458 213 459 220 459 218 459 223 460 224 460 221 460 225 461 122 461 231 461 225 462 119 462 122 462 120 463 119 463 224 463 224 464 223 464 120 464 222 465 120 465 223 465 222 466 124 466 120 466 124 467 222 467 219 467 119 468 225 468 224 468 251 469 249 469 248 469 252 470 249 470 251 470 249 471 252 471 250 471 250 472 252 472 253 472 253 473 124 473 250 473 125 474 124 474 253 474 251 475 121 475 123 475 251 476 123 476 252 476 123 477 118 477 252 477 118 478 125 478 252 478 252 479 125 479 253 479 121 480 251 480 254 480 254 481 126 481 121 481 255 482 256 482 257 482 255 483 257 483 258 483 255 484 259 484 256 484 256 485 259 485 260 485 254 486 260 486 126 486 260 487 259 487 126 487 128 488 126 488 259 488 128 489 259 489 239 489 239 490 259 490 236 490 258 491 234 491 255 491 258 492 232 492 234 492 236 493 259 493 255 493 236 494 255 494 234 494 246 495 254 495 251 495 246 496 251 496 248 496 257 497 232 497 258 497 257 498 245 498 232 498 256 499 241 499 243 499 241 500 260 500 240 500 240 501 260 501 246 501 246 502 260 502 254 502 245 503 257 503 256 503 245 504 256 504 243 504 241 505 256 505 260 505 261 506 262 506 263 506 261 507 264 507 262 507 261 508 263 508 265 508 261 509 265 509 264 509 266 510 263 510 267 510 266 511 265 511 263 511 268 512 264 512 265 512 268 513 265 513 266 513 268 514 262 514 264 514 269 515 262 515 268 515 267 516 263 516 262 516 267 517 262 517 269 517 269 518 268 518 266 518 267 519 270 519 271 519 266 520 271 520 269 520 269 521 270 521 267 521 269 522 271 522 270 522 267 523 271 523 266 523 272 524 273 524 274 524 272 525 275 525 273 525 276 526 274 526 277 526 276 527 272 527 274 527 276 528 275 528 272 528 275 529 276 529 278 529 277 530 274 530 273 530 277 531 273 531 278 531 278 532 273 532 275 532 276 533 279 533 280 533 276 534 280 534 278 534 278 535 280 535 277 535 277 536 280 536 279 536 277 537 279 537 276 537 281 538 282 538 283 538 282 539 284 539 283 539 285 540 281 540 286 540 285 541 282 541 281 541 282 542 285 542 287 542 287 543 284 543 282 543 286 544 281 544 283 544 286 545 283 545 287 545 287 546 283 546 284 546 285 547 288 547 289 547 285 548 289 548 287 548 287 549 289 549 288 549 287 550 288 550 286 550 286 551 288 551 285 551 290 552 291 552 292 552 293 553 294 553 292 553 292 554 295 554 296 554 296 555 295 555 297 555 292 556 296 556 298 556 298 557 290 557 292 557 297 558 295 558 299 558 292 559 291 559 293 559 294 560 300 560 292 560 296 561 301 561 298 561 298 562 302 562 290 562 293 563 291 563 303 563 293 564 303 564 304 564 293 565 304 565 294 565 300 566 294 566 305 566 300 567 305 567 292 567 292 568 305 568 306 568 292 569 306 569 307 569 292 570 307 570 295 570 297 571 308 571 296 571 309 572 310 572 311 572 312 573 313 573 309 573 309 574 313 574 314 574 313 575 312 575 315 575 309 576 314 576 316 576 309 577 316 577 317 577 317 578 318 578 309 578 309 579 318 579 310 579 309 580 311 580 319 580 320 581 318 581 317 581 320 582 317 582 321 582 321 583 317 583 316 583 316 584 314 584 322 584 323 585 315 585 312 585 324 586 312 586 309 586 324 587 309 587 325 587 325 588 309 588 326 588 326 589 309 589 319 589 327 590 319 590 311 590 328 591 322 591 314 591 328 592 314 592 329 592 329 593 314 593 313 593 329 594 313 594 315 594 330 595 316 595 322 595 330 596 322 596 331 596 331 597 322 597 328 597 331 598 328 598 332 598 332 599 328 599 329 599 332 600 329 600 333 600 333 601 329 601 315 601 333 602 315 602 334 602 334 603 315 603 323 603 334 604 323 604 312 604 334 605 312 605 335 605 335 606 312 606 324 606 335 607 324 607 336 607 336 608 324 608 325 608 336 609 325 609 337 609 337 610 325 610 326 610 338 611 339 611 330 611 338 612 330 612 340 612 340 613 330 613 331 613 331 614 332 614 341 614 341 615 332 615 333 615 341 616 333 616 342 616 342 617 333 617 334 617 342 618 334 618 343 618 343 619 334 619 335 619 343 620 335 620 344 620 344 621 335 621 336 621 344 622 336 622 345 622 345 623 336 623 337 623 346 624 338 624 347 624 347 625 338 625 340 625 347 626 340 626 331 626 347 627 331 627 348 627 348 628 331 628 341 628 348 629 341 629 349 629 349 630 341 630 342 630 349 631 342 631 350 631 350 632 342 632 343 632 350 633 343 633 351 633 351 634 343 634 344 634 351 635 344 635 345 635 351 636 345 636 352 636 352 637 345 637 353 637 291 638 346 638 303 638 303 639 346 639 347 639 303 640 347 640 304 640 304 641 347 641 348 641 304 642 348 642 294 642 294 643 348 643 354 643 354 644 348 644 349 644 354 645 349 645 305 645 305 646 349 646 350 646 305 647 350 647 306 647 306 648 350 648 351 648 306 649 351 649 307 649 307 650 351 650 295 650 295 651 351 651 352 651 295 652 352 652 355 652 294 653 354 653 305 653 327 654 311 654 356 654 356 655 311 655 310 655 357 656 318 656 320 656 337 657 326 657 319 657 337 658 319 658 358 658 358 659 319 659 327 659 358 660 327 660 359 660 359 661 327 661 356 661 359 662 356 662 360 662 360 663 356 663 310 663 360 664 310 664 361 664 361 665 310 665 318 665 361 666 318 666 357 666 361 667 357 667 362 667 362 668 357 668 320 668 362 669 320 669 363 669 363 670 320 670 321 670 363 671 321 671 339 671 339 672 321 672 316 672 339 673 316 673 330 673 345 674 337 674 364 674 364 675 337 675 358 675 364 676 358 676 365 676 365 677 358 677 359 677 365 678 359 678 366 678 366 679 359 679 360 679 366 680 360 680 367 680 367 681 360 681 361 681 367 682 361 682 368 682 368 683 361 683 362 683 369 684 362 684 363 684 369 685 363 685 346 685 346 686 363 686 338 686 338 687 363 687 339 687 353 688 345 688 364 688 370 689 368 689 362 689 370 690 362 690 369 690 353 691 364 691 371 691 371 692 364 692 365 692 371 693 365 693 366 693 372 694 366 694 367 694 372 695 367 695 368 695 370 696 369 696 373 696 373 697 369 697 346 697 355 698 352 698 353 698 355 699 353 699 299 699 299 700 353 700 371 700 299 701 371 701 297 701 297 702 371 702 308 702 308 703 371 703 366 703 308 704 366 704 296 704 296 705 366 705 372 705 296 706 372 706 301 706 301 707 372 707 368 707 301 708 368 708 298 708 298 709 368 709 370 709 298 710 370 710 302 710 302 711 370 711 290 711 290 712 370 712 373 712 290 713 373 713 374 713 374 714 373 714 346 714 374 715 346 715 291 715 295 716 355 716 299 716 290 717 374 717 291 717</p>
        </triangles>
      </mesh>
    </geometry>
  </library_geometries>
  <library_visual_scenes>
    <visual_scene id="DefaultScene">
      <node id="node_4b17a5d9_2707_47ad_b0bc_f38ebfcc2db1" type="NODE">
        <matrix>1 0 0 0 0 1 0 0 0 0 1 0 0 0 0 1</matrix>
        <node id="node_f1389739_e6b7_4b05_a889_b74ae39defb0" type="NODE">
          <matrix>1 0 0 0 0 1 0 0 0 0 1 0 0 0 0 1</matrix>
          <node id="node_f1389739_e6b7_4b05_a889_b74ae39defb0_mesh0" type="NODE">
            <matrix>1 0 0 0 0 1 0 0 0 0 1 0 0 0 0 1</matrix>
            <instance_geometry url="#geometry_e2b4af61_8a95_4f24_8747_5592a0ba75bd">
              <bind_material>
                <technique_common>
                  <instance_material symbol="mat_0" target="#mat_0"/>
                </technique_common>
              </bind_material>
            </instance_geometry>
          </node>
        </node>
      </node>
    </visual_scene>
  </library_visual_scenes>
  <scene>
    <instance_visual_scene url="#DefaultScene"/>
  </scene>
</COLLADA>
