<?xml version="1.0" encoding="UTF-8"?>
<COLLADA xmlns="http://www.collada.org/2005/11/COLLADASchema" version="1.4.1">
<!--
# File generated by ImageToStl.com - Free Image and 3D model conversion tools
-->
  <asset>
    <contributor>
      <author>ImageToStl.com</author>
      <authoring_tool>ImageToStl.com</authoring_tool>
    </contributor>
    <created>2026-09-30T02:27:51</created>
    <modified>2026-09-30T02:27:51</modified>
    <up_axis>Z_UP</up_axis>
  </asset>
  <library_effects>
    <effect id="effect_0">
        <profile_COMMON>
          <technique sid="common">
            <phong>
              <diffuse>
                <color>0.9 0.9 0.9 1</color>
              </diffuse>
              <specular>
                <color>0.05 0.05 0.05 1</color>
              </specular>
              <shininess>
                <float>64</float>
              </shininess>
            </phong>
          </technique>
        </profile_COMMON>
    </effect>
  </library_effects>
  <library_materials>
    <material id="mat_0">
      <instance_effect url="#effect_0"/>
    </material>
  </library_materials>
  <library_geometries>
    <geometry id="geometry_114c3ebb_f040_430f_a348_b14d5f18e5d2">
      <mesh>
        <source id="pos_0">
          <float_array id="pos_0-array" count="1035">0.18446055 0.14286967 0.06769496 0.18496457 0.11638317 0.06625052 0.12000289 0.18566 0.06611077 0.17184147 0.09035309 0.06612204 0.13599552 0.07072975 0.06613051 0.11082727 0.07209067 0.06772526 0.09011875 0.08353629 0.06731274 0.071784 0.11231799 0.06612714 0.17321008 0.16457789 0.0662012 0.15196604 0.18113318 0.06729294 0.09390365 0.17441997 0.0661422 0.07173783 0.14337447 0.0674497 0.08099282 0.1625938 0.06777196 0.15967768 0.07876797 0.06798992 0.06972127 0.12480088 0.06850159 0.07674702 0.0990523 0.06850003 0.13466935 0.06959732 0.0684983 0.18018802 0.10091664 0.06849902 0.18598899 0.12124683 0.06850384 0.17018822 0.16864562 0.06849517 0.12833305 0.18684185 0.06849349 0.09949742 0.17892788 0.06849205 0.13544554 0.06961629 0.07698672 0.15523006 0.07596961 0.07689137 0.17203879 0.08889183 0.0768929 0.18574119 0.11446644 0.07681799 0.10999051 0.07195387 0.07692103 0.0889594 0.08395797 0.07693501 0.07312702 0.10611706 0.07693259 0.06976384 0.13769308 0.07695971 0.12054504 0.18630049 0.07698902 0.09531157 0.17720672 0.07689584 0.07858071 0.15962461 0.07689136 0.1548053 0.18126799 0.07694796 0.18353 0.14993002 0.0768996 0.09264041 0.1639936 0.22075796 0.09303519 0.16084081 0.22085679 0.09527442 0.16483156 0.22099981 0.09085108 0.16599567 0.22100097 0.09031601 0.16147083 0.22100031 0.09038274 0.16335364 0.21799996 0.09351116 0.1655764 0.21799985 0.0952061 0.16278976 0.21799999 0.09194483 0.16023441 0.21800002 0.09358583 0.16487773 0.21200004 0.09181784 0.16171895 0.21200004 0.18481728 0.14271517 0.07707001 0.18613255 0.11894964 0.07705736 0.06882186 0.12801865 0.07699912 0.16118643 0.17644054 0.07702783 0.07468 0.15279527 0.07700008 0.1810199 0.10288154 0.07706238 0.16959712 0.08641846 0.07703234 0.17711321 0.16071561 0.07705945 0.09071466 0.08172281 0.07700045 0.07452458 0.10350652 0.07700028 0.09124562 0.17452975 0.07700097 0.1497784 0.1824228 0.07706706 0.157124 0.07704541 0.07703608 0.11670239 0.07056712 0.0770136 0.13904604 0.07009739 0.07704239 0.13049097 0.18661837 0.07702061 0.11696126 0.18491158 0.07778508 0.16267821 0.07779776 0.1639508 0.12570618 0.06731158 0.18440625 0.14441341 0.06932341 0.17424023 0.18878612 0.13089348 0.14758316 0.17711958 0.16450898 0.15520902 0.15594941 0.1823113 0.16799766 0.1341778 0.18907869 0.17935359 0.10047667 0.18038875 0.09912701 0.09292184 0.18163311 0.11583801 0.10258358 0.18589585 0.12735574 0.1194379 0.18821633 0.18749329 0.09033325 0.18618806 0.15577026 0.09748586 0.18510582 0.17241448 0.08931844 0.17955002 0.18556567 0.10214207 0.18322369 0.19539821 0.08826338 0.17438252 0.20128566 0.07493414 0.15905201 0.20592454 0.06819202 0.14107351 0.20841008 0.06667151 0.12301042 0.20869535 0.07468194 0.09744034 0.20633626 0.09272955 0.07776032 0.19939393 0.17799078 0.09340902 0.154615 0.18754737 0.11560258 0.14845105 0.10908198 0.07008336 0.19232461 0.10227032 0.06952124 0.16801469 0.09372576 0.07395806 0.18351671 0.09380426 0.06964201 0.13943884 0.10667571 0.07279989 0.10191891 0.1226938 0.06798926 0.12371496 0.08443905 0.0698381 0.15475474 0.06948159 0.11987447 0.08746304 0.06691374 0.12367375 0.08854592 0.06920099 0.13275997 0.08644086 0.07020204 0.10856927 0.09070887 0.07330241 0.105427 0.08850369 0.07741165 0.09304763 0.09584611 0.08304146 0.09015039 0.08860689 0.06139332 0.11448255 0.08986783 0.0698486 0.08969587 0.10224826 0.07395029 0.07580227 0.11991988 0.06118426 0.07340907 0.12498101 0.09072323 0.07293329 0.12245601 0.08688746 0.07893534 0.10865958 0.09315336 0.08000053 0.09646063 0.08594424 0.16968752 0.09312864 0.07430942 0.15271619 0.08886691 0.07440562 0.16234735 0.09742574 0.06141242 0.1467866 0.09223014 0.06160454 0.16002816 0.09876667 0.06855686 0.14311837 0.09012134 0.08197142 0.17473707 0.10831274 0.0763111 0.18115792 0.12192523 0.06173732 0.17226529 0.10952559 0.06120555 0.18419625 0.12954861 0.06119246 0.18598579 0.15770905 0.06153205 0.1822747 0.16955915 0.07956673 0.18575105 0.13670066 0.07472686 0.17903869 0.17740396 0.06541477 0.13432348 0.20619786 0.06707871 0.14495674 0.20443055 0.07156479 0.15711328 0.2008265 0.06871539 0.16530594 0.19312379 0.07702325 0.16762388 0.19477844 0.07454516 0.09284405 0.19800261 0.0705519 0.08693164 0.19042766 0.06118887 0.07364245 0.17155042 0.07910843 0.07463491 0.17379573 0.06834829 0.10506701 0.20219749 0.06552229 0.11786829 0.20552599 0.08033269 0.0845768 0.19300091 0.06119326 0.06931598 0.14689407 0.06119529 0.08782257 0.10457869 0.06119546 0.16554908 0.19298929 0.06119696 0.13763823 0.20592034 0.06119268 0.09994017 0.2002866 0.16396675 0.0922139 0.22077367 0.16476506 0.08979997 0.22100043 0.16560863 0.09466709 0.22100019 0.16093518 0.09373707 0.22085187 0.16134489 0.09048909 0.22100013 0.16241808 0.09551609 0.21799994 0.16658667 0.09225115 0.21799996 0.16103876 0.09230451 0.21799985 0.16298917 0.09034897 0.21799979 0.16492204 0.09355107 0.21800005 0.16468689 0.09119554 0.21200004 0.16181955 0.09204236 0.21200004 0.16374236 0.09431101 0.21200004 0.06802858 0.12005963 0.21268064 0.06767656 0.13199943 0.21274033 0.06699456 0.12280922 0.20901069 0.07098821 0.10487786 0.20778614 0.08448961 0.08604977 0.20827395 0.07249524 0.1039421 0.21151835 0.09885247 0.07380637 0.19731495 0.09578502 0.07689141 0.20486397 0.08273801 0.08678428 0.20363167 0.1265607 0.06679447 0.18428016 0.10748161 0.07111844 0.20126408 0.12247211 0.06754511 0.19614911 0.08287877 0.09083372 0.22096848 0.08275088 0.08946569 0.21789807 0.0858239 0.09240457 0.22372034 0.17962782 0.11302852 0.22368515 0.17678325 0.12220764 0.22585833 0.16478479 0.09675065 0.22573689 0.16336168 0.09664658 0.21799034 0.16980158 0.09312384 0.2228151 0.17159274 0.09083048 0.21792114 0.1817708 0.13388309 0.22317141 0.17602719 0.09649431 0.21924371 0.17158824 0.16513053 0.21788213 0.16421047 0.15948962 0.21810713 0.16420935 0.158948 0.22573683 0.1664553 0.15969798 0.22566795 0.17158438 0.16399972 0.22031024 0.17619365 0.15812957 0.22013363 0.18201813 0.14694478 0.21917582 0.16069958 0.16058011 0.21809936 0.15963426 0.16117282 0.22521472 0.15951657 0.16411048 0.21808031 0.15926412 0.16488665 0.22571477 0.15918055 0.15903106 0.2260972 0.09491314 0.09573633 0.21827817 0.09176031 0.09637719 0.21804813 0.09660348 0.09218727 0.21805859 0.10946765 0.12711497 0.2253089 0.10993155 0.1192377 0.22528145 0.134396 0.13358092 0.22557282 0.14339902 0.13075289 0.22557953 0.1352313 0.1434675 0.22508043 0.14338833 0.15858017 0.22380409 0.13523002 0.15583377 0.22433066 0.10954313 0.1456634 0.22492155 0.10947057 0.13715436 0.22515073 0.14400342 0.10498229 0.22441816 0.1435041 0.11642062 0.22497925 0.12399631 0.12260791 0.22572213 0.12392434 0.11194058 0.22515494 0.11034936 0.10446411 0.22474593 0.1094383 0.1117291 0.22499239 0.16676641 0.12500684 0.22360387 0.1624411 0.14726028 0.22360599 0.11941874 0.16832033 0.22361279 0.14478341 0.16407552 0.22363937 0.15786161 0.10177026 0.22355798 0.13673612 0.08888642 0.22362098 0.11986146 0.08834153 0.22360432 0.10298273 0.09511055 0.22359315 0.09526447 0.15382728 0.22365686 0.08656374 0.13358329 0.22362444 0.09024595 0.11045194 0.22358263 0.09776311 0.16217375 0.22596142 0.09575298 0.16632025 0.22564551 0.09673733 0.16349392 0.22512087 0.09558957 0.09694839 0.22558886 0.09756016 0.0925277 0.2259917 0.11397994 0.08462989 0.22593752 0.09564052 0.16019523 0.22472855 0.09476143 0.15838036 0.22574911 0.12391349 0.1724553 0.22592846 0.14354719 0.16888562 0.2259368 0.16637769 0.14752659 0.22591355 0.17022626 0.12806401 0.22573161 0.08258565 0.13570394 0.22589764 0.08447804 0.11452103 0.22589767 0.14399277 0.08683062 0.22591296 0.15879266 0.09730211 0.22603151 0.16787907 0.11187172 0.22591341 0.09584804 0.09564264 0.22487229 0.08882391 0.096077 0.22591728 0.09153881 0.09679133 0.22538689 0.09642669 0.09032339 0.2258752 0.10915447 0.17603163 0.22570688 0.15872633 0.08910611 0.22583106 0.10676275 0.08051021 0.22568327 0.1352396 0.17890947 0.22575602 0.12603246 0.0765054 0.22567797 0.16220015 0.09690765 0.22555932 0.15888444 0.09253091 0.22547847 0.15922788 0.09257156 0.21811867 0.16409975 0.0849935 0.2210868 0.16521867 0.08429108 0.21795121 0.18572706 0.12581217 0.21771252 0.18092456 0.10564154 0.21826828 0.16526616 0.17165977 0.21792129 0.16302103 0.17044681 0.22249505 0.09120685 0.17326151 0.22093561 0.08988264 0.17247307 0.2180942 0.09215769 0.17037794 0.22308236 0.08959076 0.17357534 0.21717143 0.15557596 0.1786126 0.21980152 0.14112265 0.18480816 0.21918026 0.12635235 0.18620794 0.21970597 0.11283789 0.1848138 0.21961221 0.09863261 0.1792322 0.219542 0.0832146 0.1662517 0.21806124 0.08221298 0.1659964 0.21842742 0.09674792 0.16325349 0.21805578 0.09244517 0.15924579 0.21809277 0.09152187 0.15910301 0.2254791 0.08915105 0.15990585 0.22589538 0.07616007 0.11975563 0.2257899 0.077804 0.14502098 0.22571984 0.08524865 0.16400588 0.22310361 0.06823344 0.13041234 0.21978995 0.07107525 0.14615524 0.21960324 0.07554867 0.15647794 0.21943006 0.07456784 0.10616687 0.22234604 0.06925015 0.11610813 0.21959141 0.08984433 0.08332726 0.21808839 0.09125012 0.08423467 0.22199449 0.14015758 0.07415301 0.22297379 0.13603812 0.06985765 0.21906748 0.11898106 0.06964857 0.21903038 0.1073667 0.07290045 0.21981433 0.09660767 0.07798628 0.21962944 0.15502122 0.07692178 0.21981454 0.08953083 0.08229718 0.2169278 0.18867981 0.13245735 0.16753899 0.18770912 0.12073211 0.18741445 0.18601534 0.10949898 0.16891813 0.1835852 0.10414498 0.18843907 0.17662647 0.09175006 0.17367551 0.17136842 0.08594751 0.1941905 0.16708899 0.08162025 0.17814273 0.15429685 0.07333026 0.19892496 0.15484414 0.07343204 0.18356365 0.13922316 0.0684184 0.18984632 0.12283438 0.18891869 0.19619691 0.14012118 0.18715996 0.20261332 0.14306405 0.18665291 0.18838491 0.12698364 0.18854317 0.19448584 0.1640135 0.17674367 0.17954767 0.1643251 0.1759083 0.1993455 0.17538503 0.16602103 0.17418143 0.17875047 0.16086258 0.19066837 0.18315038 0.15306234 0.1703995 0.18553916 0.14565882 0.18825166 0.18734226 0.1401543 0.16827038 0.15469947 0.18256438 0.18352556 0.10200074 0.18244988 0.20322403 0.08501598 0.1704233 0.2081109 0.07466277 0.15594803 0.21099132 0.0702197 0.14550745 0.21211478 0.09342539 0.17740987 0.20564392 0.0764863 0.0972247 0.21777108 0.0938203 0.17934313 0.19938117 0.07700333 0.16170338 0.20565212 0.06781255 0.14081715 0.20886245 0.11771359 0.18811721 0.18865249 0.17982185 0.09539956 0.15377128 0.1714118 0.17083246 0.15898645 0.1849674 0.14862058 0.15064403 0.18879083 0.1248708 0.14814603 0.15540662 0.07342626 0.16859469 0.14702481 0.18613115 0.17344575 0.16399205 0.16030216 0.2210004 0.16586731 0.16434032 0.22086972 0.16278976 0.16299894 0.22075105 0.16317365 0.16640142 0.22100016 0.16063857 0.16233344 0.22099975 0.16466145 0.16538581 0.21799976 0.16562514 0.16229342 0.21799999 0.16102037 0.16521697 0.21800002 0.1616555 0.1607357 0.21800011 0.1615518 0.16285235 0.21800005 0.16481538 0.16250746 0.21200004 0.16204025 0.1621826 0.21200004 0.16380434 0.16504581 0.21200004 0.09320511 0.09221389 0.22077367 0.09304751 0.08954863 0.22100028 0.09516963 0.09416713 0.2209999 0.09126534 0.09487998 0.22084498 0.08999818 0.09134457 0.22099999 0.09419041 0.09407254 0.2179997 0.09400274 0.09044959 0.21799994 0.09132359 0.0948886 0.21799996 0.09024916 0.09043792 0.21800017 0.09162468 0.09117435 0.21200004 0.09225219 0.09435196 0.21200004 0.09423465 0.0921188 0.21200004</float_array>
          <technique_common>
            <accessor source="#pos_0-array" count="1035" stride="3">
              <param name="X" type="float"/>
              <param name="Y" type="float"/>
              <param name="Z" type="float"/>
            </accessor>
          </technique_common>
        </source>
        <source id="norm_0">
          <float_array id="norm_0-array" count="1980">0.06135 0.05552 -0.99657 0.00482 0.0025 -0.99999 -0.06372 -0.00904 -0.99793 0.03163 -0.02102 -0.99928 -0.03204 -0.08513 -0.99585 0.05599 0.13707 -0.98898 0.01155 -0.01515 -0.99982 -0.24338 0.13331 -0.96072 -0.10042 -0.05474 -0.99344 0.07482 0.01024 -0.99714 -0.00155 0.00079 -1 -0.11746 0.04208 -0.99219 -0.84675 -0.23107 0.47919 -0.44029 -0.31511 -0.84074 -0.07715 -0.88194 -0.46501 0.32873 -0.91038 -0.25128 0.65387 -0.61562 0.43985 0.58359 -0.29047 -0.75832 0.95024 -0.27118 0.15331 0.87101 0.04326 -0.48936 -0.66927 0.03062 -0.74239 0.83902 0.45533 0.29785 0.49921 0.67632 -0.54165 0.12038 0.65519 -0.74582 -0.24164 0.88037 0.40812 -0.30685 0.71073 -0.63301 -0.65765 0.73848 0.14884 0.30553 -0.95183 -0.02581 0.33943 -0.93248 -0.12355 0.60855 -0.79159 0.05521 0.714 -0.65554 -0.24591 0.86773 -0.46439 0.17716 0.94384 -0.26927 -0.19146 -0.09147 -0.99575 0.01059 -0.1032 -0.99437 -0.02418 -0.49491 -0.86701 -0.05793 -0.48333 -0.87521 -0.01988 -0.75838 -0.64876 -0.06294 -0.80605 -0.5759 0.13646 -0.94714 -0.25843 -0.19009 -0.98083 -0.10461 0.16439 -0.26042 0.9489 -0.17826 -0.33902 0.94048 0.02375 -0.64828 0.74196 -0.17094 -0.72404 0.68898 0.03281 -0.89619 0.43317 -0.09601 -0.92737 0.37291 0.03029 -0.98444 0.09865 -0.14541 0.14283 0.97079 0.1928 0.23013 0.96977 -0.08121 0.56428 0.80635 -0.1772 0.69957 0.64074 0.31631 0.83683 0.47197 -0.27742 0.99636 0.07213 0.0454 0.99487 0.06185 0.08009 -0.00352 -0.00047 0.99999 0.00464 0.00057 0.99999 0.00047 -0.00074 1 0.00368 0.00096 0.99999 9E-05 -0.0023 1 -0.00159 -0.00103 1 0.00051 -0.00028 1 -0.00279 -0.0023 0.99999 0.00112 -0.00051 1 -0.00083 0.00054 1 0.00199 0.00232 1 -0.09741 0.01899 0.99506 0.11893 -0.01421 0.9928 0.06168 0.03898 0.99733 -0.04088 -0.15632 0.98686 -0.99176 0.11727 0.05153 0.80047 0.48685 -0.34961 -0.49067 0.69056 -0.53138 0.25349 0.96313 0.09013 -0.85622 -0.4288 -0.28812 0.8261 -0.47443 0.3041 0.61533 -0.78532 -0.06816 -0.203 -0.93923 0.27685 0 -2E-05 -1 -0.5762 0.81097 -0.10161 -0.82572 0.46216 -0.32342 -0.11284 -0.96519 0.23598 0.80863 -0.4526 -0.37587 0.85331 0.51901 -0.04982 0.00054 0.00056 -1 0.00033 -4E-05 -1 0.00046 -0.00046 -1 0.00084 0.00124 -1 0.00089 -0.00111 -1 0.00065 -0.00031 -1 0.00039 0.00028 -1 0.00039 -0.00026 -1 0.00019 0.00693 -0.99998 0.00054 8E-05 -1 0.0012 -0.00404 -0.99999 0.00046 -0.00102 -1 0.00034 3E-05 -1 0.00162 -0.00363 -0.99999 -0.09126 0.29783 -0.95025 0.47281 0.04917 0.87979 0.94484 0.32752 0.00173 0.91917 0.39339 -0.01917 0.63899 0.76911 -0.01285 0.46411 0.88525 -0.03041 0.28803 0.95745 -0.01837 0.99737 0.05522 -0.04688 0.7022 0.71114 -0.03458 0.21253 0.97666 -0.03114 -0.62775 0.70212 -0.33608 -0.12812 0.99013 -0.05682 -0.2947 0.94988 -0.10434 -0.06214 0.99804 -0.0068 -0.25189 0.95267 0.17019 -0.06488 0.99766 -0.02165 -0.37772 0.91347 0.15132 -0.22236 0.96702 0.12424 0.31538 0.01291 0.94888 0.26234 -0.00684 0.96495 0.39051 3E-05 0.9206 0.35734 -0.00177 0.93397 0.32862 0.00399 0.94445 0.47888 0.07255 0.87488 0.47126 0.00191 0.88199 0.48469 -0.00266 0.87468 0.52024 0.00043 0.85402 0.51656 -0.00082 0.85625 0.53431 0.00469 0.84528 0.54653 -0.0003 0.83744 0.42992 -0.00076 0.90287 0.41633 -0.00271 0.90921 0.39786 0.00264 0.91744 -0.3 -0.94803 0.10598 -0.34509 -0.91744 0.19805 -0.12467 -0.98422 -0.12561 -0.08923 -0.99599 -0.00669 -0.13585 -0.98885 0.06093 -0.03236 -0.99928 0.01964 -0.07505 -0.99663 -0.03313 -0.48508 -0.07964 -0.87084 -0.71048 -0.23566 -0.66309 -0.77735 -0.49116 -0.39304 -0.77094 -0.4942 -0.40176 -0.00075 -0.14191 -0.98988 -0.25712 -0.50059 -0.82662 -0.09021 -0.79299 -0.60252 -0.44545 -0.46094 -0.76754 -0.37046 -0.885 -0.28201 -0.36707 -0.89124 -0.26636 -0.58585 -0.724 -0.36414 -0.62348 -0.76074 -0.18041 -0.32516 -0.74601 -0.58116 -0.10134 -0.92226 -0.37305 -0.66192 -0.24552 -0.70822 -0.14753 -0.79388 -0.58991 -0.02092 -0.99841 -0.05243 -0.20227 -0.96764 -0.15083 -0.26317 -0.96455 -0.01948 0.09832 -0.99503 -0.01599 0.91709 -0.39847 -0.01285 0.9524 -0.30305 -0.03308 0.99635 -0.08206 -0.02359 0.82106 -0.56962 -0.0375 0.70984 -0.70424 -0.01334 0.60044 -0.79905 -0.03145 0.41223 -0.91089 -0.01846 0.35861 -0.93309 -0.02723 0.09134 -0.99574 -0.01297 -0.95402 -0.2627 -0.14431 -0.99864 -0.01785 0.04907 -0.9719 -0.22611 -0.06551 -0.83131 -0.53108 -0.16397 -0.80252 -0.59645 0.01431 -0.71915 -0.69427 0.02868 -0.46352 -0.88586 -0.02031 -0.39328 -0.91626 -0.07619 -0.37047 0.92445 -0.09024 -0.60332 0.79645 0.04081 -0.79283 0.60428 -0.07918 -0.82202 0.56904 -0.02188 -0.96753 0.25114 -0.02854 -0.97033 0.22943 -0.07625 -0.17179 0.43807 -0.88237 -0.07998 0.37514 -0.92351 -0.20218 0.85064 -0.48531 -0.59323 0.70453 -0.38951 -0.87627 0.11202 -0.46862 -0.57445 0.2421 -0.78192 -0.57463 0.54684 -0.6089 -0.12747 0.69748 -0.70517 -0.439 0.81189 -0.38486 -0.39172 0.88737 -0.24317 -0.13475 0.8734 -0.468 -0.08628 0.85484 -0.51166 -0.78844 0.41298 -0.45586 -0.19461 0.64886 -0.7356 0.01323 0.95432 0.29849 -0.05969 0.99621 -0.06333 0.03791 0.95184 -0.30424 -0.12592 0.95485 -0.26908 -0.18953 0.94114 0.27988 -0.1083 0.84151 0.52928 -0.00816 0.9998 -0.01831 -0.11197 0.95884 -0.26094 -0.02495 0.99863 -0.04597 -0.07674 0.99684 0.02048 -0.0861 0.99111 0.10144 -0.19612 0.19056 0.96188 -0.93527 0.08416 0.34377 -0.82293 0.41782 0.38499 -0.74832 0.35785 0.55854 -0.60536 0.42324 0.6741 -0.33343 0.76711 0.54805 -0.32428 0.77037 0.54898 -0.76937 0.56788 0.29253 -0.59184 0.77669 0.21559 -0.31292 0.59055 0.74387 -0.63053 0.66788 0.39545 -0.44097 0.861 0.25343 -0.60488 -0.69305 0.39217 -0.02837 -0.81069 0.58478 -0.7424 -0.28837 0.60472 -0.59222 -0.32271 0.73833 -0.33733 -0.82706 0.44965 -0.33586 -0.64844 0.68317 -0.31939 -0.83308 0.45162 -0.80762 -0.51066 0.2949 -0.53891 -0.82623 0.16405 -0.59525 -0.67781 0.43157 -0.92837 -0.02122 0.37105 -0.53669 -0.50427 0.67652 0.02227 -0.96797 0.25009 -0.06019 -0.83515 -0.54672 -0.03629 -0.9843 0.17271 -0.03213 -0.98249 -0.1835 -0.0316 -0.9823 -0.18464 -0.16769 -0.96838 0.18473 -0.16407 -0.96647 0.19754 0.01502 -0.99965 0.02198 0.02142 -0.81656 -0.57686 -0.13036 -0.47826 -0.86849 -0.24878 0.07079 -0.96597 -0.39708 0.1074 -0.91148 -0.14327 0.80648 0.57365 0.01246 0.75068 0.66055 7E-05 0.48569 0.87413 -0.28137 0.40338 0.8707 0.05693 0.15501 0.98627 -0.09783 -0.04124 0.99435 -0.50501 -0.12751 0.85364 0.15248 -0.52493 0.83738 -0.06707 -0.26492 0.96193 -0.29971 -0.70378 0.6441 -1 1E-05 -0.00018 -1 4E-05 -0.00047 -0.99998 0.00108 -0.00662 -0.99996 0.00245 -0.00903 -1 0.00021 -0.00039 -1 0.00017 0.00044 -1 4E-05 9E-05 -1 7E-05 0.00027 -0.99703 0.05153 -0.05719 -0.99977 0.01919 -0.00948 -0.99988 -0.00169 -0.01557 -0.99929 0.01677 0.03389 -0.18304 0.03177 0.98259 0.05189 0.05207 0.99729 -0.01536 -0.08174 0.99654 0.02008 0.10009 0.99478 0.56586 0.72247 -0.39731 -0.89515 0.38446 -0.22562 -0.18818 0.87426 0.44751 -0.99194 -0.12393 0.02622 -0.66723 -0.66547 -0.33459 0.89559 -0.1552 0.41693 0.42812 -0.80964 -0.40151 -0.19713 -0.97839 -0.06234 1E-05 8E-05 -1 5E-05 1E-05 -1 -0.02057 -0.02627 -0.99944 0 -0 -1 0.9462 0.28686 -0.1497 -0.30078 0.93697 0.17781 -0.75673 0.64137 -0.1265 -0.70671 -0.70485 -0.06117 -0.27688 -0.93753 -0.21063 0.8441 -0.50953 0.16695 -0.9677 -0.02978 0.25034 -0.80149 -0.57006 0.18071 -0.61521 -0.78517 0.07089 -0.5998 -0.79379 0.10072 -0.79692 -0.56599 0.21114 -0.91351 -0.27479 0.29997 -0.96904 -0.22305 0.10591 -0.27152 -0.96053 -0.06048 -0.23852 -0.97091 -0.02076 -0.37852 -0.90047 0.21419 0.11078 -0.90952 0.40063 0.28196 -0.13743 0.94953 -0.53931 -0.83485 0.11029 -0.56776 -0.80552 0.16968 0.36686 -0.22061 0.90374 0.5348 -0.03416 0.84429 0.59716 -0.32681 0.73253 -0.60534 0.79397 0.05627 -0.30469 0.8636 0.4017 -0.27562 0.86407 0.4212 0.50322 0.37166 0.78015 0.30383 0.08852 0.94861 0.57147 0.23014 0.78769 0.50853 0.22123 0.83214 0.29581 0.95285 0.06768 0.43816 0.89885 -0.00927 0.94174 0.31619 0.11466 0.99511 0.09606 0.02314 0.86867 0.01993 0.49498 0.07252 0.36679 0.92747 -0.09376 -0.1059 0.98995 -0.00954 -0.00405 0.99995 -0.00464 -0.0124 0.99991 0.07582 0.04321 0.99618 0.04401 0.06046 0.9972 -0.01305 0.02703 0.99955 -0.00191 0.0499 0.99875 0.01926 0.06367 0.99779 0.0049 -0.04878 0.9988 -0.00145 -0.12371 0.99232 0.01086 -0.07426 0.99718 -0.0107 -0.03524 0.99932 -0.08067 0.20924 0.97453 0.08841 0.01709 0.99594 0.00016 0.0576 0.99834 0.01085 0.07108 0.99741 0.05943 0.01483 0.99812 0.02449 0.02374 0.99942 0.07656 -0.03131 0.99657 0.04564 -0.06996 0.99651 0.01056 -0.05422 0.99847 0.00127 -0.06988 0.99755 -0.03787 -0.0928 0.99496 -0.01066 -0.03777 0.99923 0.08998 0.15549 0.98373 0.02483 -0.04165 0.99882 -0.04429 0.07684 0.99606 -0.07162 0.02918 0.997 -0.07072 0.02746 0.99712 -0.06892 0.01573 0.9975 -0.01467 0.01575 0.99977 -0.07237 -0.01332 0.99729 -0.07905 -0.02035 0.99666 -0.09727 -0.04593 0.9942 -0.06937 -0.05691 0.99597 -0.2705 -0.01928 0.96253 0.05654 -0.04137 0.99754 0.0511 -0.04671 0.9976 0.04816 0.06362 0.99681 -0.001 0.06052 0.99817 -0.82481 -0.36709 0.43003 0.05948 0.11685 0.99137 -0.56069 0.08852 0.82328 -0.73935 0.5645 0.367 0.38255 -0.35056 0.85485 0.18994 -0.31373 0.93032 0.26618 -0.67481 0.68831 -0.0723 -0.42636 0.90166 -0.08157 -0.44655 0.89104 -0.25226 -0.26674 0.93017 -0.30679 -0.47326 0.82577 -0.46619 -0.3049 0.83048 -0.49746 -0.10642 0.86093 -0.46279 -0.09003 0.88189 0.5583 -0.29469 0.77554 0.41422 -0.17946 0.89231 0.31121 0.259 0.91437 0.54258 0.32951 0.77268 0.41007 0.06363 0.90983 0.51396 0.04592 0.85659 0.34139 0.53161 0.77514 0.14202 0.35565 0.92377 -0.01868 0.55316 0.83287 -0.04802 0.6632 0.7469 -0.19821 0.32952 0.92311 -0.2995 0.41357 0.8598 -0.51771 0.32927 0.78966 -0.35204 0.13308 0.92648 -0.58 0.09316 0.80927 -0.87089 -0.35748 0.33728 0.30762 -0.66084 0.68459 -0.25501 -0.96668 0.02242 -0.20239 -0.97807 0.04909 -0.89334 -0.43293 0.1205 -0.9918 -0.1174 -0.05043 -0.35798 0.13525 0.92388 0.03055 0.06471 0.99744 -0.04414 0.0546 0.99753 0.00934 -0.02452 0.99966 -0.02122 -0.04188 0.9989 -0.01431 -0.0366 0.99923 0.00336 0.02082 0.99978 0.02369 0.03765 0.99901 0.01239 -0.04429 0.99894 0.12869 -0.07224 0.98905 -0.0684 0.00235 0.99766 0.05349 0.0198 0.99837 -0.0088 0.0256 0.99963 -0.00919 -0.04555 0.99892 0.00285 -0.02771 0.99961 0.07193 0.02908 0.99699 0.02397 0.02002 0.99951 -0.00599 0.0372 0.99929 0.02587 -0.01696 0.99952 -0.00823 0.01242 0.99989 -0.03359 -0.01598 0.99931 0.95804 -0.01475 0.28627 0.12368 -0.11191 0.98599 0.79634 -0.60391 0.03383 0.698 -0.70394 0.1314 -0.06232 -0.99775 0.02485 0.83288 0.55187 0.04191 0.80167 0.57682 0.15685 0.0069 -0.00213 0.99997 0.02974 0.0013 0.99956 0.76201 -0.06242 0.64455 0.86215 -0.19236 0.46871 0.72271 -0.3217 0.61172 0.61685 -0.6015 0.50763 0.76012 0.58857 0.27531 0.88109 0.12302 0.45668 0.01429 0.01018 0.99985 0.02015 0.01352 0.99971 0.00246 0.01506 0.99988 0.79338 -0.6024 0.08748 0.86084 -0.3981 0.31699 -0.9077 0.01295 0.41943 -0.9121 0.09277 0.39933 -0.25434 0.34528 0.90338 0.21957 0.37353 0.90126 0.23026 0.61294 0.75583 0.0915 0.69919 0.70906 -0.06623 0.58776 0.80632 -0.24741 0.62031 0.74431 -0.2929 0.54728 0.78403 0.2499 0.50113 0.8285 -0.06634 0.58751 0.80649 -0.29369 0.50663 0.8106 -0.5613 0.76931 0.30513 -0.46384 0.49324 0.73591 0.38482 -0.22632 0.89481 -0.00062 -0.00463 0.99999 0.00198 0.00711 0.99997 -0.7966 -0.59366 0.11397 -0.78364 -0.60485 0.14167 -0.94375 -0.33051 0.00983 -0.94841 0.3168 -0.0122 -0.66425 0.71516 0.21753 -0.25863 0.96588 -0.01366 0.23123 0.88843 -0.39652 0.03335 0.47755 0.87797 -0.0248 -0.48472 0.87432 0.06214 -0.73639 -0.6737 0.0243 -0.0065 0.99968 0.0447 0.02928 0.99857 -0.03982 -0.04272 0.99829 -0.0242 0.00666 0.99968 -0.01077 0.00347 0.99994 -0.04497 -0.00402 0.99898 0.59206 0.80091 0.08949 0.60064 0.79186 0.1104 0.35043 0.73166 0.58469 -0.3613 0.26488 0.89404 -0.65537 0.12713 0.74453 -0.61927 0.28067 0.7333 -0.54238 0.31975 0.77691 -0.56894 0.0393 0.82144 -0.39878 -0.20847 0.89304 -0.34687 -0.19202 0.91805 -0.64992 -0.05671 0.75789 -0.62641 -0.12173 0.76993 -0.52946 -0.35615 0.76995 0.59603 -0.80048 0.06316 0.60589 -0.79154 0.07975 -0.0144 0.01435 0.99979 -0.00984 -0.00888 0.99991 -0.79361 0.59564 0.12408 -0.78659 0.60056 0.14358 0.67992 0.04397 0.73197 0.12368 -0.33225 0.93505 0.02509 -0.68566 0.72749 0.00702 -0.69976 0.71434 -0.12844 -0.61905 0.77478 -0.11867 -0.61228 0.78168 -0.29549 -0.59803 0.74501 -0.31657 -0.56097 0.76492 0.26766 -0.49081 0.82913 0.32901 -0.49665 0.80317 -0.29194 -0.32509 0.89949 -0.92363 -0.12654 0.36181 -0.58348 -0.67258 0.45518 -0.26283 -0.96057 0.09065 -0.213 -0.97538 0.05717 0.012 -0.99556 0.09335 0.26613 -0.77567 0.57228 0.58753 -0.71926 0.37078 0.99299 -0.11646 -0.02021 0.96976 -0.23767 0.05554 0.88159 -0.4716 -0.0196 0.83753 -0.54296 0.06109 0.72622 -0.68741 -0.0083 0.60311 -0.79585 0.05377 0.56023 -0.82821 0.01447 0.30729 -0.9516 0.00464 0.70981 -0.69124 0.13552 0.07337 -0.99567 0.05704 0.26701 -0.96066 0.07642 0.99786 0.02184 0.06162 0.96681 -0.23404 0.10249 0.96874 -0.22796 0.09784 0.8815 -0.4611 0.10176 0.76741 -0.62939 0.12225 0.60951 -0.78606 0.10296 0.59561 -0.79485 0.116 0.33981 -0.92879 0.1479 0.83844 -0.54028 0.07153 0.09739 0.99025 0.09961 0.11217 0.99361 -0.01221 0.6908 0.72278 0.01963 0.73757 0.67261 0.05989 0.85602 0.51677 -0.01305 0.91481 0.40147 0.04408 0.95114 0.30875 0.00077 0.98501 0.1671 0.04285 0.34537 0.9377 0.03802 0.09596 0.99528 0.01427 0.04964 0.98927 0.13743 0.41893 0.90219 0.10275 0.38909 0.91675 0.09047 0.46912 0.87909 0.08443 0.98073 0.16487 0.10481 0.91471 0.39448 0.08774 0.88481 0.45061 0.11857 0.81036 0.57278 0.12345 0.71344 0.69007 0.12169 0.59544 0.78921 0.15034 0.99009 0.11933 0.07407 0.74482 0.66083 0.09239 0.53806 0.84247 0.02708 0.57458 0.67604 0.46133 -0.10264 0.98631 0.12909 -0.28143 0.95839 0.04786 -0.8079 0.58737 0.04793 -0.99696 -0.02975 0.07206 -0.9793 0.17792 0.09649 -0.97467 0.18904 0.11955 -0.91479 0.39762 0.07107 -0.91513 0.397 0.07021 -0.81771 0.57511 0.02461 -0.36406 0.92518 0.10729 -0.49071 0.86851 0.06997 -0.54581 0.83246 0.09535 -0.62986 0.7752 0.04834 -0.70295 0.7026 0.1105 -0.0722 0.89996 0.42996 -0.61653 0.49607 0.6114 -0.74532 -0.5969 0.297 -0.71118 -0.43509 0.55219 -0.86278 -0.3644 0.35046 -0.51052 -0.56999 0.6438 -0.54344 -0.83437 0.09215 -0.42688 -0.89977 0.0905 -0.42006 -0.90358 0.0842 -0.6249 -0.78028 0.02568 -0.83404 -0.54874 -0.05716 -0.77611 -0.62529 0.08172 -0.91114 -0.36718 0.1871 -0.96323 -0.26816 0.01693 -0.98842 -0.07211 0.13349 -0.7137 -0.69074 0.11623 -0.58947 0.78158 0.2041 -0.73019 0.6821 -0.03948 -0.74156 0.59287 0.314 -0.91912 0.39342 0.02116 -0.90798 0.4116 0.07843 -0.8993 0.1876 0.39505 -0.99654 0.04584 0.06928 -0.44092 0.86507 0.23924 -0.36435 0.00086 -0.93126 -0.34813 -0.00137 -0.93744 -0.33349 -0.0001 -0.94275 -0.30662 -0.00329 -0.95183 -0.34588 0.00799 -0.93824 -0.40912 -0.00164 -0.91248 -0.42535 0.0016 -0.90503 -0.52347 0.00055 -0.85204 -0.5368 0.00232 -0.84371 -0.51971 0.00112 -0.85434 -0.51044 -0.00095 -0.85991 -0.4606 -0.0016 -0.88761 -0.47811 0.00225 -0.8783 0.08653 -0.99194 0.09254 0.17025 -0.98018 -0.10133 0.30996 -0.95067 0.01201 0.56229 -0.82666 0.02145 0.94626 -0.30724 -0.10093 0.99245 -0.1122 0.04957 0.62826 -0.77055 -0.10742 0.72593 -0.6877 -0.00955 0.88888 -0.45428 0.0594 0.03615 0.99088 -0.1298 -0.30141 0.94782 0.10389 -0.32038 0.94382 -0.08102 0.98495 0.16423 -0.05382 0.98221 0.17672 -0.06351 0.95184 0.30602 0.01874 0.69644 0.71622 0.04468 0.35352 0.93343 0.06113 0.11519 0.99333 -0.00415 0.01629 0.995 -0.09855 0.84579 0.53187 -0.04179 0.84919 0.52514 -0.05576 0.50924 0.85828 -0.06351 0.49826 0.86389 -0.07368 -0.06576 0.06277 0.99586 0.14126 -0.08813 0.98604 0.07564 0.12519 0.98925 -0.00697 -0.07224 0.99736 0.91626 0.28551 -0.28097 0.60836 0.79296 0.03326 -0.78791 0.49097 0.37167 -0.04359 0.93954 -0.33964 -0.95803 -0.13579 -0.25246 -0.49895 -0.82364 0.26956 0.88852 -0.40568 0.21438 0.3369 -0.85858 -0.38644 -7E-05 -3E-05 -1 -2E-05 -3E-05 -1 -9E-05 -3E-05 -1 0.91824 0.36574 -0.1519 -0.63095 0.77445 0.04625 -0.8445 0.52032 -0.12683 -0.13527 -0.98585 0.09903 0.11612 -0.99192 -0.05106 0.94811 0.29545 -0.11742 -0.20661 0.09502 0.9738 0.06485 0.0205 0.99768 0.04808 0.0818 0.99549 -0.05122 -0.06392 0.99664 0.94995 -0.04923 -0.3085 0.27183 0.95498 -0.11883 -0.92908 0.32528 -0.17604 -0.9719 0.23462 -0.01919 0.17935 0.98376 0.00665 -0.49586 -0.84189 0.21296 0.89671 -0.41201 0.16177 0.00296 -0.95801 -0.28673 -6E-05 -3E-05 -1 0.73178 0.64962 -0.20615 0.27352 0.96088 -0.04361 -0.8251 -0.49799 0.26687 -0.96731 0.19102 -0.1668 0.33023 -0.91258 -0.24112 0.99837 -0.05171 0.0242</float_array>
          <technique_common>
            <accessor source="#norm_0-array" count="1980" stride="3">
              <param name="X" type="float"/>
              <param name="Y" type="float"/>
              <param name="Z" type="float"/>
            </accessor>
          </technique_common>
        </source>
        <vertices id="vert_0">
          <input semantic="POSITION" source="#pos_0"/>
        </vertices>
        <triangles count="662" material="mat_0">
          <input semantic="VERTEX" source="#vert_0" offset="0"/>
          <input semantic="NORMAL" source="#norm_0" offset="1"/>
          <p>0 0 1 0 2 0 1 1 3 1 2 1 2 2 4 2 5 2 2 3 6 3 7 3 2 4 8 4 0 4 2 5 9 5 8 5 2 6 5 6 6 6 10 7 11 7 12 7 2 8 3 8 13 8 2 9 13 9 4 9 2 10 7 10 10 10 10 11 7 11 11 11 14 12 7 12 15 12 15 13 7 13 6 13 16 14 5 14 4 14 16 15 4 15 13 15 13 16 3 16 17 16 17 17 3 17 1 17 17 18 1 18 18 18 0 19 18 19 1 19 7 20 14 20 11 20 0 21 8 21 19 21 19 22 8 22 9 22 9 23 2 23 20 23 20 24 2 24 21 24 2 25 10 25 21 25 21 26 10 26 12 26 22 27 16 27 23 27 23 28 16 28 13 28 23 29 13 29 24 29 24 30 13 30 17 30 24 31 17 31 25 31 25 32 17 32 18 32 16 33 22 33 26 33 16 34 26 34 5 34 5 35 26 35 27 35 5 36 27 36 6 36 6 37 27 37 15 37 15 38 27 38 28 38 15 39 28 39 14 39 14 40 28 40 29 40 21 41 30 41 20 41 21 42 31 42 30 42 12 43 31 43 21 43 12 44 32 44 31 44 11 45 32 45 12 45 11 46 29 46 32 46 14 47 29 47 11 47 20 48 30 48 33 48 20 49 33 49 9 49 9 50 33 50 19 50 19 51 33 51 34 51 19 52 34 52 0 52 0 53 34 53 18 53 18 54 34 54 25 54 22 55 30 55 31 55 30 56 22 56 23 56 30 57 23 57 24 57 30 58 24 58 25 58 30 59 25 59 34 59 28 60 27 60 29 60 29 61 27 61 26 61 22 62 29 62 26 62 34 63 33 63 30 63 31 64 32 64 22 64 32 65 29 65 22 65 35 66 36 66 37 66 35 67 38 67 39 67 35 68 39 68 36 68 35 69 37 69 38 69 39 70 38 70 40 70 41 71 37 71 42 71 40 72 38 72 41 72 41 73 38 73 37 73 43 74 39 74 40 74 42 75 37 75 36 75 42 76 36 76 43 76 43 77 36 77 39 77 42 78 43 78 40 78 41 79 44 79 40 79 40 80 44 80 45 80 40 81 45 81 42 81 42 82 45 82 44 82 42 83 44 83 41 83 46 84 47 84 48 84 49 85 48 85 50 85 47 86 51 86 48 86 48 87 51 87 52 87 49 88 53 88 48 88 48 89 53 89 46 89 52 90 54 90 55 90 49 91 50 91 56 91 49 92 56 92 57 92 54 93 58 93 59 93 59 94 58 94 60 94 52 95 58 95 54 95 52 96 55 96 48 96 56 97 61 97 57 97 61 98 56 98 62 98 63 99 64 99 65 99 66 100 46 100 67 100 67 101 46 101 53 101 49 102 68 102 67 102 68 103 49 103 57 103 68 104 57 104 69 104 66 105 47 105 46 105 67 106 53 106 49 106 57 107 61 107 69 107 70 108 71 108 62 108 62 109 72 109 61 109 71 110 72 110 62 110 73 111 69 111 74 111 73 112 74 112 75 112 61 113 72 113 69 113 76 114 77 114 75 114 75 115 77 115 73 115 78 116 79 116 80 116 81 117 82 117 80 117 83 118 77 118 78 118 78 119 82 119 83 119 82 120 78 120 80 120 69 121 73 121 68 121 68 122 73 122 64 122 68 123 64 123 63 123 68 124 63 124 84 124 84 125 67 125 68 125 84 126 85 126 66 126 84 127 66 127 67 127 86 128 64 128 73 128 77 129 83 129 73 129 83 130 86 130 73 130 87 131 86 131 88 131 88 132 86 132 83 132 89 133 90 133 91 133 91 134 64 134 87 134 87 135 64 135 86 135 91 136 87 136 92 136 91 137 92 137 89 137 93 138 94 138 95 138 96 139 93 139 97 139 96 140 97 140 98 140 98 141 97 141 99 141 96 142 100 142 94 142 101 143 100 143 96 143 102 144 103 144 101 144 98 145 101 145 96 145 90 146 104 146 105 146 90 147 105 147 106 147 98 148 106 148 105 148 98 149 99 149 106 149 98 150 105 150 102 150 102 151 105 151 104 151 96 152 94 152 93 152 98 153 102 153 101 153 91 154 59 154 60 154 90 155 89 155 104 155 59 156 91 156 90 156 64 157 91 157 65 157 84 158 51 158 85 158 47 159 85 159 51 159 66 160 85 160 47 160 51 161 84 161 52 161 52 162 84 162 63 162 52 163 63 163 58 163 58 164 63 164 65 164 58 165 65 165 60 165 60 166 65 166 91 166 48 167 97 167 93 167 48 168 93 168 95 168 55 169 97 169 48 169 54 170 99 170 97 170 54 171 97 171 55 171 54 172 106 172 99 172 106 173 54 173 90 173 90 174 54 174 59 174 70 175 62 175 56 175 70 176 56 176 107 176 107 177 56 177 50 177 107 178 50 178 108 178 108 179 50 179 95 179 95 180 50 180 48 180 109 181 110 181 111 181 110 182 109 182 112 182 113 183 114 183 71 183 107 184 109 184 113 184 95 185 94 185 112 185 95 186 112 186 108 186 107 187 108 187 109 187 113 188 109 188 115 188 107 189 113 189 70 189 70 190 113 190 71 190 114 191 113 191 115 191 114 192 115 192 116 192 108 193 112 193 109 193 109 194 111 194 115 194 117 195 118 195 74 195 117 196 119 196 116 196 116 197 119 197 114 197 71 198 114 198 119 198 76 199 75 199 120 199 120 200 75 200 118 200 117 201 74 201 119 201 72 202 71 202 119 202 119 203 69 203 72 203 74 204 69 204 119 204 118 205 75 205 74 205 121 206 81 206 122 206 80 207 122 207 81 207 123 208 122 208 79 208 79 209 122 209 80 209 122 210 123 210 124 210 125 211 76 211 120 211 125 212 120 212 124 212 123 213 79 213 125 213 76 214 125 214 78 214 123 215 125 215 124 215 79 216 78 216 125 216 76 217 78 217 77 217 126 218 83 218 82 218 127 219 128 219 129 219 82 220 81 220 130 220 130 221 81 221 131 221 88 222 132 222 129 222 132 223 126 223 127 223 132 224 127 224 129 224 130 225 126 225 82 225 88 226 83 226 132 226 132 227 83 227 126 227 81 228 121 228 131 228 130 229 127 229 126 229 129 230 128 230 92 230 103 231 102 231 104 231 92 232 128 232 133 232 89 233 133 233 103 233 89 234 103 234 104 234 129 235 87 235 88 235 129 236 92 236 87 236 89 237 92 237 133 237 101 238 103 238 134 238 100 239 101 239 134 239 110 240 112 240 100 240 100 241 112 241 94 241 120 242 118 242 135 242 120 243 135 243 124 243 122 244 124 244 135 244 122 245 135 245 136 245 122 246 136 246 121 246 121 247 136 247 131 247 131 248 136 248 137 248 137 249 127 249 130 249 137 250 130 250 131 250 137 251 128 251 127 251 128 252 117 252 133 252 133 253 117 253 116 253 110 254 100 254 116 254 116 255 100 255 134 255 116 256 134 256 103 256 116 257 103 257 133 257 137 258 117 258 128 258 137 259 136 259 135 259 110 260 116 260 115 260 110 261 115 261 111 261 135 262 118 262 137 262 137 263 118 263 117 263 138 264 139 264 140 264 141 265 142 265 138 265 138 266 140 266 141 266 138 267 142 267 139 267 143 268 140 268 144 268 145 269 141 269 143 269 143 270 141 270 140 270 145 271 142 271 141 271 146 272 142 272 145 272 144 273 140 273 139 273 144 274 139 274 146 274 146 275 139 275 142 275 147 276 144 276 146 276 145 277 143 277 147 277 143 278 144 278 147 278 148 279 149 279 150 279 147 280 148 280 150 280 147 281 150 281 145 281 145 282 150 282 149 282 145 283 149 283 146 283 146 284 149 284 148 284 146 285 148 285 147 285 151 286 152 286 153 286 154 287 155 287 156 287 157 288 158 288 155 288 157 289 155 289 159 289 154 290 159 290 155 290 156 291 151 291 154 291 151 292 153 292 154 292 160 293 161 293 157 293 162 294 161 294 160 294 161 295 158 295 157 295 163 296 164 296 165 296 166 297 167 297 168 297 168 298 169 298 170 298 169 299 171 299 170 299 166 300 168 300 170 300 166 301 172 301 167 301 173 302 166 302 170 302 174 303 175 303 176 303 174 304 177 304 178 304 174 305 176 305 177 305 178 306 177 306 179 306 167 307 172 307 177 307 180 308 179 308 172 308 179 309 177 309 172 309 176 310 175 310 181 310 176 311 181 311 182 311 183 312 182 312 181 312 182 313 183 313 184 313 185 314 182 314 184 314 176 315 182 315 185 315 186 316 187 316 188 316 189 317 190 317 191 317 191 318 190 318 192 318 193 319 191 319 194 319 193 320 194 320 195 320 196 321 197 321 191 321 196 322 191 322 193 322 191 323 192 323 194 323 198 324 199 324 190 324 199 325 200 325 190 325 198 326 201 326 202 326 202 327 201 327 203 327 200 328 192 328 190 328 204 329 205 329 192 329 195 330 206 330 196 330 206 331 195 331 207 331 194 332 207 332 195 332 205 333 207 333 194 333 204 334 192 334 208 334 208 335 198 335 209 335 209 336 198 336 202 336 202 337 210 337 209 337 202 338 211 338 210 338 201 339 190 339 203 339 201 340 198 340 190 340 199 341 192 341 200 341 196 342 206 342 212 342 196 343 212 343 213 343 213 344 197 344 196 344 197 345 213 345 189 345 191 346 197 346 189 346 214 347 203 347 213 347 213 348 203 348 189 348 203 349 211 349 202 349 214 350 211 350 203 350 189 351 203 351 190 351 199 352 208 352 192 352 199 353 198 353 208 353 194 354 192 354 205 354 196 355 193 355 195 355 215 356 216 356 217 356 218 357 219 357 220 357 217 358 221 358 215 358 215 359 221 359 222 359 222 360 212 360 215 360 206 361 215 361 212 361 206 362 223 362 215 362 223 363 206 363 207 363 223 364 207 364 224 364 205 365 185 365 207 365 207 366 185 366 224 366 185 367 205 367 225 367 205 368 226 368 225 368 204 369 226 369 205 369 212 370 222 370 227 370 212 371 227 371 213 371 218 372 211 372 214 372 214 373 228 373 218 373 228 374 214 374 213 374 213 375 227 375 228 375 211 376 218 376 220 376 211 377 220 377 210 377 210 378 220 378 209 378 209 379 220 379 229 379 209 380 229 380 208 380 208 381 229 381 230 381 231 382 208 382 230 382 231 383 204 383 208 383 231 384 226 384 204 384 232 385 219 385 218 385 233 386 165 386 234 386 186 387 232 387 234 387 186 388 234 388 187 388 232 389 186 389 188 389 188 390 235 390 232 390 219 391 232 391 235 391 224 392 185 392 184 392 215 393 236 393 216 393 230 394 229 394 237 394 235 395 238 395 219 395 219 396 238 396 220 396 239 397 223 397 224 397 184 398 239 398 224 398 237 399 229 399 240 399 230 400 241 400 231 400 231 401 241 401 168 401 177 402 225 402 167 402 236 403 215 403 223 403 220 404 238 404 240 404 220 405 240 405 229 405 176 406 185 406 225 406 176 407 225 407 177 407 236 408 223 408 239 408 168 409 167 409 231 409 231 410 167 410 226 410 226 411 167 411 225 411 237 412 242 412 230 412 230 413 242 413 241 413 243 414 241 414 242 414 241 415 243 415 169 415 169 416 168 416 241 416 243 417 242 417 244 417 243 418 244 418 245 418 245 419 171 419 169 419 243 420 245 420 169 420 246 421 172 421 166 421 246 422 166 422 247 422 247 423 166 423 173 423 171 424 173 424 170 424 179 425 174 425 178 425 180 426 172 426 246 426 181 427 248 427 183 427 174 428 248 428 175 428 175 429 248 429 181 429 183 430 248 430 184 430 184 431 248 431 249 431 250 432 251 432 252 432 250 433 253 433 251 433 252 434 216 434 236 434 184 435 249 435 239 435 239 436 254 436 255 436 239 437 255 437 256 437 239 438 256 438 257 438 236 439 257 439 258 439 236 440 258 440 250 440 239 441 249 441 254 441 239 442 257 442 236 442 250 443 252 443 236 443 253 444 250 444 258 444 253 445 259 445 251 445 253 446 260 446 259 446 261 447 251 447 259 447 259 448 262 448 261 448 251 449 261 449 252 449 216 450 252 450 261 450 261 451 217 451 216 451 261 452 221 452 217 452 262 453 221 453 261 453 221 454 262 454 263 454 264 455 222 455 263 455 263 456 222 456 221 456 234 457 232 457 218 457 218 458 233 458 234 458 227 459 222 459 264 459 233 460 218 460 265 460 265 461 218 461 228 461 264 462 266 462 227 462 265 463 228 463 266 463 266 464 228 464 227 464 262 465 267 465 263 465 259 466 267 466 262 466 263 467 267 467 264 467 267 468 266 468 264 468 268 469 266 469 269 469 269 470 266 470 270 470 270 471 266 471 267 471 268 472 265 472 266 472 165 473 233 473 265 473 165 474 265 474 271 474 268 475 272 475 265 475 265 476 272 476 271 476 165 477 271 477 163 477 187 478 234 478 165 478 187 479 165 479 164 479 188 480 164 480 273 480 187 481 164 481 188 481 188 482 274 482 235 482 188 483 273 483 274 483 237 484 244 484 242 484 240 485 275 485 237 485 275 486 240 486 276 486 276 487 240 487 277 487 277 488 240 488 238 488 277 489 238 489 278 489 279 490 278 490 238 490 279 491 238 491 274 491 275 492 280 492 237 492 237 493 280 493 244 493 274 494 238 494 235 494 274 495 273 495 281 495 274 496 281 496 279 496 278 497 161 497 277 497 162 498 277 498 161 498 276 499 277 499 162 499 276 500 280 500 275 500 245 501 244 501 280 501 282 502 283 502 284 502 284 503 283 503 285 503 284 504 285 504 286 504 286 505 285 505 287 505 286 506 287 506 288 506 288 507 287 507 289 507 288 508 289 508 290 508 290 509 289 509 291 509 287 510 171 510 245 510 276 511 162 511 291 511 276 512 291 512 289 512 282 513 246 513 283 513 283 514 246 514 285 514 285 515 246 515 247 515 285 516 247 516 173 516 173 517 171 517 287 517 287 518 245 518 289 518 289 519 245 519 280 519 276 520 289 520 280 520 173 521 287 521 285 521 256 522 255 522 292 522 293 523 294 523 295 523 296 524 297 524 298 524 298 525 297 525 299 525 298 526 299 526 300 526 300 527 299 527 301 527 300 528 301 528 302 528 302 529 301 529 282 529 293 530 303 530 294 530 295 531 292 531 293 531 293 532 292 532 255 532 293 533 255 533 303 533 303 534 255 534 254 534 303 535 254 535 297 535 180 536 246 536 301 536 180 537 301 537 299 537 180 538 299 538 179 538 179 539 299 539 174 539 174 540 297 540 248 540 248 541 297 541 254 541 246 542 282 542 301 542 174 543 299 543 297 543 303 544 297 544 296 544 248 545 254 545 249 545 257 546 256 546 292 546 292 547 304 547 257 547 305 548 306 548 270 548 152 549 151 549 268 549 269 550 307 550 268 550 268 551 307 551 152 551 270 552 306 552 269 552 269 553 306 553 307 553 305 554 270 554 260 554 257 555 304 555 258 555 308 556 258 556 304 556 308 557 253 557 258 557 305 558 253 558 308 558 260 559 253 559 305 559 267 560 259 560 260 560 267 561 260 561 270 561 164 562 163 562 309 562 309 563 163 563 271 563 309 564 271 564 272 564 273 565 164 565 281 565 281 566 158 566 279 566 279 567 158 567 278 567 278 568 158 568 161 568 281 569 155 569 158 569 156 570 155 570 309 570 309 571 155 571 164 571 272 572 156 572 309 572 272 573 151 573 156 573 151 574 272 574 268 574 155 575 281 575 164 575 310 576 305 576 308 576 311 577 305 577 310 577 305 578 311 578 306 578 311 579 307 579 306 579 307 580 311 580 312 580 312 581 152 581 307 581 153 582 152 582 312 582 310 583 308 583 304 583 310 584 157 584 159 584 310 585 159 585 311 585 159 586 154 586 311 586 154 587 153 587 311 587 311 588 153 588 312 588 157 589 310 589 313 589 313 590 160 590 157 590 314 591 315 591 316 591 314 592 316 592 317 592 314 593 318 593 315 593 315 594 318 594 319 594 313 595 319 595 160 595 319 596 318 596 160 596 162 597 160 597 291 597 291 598 160 598 318 598 291 599 318 599 290 599 290 600 318 600 288 600 317 601 284 601 314 601 317 602 282 602 284 602 288 603 318 603 314 603 288 604 314 604 286 604 286 605 314 605 284 605 295 606 313 606 292 606 292 607 313 607 310 607 292 608 310 608 304 608 316 609 302 609 317 609 317 610 302 610 282 610 316 611 300 611 302 611 315 612 296 612 298 612 303 613 319 613 294 613 294 614 319 614 295 614 295 615 319 615 313 615 300 616 316 616 315 616 300 617 315 617 298 617 296 618 315 618 303 618 303 619 315 619 319 619 320 620 321 620 322 620 322 621 323 621 324 621 322 622 324 622 320 622 321 623 323 623 322 623 325 624 321 624 326 624 325 625 323 625 321 625 327 626 324 626 323 626 327 627 323 627 325 627 324 628 327 628 328 628 328 629 320 629 324 629 326 630 321 630 320 630 326 631 320 631 328 631 329 632 327 632 325 632 326 633 328 633 329 633 329 634 328 634 327 634 330 279 331 279 332 279 325 635 330 635 332 635 325 636 332 636 329 636 329 637 332 637 331 637 329 638 331 638 326 638 326 639 331 639 330 639 326 640 330 640 325 640 333 641 334 641 335 641 336 642 337 642 333 642 333 643 337 643 334 643 333 644 335 644 336 644 338 645 335 645 339 645 340 646 335 646 338 646 341 647 337 647 336 647 341 648 336 648 340 648 340 649 336 649 335 649 341 650 334 650 337 650 339 651 335 651 334 651 339 652 334 652 341 652 339 653 341 653 340 653 342 279 343 279 344 279 338 654 344 654 343 654 338 655 343 655 340 655 340 656 342 656 339 656 340 657 343 657 342 657 339 658 342 658 344 658 339 659 344 659 338 659</p>
        </triangles>
      </mesh>
    </geometry>
  </library_geometries>
  <library_visual_scenes>
    <visual_scene id="DefaultScene">
      <node id="node_199037e5_1efc_4a66_b73f_c6a8f4c593ca" type="NODE">
        <matrix>1 0 0 0 0 1 0 0 0 0 1 0 0 0 0 1</matrix>
        <node id="node_44cad968_d701_4004_9fec_7d6a285bdbc2" type="NODE">
          <matrix>1 0 0 0 0 1 0 0 0 0 1 0 0 0 0 1</matrix>
          <node id="node_44cad968_d701_4004_9fec_7d6a285bdbc2_mesh0" type="NODE">
            <matrix>1 0 0 0 0 1 0 0 0 0 1 0 0 0 0 1</matrix>
            <instance_geometry url="#geometry_114c3ebb_f040_430f_a348_b14d5f18e5d2">
              <bind_material>
                <technique_common>
                  <instance_material symbol="mat_0" target="#mat_0"/>
                </technique_common>
              </bind_material>
            </instance_geometry>
          </node>
        </node>
      </node>
    </visual_scene>
  </library_visual_scenes>
  <scene>
    <instance_visual_scene url="#DefaultScene"/>
  </scene>
</COLLADA>
