<?xml version="1.0" encoding="UTF-8"?>
<COLLADA xmlns="http://www.collada.org/2005/11/COLLADASchema" version="1.4.1">
<!--
# File generated by ImageToStl.com - Free Image and 3D model conversion tools
-->
  <asset>
    <contributor>
      <author>ImageToStl.com</author>
      <authoring_tool>ImageToStl.com</authoring_tool>
    </contributor>
    <created>2026-09-30T02:26:21</created>
    <modified>2026-09-30T02:26:21</modified>
    <up_axis>Z_UP</up_axis>
  </asset>
  <library_effects>
    <effect id="effect_0">
        <profile_COMMON>
          <technique sid="common">
            <phong>
              <diffuse>
                <color>0.9 0.9 0.9 1</color>
              </diffuse>
              <specular>
                <color>0.05 0.05 0.05 1</color>
              </specular>
              <shininess>
                <float>64</float>
              </shininess>
            </phong>
          </technique>
        </profile_COMMON>
    </effect>
  </library_effects>
  <library_materials>
    <material id="mat_0">
      <instance_effect url="#effect_0"/>
    </material>
  </library_materials>
  <library_geometries>
    <geometry id="geometry_d6f67f58_8509_4b8a_9353_24c1414f08f0">
      <mesh>
        <source id="pos_0">
          <float_array id="pos_0-array" count="1368">0.06094505 0.07159403 0.5970102 0.06102207 0.07040216 0.56267285 0.06106166 0.18313822 0.5940333 0.06006837 0.15163779 0.63189119 0.05940275 0.12992333 0.63707232 0.05953395 0.11231812 0.63580817 0.05984576 0.09218524 0.53150725 0.06097528 0.12844153 0.52089638 0.0610865 0.08680135 0.62119377 0.06098336 0.18180496 0.56122124 0.05974535 0.16988015 0.61824054 0.06104267 0.16293815 0.53322232 0.05869719 0.1350521 0.52124953 0.05869585 0.10955395 0.52298671 0.05869585 0.07238275 0.55715334 0.0586956 0.06895561 0.5909757 0.05869778 0.08424258 0.62041759 0.05870251 0.18078493 0.60144353 0.05869843 0.18502042 0.57322145 0.05870226 0.1769096 0.54902953 0.05870255 0.15762804 0.52915645 0.05017069 0.06896375 0.59266776 0.05030298 0.08330324 0.61888391 0.05030298 0.10300387 0.63300556 0.05026485 0.13209738 0.63819742 0.05027101 0.07149812 0.55817127 0.05025134 0.09136856 0.53146344 0.05030554 0.12119391 0.52044547 0.05020687 0.18505985 0.57166928 0.05030297 0.17738903 0.54914564 0.05030299 0.16101712 0.53127044 0.05030453 0.14174253 0.52238518 0.05025596 0.18103756 0.60300338 0.05027485 0.16174142 0.62638628 -0.0935778 0.16173364 0.54435319 -0.09380563 0.16015819 0.54676425 -0.09380408 0.16459067 0.5452013 -0.093656 0.16325682 0.54132164 -0.09380431 0.15985778 0.54184443 -0.09080383 0.16246328 0.5461694 -0.09080404 0.16406296 0.54220062 -0.09080419 0.16122398 0.54086393 -0.09080404 0.15981989 0.54410481 -0.08480416 0.16354102 0.54481447 -0.08480416 0.16048029 0.54273427 0.05012587 0.14147468 0.63594157 0.05013852 0.11770902 0.63725686 0.05019692 0.11671508 0.5196923 0.05015739 0.17884284 0.60686225 0.0501958 0.15155444 0.52580422 0.05013351 0.10164152 0.63214451 0.05016354 0.08517765 0.62072122 0.05013644 0.15947476 0.62823755 0.05019544 0.08048183 0.5418393 0.05019491 0.17328951 0.54237032 0.05015981 0.07580484 0.60824841 0.05018229 0.06932651 0.56782657 0.05015348 0.06885675 0.59017038 0.05017528 0.18537773 0.58161521 0.04941078 0.18367097 0.56808567 -0.03675488 0.07655717 0.61380261 -0.06129502 0.06637919 0.56902415 -0.04704431 0.06808278 0.59553772 -0.02038592 0.12969376 0.63990968 -0.02801323 0.16326842 0.6282438 -0.04080181 0.18107069 0.60707366 -0.05215769 0.18783805 0.58530211 0.02806869 0.179148 0.55160069 0.01135804 0.18039253 0.54404652 -0.00015818 0.18465528 0.55371028 -0.06029742 0.18697569 0.57056212 -0.02857437 0.18494742 0.54145753 -0.04521862 0.18386519 0.54861021 -0.05836976 0.17830938 0.54044271 -0.07165033 0.17837828 0.54568136 -0.07872862 0.15781148 0.5260585 -0.08163945 0.13395953 0.51791632 -0.08126809 0.11393504 0.51935446 -0.07852853 0.09444289 0.52689904 -0.07246192 0.07680022 0.54355884 -0.02741919 0.09216821 0.62911493 -0.0212552 0.11436191 0.63867164 -0.04081883 0.06828059 0.55339473 -0.05632087 0.07271741 0.54485017 -0.01972332 0.06793556 0.54167253 0.02527698 0.07155927 0.55779999 0.00348085 0.06674862 0.57381809 0.03134973 0.09180692 0.52853596 0.0372872 0.10609546 0.52332509 0.03858915 0.08890971 0.5341658 0.03732809 0.11324201 0.51251763 0.03907942 0.12346002 0.51919222 0.02494765 0.08845524 0.52097291 0.01300886 0.07667495 0.5335722 0.00221487 0.07216843 0.51230854 0.00473985 0.07169265 0.54184753 0.03073511 0.07875993 0.54427755 0.04075485 0.13151932 0.52032524 0.03406729 0.16844682 0.53706849 0.03832903 0.15147552 0.52543372 0.02977011 0.16110678 0.52552998 0.03496578 0.14554588 0.5125367 0.02316844 0.1662561 0.51290584 0.03707453 0.14187779 0.51968122 0.01337263 0.17696542 0.53309882 -0.00235274 0.18295561 0.51232982 -0.03051315 0.18474516 0.51231676 -0.04236327 0.18103404 0.51265633 -0.00950479 0.18451041 0.53069103 -0.05020806 0.17779806 0.52585119 -0.07900196 0.1330829 0.51653904 -0.07723469 0.14371604 0.51820302 -0.07363064 0.15587258 0.52268904 -0.06628557 0.16259003 0.51368994 -0.0675825 0.16638328 0.52814758 -0.06862578 0.08698268 0.5284338 -0.06323177 0.08569102 0.52167612 -0.04435456 0.07240181 0.51231313 -0.04659984 0.07339428 0.53023273 -0.07833008 0.11662761 0.51664656 -0.0750016 0.10382636 0.5194726 -0.0196982 0.06807535 0.51231754 0.02261718 0.0865819 0.51231956 -0.07872444 0.13639762 0.51232123 -0.07309072 0.09869954 0.51231694 -0.09380509 0.08863141 0.61629182 -0.09366147 0.09257621 0.61687434 -0.09355517 0.09097327 0.61391401 -0.09380443 0.09436991 0.61387902 -0.09380414 0.08961911 0.61202228 -0.0908041 0.09368823 0.61455441 -0.09080414 0.09161958 0.61764801 -0.09080394 0.09076363 0.61216676 -0.09080404 0.08874624 0.61521816 -0.08480416 0.09289545 0.61516958 -0.08480416 0.0896665 0.61385673 -0.08536839 0.11545296 0.51961428 -0.08554429 0.13075885 0.5188008 -0.0818148 0.12156907 0.5181188 -0.0764357 0.08554344 0.53386253 -0.07882713 0.07790843 0.54329181 -0.08317488 0.09424636 0.52801758 -0.07011901 0.07256568 0.54997689 -0.08059017 0.10363667 0.52211273 -0.0570843 0.06555382 0.577685 -0.07406822 0.06987781 0.55860591 -0.06895323 0.06630447 0.57359642 -0.09375058 0.08958236 0.53401989 -0.09072363 0.08824439 0.53391689 -0.09818579 0.09304902 0.53936046 -0.09869748 0.09582795 0.61522317 -0.09084739 0.09546489 0.61440593 -0.095983 0.09211982 0.62040854 -0.09076317 0.08959796 0.62277114 -0.09866183 0.1131979 0.62654716 -0.09224118 0.11904579 0.63558483 -0.09624131 0.12419952 0.63269264 -0.09217328 0.10220788 0.63108641 -0.09150597 0.1626965 0.62398773 -0.09090815 0.16360889 0.6222555 -0.096095 0.16108918 0.62027133 -0.09090632 0.15861014 0.61599439 -0.0985495 0.15770009 0.61531717 -0.09825233 0.14733399 0.62561297 -0.0920931 0.14145184 0.63467002 -0.09090623 0.15883052 0.61209959 -0.09892477 0.15800461 0.61176521 -0.0986174 0.16304705 0.6100983 -0.09091279 0.16318166 0.61076963 -0.09660578 0.15734024 0.59451264 -0.09837694 0.13234024 0.58552009 -0.09828767 0.1295197 0.59449434 -0.09811303 0.12587433 0.56059194 -0.09808555 0.11799701 0.56105596 -0.09788458 0.14222687 0.58635563 -0.09713477 0.15459312 0.58635432 -0.09772567 0.14442275 0.5606674 -0.09795484 0.13591371 0.56059486 -0.09722225 0.10374163 0.5951277 -0.09785852 0.11517563 0.5946455 -0.09852622 0.12136725 0.57512069 -0.09795848 0.11069996 0.57504851 -0.09755006 0.10322347 0.56147367 -0.0977965 0.11048846 0.56056255 -0.09642796 0.16685963 0.58813936 -0.09640579 0.15045969 0.61014253 -0.09643117 0.11399256 0.61602116 -0.0964516 0.13213554 0.61770397 -0.09644464 0.09313611 0.60133183 -0.09641677 0.09250633 0.55566925 -0.09642814 0.16274956 0.55941069 -0.0964309 0.13225764 0.53767908 -0.09638673 0.10921136 0.54137027 -0.09657487 0.08601921 0.57709527 -0.0966769 0.15113376 0.5448612 -0.09878308 0.16122733 0.54873115 -0.09860219 0.16498756 0.54716349 -0.09763718 0.15908687 0.54704714 -0.09845185 0.09038141 0.54812771 -0.09827648 0.09542982 0.54748458 -0.09735459 0.09410253 0.54714662 -0.09866446 0.09221505 0.60576993 -0.09869385 0.11069933 0.61896789 -0.09830913 0.15783443 0.5471468 -0.09869446 0.17145005 0.57429588 -0.09874177 0.16706681 0.59579849 -0.09871766 0.1462864 0.6175018 -0.09853567 0.12682535 0.62135065 -0.09870173 0.13446356 0.53371 -0.09870481 0.11161974 0.53604919 -0.09874989 0.08347033 0.56487173 -0.09870948 0.08373834 0.58798224 -0.09087785 0.09463856 0.54609776 -0.09841768 0.09563892 0.54264235 -0.09092331 0.09478724 0.54215568 -0.09092487 0.09027785 0.54749054 -0.09843189 0.09413679 0.61085182 -0.09867284 0.17725758 0.56945413 -0.09845142 0.08947536 0.61052775 -0.09869479 0.0766484 0.58919621 -0.09861974 0.08676581 0.54664683 -0.09842724 0.17481729 0.59595221 -0.09089772 0.09109565 0.61043245 -0.09482422 0.08449285 0.6146372 -0.0907484 0.08300357 0.61635113 -0.09072541 0.1704191 0.61639047 -0.09511989 0.16919644 0.61427933 -0.09225911 0.17674786 0.60795701 -0.09294951 0.18353996 0.59113526 -0.09234691 0.1848435 0.57173228 -0.09267843 0.17998469 0.55335975 -0.09488007 0.17017478 0.54241306 -0.09073552 0.17183375 0.54074782 -0.09089975 0.15865633 0.54577315 -0.09063022 0.16527563 0.53377074 -0.09090455 0.16286737 0.54761267 -0.09091504 0.1586488 0.54215884 -0.09812301 0.15790853 0.54265058 -0.09857185 0.15932637 0.53952271 -0.09861921 0.117765 0.52729493 -0.09842299 0.14660381 0.53043073 -0.09393114 0.16403362 0.53475451 -0.09240732 0.14491448 0.52219951 -0.09316213 0.13022056 0.51958013 -0.09244072 0.15511744 0.52666336 -0.09381628 0.09677293 0.52792209 -0.09239565 0.11486763 0.52037448 -0.090564 0.08144729 0.54060954 -0.09479864 0.08299407 0.54237443 -0.09701508 0.07286411 0.57204658 -0.09265845 0.07795174 0.60940629 -0.09253226 0.07037458 0.59301996 -0.09236518 0.06839584 0.57128173 -0.09271145 0.07474474 0.55119348 -0.07903483 0.06616445 0.57756561 -0.08601238 0.07098556 0.59974146 -0.05993469 0.11288236 0.63806427 -0.04067179 0.11849865 0.63940573 -0.06405184 0.13145953 0.63894308 -0.04465862 0.09560158 0.63152659 -0.06522513 0.09208343 0.62858343 -0.07209937 0.07828758 0.61505306 -0.05094687 0.08037956 0.61821324 -0.05636773 0.07219144 0.60596848 -0.06265043 0.06717776 0.59034741 -0.06890669 0.18744697 0.57399839 -0.05475057 0.17945749 0.60977805 -0.07214993 0.17466752 0.61544955 -0.04704652 0.16492131 0.62648952 -0.06120978 0.14884619 0.63538706 -0.04158939 0.14518873 0.63724148 -0.06268656 0.18646905 0.59082407 -0.07632555 0.18093075 0.55220807 -0.08091497 0.16918275 0.5361405 -0.08461069 0.1488259 0.5226841 -0.07218528 0.17810248 0.54494458 -0.0784561 0.1604633 0.52812803 -0.08166657 0.13957657 0.51893687 -0.0614567 0.18687655 0.56883782 -0.02657542 0.09415883 0.6309461 -0.03179053 0.16959178 0.62253612 -0.02344816 0.14737995 0.63609171 -0.02095013 0.12363023 0.63991511 -0.04139879 0.07218562 0.6065309 -0.04624987 0.18489051 0.59814906 -0.09380381 0.16266604 0.61746562 -0.09356208 0.1627776 0.61450255 -0.09371151 0.15977098 0.61263955 -0.09380443 0.16515496 0.61387902 -0.09080404 0.1642233 0.61619449 -0.09080404 0.16160737 0.61178231 -0.09080407 0.15974133 0.61495769 -0.08480416 0.16027606 0.61406457 -0.08480416 0.16391738 0.61478984 -0.09380527 0.08830774 0.54517901 -0.09366681 0.09271488 0.54608279 -0.09355517 0.09097324 0.54315245 -0.09380527 0.09431827 0.54230291 -0.0938043 0.08981654 0.54126233 -0.09080414 0.09285423 0.54169798 -0.09080391 0.09296928 0.54551375 -0.09080386 0.08860575 0.54571092 -0.09080383 0.09000073 0.54213333 -0.08480416 0.09173854 0.54551834 -0.08480416 0.09121424 0.54194272 0.05890898 0.13792095 0.52097696 0.059281 0.11567342 0.6365723 0.0609361 0.12638089 0.63811994 0.05906386 0.10859221 0.52278429 0.0596775 0.13961008 0.63633633 0.05909828 0.08436851 0.53767163 0.05890649 0.07052681 0.55976272 0.0589045 0.18158916 0.55797452 0.05889851 0.16683201 0.53579754 0.05892031 0.17676999 0.61041784 0.05891322 0.08902135 0.62421083 0.05998997 0.10002794 0.6311757 0.0589057 0.1590029 0.62810242 0.05890655 0.18536186 0.58361703 0.05905842 0.06896408 0.58899802 0.0589365 0.0740137 0.60467875 0.06427516 0.11007954 0.63673741 0.07890812 0.09281601 0.63625288 0.08950879 0.08834793 0.64509416 0.07098664 0.10693976 0.64431906 0.13860373 0.09420356 0.64505035 0.14619812 0.10475095 0.61757618 0.15201159 0.11813138 0.64511663 0.11022969 0.13545036 0.53433126 0.12662826 0.12992693 0.54872286 0.12211104 0.11403657 0.54566789 0.09456134 0.12448498 0.52580208 0.10577223 0.11247892 0.53302962 0.07438831 0.12471447 0.52121991 0.07855444 0.09853962 0.52921551 0.06681888 0.08355781 0.61736065 0.06987798 0.09647156 0.63165754 0.07649454 0.08187054 0.61606038 0.09137683 0.08378869 0.63080776 0.06660716 0.12251484 0.64503717 0.12288995 0.08317252 0.61032295 0.10424377 0.07651737 0.59765732 0.10290964 0.07701065 0.57589203 0.12586264 0.08662523 0.58830404 0.09401873 0.07764903 0.60936081 0.14041343 0.10162473 0.59378195 0.1286798 0.09524122 0.57277656 0.13452278 0.10815877 0.56675327 0.14663172 0.12043938 0.59106261 0.13648394 0.12376888 0.56334352 0.14226517 0.13563697 0.57807475 0.15112849 0.12816054 0.6113959 0.11681508 0.08396278 0.645123 0.08102764 0.07220204 0.56777966 0.0843033 0.07953991 0.55104536 0.09309569 0.09038675 0.54074949 0.10653348 0.08346538 0.56108624 0.1128276 0.09436189 0.55027068 0.15099621 0.14030161 0.64491796 0.11346948 0.17036141 0.64511967 0.0679449 0.13972332 0.64508426 0.12992561 0.16486293 0.6450491 0.14453053 0.152656 0.64501482 0.08704184 0.1635506 0.64490211 0.13072489 0.16561681 0.61914134 0.09810545 0.17813936 0.59425294 0.11507319 0.17343715 0.60811824 0.0988895 0.17266659 0.62487352 0.07602438 0.15721099 0.63767827 0.06861253 0.14532731 0.64003319 0.08414315 0.1808815 0.5700807 0.0852889 0.17368028 0.55026144 0.07361354 0.16870943 0.53990734 0.07950333 0.14769812 0.52573252 0.12924463 0.14365634 0.55649823 0.1312277 0.16425775 0.59879112 0.12798092 0.16028208 0.57527369 0.1062593 0.17545611 0.57688773 0.1332266 0.15292335 0.57246369 0.14476299 0.14721534 0.60301614 0.06852452 0.16087753 0.62682384 0.0832153 0.17912832 0.59735751 0.08302344 0.172929 0.61575878 0.06559628 0.13999164 0.63959497 0.0962009 0.15741092 0.53694826 0.07082251 0.17375158 0.61176175 0.11324459 0.1487233 0.54248273 0.11325559 0.16407689 0.55748898 0.14425595 0.128783 0.76466006 0.14378355 0.12204975 0.79436338 0.14405829 0.12091168 0.76096535 0.14112806 0.11034523 0.7512998 0.14250118 0.13961646 0.75466621 0.14356034 0.1339175 0.82046539 0.14607105 0.10404713 0.94312006 0.07587343 0.09912022 0.94155049 0.10202721 0.08375617 0.94139224 0.1522056 0.13493605 0.94146919 0.0713785 0.14614499 0.94312006 0.06593415 0.12741245 0.9415735 0.13664438 0.1607399 0.94139487 0.09759454 0.16872305 0.94312006 0.11735299 0.08395533 0.94115877 0.13344818 0.09028172 0.9405759 0.14713502 0.10480769 0.9405365 0.15202418 0.11856474 0.94059068 0.12218113 0.16833058 0.9405781 0.10722542 0.17012389 0.94056475 0.08980834 0.16573694 0.94055575 0.07592784 0.15445518 0.94057906 0.06768376 0.13947058 0.94058657 0.06751908 0.11408371 0.94056296 0.07427284 0.13297971 0.83352226 0.0757854 0.13431956 0.79159355 0.07493092 0.12607272 0.78451264 0.07464428 0.12031274 0.82889074 0.07463996 0.1202668 0.75593674 0.07398114 0.1328453 0.74605715 0.07272065 0.10404716 0.64292002 0.06649776 0.13411793 0.64482677 0.15173504 0.11710504 0.64398581 0.13325089 0.09030057 0.64470375 0.12826535 0.16589257 0.64449751 0.14478953 0.15212557 0.64463007 0.07303265 0.1506052 0.64389861 0.09697779 0.16821516 0.64485264 0.10447885 0.08347468 0.64447618 0.12023975 0.08486305 0.6454578 0.14724593 0.10514437 0.64547139 0.15232649 0.13433632 0.64546901 0.11392616 0.17006914 0.64547563 0.08185299 0.16038458 0.64545166 0.06770428 0.11409755 0.64547276 0.08921115 0.08766566 0.64549792 0.07408039 0.10149863 0.64545768 0.08445512 0.15242314 0.74887156 0.09519595 0.15904436 0.75839239 0.11681592 0.16165182 0.75457001 0.10623197 0.16095084 0.81270331 0.08046424 0.14651039 0.82661581 0.09090537 0.1575487 0.83812803 0.11397874 0.09117205 0.74697375 0.10300376 0.09191301 0.75810891 0.08357681 0.10219963 0.75787735 0.0828332 0.10246978 0.83490956 0.10212578 0.09156479 0.8328681 0.08752753 0.08901145 0.94056058 0.14454749 0.12048286 0.83422381 0.12816243 0.09697234 0.75795549 0.1372772 0.1062268 0.79860866 0.11949575 0.09309628 0.82797807 0.13330315 0.10018788 0.83369088 0.12134252 0.15978071 0.82635558 0.13221264 0.15368465 0.75572777 0.13686828 0.14982384 0.83583611 0.14646342 0.14818034 0.92576408</float_array>
          <technique_common>
            <accessor source="#pos_0-array" count="1368" stride="3">
              <param name="X" type="float"/>
              <param name="Y" type="float"/>
              <param name="Z" type="float"/>
            </accessor>
          </technique_common>
        </source>
        <source id="norm_0">
          <float_array id="norm_0-array" count="2628">1 -0.00098 0.00228 0.99954 -0.03042 0.00091 0.99903 0.0043 0.04382 0.9995 -0.02583 0.01814 0.99729 0.02019 0.0707 0.99946 0.00849 -0.03179 1 0.0017 -0.00246 0.98938 0.0979 0.10742 0.99999 -0.00118 -0.00511 0.99998 -0.00357 0.00452 -0.33191 -0.0641 -0.94113 0.88642 -0.15524 -0.43607 0.58168 -0.65624 -0.48063 -0.51943 -0.85016 -0.08615 0.73143 -0.68145 0.02529 -0.40386 -0.77337 0.48868 0.62516 -0.69271 0.35962 0.23039 -0.47303 0.85039 0.59953 0.68778 0.40929 -0.46139 0.87736 0.13174 0.76234 0.64656 -0.02809 -0.31807 0.89888 -0.30142 0.76694 0.53293 -0.35748 -0.38622 0.66202 -0.64232 0.65937 0.25183 -0.70839 0.63053 0.25643 -0.73258 0.09024 -0.88388 0.45893 0.01051 -0.87731 0.47981 -0.08301 -0.58059 0.80996 0.21937 -0.474 0.85276 -0.12057 -0.17455 0.97724 0.10537 -0.07044 0.99193 -0.0155 -0.99719 -0.07331 0.0919 -0.9907 -0.10038 0.01212 -0.80224 -0.59687 0.07011 -0.79108 -0.60768 0.04137 -0.43784 -0.8981 -0.19249 -0.33974 -0.92061 0.20351 -0.06656 -0.97681 0.06238 0.94629 -0.31725 0.04952 0.94551 -0.3218 0.03133 0.71736 -0.696 0.12653 0.73151 -0.66999 0.13454 0.32752 -0.93522 -0.05954 0.4179 -0.90654 -0.05969 0.09381 -0.9938 -0.01867 0.99168 0.12733 0.05689 0.98732 0.14817 0.12378 0.83579 0.53492 -0.11453 0.76617 0.63235 0.16843 0.59248 0.78778 -0.13891 0.36659 0.91996 0.17135 0.22368 0.95948 -0.99999 -0.00043 -0.00412 -1 0.001 0.00167 -1 0.00089 -0.00082 -0.99999 0.00111 0.00444 -1 -0.00057 0.0008 -1 -0.00128 -0.00015 -0.99999 0.00288 0.00288 -1 0.00012 -0.00178 -0.99999 -0.0016 -0.00303 -1 0.00109 0.00171 -1 0.00054 -0.00135 -0.99169 -0.04248 -0.12147 -0.99734 0.05145 0.05158 -0.99708 -0.07536 -0.01214 -0.99138 0.13074 -0.00825 -0.06833 0.33179 0.94088 0.47313 0.81712 0.32933 0.15649 0.42073 -0.89359 -0.16262 0.93116 -0.32634 -0.25106 -0.13644 -0.95831 0.27668 -0.88176 -0.38203 0.53235 -0.52109 0.66713 -0.05841 -0.99644 0.06083 1 -3E-05 -6E-05 0.37873 0.52024 -0.76545 -0.1612 -0.40408 -0.90041 0.24326 -0.54522 0.80222 0.27724 -0.59142 0.7572 -0.0819 0.92437 0.37259 1 0.00056 0.00049 1 -5E-05 0.00049 1 -0.00047 0.0005 1 0.00131 0.00074 1 -0.00033 0.00069 1 -0.0003 0.00067 1 0.0002 0.00039 1 -0.00043 0.00062 1 9E-05 0.00054 0.99999 -0.00404 0.0012 1 -0.00102 0.00046 1 -0.00037 0.00061 0.95024 0.29785 -0.09127 -0.88092 0.05699 0.46982 -0.00162 0.32788 0.94472 0.01917 0.39339 0.91917 0.02037 0.77123 0.63623 0.02413 0.95815 0.28524 0.0469 0.05522 0.99737 0.036 0.74055 0.67104 0.03229 0.96759 0.25047 0.33606 0.70215 -0.62773 0.05682 0.99013 -0.12812 0.10432 0.94988 -0.29468 0.0068 0.99804 -0.06214 -0.17019 0.95267 -0.2519 0.02165 0.99766 -0.06488 -0.14671 0.91164 -0.38391 -0.16989 0.95278 -0.2517 -0.94013 -0.00161 0.34081 -0.93942 0.00064 0.34276 -0.94119 0.00046 0.33788 -0.93571 0.00798 0.35267 -0.87488 0.07255 0.47888 -0.88204 0.00129 0.47118 -0.87665 -0.00297 0.48111 -0.85402 0.00043 0.52025 -0.85625 -0.00083 0.51656 -0.8454 0.0048 0.53412 -0.83738 -0.0003 0.54663 -0.90958 -0.00142 0.41552 -0.91545 0.00244 0.40243 -0.12137 -0.95374 -0.27504 -0.21303 -0.93346 -0.28858 0.12448 -0.98417 -0.12619 0.01333 -0.99454 -0.10352 -0.0263 -0.99949 -0.01792 0.4228 -0.46036 -0.78058 0.98986 -0.12019 -0.07573 0.79266 -0.50991 -0.33419 0.61236 -0.77695 -0.14619 0.76386 -0.47625 -0.43555 0.23853 -0.91871 -0.31477 0.31252 -0.885 -0.34512 0.42565 -0.70479 -0.56753 0.18041 -0.76074 -0.62348 0.60113 -0.78255 -0.16206 0.05243 -0.99841 -0.02092 0.1501 -0.96795 -0.20133 0.01948 -0.96455 -0.26317 0.00099 -0.99798 0.06359 0.01285 -0.39847 0.91709 0.03308 -0.30305 0.9524 0.02358 -0.08179 0.99637 0.03751 -0.56961 0.82106 0.01334 -0.70424 0.70984 0.03145 -0.79905 0.60044 0.01846 -0.91089 0.41223 0.02723 -0.93309 0.35861 0.01297 -0.99574 0.09134 -0.09083 -0.2217 -0.97088 0.11416 0.115 -0.98678 0.18012 -0.515 -0.83805 0.18563 -0.51247 -0.8384 -0.02867 -0.69427 -0.71915 0.02031 -0.88585 -0.46352 0.07619 -0.91626 -0.39328 0.09023 0.92446 -0.37046 -0.04081 0.79645 -0.60333 0.07919 0.60428 -0.79283 0.02188 0.56904 -0.82202 0.02854 0.25114 -0.96753 0.20074 0.16928 -0.96491 0.84108 0.48344 -0.24264 0.92351 0.37514 -0.07998 0.4011 0.69791 -0.59334 0.33809 0.06174 -0.93909 0.78192 0.2421 -0.57445 0.6089 0.54685 -0.57463 0.68018 0.73078 -0.05761 0.41311 0.80635 -0.42325 0.18874 0.94655 -0.26158 0.542 0.82234 -0.1732 0.45585 0.41298 -0.78845 -0.29849 0.95432 0.01324 0.06334 0.99621 -0.05969 0.30916 0.95017 0.03997 0.3265 0.9175 -0.22714 -0.27988 0.94114 -0.18953 -0.52928 0.84151 -0.1083 0.01831 0.9998 -0.00816 0.26094 0.95884 -0.11199 0.04597 0.99863 -0.02495 -0.02048 0.99684 -0.07674 -0.10144 0.99111 -0.0861 -0.39826 0.20607 -0.89383 -0.385 0.41782 -0.82293 -0.65263 0.31489 -0.68914 -0.83417 0.39088 -0.38907 -0.54805 0.76711 -0.33343 -0.55412 0.79164 -0.25741 -0.29253 0.56789 -0.76937 -0.2268 0.77852 -0.58521 -0.7915 0.56999 -0.22055 -0.42784 0.69667 -0.57585 -0.43283 -0.69312 -0.5764 -0.58478 -0.81069 -0.02837 -0.64245 -0.06674 -0.76341 -0.57412 -0.36447 -0.73318 -0.47821 -0.30607 -0.82319 -0.47082 -0.80958 -0.35059 -0.49613 -0.83547 -0.23632 -0.27561 -0.53073 -0.80148 -0.15621 -0.80054 -0.57856 -0.46924 -0.02493 -0.88272 -0.71327 -0.52001 -0.46994 -0.2103 -0.97724 0.02777 0.47457 -0.87851 -0.05472 -0.17283 -0.98494 -0.00484 0.18361 -0.98299 -0.00452 0.15194 -0.98797 -0.0289 -0.18473 -0.96838 -0.16769 -0.1191 -0.97538 -0.18562 0.57686 -0.81656 0.02142 0.86849 -0.47826 -0.13036 0.96597 0.07079 -0.24877 0.90738 0.10955 -0.40579 -0.6063 0.77686 -0.16994 -0.85305 0.42121 -0.30803 -0.98627 0.15501 0.05693 -0.99435 -0.04124 -0.09783 -0.85365 -0.12751 -0.505 -0.83738 -0.52493 0.15248 -0.96193 -0.26492 -0.06707 -0.6441 -0.70378 -0.29971 0.00018 1E-05 -1 0.00047 4E-05 -1 0.00662 0.00107 -0.99998 0.00903 0.00245 -0.99996 0.00039 0.00021 -1 -0.00044 0.00017 -1 -9E-05 4E-05 -1 0.08322 0.01255 -0.99645 0.05443 0.04878 -0.99733 -0.06496 0.02835 -0.99748 -0.03389 0.01677 -0.99929 -0.99716 0.04521 -0.06029 -0.98128 -0.07016 0.17937 -0.99731 -0.07315 0.0038 -0.98996 0.13779 0.03165 0.06361 0.82959 0.55474 0.14893 0.85148 0.50279 -0.0936 0.36241 -0.92731 0.30309 0.60267 -0.73819 -0.29911 -0.12873 0.9455 0.32595 -0.78862 -0.52137 0.28549 -0.61884 0.7318 -0.04332 -0.97335 -0.22518 1 2E-05 2E-05 0.31321 0.35769 -0.87975 0.16086 0.62418 -0.76454 0.0028 -0.83417 -0.5515 0.25884 -0.36381 0.89479 -0.08373 0.13265 0.98762 -0.30689 -0.05403 -0.95021 -0.33306 -0.68971 -0.64294 0.00525 -0.77781 -0.62847 0.03431 -0.53876 -0.84176 -0.48726 -0.3648 -0.79341 -0.03273 -0.21941 -0.97508 0.06047 -0.96053 -0.27152 0.02076 -0.97091 -0.23852 -0.24597 -0.88775 -0.3891 -0.38332 -0.88701 0.25744 -0.0953 -0.83264 -0.54555 -0.13513 -0.81184 -0.56802 -0.9199 -0.21283 0.32936 -0.71927 -0.18202 0.67046 -0.80731 -0.25727 0.5311 -0.7546 -0.18556 0.6294 -0.50088 0.82501 0.26168 -0.03774 0.78092 -0.62349 -0.23574 0.85256 -0.46644 -0.94218 0.02046 0.33448 -0.92442 0.25508 0.2835 -0.66007 0.35964 0.65952 -0.7836 0.11851 0.60986 -0.12294 0.99083 0.05606 -0.10595 0.98972 0.09605 -0.07209 0.31701 0.94568 -0.08809 0.29105 0.95264 -0.99776 0.0603 0.02888 -0.99995 -0.00405 -0.00954 -0.9997 -0.02426 0.00232 -0.99616 0.04317 0.07618 -0.99719 0.06047 0.0443 -0.99955 0.02703 -0.01305 -0.99875 0.0499 -0.00191 -0.99846 -0.05547 0.00209 -0.99314 -0.1169 -0.00311 -0.99719 -0.07418 0.01086 -0.99932 -0.03523 -0.01066 -0.96857 0.23332 -0.08626 -0.99835 0.0575 0.0002 -0.99758 0.05055 0.04766 -0.99881 0.03859 0.02977 -0.99778 -0.00727 0.06622 -0.99757 -0.03966 0.05723 -0.9977 -0.06687 0.01075 -0.99441 -0.10561 0.00085 -0.99923 -0.03777 -0.01062 -0.9838 0.15511 0.08983 -0.99925 -0.02964 0.02477 -0.9975 0.06994 -0.01 -0.99387 0.0642 -0.08995 -0.99712 0.02746 -0.07069 -0.9975 0.01574 -0.06885 -0.99977 0.01576 -0.01467 -0.99729 -0.0135 -0.07236 -0.99668 -0.02035 -0.07884 -0.99315 -0.0471 -0.10694 -0.99593 -0.05755 -0.06933 -0.96255 -0.01929 -0.2704 -0.99621 -0.02894 0.08207 -0.99658 -0.05277 0.06363 -0.99741 0.06027 0.0393 -0.99662 0.03347 0.07507 -0.99817 0.06052 -0.001 -0.99977 0.02138 -0.0009 -0.99883 -0.02803 0.03946 -0.89134 -0.13725 -0.43206 -0.46185 -0.09628 -0.88172 -0.99999 0.00124 -0.00397 -0.60604 0.26548 -0.74983 -0.9121 -0.31264 0.26519 -0.93909 -0.24413 0.24188 -0.73974 -0.6239 0.25205 -0.94432 -0.32571 0.0466 -0.60212 -0.78206 -0.16074 -0.94134 -0.27104 -0.20107 -0.86961 -0.42505 -0.25121 -0.89168 -0.21164 -0.40014 -0.91508 -0.15187 -0.37359 -0.76587 -0.13164 -0.62938 -0.61678 -0.38452 0.68682 -0.89311 -0.17009 0.41644 -0.9176 0.25944 0.30116 -0.80096 0.33113 0.49881 -0.90348 0.0661 0.42351 -0.85373 0.05316 0.51799 -0.73635 0.56666 0.36972 -0.93583 0.33919 0.09579 -0.74524 0.66676 -0.00643 -0.92336 0.36968 -0.10359 -0.77594 0.57021 -0.26977 -0.88525 0.26821 -0.38 -0.88185 0.27307 -0.38441 -0.83531 0.08837 -0.54264 -0.89191 0.04077 -0.45036 -0.11516 -0.99269 -0.03611 0.02504 -0.94434 -0.32802 -0.12819 -0.30049 -0.94513 -0.08523 -0.23044 -0.96935 -0.99713 0.07017 0.0284 -0.07625 -0.93147 0.35573 -0.99941 0.03425 -0.00365 -0.99899 0.03801 -0.02409 -0.99897 0.00104 0.04533 -0.99919 -0.02832 0.02843 -0.99894 0.04591 0.00117 -0.99999 0.00496 0.00148 -0.99987 0.0124 0.01041 -0.99916 0.04043 0.00604 -0.99899 0.04015 0.01997 -0.99999 -0.00152 0.00325 -1 -0.00177 0.00177 -0.99837 0.0135 0.05553 -0.99528 -0.09397 -0.0241 -0.99352 0.03531 0.10799 -0.99822 0.02505 0.05403 -0.99999 -0.00089 0.00452 -0.99995 0.00965 0.00104 -0.99448 -0.02924 -0.10082 0.02748 -0.06944 0.99721 -0.2239 -0.65431 0.72232 -0.00561 -0.93274 0.36051 -0.12375 0.58433 0.80202 -0.1145 0.58116 0.80569 -0.99996 -0.00716 0.00505 -0.99982 -0.00509 0.01826 -0.54618 -0.50285 0.66995 -0.55321 0.03763 0.83219 -0.64883 0.35607 0.67249 -0.78766 -0.38978 -0.47714 -0.99966 0.00623 0.02531 -0.99979 0.01575 -0.01287 -0.99988 0.01529 0.00084 -0.05808 -0.6114 0.78918 -0.29744 -0.41533 0.85967 -0.77436 0.55213 0.30908 -0.73622 0.61649 0.27913 -0.77065 0.63698 0.01886 -0.73357 0.66018 -0.16136 -0.87564 0.43368 -0.21253 -0.86237 0.44237 -0.24624 -0.83048 0.55395 0.05871 -0.90444 0.33382 0.2656 -0.48962 0.69599 -0.52524 -0.99979 0.00494 -0.01973 -0.99984 0.00612 -0.01662 -0.99883 0.04815 0.00412 -0.07611 -0.60524 -0.7924 -0.12544 -0.61959 -0.77484 0.06661 0.03056 -0.99731 -0.14613 0.39587 -0.90661 0.01251 0.96549 -0.26015 -0.10228 0.99475 -0.00164 0.91999 0.38941 0.0445 -0.88177 0.4708 -0.02874 -0.8214 -0.57035 -0.00068 -0.99956 -0.00604 0.02889 -0.99942 -0.00271 0.03391 -0.99846 -0.0375 -0.04095 -0.99948 0.01012 -0.03053 -0.99903 -0.03094 -0.03149 -0.9975 0.02098 -0.06743 -0.99995 -0.00093 -0.01043 -0.04132 0.79997 0.59861 -0.11119 0.78164 0.61374 -0.39024 0.81624 0.42599 -0.78381 0.14779 -0.60316 -0.75284 0.26175 -0.60392 -0.79318 0.33119 -0.51106 -0.81808 0.32801 -0.47239 -0.85876 0.06116 -0.50871 -0.88689 -0.21513 -0.40883 -0.75633 -0.0714 -0.65028 -0.76843 -0.19403 -0.60981 -0.81799 -0.37637 -0.43501 -0.04925 -0.78574 0.61659 -0.05142 -0.78267 0.62031 -0.99972 -0.02369 -0.00022 -0.99903 -0.04296 0.0099 -0.99889 -0.00423 -0.04696 -0.05968 0.59481 -0.80165 -0.10551 0.60853 -0.78648 -0.97745 -0.20507 -0.05048 -0.82339 -0.49481 0.27784 -0.76379 -0.58808 0.26605 -0.6864 -0.72469 0.06069 -0.69545 -0.68853 -0.20562 -0.81483 -0.50688 -0.28129 -0.84064 -0.4957 -0.21819 -0.73432 -0.67443 0.0769 -0.8701 -0.41795 0.26125 -0.52966 0.34244 -0.77602 -0.47778 -0.69513 -0.53715 -0.12899 -0.94618 -0.29682 -0.06876 -0.97548 -0.20907 -0.06521 -0.97591 -0.20822 -0.48469 -0.63853 0.59779 -0.32637 -0.85891 0.39465 -0.12254 -0.25662 0.95871 -0.05229 -0.05875 0.9969 0.0305 -0.32998 0.9435 -0.06224 -0.40082 0.91404 0.01912 -0.70492 0.70903 -0.04997 -0.64574 0.76192 -0.00089 -0.83108 0.55615 -0.06447 -0.87671 0.47668 -0.0277 -0.9485 0.31557 -0.20431 -0.97502 0.08718 -0.12557 -0.69219 0.7107 0.02994 -0.99872 0.0408 -0.08469 -0.97886 0.18616 -0.089 -0.06674 0.99379 -0.0654 -0.40007 0.91415 -0.13265 -0.55594 0.82057 -0.1021 -0.67015 0.73517 -0.15445 -0.77828 0.60862 -0.12901 -0.84442 0.51992 -0.09636 -0.97849 0.18241 -0.11618 0.99123 0.06298 0.00541 0.75573 0.65486 0.00653 0.47985 0.87733 -0.05344 0.20847 0.97657 0.02556 0.08167 0.99633 -0.13611 0.04131 0.98983 -0.09498 0.99115 0.09272 -0.08539 0.9223 0.37693 -0.08491 0.9227 0.37604 -0.08632 0.87582 0.47486 -0.07322 0.21131 0.97467 -0.12789 0.44836 0.88466 -0.12509 0.70219 0.70092 -0.14703 0.77812 0.61067 -0.07409 0.53211 0.84343 -0.07509 0.65666 0.75044 -0.46553 0.66516 0.58382 -0.07414 0.96209 -0.26246 -0.08255 0.96383 -0.25341 0.01672 0.54925 -0.83549 -0.09785 -0.05394 -0.99374 -0.02755 0.1768 -0.98386 -0.11439 0.21441 -0.97002 -0.14247 0.39634 -0.90698 -0.03293 0.5769 -0.81615 -0.08679 0.83055 -0.55014 -0.05241 0.8132 -0.57961 -0.12438 0.72205 -0.68057 -0.42404 0.56871 -0.70481 -0.2983 -0.61891 -0.72661 -0.12389 -0.82678 -0.54872 -0.05344 -0.89109 -0.45067 -0.08153 -0.37823 -0.92211 -0.06894 -0.37367 -0.925 -0.10273 -0.05651 -0.9931 -0.13593 -0.60224 -0.78666 0.00097 -0.7016 -0.71257 -0.04201 -0.68827 -0.72424 -0.32185 0.80574 -0.4972 0.03945 0.68211 -0.73019 -0.40466 0.55426 -0.72735 0.06783 0.39309 -0.91699 -0.447 0.20999 -0.86953 -0.06927 0.04584 -0.99654 0.93126 0.00086 -0.36435 0.93744 -0.00137 -0.34814 0.94275 -0.0001 -0.33349 0.95183 -0.00329 -0.30662 0.93824 0.00799 -0.34589 0.91248 -0.00164 -0.40912 0.90503 0.0016 -0.42535 0.85204 0.00055 -0.52347 0.84371 0.00232 -0.5368 0.85434 0.00112 -0.51971 0.85991 -0.00095 -0.51044 0.8876 -0.0016 -0.4606 0.8783 0.00225 -0.47811 -0.09254 -0.99194 0.08653 0.10133 -0.98018 0.17025 -0.01202 -0.95067 0.30996 -0.02145 -0.82666 0.56229 0.00737 -0.29242 0.95626 0.06275 -0.3345 0.94031 0.10742 -0.77055 0.62826 -0.02765 -0.65159 0.75807 -0.1286 0.94821 -0.29046 0.09373 0.94465 -0.3144 0.04276 0.16318 0.98567 -0.04632 0.07915 0.99579 -0.05345 0.7411 0.66927 -0.07817 0.92392 0.37451 0.08365 0.99613 0.02697 0.09046 0.99569 0.02053 -0.00845 0.5186 0.85497 0.0738 0.49282 0.867 0.10515 0.86929 0.48299 -0.99226 0.09721 -0.07729 -0.98399 -0.05593 0.16919 -0.98871 -0.12316 -0.0853 -0.18181 0.80785 0.56064 -0.39121 0.20005 -0.8983 0.55123 0.71769 -0.42551 0.36751 -0.80182 -0.47119 0.47961 -0.23342 0.84587 -0.38274 -0.79545 0.46986 0.21453 -0.19079 0.9579 -0.07532 0.85774 -0.50854 0.38441 0.18033 -0.90538 0.00142 -0.86215 -0.50665 0.16491 -0.26237 0.95077 -0.99693 0.04454 -0.06445 -0.98778 -0.0353 0.1518 -0.9973 -0.07317 0.00549 -0.99009 0.13111 0.05026 -0.08621 0.22436 -0.97069 0.19097 0.04431 0.9806 -0.00416 0.92054 0.39064 0.43385 0.90058 -0.02718 -0.15249 -0.19394 0.96909 0.28403 -0.14458 -0.94785 0.16054 -0.91959 -0.35857 0.15448 -0.92197 -0.35513 1 1E-05 1E-05 0.26637 0.95367 -0.13984 -0.0009 -0.15082 -0.98856 0.20057 -0.96931 0.14213 -0.15282 -0.74257 0.6521 0.20088 0.97917 -0.02954 -0.98845 0.14821 0.0317 -0.99998 -0.00514 0.00223 -0.99557 -0.09364 0.008 -0.99994 0.01116 -0.00169 -1 -4E-05 0.0003 -0.99237 0.11854 -0.03391 -0.99749 -0.0588 0.03942 -1 -0.00024 0.00192 -0.9993 -0.03672 0.00719 -1 -0.00039 5E-05 -1 0.00098 0.00016 -1 -0.00093 0.00022 -0.99988 -0.01496 0.0044 -0.99981 0.01475 -0.01252 -0.38335 -0.31664 0.86763 -0.64029 -0.61893 0.45492 0.87107 -0.48825 0.05334 0.65154 -0.03957 -0.75758 0.5037 -0.04887 -0.86249 -0.03695 -0.06166 -0.99741 0.01107 -0.52355 -0.85192 -0.02009 -0.79281 0.60914 -0.03799 -0.7375 0.67428 -0.5165 -0.83301 0.1983 -0.36944 -0.79774 0.47658 -0.52297 -0.72159 0.45365 -0.19141 -0.41146 0.8911 -0.81269 -0.25272 0.52503 -0.77359 -0.20919 0.59817 -0.16282 -0.11644 0.97976 0.36178 -0.93126 -0.04328 0.42341 -0.90201 -0.08428 -0.13204 -0.95715 0.25774 0.7391 -0.6369 -0.21931 0.80955 -0.50543 -0.29862 0.8995 -0.33741 -0.2776 0.9137 -0.19292 -0.35767 0.93768 -0.02669 -0.34648 0.73094 -0.67664 -0.0888 0.92562 -0.33214 -0.18139 0.96393 -0.23567 -0.12369 0.62785 -0.77744 -0.03714 -0.1524 -0.94713 0.28233 -0.13799 -0.95655 0.25684 0.7168 -0.69393 -0.06827 0.29122 -0.95391 0.0725 0.42372 -0.90086 0.09442 0.96899 -0.22874 -0.09341 0.05224 -0.9886 0.14123 0.19964 -0.91116 -0.36046 0.11807 -0.84193 -0.52651 0.09472 -0.99406 -0.05363 0.31649 -0.52915 0.78729 -0.27837 -0.68238 0.67592 0.1903 -0.75261 -0.63037 0.18443 -0.67787 -0.71167 0.3601 -0.48509 -0.79688 0.22042 -0.92795 0.30054 0.27767 -0.29173 -0.91531 -0.05285 -0.78184 0.62124 0.16171 -0.98669 0.01686 0.18923 -0.24195 -0.95166 0.20891 -0.28921 -0.93419 0.31717 -0.88981 -0.32809 0.30224 -0.89869 -0.31782 0.36698 -0.77943 -0.50775 0.40337 -0.75137 -0.52225 0.45448 -0.5148 -0.72693 0.57672 -0.43404 -0.6921 0.12369 -0.97154 0.20201 -0.04187 -0.89106 0.45194 0.2272 -0.97318 -0.03598 0.8007 -0.11457 -0.588 0.81263 -0.21997 -0.53967 0.70381 -0.45894 -0.54223 0.69966 -0.5365 -0.47185 0.52403 -0.78151 -0.33857 0.61371 -0.70577 -0.3539 0.48498 -0.83891 -0.24703 0.61457 -0.07476 -0.78531 -0.53993 -0.62488 0.56391 -0.7461 -0.4796 0.46185 -0.00047 0.00894 0.99996 0.00112 -0.00282 1 -0.00104 -0.00219 1 0.0028 -0.00446 0.99999 -0.00088 0.00108 1 0.00142 0.00407 0.99999 0.00094 -0.00168 1 -0.01286 0.01795 0.99976 -0.12148 -0.07978 0.98938 0.00276 -0.0064 0.99998 0.64079 0.76656 0.04208 0.19724 0.97624 0.0897 -0.24175 0.9291 0.27988 -0.65671 0.53043 0.53607 -0.68982 0.52833 0.49499 0.0971 0.98467 -0.14488 0.10158 0.84729 -0.52132 0.04845 0.83154 -0.55334 -0.01108 0.45615 -0.88983 0.84673 0.13071 -0.51572 0.54894 0.80841 -0.21245 0.87028 0.15598 -0.4672 0.85916 0.31948 -0.39972 0.42426 0.90468 0.03941 0.78981 0.60881 -0.0745 0.88447 0.46332 -0.05512 0.95603 0.27693 -0.09652 0.99888 0.04564 -0.01259 -0.62038 0.50572 0.59948 0.10105 0.97981 0.17253 -0.17019 0.93095 0.32305 -0.16456 0.93526 0.31337 0.96779 0.07184 -0.24131 0.95219 0.22934 -0.20182 0.88722 0.37809 -0.26437 0.7912 0.58124 -0.19016 0.4728 0.87991 -0.04708 0.75675 0.61933 -0.20918 0.46062 0.88461 -0.07281 -0.71315 0.17049 0.67996 -0.62041 0.71759 0.31647 -0.82071 0.43337 0.37233 -0.91588 0.07012 0.39529 -0.09152 0.97986 0.17747 0.31591 0.9443 0.09219 0.7127 0.70087 -0.0292 0.15026 0.15817 -0.97591 0.1492 0.5814 -0.79982 0.07147 0.94984 0.30447 0.22083 0.14035 -0.96516 0.3432 0.21989 -0.91316 0.37762 0.34369 -0.85982 0.27128 0.71196 -0.6477 0.17905 0.98381 0.00818 0.16726 0.86784 0.46785 0.18935 0.58507 -0.78857 0.18258 0.92742 -0.32642 0.11526 0.74634 0.65551 -0.04324 0.70482 0.70807 0.01207 0.5204 0.85384 -0.47168 0.32864 0.81824 0.45745 0.3876 -0.80032 0.11349 0.96487 0.23695 0.50717 0.60222 -0.61653 0.39481 0.72579 -0.56334 0.38485 0.84997 -0.35979 0.31502 0.89773 -0.30797 -0.04053 0.94701 0.31862 0.68491 0.25585 -0.68223 0.68149 0.26431 -0.68243 0.64675 0.53287 -0.54568 0.67513 0.55234 -0.48899 0.27984 0.9599 -0.01692 -0.78068 0.40202 0.47846 0.24777 0.96825 -0.03327 -0.48459 0.07144 0.87182 0.65997 0.62796 -0.41245 0.53692 0.79778 -0.27433 -0.12506 0.82476 0.55148 -0.4383 0.71519 0.54443 0.99952 -0.02943 0.00922 0.95925 -0.28202 0.0175 0.98745 0.1579 -0.00222 -0.01931 -0.04315 0.99888 0.02705 0.04799 0.99848 -0.03985 -0.07071 0.9967 -0.02176 -0.00846 0.99973 0.02272 0.01658 0.9996 0.03565 -0.0414 0.99851 0.01669 -0.12074 0.99254 0.15906 -0.31856 0.93446 0.72448 -0.68237 0.09748 0.90487 -0.32268 0.27766 0.49531 -0.05202 0.86716 0.01542 0.13597 0.99059 0.14502 0.52863 0.83637 -0.22752 0.90403 -0.3619 -0.44362 0.54728 0.70971 -0.39602 0.45983 0.79482 -0.87612 0.48202 0.00783 -0.73903 0.16078 0.65421 -0.30534 -0.10804 0.94609 -0.99103 0.12982 -0.0316 -0.99962 -0.02573 -0.0098 -0.99875 0.04992 3E-05 -0.99911 -0.03824 0.01794 0.0029 0.06388 -0.99795 0.0202 -0.04069 -0.99897 0.01014 0.00254 -0.99995 -0.00664 0.0631 -0.99799 0.00976 0.02033 -0.99975 -0.01953 -0.04848 -0.99863 0.0189 -0.04637 -0.99875 0.08834 -0.34116 -0.93584 0.28857 -0.22393 -0.9309 0.27858 0.07287 -0.95764 0.00783 0.25343 -0.96732 -0.20991 0.33519 -0.91847 -0.54536 -0.05984 -0.83607 -0.56056 -0.45546 0.69161 -0.14381 -0.29349 -0.94508 0.00698 0.00473 -0.99996 -0.99676 0.07135 0.03718 -0.99615 -0.05791 0.06578 -0.99726 0.00573 0.07379 -0.92574 0.37104 0.0731 -0.98876 0.14546 0.03447 -0.81409 0.57539 0.07862 -0.74626 0.662 0.06974 -0.45581 0.8865 0.07971 -0.56058 0.82607 0.05793 -0.11125 0.9907 0.07828 -0.10553 0.99125 0.07928 -0.1215 0.99254 -0.01015 -0.54706 0.83634 0.03552 -0.91653 0.39962 -0.01666 -0.71299 0.70072 -0.02522 -0.20511 0.97871 0.00732 -0.91295 0.40759 -0.01991 -0.2575 -0.96149 0.09607 -0.02598 -0.99883 0.04086 -0.46688 -0.87969 0.09036 -0.46794 -0.88376 -0.00142 -0.49284 -0.87006 -0.00984 -0.67356 -0.73657 0.06149 -0.88949 -0.45025 0.07795 -0.89601 -0.44397 -0.00709 -0.89684 -0.43496 0.0806 -0.90889 -0.41702 0.00032 -0.33652 -0.93923 -0.06789 -0.4972 -0.86318 -0.08786 -0.65701 -0.75094 -0.06647 -0.86883 -0.48984 -0.07209 -0.89511 -0.43832 -0.08156 -0.99121 -0.11259 -0.06952 -0.99703 -0.00108 -0.077 -0.98806 0.1377 -0.06916 -0.92121 0.38081 -0.07978 -0.87412 0.48088 -0.06832 -0.68249 0.72674 -0.07783 -0.6293 0.77412 -0.06862 -0.3385 0.93768 -0.07859 -0.24366 0.96751 -0.06752 -0.15174 -0.2681 0.95137 0.99829 0.05601 -0.01693 0.99985 -0.01079 0.01346 0.97074 0.22766 0.07634 0.99705 -0.03987 0.06565 0.99613 -0.05656 0.06721 0.93669 -0.34254 0.07262 0.94275 -0.32594 0.07052 0.72357 -0.6861 0.07555 0.73391 -0.67534 0.07276 0.38813 -0.91882 0.07157 0.3246 -0.94258 0.0786 0.08342 -0.99426 0.06694 0.71739 -0.69667 -0.00225 0.92803 -0.36998 0.04333 0.38116 -0.9245 -0.004 -0.04056 -0.99883 0.02649 0.92123 -0.38763 -0.03289 0.7639 -0.64487 -0.02447 0.45458 -0.89068 0.00696 0.08682 -0.99622 -0.00362 0.05704 0.99812 0.02242 0.2832 0.95677 0.06632 0.45992 0.88794 -0.00586 0.45322 0.88768 0.08134 0.53567 0.84437 0.00956 0.63859 0.76708 0.06153 0.80638 0.59112 -0.01838 0.80736 0.58417 0.0832 0.91782 0.39186 0.06364 0.92751 0.37339 0.01741 0.87444 -0.48489 0.01559 0.14145 0.98733 -0.07193 0.11879 0.99008 -0.07498 0.46666 0.88171 -0.06942 0.57342 0.81504 -0.08307 0.74374 0.66509 -0.0672 0.88582 0.45596 -0.08618 0.94288 0.32566 -0.07011 0.99746 0.00031 -0.07127 0.9975 -0.00728 -0.07025 0.9399 -0.33375 -0.07209 0.87202 -0.48072 -0.0921 0.72622 -0.68444 -0.06442 0.48183 -0.87246 -0.08151 0.36283 -0.92936 -0.06819 0.06543 -0.99472 -0.0791 0.01187 -0.99735 -0.07175 0.84981 0.51283 0.12177</float_array>
          <technique_common>
            <accessor source="#norm_0-array" count="2628" stride="3">
              <param name="X" type="float"/>
              <param name="Y" type="float"/>
              <param name="Z" type="float"/>
            </accessor>
          </technique_common>
        </source>
        <vertices id="vert_0">
          <input semantic="POSITION" source="#pos_0"/>
        </vertices>
        <triangles count="876" material="mat_0">
          <input semantic="VERTEX" source="#vert_0" offset="0"/>
          <input semantic="NORMAL" source="#norm_0" offset="1"/>
          <p>0 0 1 0 2 0 3 1 4 1 2 1 2 2 4 2 5 2 2 3 6 3 7 3 5 4 8 4 2 4 2 5 1 5 6 5 7 6 9 6 2 6 10 7 3 7 2 7 8 8 0 8 2 8 7 9 11 9 9 9 12 10 7 10 13 10 13 11 7 11 6 11 6 12 1 12 14 12 14 13 1 13 15 13 15 14 1 14 0 14 15 15 0 15 8 15 15 16 8 16 16 16 16 17 8 17 5 17 10 18 2 18 17 18 17 19 2 19 18 19 18 20 2 20 9 20 18 21 9 21 19 21 9 22 11 22 19 22 19 23 11 23 20 23 20 24 11 24 7 24 20 25 7 25 12 25 21 26 15 26 16 26 21 27 16 27 22 27 22 28 16 28 23 28 23 29 16 29 5 29 23 30 5 30 24 30 24 31 5 31 4 31 15 32 21 32 25 32 15 33 25 33 14 33 14 34 25 34 26 34 14 35 26 35 6 35 6 36 26 36 13 36 13 37 26 37 27 37 13 38 27 38 12 38 19 39 28 39 18 39 19 40 29 40 28 40 20 41 29 41 19 41 20 42 30 42 29 42 12 43 31 43 20 43 20 44 31 44 30 44 12 45 27 45 31 45 18 46 28 46 32 46 18 47 32 47 17 47 17 48 32 48 10 48 10 49 32 49 33 49 10 50 33 50 3 50 3 51 33 51 24 51 3 52 24 52 4 52 21 53 28 53 29 53 24 54 33 54 28 54 21 55 29 55 30 55 28 56 21 56 22 56 28 57 22 57 23 57 23 58 24 58 28 58 27 59 26 59 25 59 31 60 27 60 21 60 21 61 27 61 25 61 28 62 33 62 32 62 30 63 31 63 21 63 34 64 35 64 36 64 37 65 38 65 34 65 34 66 36 66 37 66 34 67 38 67 35 67 39 68 36 68 35 68 40 69 36 69 39 69 41 70 37 70 40 70 40 71 37 71 36 71 41 72 38 72 37 72 42 73 38 73 41 73 39 74 35 74 42 74 42 75 35 75 38 75 42 76 41 76 40 76 40 77 43 77 44 77 40 78 44 78 42 78 42 79 44 79 43 79 42 80 43 80 39 80 39 81 43 81 40 81 45 82 46 82 47 82 48 83 47 83 49 83 46 84 50 84 47 84 47 85 50 85 51 85 48 86 52 86 47 86 47 87 52 87 45 87 51 88 53 88 47 88 48 89 49 89 54 89 53 90 55 90 56 90 56 91 55 91 57 91 51 92 55 92 53 92 54 93 58 93 48 93 58 94 54 94 59 94 60 95 61 95 62 95 63 96 45 96 64 96 64 97 45 97 52 97 48 98 65 98 64 98 65 99 48 99 66 99 63 100 46 100 45 100 64 101 52 101 48 101 48 102 58 102 66 102 67 103 68 103 59 103 59 104 69 104 58 104 68 105 69 105 59 105 70 106 66 106 71 106 70 107 71 107 72 107 58 108 69 108 66 108 73 109 74 109 72 109 72 110 74 110 70 110 74 111 75 111 76 111 77 112 78 112 79 112 79 113 74 113 76 113 79 114 76 114 77 114 66 115 70 115 65 115 65 116 70 116 61 116 65 117 61 117 60 117 65 118 60 118 80 118 80 119 64 119 65 119 80 120 81 120 63 120 80 121 63 121 64 121 74 122 79 122 70 122 79 123 61 123 70 123 82 124 61 124 83 124 83 125 61 125 79 125 84 126 85 126 86 126 86 127 61 127 82 127 86 128 82 128 84 128 87 129 88 129 89 129 88 130 90 130 91 130 92 131 90 131 88 131 93 132 94 132 92 132 87 133 92 133 88 133 85 134 95 134 93 134 85 135 93 135 96 135 87 136 96 136 93 136 87 137 89 137 96 137 87 138 93 138 92 138 86 139 56 139 57 139 85 140 84 140 95 140 56 141 86 141 85 141 61 142 86 142 62 142 80 143 50 143 81 143 46 144 81 144 50 144 63 145 81 145 46 145 50 146 80 146 51 146 51 147 80 147 60 147 51 148 60 148 55 148 55 149 60 149 62 149 55 150 62 150 57 150 57 151 62 151 86 151 47 152 88 152 91 152 47 153 91 153 97 153 53 154 89 154 88 154 53 155 88 155 47 155 53 156 96 156 89 156 96 157 53 157 85 157 85 158 53 158 56 158 67 159 59 159 54 159 67 160 54 160 98 160 98 161 54 161 49 161 98 162 49 162 99 162 99 163 49 163 97 163 97 164 49 164 47 164 100 165 101 165 102 165 101 166 100 166 103 166 98 167 100 167 104 167 97 168 91 168 103 168 97 169 103 169 99 169 98 170 99 170 100 170 104 171 100 171 102 171 98 172 104 172 67 172 67 173 104 173 68 173 104 174 102 174 105 174 99 175 103 175 100 175 106 176 107 176 71 176 106 177 108 177 105 177 105 178 108 178 104 178 68 179 104 179 108 179 73 180 72 180 109 180 109 181 72 181 107 181 106 182 71 182 108 182 69 183 68 183 108 183 108 184 66 184 69 184 71 185 66 185 108 185 107 186 72 186 71 186 110 187 76 187 111 187 112 188 111 188 75 188 75 189 111 189 76 189 111 190 112 190 113 190 114 191 73 191 109 191 114 192 109 192 113 192 112 193 75 193 114 193 73 194 114 194 74 194 112 195 114 195 113 195 75 196 74 196 114 196 115 197 79 197 78 197 116 198 117 198 118 198 119 199 77 199 76 199 78 200 77 200 120 200 120 201 77 201 119 201 83 202 115 202 118 202 115 203 116 203 118 203 120 204 115 204 78 204 83 205 79 205 115 205 76 206 110 206 119 206 120 207 116 207 115 207 118 208 117 208 84 208 94 209 93 209 95 209 84 210 117 210 121 210 84 211 121 211 94 211 84 212 94 212 95 212 118 213 82 213 83 213 118 214 84 214 82 214 92 215 94 215 122 215 90 216 92 216 122 216 101 217 103 217 90 217 90 218 103 218 91 218 109 219 107 219 113 219 111 220 113 220 123 220 111 221 123 221 110 221 110 222 123 222 119 222 119 223 123 223 124 223 124 224 116 224 120 224 124 225 120 225 119 225 124 226 117 226 116 226 117 227 106 227 121 227 121 228 106 228 105 228 101 229 90 229 105 229 105 230 90 230 122 230 105 231 122 231 94 231 105 232 94 232 121 232 124 233 106 233 117 233 124 234 123 234 113 234 101 235 105 235 102 235 113 236 107 236 124 236 124 237 107 237 106 237 125 238 126 238 127 238 128 239 129 239 127 239 126 240 128 240 127 240 127 241 129 241 125 241 130 242 128 242 131 242 131 243 128 243 126 243 132 244 129 244 128 244 132 245 128 245 130 245 126 246 125 246 131 246 133 247 129 247 132 247 131 248 125 248 133 248 133 249 125 249 129 249 130 250 131 250 133 250 134 251 135 251 132 251 130 252 134 252 132 252 132 253 135 253 133 253 133 254 135 254 134 254 133 255 134 255 130 255 136 256 137 256 138 256 139 257 140 257 141 257 142 258 140 258 139 258 143 259 139 259 141 259 141 260 136 260 143 260 136 261 138 261 143 261 144 262 145 262 142 262 146 263 145 263 144 263 145 264 140 264 142 264 147 265 148 265 149 265 150 266 151 266 152 266 151 267 153 267 152 267 154 268 150 268 152 268 155 269 156 269 157 269 157 270 154 270 152 270 157 271 156 271 154 271 158 272 159 272 160 272 159 273 161 273 162 273 159 274 162 274 160 274 154 275 156 275 163 275 162 276 163 276 160 276 158 277 160 277 163 277 164 278 163 278 156 278 165 279 162 279 161 279 162 280 165 280 166 280 165 281 167 281 166 281 168 282 167 282 165 282 169 283 170 283 171 283 172 284 173 284 170 284 170 285 173 285 171 285 174 286 170 286 169 286 174 287 169 287 175 287 176 288 177 288 170 288 176 289 170 289 174 289 178 290 179 290 173 290 179 291 180 291 173 291 178 292 181 292 182 292 182 293 181 293 183 293 180 294 171 294 173 294 175 295 184 295 176 295 169 296 184 296 175 296 185 297 184 297 169 297 179 298 186 298 187 298 178 299 188 299 186 299 188 300 178 300 182 300 189 301 188 301 182 301 181 302 173 302 183 302 181 303 178 303 173 303 179 304 171 304 180 304 176 305 184 305 190 305 176 306 190 306 191 306 191 307 177 307 176 307 177 308 191 308 172 308 170 309 177 309 172 309 192 310 183 310 191 310 191 311 183 311 172 311 183 312 189 312 182 312 192 313 189 313 183 313 172 314 183 314 173 314 187 315 171 315 179 315 179 316 178 316 186 316 169 317 171 317 185 317 171 318 187 318 185 318 176 319 174 319 175 319 188 320 189 320 193 320 194 321 191 321 190 321 195 322 196 322 197 322 198 323 199 323 200 323 201 324 150 324 202 324 195 325 197 325 203 325 190 326 203 326 194 326 190 327 195 327 203 327 204 328 195 328 190 328 184 329 204 329 190 329 204 330 184 330 205 330 185 331 166 331 184 331 184 332 166 332 205 332 166 333 185 333 206 333 187 334 206 334 185 334 187 335 207 335 206 335 194 336 203 336 208 336 194 337 208 337 191 337 199 338 189 338 192 338 192 339 209 339 199 339 209 340 192 340 191 340 191 341 208 341 209 341 189 342 199 342 210 342 189 343 210 343 193 343 193 344 210 344 211 344 193 345 211 345 188 345 188 346 211 346 201 346 202 347 186 347 188 347 202 348 188 348 201 348 202 349 207 349 186 349 186 350 207 350 187 350 212 351 213 351 214 351 212 352 200 352 213 352 215 353 200 353 212 353 215 354 198 354 200 354 167 355 205 355 166 355 216 356 150 356 201 356 210 357 199 357 198 357 195 358 217 358 196 358 216 359 201 359 218 359 201 360 219 360 218 360 198 361 220 361 210 361 217 362 195 362 204 362 217 363 204 363 221 363 221 364 204 364 205 364 167 365 221 365 205 365 219 366 201 366 211 366 211 367 210 367 219 367 163 368 206 368 154 368 219 369 210 369 220 369 162 370 166 370 206 370 162 371 206 371 163 371 150 372 154 372 202 372 202 373 154 373 207 373 207 374 154 374 206 374 222 375 216 375 218 375 151 376 216 376 222 376 151 377 150 377 216 377 222 378 223 378 224 378 222 379 218 379 223 379 224 380 153 380 151 380 222 381 224 381 151 381 152 382 153 382 157 382 164 383 156 383 155 383 163 384 164 384 158 384 159 385 158 385 225 385 165 386 225 386 168 386 159 387 225 387 161 387 161 388 225 388 165 388 168 389 225 389 167 389 167 390 225 390 226 390 226 391 227 391 221 391 221 392 227 392 228 392 228 393 229 393 217 393 217 394 229 394 230 394 231 395 196 395 230 395 230 396 196 396 217 396 228 397 217 397 221 397 226 398 221 398 167 398 232 399 231 399 230 399 233 400 232 400 234 400 235 401 232 401 233 401 234 402 236 402 233 402 232 403 235 403 231 403 235 404 196 404 231 404 235 405 197 405 196 405 233 406 197 406 235 406 197 407 233 407 237 407 237 408 233 408 236 408 238 409 203 409 237 409 237 410 203 410 197 410 213 411 200 411 199 411 209 412 213 412 199 412 208 413 203 413 238 413 149 414 213 414 239 414 239 415 238 415 240 415 213 416 209 416 239 416 238 417 239 417 208 417 239 418 209 418 208 418 241 419 237 419 236 419 234 420 241 420 236 420 237 421 241 421 238 421 242 422 243 422 240 422 242 423 240 423 244 423 244 424 240 424 241 424 241 425 240 425 238 425 243 426 239 426 240 426 245 427 149 427 239 427 243 428 246 428 239 428 239 429 246 429 245 429 147 430 149 430 245 430 214 431 213 431 149 431 214 432 149 432 148 432 212 433 148 433 247 433 214 434 148 434 212 434 247 435 215 435 212 435 215 436 248 436 198 436 215 437 247 437 248 437 249 438 219 438 220 438 250 439 223 439 219 439 250 440 219 440 251 440 251 441 249 441 252 441 252 442 249 442 253 442 253 443 220 443 248 443 220 444 253 444 249 444 219 445 249 445 251 445 223 446 218 446 219 446 198 447 248 447 220 447 248 448 247 448 253 448 253 449 145 449 252 449 146 450 254 450 145 450 252 451 145 451 254 451 224 452 223 452 250 452 255 453 250 453 251 453 157 454 256 454 155 454 257 455 258 455 256 455 257 456 256 456 259 456 259 457 256 457 260 457 259 458 260 458 261 458 259 459 261 459 262 459 262 460 261 460 263 460 263 461 261 461 255 461 263 462 255 462 264 462 254 463 251 463 252 463 261 464 153 464 224 464 254 465 146 465 264 465 254 466 264 466 255 466 256 467 258 467 155 467 256 468 157 468 260 468 260 469 157 469 153 469 260 470 153 470 261 470 261 471 224 471 250 471 261 472 250 472 255 472 251 473 254 473 255 473 229 474 228 474 265 474 266 475 267 475 268 475 268 476 269 476 270 476 270 477 269 477 258 477 270 478 258 478 257 478 164 479 155 479 258 479 271 480 265 480 228 480 271 481 228 481 266 481 266 482 228 482 227 482 266 483 227 483 267 483 164 484 258 484 269 484 164 485 269 485 158 485 158 486 267 486 225 486 225 487 267 487 227 487 158 488 269 488 268 488 158 489 268 489 267 489 225 490 227 490 226 490 265 491 272 491 230 491 265 492 230 492 229 492 273 493 274 493 244 493 137 494 136 494 243 494 242 495 274 495 243 495 243 496 274 496 137 496 244 497 274 497 242 497 273 498 244 498 234 498 272 499 232 499 230 499 273 500 232 500 272 500 234 501 232 501 273 501 234 502 244 502 241 502 148 503 147 503 245 503 247 504 140 504 253 504 253 505 140 505 145 505 246 506 141 506 245 506 246 507 136 507 141 507 136 508 246 508 243 508 141 509 148 509 245 509 247 510 148 510 141 510 140 511 247 511 141 511 275 512 273 512 272 512 276 513 273 513 275 513 273 514 276 514 274 514 274 515 276 515 277 515 277 516 137 516 274 516 138 517 137 517 277 517 275 518 142 518 139 518 275 519 139 519 276 519 139 520 143 520 276 520 143 521 138 521 276 521 276 522 138 522 277 522 142 523 275 523 278 523 278 524 144 524 142 524 279 525 280 525 281 525 279 526 281 526 282 526 279 527 283 527 280 527 280 528 283 528 284 528 278 529 284 529 144 529 284 530 283 530 144 530 146 531 144 531 264 531 264 532 144 532 283 532 264 533 283 533 263 533 263 534 283 534 262 534 282 535 259 535 279 535 282 536 257 536 259 536 262 537 283 537 279 537 262 538 279 538 259 538 265 539 278 539 275 539 265 540 275 540 272 540 281 541 270 541 282 541 282 542 270 542 257 542 280 543 266 543 268 543 266 544 284 544 271 544 271 545 284 545 265 545 265 546 284 546 278 546 270 547 281 547 280 547 270 548 280 548 268 548 266 549 280 549 284 549 285 550 286 550 287 550 288 551 287 551 286 551 285 552 288 552 286 552 289 553 288 553 285 553 290 554 287 554 288 554 290 555 288 555 289 555 291 556 287 556 290 556 289 557 285 557 291 557 291 558 285 558 287 558 289 559 292 559 293 559 289 560 293 560 290 560 290 561 293 561 292 561 290 562 292 562 291 562 291 563 292 563 289 563 294 564 295 564 296 564 296 565 297 565 298 565 295 566 297 566 296 566 298 567 294 567 296 567 298 568 297 568 299 568 300 569 295 569 301 569 300 570 297 570 295 570 299 571 297 571 300 571 295 572 294 572 301 572 298 573 299 573 302 573 301 574 298 574 302 574 301 575 294 575 298 575 300 576 301 576 302 576 303 577 304 577 299 577 299 578 304 578 302 578 302 579 304 579 303 579 302 580 303 580 300 580 300 581 303 581 299 581 305 582 306 582 307 582 305 583 308 583 306 583 307 584 309 584 305 584 306 585 310 585 311 585 312 586 313 586 314 586 311 587 315 587 316 587 311 588 316 588 306 588 306 589 308 589 310 589 309 590 317 590 305 590 305 591 317 591 313 591 313 592 317 592 314 592 314 593 318 593 312 593 315 594 311 594 319 594 319 595 320 595 315 595 306 596 316 596 321 596 322 597 323 597 324 597 325 598 326 598 327 598 328 599 329 599 330 599 331 600 328 600 332 600 305 601 333 601 308 601 308 602 334 602 310 602 320 603 335 603 315 603 336 604 335 604 337 604 323 605 322 605 338 605 337 606 338 606 322 606 336 607 337 607 322 607 321 608 316 608 336 608 339 609 307 609 324 609 324 610 307 610 321 610 321 611 307 611 306 611 340 612 341 612 342 612 340 613 342 613 343 613 338 614 337 614 344 614 345 615 343 615 346 615 345 616 346 616 347 616 345 617 347 617 348 617 348 618 347 618 349 618 348 619 349 619 350 619 326 620 343 620 345 620 326 621 345 621 348 621 326 622 348 622 351 622 325 623 340 623 343 623 323 624 338 624 352 624 352 625 338 625 344 625 325 626 343 626 326 626 352 627 341 627 340 627 352 628 340 628 325 628 327 629 326 629 351 629 341 630 352 630 344 630 353 631 311 631 354 631 354 632 311 632 310 632 311 633 353 633 319 633 316 634 315 634 335 634 316 635 335 635 336 635 355 636 354 636 310 636 355 637 310 637 334 637 334 638 332 638 355 638 337 639 320 639 319 639 332 640 334 640 331 640 337 641 335 641 320 641 341 642 319 642 353 642 334 643 308 643 331 643 331 644 308 644 333 644 342 645 353 645 354 645 342 646 354 646 356 646 356 647 354 647 355 647 356 648 355 648 357 648 357 649 355 649 332 649 330 650 357 650 332 650 341 651 344 651 319 651 319 652 344 652 337 652 342 653 341 653 353 653 330 654 329 654 349 654 330 655 349 655 347 655 330 656 347 656 357 656 357 657 347 657 346 657 357 658 346 658 343 658 357 659 343 659 356 659 356 660 343 660 342 660 330 661 332 661 328 661 336 662 322 662 324 662 336 663 324 663 321 663 339 664 327 664 358 664 339 665 359 665 360 665 325 666 327 666 339 666 361 667 359 667 339 667 339 668 323 668 352 668 339 669 352 669 325 669 339 670 362 670 361 670 360 671 359 671 363 671 339 672 324 672 323 672 339 673 358 673 362 673 362 674 364 674 361 674 365 675 359 675 366 675 359 676 367 676 363 676 363 677 368 677 360 677 360 678 368 678 369 678 318 679 370 679 312 679 312 680 371 680 372 680 312 681 372 681 313 681 313 682 373 682 305 682 329 683 374 683 349 683 375 684 376 684 377 684 350 685 349 685 374 685 350 686 374 686 378 686 361 687 364 687 366 687 375 688 362 688 379 688 379 689 362 689 358 689 379 690 358 690 351 690 327 691 351 691 358 691 368 692 380 692 369 692 381 693 367 693 365 693 382 694 363 694 367 694 382 695 367 695 381 695 351 696 348 696 350 696 351 697 350 697 379 697 379 698 350 698 378 698 379 699 378 699 375 699 364 700 375 700 366 700 378 701 376 701 375 701 366 702 375 702 377 702 307 703 339 703 383 703 368 704 363 704 382 704 360 705 369 705 383 705 360 706 383 706 339 706 367 707 359 707 365 707 366 708 359 708 361 708 375 709 364 709 362 709 333 710 305 710 373 710 373 711 313 711 372 711 381 712 318 712 314 712 331 713 333 713 373 713 328 714 331 714 373 714 328 715 373 715 384 715 384 716 372 716 371 716 370 717 318 717 365 717 385 718 381 718 314 718 384 719 373 719 372 719 370 720 371 720 312 720 380 721 385 721 314 721 380 722 314 722 317 722 380 723 317 723 383 723 383 724 317 724 309 724 328 725 384 725 386 725 381 726 365 726 318 726 387 727 386 727 384 727 387 728 384 728 371 728 387 729 371 729 377 729 377 730 371 730 370 730 382 731 381 731 385 731 374 732 329 732 328 732 374 733 328 733 386 733 374 734 386 734 387 734 378 735 374 735 387 735 366 736 377 736 365 736 369 737 380 737 383 737 365 738 377 738 370 738 383 739 309 739 307 739 376 740 378 740 387 740 376 741 387 741 377 741 382 742 385 742 368 742 368 743 385 743 380 743 388 744 389 744 390 744 390 745 389 745 391 745 392 746 393 746 388 746 394 747 395 747 396 747 397 748 398 748 394 748 394 749 398 749 399 749 399 750 395 750 394 750 398 751 397 751 400 751 398 752 400 752 401 752 394 753 396 753 402 753 402 754 403 754 394 754 394 755 403 755 404 755 394 756 404 756 405 756 394 757 405 757 397 757 400 758 406 758 407 758 400 759 407 759 401 759 401 760 407 760 408 760 401 761 408 761 409 761 401 762 409 762 398 762 398 763 409 763 410 763 398 764 410 764 399 764 399 765 411 765 395 765 412 766 413 766 414 766 415 767 412 767 414 767 415 768 414 768 416 768 417 769 416 769 414 769 418 770 419 770 420 770 420 771 421 771 418 771 422 772 423 772 424 772 422 773 424 773 425 773 424 774 423 774 420 774 419 775 424 775 420 775 418 776 421 776 426 776 427 777 426 777 421 777 421 778 420 778 428 778 420 779 423 779 429 779 430 780 422 780 425 780 425 781 424 781 431 781 419 782 418 782 432 782 432 783 418 783 433 783 433 784 418 784 426 784 433 785 434 785 432 785 413 786 417 786 414 786 432 787 416 787 419 787 419 788 416 788 417 788 419 789 417 789 424 789 424 790 417 790 413 790 424 791 413 791 435 791 424 792 435 792 431 792 431 793 435 793 425 793 425 794 435 794 436 794 425 795 436 795 430 795 430 796 436 796 437 796 438 797 437 797 436 797 439 798 436 798 435 798 439 799 435 799 413 799 439 800 440 800 436 800 436 801 440 801 438 801 413 802 412 802 439 802 433 803 426 803 441 803 433 804 441 804 442 804 433 805 442 805 443 805 443 806 442 806 444 806 444 807 442 807 445 807 434 808 433 808 443 808 432 809 434 809 443 809 416 810 443 810 444 810 432 811 443 811 416 811 416 812 444 812 415 812 445 813 396 813 446 813 445 814 446 814 444 814 444 815 446 815 395 815 444 816 395 816 411 816 444 817 411 817 415 817 415 818 411 818 399 818 415 819 399 819 412 819 412 820 399 820 410 820 412 821 410 821 439 821 439 822 410 822 409 822 439 823 409 823 440 823 440 824 409 824 408 824 440 825 408 825 438 825 438 826 408 826 407 826 395 827 446 827 396 827 447 828 389 828 393 828 389 829 388 829 393 829 429 830 392 830 388 830 429 831 388 831 420 831 420 832 388 832 390 832 420 833 390 833 428 833 428 834 390 834 391 834 428 835 391 835 421 835 421 836 391 836 448 836 421 837 448 837 427 837 427 838 448 838 441 838 427 839 441 839 426 839 391 840 449 840 448 840 391 841 389 841 449 841 441 842 448 842 450 842 441 843 450 843 442 843 389 844 447 844 449 844 449 845 451 845 448 845 448 846 451 846 450 846 442 847 450 847 445 847 437 848 438 848 452 848 422 849 430 849 437 849 453 850 437 850 452 850 422 851 437 851 453 851 453 852 452 852 454 852 423 853 422 853 453 853 392 854 453 854 454 854 423 855 453 855 392 855 429 856 423 856 392 856 393 857 392 857 454 857 449 858 447 858 451 858 438 859 407 859 452 859 452 860 407 860 406 860 452 861 406 861 400 861 452 862 400 862 454 862 454 863 400 863 455 863 454 864 455 864 393 864 393 865 455 865 397 865 393 866 397 866 447 866 447 867 397 867 405 867 447 868 405 868 404 868 447 869 404 869 451 869 451 870 404 870 403 870 451 871 403 871 450 871 450 872 403 872 402 872 450 873 402 873 445 873 445 874 402 874 396 874 397 875 455 875 400 875</p>
        </triangles>
      </mesh>
    </geometry>
  </library_geometries>
  <library_visual_scenes>
    <visual_scene id="DefaultScene">
      <node id="node_f2cc4e5f_4765_420e_b868_06bf712f0c14" type="NODE">
        <matrix>1 0 0 0 0 1 0 0 0 0 1 0 0 0 0 1</matrix>
        <node id="node_102ff4b6_0927_46e2_8609_c42d3935bb33" type="NODE">
          <matrix>1 0 0 0 0 1 0 0 0 0 1 0 0 0 0 1</matrix>
          <node id="node_102ff4b6_0927_46e2_8609_c42d3935bb33_mesh0" type="NODE">
            <matrix>1 0 0 0 0 1 0 0 0 0 1 0 0 0 0 1</matrix>
            <instance_geometry url="#geometry_d6f67f58_8509_4b8a_9353_24c1414f08f0">
              <bind_material>
                <technique_common>
                  <instance_material symbol="mat_0" target="#mat_0"/>
                </technique_common>
              </bind_material>
            </instance_geometry>
          </node>
        </node>
      </node>
    </visual_scene>
  </library_visual_scenes>
  <scene>
    <instance_visual_scene url="#DefaultScene"/>
  </scene>
</COLLADA>
