<?xml version="1.0" encoding="UTF-8"?>
<COLLADA xmlns="http://www.collada.org/2005/11/COLLADASchema" version="1.4.1">
<!--
# File generated by ImageToStl.com - Free Image and 3D model conversion tools
-->
  <asset>
    <contributor>
      <author>ImageToStl.com</author>
      <authoring_tool>ImageToStl.com</authoring_tool>
    </contributor>
    <created>2026-09-30T02:03:42</created>
    <modified>2026-09-30T02:03:42</modified>
    <up_axis>Z_UP</up_axis>
  </asset>
  <library_effects>
    <effect id="effect_0">
        <profile_COMMON>
          <technique sid="common">
            <phong>
              <diffuse>
                <color>0.9 0.9 0.9 1</color>
              </diffuse>
              <specular>
                <color>0.05 0.05 0.05 1</color>
              </specular>
              <shininess>
                <float>64</float>
              </shininess>
            </phong>
          </technique>
        </profile_COMMON>
    </effect>
  </library_effects>
  <library_materials>
    <material id="mat_0">
      <instance_effect url="#effect_0"/>
    </material>
  </library_materials>
  <library_geometries>
    <geometry id="geometry_30797863_5f13_4f5e_8902_47ad92e7db0e">
      <mesh>
        <source id="pos_0">
          <float_array id="pos_0-array" count="999">0.04493847 0.1169654 0.9455353 0.04588575 0.13007604 0.94529724 0.04639807 0.11821441 0.94741887 0.03022489 0.09158771 0.95242 0.03053011 0.0926009 0.94944179 0.03903478 0.10064496 0.94947267 0.04005865 0.10365298 0.94674861 0.02080942 0.08643004 0.95248133 0.0189947 0.08504525 0.95670325 0.01782455 0.09922226 0.94137651 0.02653874 0.09171677 0.94142145 0.01876733 0.08752212 0.94140494 0.01523305 0.09574127 0.94135463 0.02144408 0.09868402 0.94134212 0.01515004 0.15882275 0.93435943 0.01547461 0.16197234 0.93390709 0.01763225 0.16427043 0.93599135 0.01874863 0.15261205 0.93513232 0.01495867 0.15475513 0.93513429 0.01580584 0.15533163 0.93585455 0.01926445 0.15373138 0.93575305 0.01404822 0.15793958 0.93380994 0.00710545 0.12232484 0.93404174 0.00751361 0.1151941 0.9343105 -0.01102504 0.11360145 0.934304 -0.01110433 0.11975528 0.93425441 -0.0107442 0.13269983 0.93413496 -0.01108169 0.12700485 0.93411368 0.01341152 0.10426188 0.93483084 0.00751746 0.10624677 0.93452919 0.01340408 0.12437054 0.93401462 0.01354544 0.13476637 0.9341284 -0.00063217 0.13027258 0.93393165 0.01367093 0.14312814 0.93450141 -0.01110197 0.13814151 0.93442315 -0.01103514 0.14339028 0.93446255 -0.00066846 0.13798355 0.93413097 0.0045754 0.09594578 0.93518579 0.01467847 0.09869958 0.93516338 0.01898203 0.10109236 0.93516546 0.02931927 0.14101523 0.93518794 0.03124382 0.11837957 0.93516016 -0.01147847 0.09911328 0.93519497 -0.02493877 0.11343642 0.93520391 -0.02785334 0.1267291 0.93514746 -0.02463974 0.14052624 0.93519264 -0.01326649 0.15311104 0.93517983 0.0007716 0.15746571 0.93518662 0.00055241 0.16046293 0.93380255 -0.03068489 0.11579135 0.93417484 -0.02966332 0.11626233 0.93376231 -0.03182068 0.11361159 0.93374252 -0.0299625 0.12021567 0.93552065 -0.03284563 0.12284256 0.93425 -0.02913652 0.12115133 0.93429011 -0.02856774 0.11861755 0.93440419 -0.01649183 0.09915032 0.933797 -0.00168833 0.09306776 0.933779 -0.02928404 0.13674527 0.93378305 -0.01866959 0.15322004 0.93376625 0.00179162 0.16438819 0.93374598 0.02286699 0.15544315 0.93387771 0.02146284 0.15475821 0.94133705 0.01521436 0.15727648 0.94139457 0.01819434 0.15414979 0.94136554 0.02719082 0.16157305 0.93933517 0.02540758 0.15919304 0.93534344 0.02643447 0.16156264 0.94136864 0.0329576 0.15640035 0.93813455 0.03471921 0.14564951 0.93388867 0.0413987 0.13635907 0.93553507 0.03736286 0.11363083 0.93380719 0.0430725 0.1396527 0.93960506 0.0391521 0.14821057 0.93865138 0.04159398 0.12024445 0.93527269 0.04486166 0.12572333 0.93897825 0.03964828 0.1059681 0.9389084 0.04325232 0.11476415 0.93938607 0.03348116 0.10026646 0.93596244 0.02367922 0.09663476 0.93397474 0.0268001 0.0931313 0.93682092 0.02752825 0.16184214 0.9419536 0.0327039 0.09627086 0.93960035 0.02769073 0.09161387 0.94186759 0.02149287 0.09932373 0.93396002 0.02158267 0.15373608 0.93385267 0.03137305 0.11129815 0.93377423 0.02820967 0.14711489 0.93378258 0.0349758 0.13059901 0.93379557 0.01911275 0.09979688 0.93549883 0.0159109 0.09811969 0.93590486 0.01480268 0.09529244 0.93393958 0.01607285 0.0919119 0.93399018 0.00174608 0.08822698 0.93387735 -0.02429131 0.09982578 0.93387771 0.01855559 0.08659238 0.94195491 0.0175174 0.08627485 0.93860877 0.01642932 0.08893348 0.93526733 0.00023572 0.08304574 0.93887573 -0.03780692 0.1134392 0.94137818 -0.03007571 0.11894342 0.94135338 -0.03122715 0.11586471 0.94137013 -0.03954295 0.12178686 0.94136119 -0.03216058 0.12234922 0.94139457 -0.03590086 0.11340868 0.93591255 -0.03821364 0.11199552 0.93959707 -0.03195813 0.10083722 0.93880534 -0.01085813 0.0885217 0.93511677 -0.01381234 0.08613406 0.93954933 -0.02402351 0.09258133 0.93869293 -0.03790221 0.12294452 0.93578106 -0.04003185 0.1221565 0.93908477 -0.034463 0.12393557 0.93384242 -0.03364052 0.13662414 0.93378752 -0.02014774 0.15733771 0.9339028 -0.02936495 0.15054168 0.93498123 -0.00996541 0.16604981 0.9356342 0.00141195 0.17046298 0.93952864 -0.00966694 0.16862555 0.93926626 -0.01962508 0.1640332 0.93907464 -0.03449181 0.14954671 0.94004691 -0.02672694 0.15854007 0.93895298 -0.03677784 0.14128502 0.93674088 0.00611109 0.16790833 0.93589568 -0.04031263 0.13459343 0.93987876 0.01329456 0.1683985 0.93847251 0.01852557 0.16645581 0.93944657 0.01872402 0.16597389 0.94138837 0.01829429 0.16708854 0.94198334 0.03474679 0.15698747 0.9482106 0.04274996 0.143998 0.94611394 0.02340018 0.16568138 0.9515636 0.03110077 0.1616703 0.95206439 0.0448227 0.14192384 0.94791633 0.0096022 0.17115325 0.96076638 -0.00916848 0.17102557 0.97068465 -0.00076328 0.08129062 0.96599591 -0.02086667 0.08730964 0.97776037 -0.03482518 0.09967703 0.98722142 -0.02456351 0.16361535 0.98022372 -0.0341982 0.15422462 0.98688489 -0.04204793 0.11487482 0.99244905 -0.04019881 0.14421496 0.99105191 -0.04361698 0.12852876 0.99362618 -0.00250823 0.08185216 0.96067762 -0.01318542 0.08425769 0.96502024 -0.04327996 0.12452125 0.97939032 -0.0405017 0.11135987 0.97800517 -0.03447801 0.10033938 0.97494185 -0.02667845 0.09201366 0.9710989 0.00898642 0.08271654 0.95642781 -0.03842467 0.11235136 0.94223964 -0.04056353 0.1224331 0.94197041 -0.01196009 0.16966566 0.96448916 0.00232335 0.17156366 0.95889199 -0.042007 0.13694401 0.97886169 -0.03754422 0.14810435 0.97649324 -0.03174833 0.15646881 0.97355264 -0.02391478 0.16348019 0.96976769 0.01369062 0.16964298 0.95476717 -0.03452757 0.1156612 0.93841976 -0.03639314 0.11971969 0.93855035 -0.03331558 0.11837833 0.93866903 -0.03351794 0.12182803 0.93841976 -0.03123024 0.11759903 0.93842018 -0.03447766 0.12116609 0.94142008 -0.037021 0.11881273 0.94142002 -0.03178105 0.11957539 0.94142008 -0.03265474 0.11583815 0.94141996 -0.03418833 0.11702386 0.94142002 -0.03453982 0.12020185 0.94742 -0.03490374 0.11703973 0.94742 -0.0322354 0.1190588 0.94742 -0.04179415 0.12170811 1.04882002 -0.04052782 0.13296129 1.05121207 -0.03753116 0.14518301 1.04882002 -0.03169614 0.15379839 1.05127561 -0.02858484 0.15754664 1.04882002 -0.01194829 0.16698933 1.05115306 -0.01198902 0.16749853 1.04882002 0.00380175 0.16947587 1.04882014 0.01184283 0.1679039 1.05126834 0.02279482 0.16418859 1.04882002 0.03561206 0.15218289 1.05121613 0.03698086 0.1502697 1.04882002 0.0442343 0.12957764 1.04882002 0.04355998 0.12708093 1.05119944 -0.02528912 0.09341849 1.05125248 -0.00287162 0.08454806 1.05119944 0.03806567 0.10585023 1.05119944 -0.03897077 0.11328157 1.05122185 0.02085 0.08895415 1.0512042 0.04089448 0.11065893 1.04882002 0.03292528 0.09782883 1.04882002 0.01674735 0.08671102 1.04882002 -0.0087207 0.08445832 1.04882038 -0.03184466 0.09914415 1.04882002 0.00517372 0.08375923 1.04637909 0.02380379 0.08975378 1.04640651 0.037655 0.1035746 1.0464437 0.04427361 0.12197202 1.04642344 -0.01419616 0.08621597 1.04640305 -0.03034749 0.09722373 1.0464437 -0.04175955 0.11826646 1.04642999 -0.00295573 0.17000487 1.04641593 -0.02490048 0.16132869 1.04647267 -0.03815214 0.14495562 1.04635203 0.01647419 0.16697347 1.04644501 0.03132092 0.15788664 1.0464412 0.04181401 0.14138287 1.0464437 0.00379465 0.16953336 1.04628301 -0.03992902 0.13901614 1.04626203 -0.04182738 0.12438115 1.04629588 0.04517029 0.12671807 1.04632127 -0.03815201 0.10938693 1.04627514 0.03511476 0.1541371 1.04631972 0.0184925 0.1663744 1.0463202 -0.00953407 0.16849329 1.04625988 -0.03419391 0.15130089 1.04628921 -0.02372028 0.16187617 1.04626703 -0.03174962 0.09884025 1.0462538 0.01888209 0.08727011 1.04632008 0.03511473 0.09929904 1.04631972 -0.00129904 0.08350722 1.04626989 -0.02017713 0.08943015 1.04627299 0.01044175 0.08269714 0.96087724 0.0253973 0.08813566 0.95462233 0.02945481 0.0860981 0.97072244 0.02543619 0.08381173 1.0016427 0.05090433 0.08568333 1.0063771 0.04175228 0.08817399 1.0131526 0.05077308 0.08369341 0.98821515 0.05089384 0.08842689 0.97300631 0.04165844 0.08989891 0.96904105 0.02793722 0.08346821 0.98327637 0.03071143 0.08714993 1.0160135 -7.258E-05 0.08134568 0.9937312 0.0010918 0.08173525 0.96555531 0.01529988 0.0856688 1.0351609 0.02601365 0.09112445 1.03631163 -0.04274255 0.11703657 1.01115084 -0.04324492 0.13246323 1.01364744 -0.01145623 0.08328533 1.00153995 -0.02277952 0.08840007 0.99891579 -0.01156706 0.08324331 0.97249442 -0.03690137 0.10203554 0.98925811 -0.02999653 0.09357758 0.98446316 -0.04349423 0.13105091 0.99402308 -0.04202576 0.11403918 0.99295574 0.04475588 0.12474748 1.03727925 0.04393363 0.11724151 1.03665745 0.03700114 0.10175882 1.03752255 0.05083364 0.12283964 1.03565788 0.04325111 0.107978 1.03344631 0.05079198 0.11027141 1.03256738 0.0471029 0.13336547 1.03562689 0.05036175 0.09993783 1.02650428 0.0420901 0.09709126 1.02594376 0.03507354 0.09460798 1.02876592 0.05063859 0.0913711 1.01719129 0.02543758 0.16985251 0.98155135 0.03909973 0.16756456 0.97797596 0.03315102 0.16506986 0.96607178 0.050873 0.16950989 0.98526168 0.02328764 0.17005101 0.997464 0.05058444 0.16862188 1.00201738 0.03893471 0.16545743 1.01336861 0.05088308 0.16426614 1.01416075 0.02739435 0.16753338 1.01423013 8.252E-05 0.17217693 0.99477112 0.00942103 0.17098436 0.96137726 0.00117548 0.17172877 0.96549547 0.01542463 0.16766779 1.03571606 0.03102175 0.15886474 1.03594387 0.02759629 0.16546485 1.02242076 0.04028734 0.14732954 1.03482282 0.0369023 0.1550207 1.03164899 0.04425993 0.15910643 1.02187681 0.05083425 0.15600985 1.02430069 0.05089873 0.14427133 1.03249943 0.04726961 0.14718992 1.03091812 0.0434741 0.13803414 1.0367384 -0.01346755 0.16940409 1.00343943 -0.02483853 0.1640866 0.98104054 -0.03121817 0.15806411 1.0020082 -0.01269569 0.16989639 0.97321171 -0.03839043 0.14823367 0.99027675 -0.03933711 0.14595979 1.01075375 0.02411779 0.16591817 0.9549166 0.04835769 0.12993217 0.94962728 0.04599894 0.11493709 0.94807833 0.04618914 0.13611403 0.94787711 0.04662193 0.14748658 0.95474333 0.04374395 0.1540311 0.95873386 0.05089321 0.15034106 0.95627123 0.04305129 0.16220996 0.96762025 0.05079029 0.1633966 0.97035402 0.0475276 0.14038043 0.95159268 0.03826904 0.15408047 0.9500609 0.03247488 0.09342761 0.95188463 0.04104273 0.10366291 0.94940197 0.04712137 0.11026081 0.95267934 0.0508967 0.11967655 0.94917691 0.04577024 0.10072403 0.95802581 0.041477 0.09988002 0.95548409 0.03637033 0.09100593 0.96399707 0.05089008 0.0977114 0.96066582 0.04836261 0.11889531 0.95019144 0.01854621 0.09831619 0.93842018 0.0186073 0.09520142 0.93864638 0.01614977 0.09568913 0.93842024 0.02075103 0.09294762 0.93842024 0.02164639 0.09647658 0.93858016 0.01669786 0.09719774 0.94141996 0.02138762 0.09797326 0.9414202 0.02059923 0.09347188 0.9414202 0.01694342 0.09488222 0.94142002 0.02019765 0.09688815 0.94142002 0.02018805 0.09709765 0.94742 0.01737031 0.09539565 0.94742 0.02019122 0.09428971 0.94742 0.01872683 0.15484716 0.93841976 0.01662101 0.15877381 0.938546 0.01974623 0.15751241 0.93866903 0.01972724 0.16100416 0.93841964 0.02177617 0.15664306 0.93842006 0.01807723 0.16013618 0.94142026 0.01724084 0.15638313 0.94142008 0.02126361 0.15869546 0.94142008 0.02055079 0.15507045 0.94141996 0.01872059 0.15941365 0.94742 0.01754257 0.15713619 0.94742 0.0208192 0.15713243 0.94742</float_array>
          <technique_common>
            <accessor source="#pos_0-array" count="999" stride="3">
              <param name="X" type="float"/>
              <param name="Y" type="float"/>
              <param name="Z" type="float"/>
            </accessor>
          </technique_common>
        </source>
        <source id="norm_0">
          <float_array id="norm_0-array" count="1920">0.81023 -0.06911 -0.58203 0.67702 -0.71512 -0.1739 0.60492 -0.63773 -0.47684 0.46493 -0.85161 -0.24207 0.47844 -0.87436 -0.08115 0.91458 -0.39397 -0.09128 0.83874 -0.34579 -0.42065 0.00329 -0.00216 -0.99999 0.01056 -0.00158 -0.99994 -0.01256 -0.02057 -0.99971 0.77147 -0.16765 -0.61378 0.30341 0.5373 -0.78693 0.16724 0.41808 -0.89288 0.57494 -0.22847 -0.78565 0.68447 -0.10438 -0.72153 0.00357 -0.03746 -0.99929 -0.01052 -0.00819 -0.99991 -0.00295 0.00391 -0.99999 0.03746 -0.04052 -0.99848 -0.00463 0.00101 -0.99999 0.00778 -0.03722 -0.99928 -0.01214 -0.02444 -0.99963 -0.00545 0.0609 -0.99813 -0.00407 0.04462 -0.999 -0.02787 0.00786 -0.99958 0.00226 0.06554 -0.99785 0.08137 -0.1559 -0.98442 0.00245 -0.02443 -0.9997 -0.01178 -0.06026 -0.99811 0.01639 -0.06827 -0.99753 0.03356 -0.05202 -0.99808 0.02988 -0.05287 -0.99815 0.04919 0.04005 -0.99799 0.02843 0.05119 -0.99828 0.05167 -0.03696 -0.99798 0.03693 -0.04052 -0.9985 0.06742 0.01 -0.99767 0.01045 0.0108 -0.99989 0.00214 0.05411 -0.99853 0.06438 0.0067 -0.9979 0.04969 0.04376 -0.99781 -0.0126 -0.06098 -0.99806 -0.06373 -0.05927 -0.99621 -0.00894 -0.01938 -0.99977 -0.02718 0.05108 -0.99832 -0.06432 -0.01834 -0.99776 -0.06164 0.00738 -0.99807 -0.06575 0.05841 -0.99612 -0.04872 0.00812 -0.99878 -0.07561 0.04778 -0.99599 -0.05407 -0.14249 -0.98832 -0.0021 0.00832 -0.99996 -0.00582 0.07226 -0.99737 -0.05706 0.01656 -0.99823 -0.05689 -0.00878 -0.99834 -0.0612 -0.01918 -0.99794 -0.08411 -0.42282 -0.9023 -0.07448 -0.40101 -0.91304 -0.49785 0.41089 -0.76375 -0.29193 -0.65674 -0.69532 -0.50269 0.4371 -0.74582 -0.73932 -0.19498 -0.64451 -0.33661 0.32392 -0.88418 0.29725 0.06113 -0.95284 0.40013 0.04862 -0.91517 0.34233 0.0955 -0.93471 0.26199 0.24679 -0.93298 0.45935 0.35192 -0.81557 0.22719 0.55529 -0.80002 0.06332 0.32365 -0.94406 0.61369 -0.01986 -0.7893 0.34698 -0.07776 -0.93465 0.50911 -0.32883 -0.79541 0.24272 -0.22032 -0.94475 0.20353 -0.53605 -0.81928 0.12705 -0.40817 -0.90402 0.0083 -0.01703 -0.99982 -0.00203 -0.01377 -0.9999 0.54762 -0.17398 -0.81844 -0.42816 0.9037 0.00238 0.97941 0.19886 0.03476 0.71344 0.68148 -0.16307 0.42019 0.90735 0.01247 -0.18285 0.97722 -0.10771 -0.57865 0.78776 -0.21119 0.46304 0.65485 -0.5973 0.19748 0.23793 -0.951 0.27174 0.02488 -0.96205 0.77673 0.29374 -0.55714 0.44292 0.39118 -0.80672 0.30035 0.01917 -0.95364 0.56536 0.38147 -0.73133 0.6083 0.30769 -0.73164 0.73507 0.01994 -0.67769 0.7228 -0.26142 -0.6397 0.27465 -0.23032 -0.93355 0.32372 -0.40594 -0.85465 0.66198 -0.26844 -0.69981 0.62124 -0.29736 -0.72501 0.83743 -0.14261 -0.52762 -0.60257 -0.75256 -0.26562 -0.80364 0.58762 -0.09413 -0.80569 0.58418 -0.09802 -0.21003 0.97496 -0.07313 0.874 0.13329 -0.4673 0.71343 -0.54255 -0.44346 0.55922 -0.76152 -0.32766 0.57904 -0.6076 -0.54363 0.02784 -0.95591 -0.29234 -0.77435 -0.62993 -0.05971 -0.80418 -0.58895 -0.08016 0.00804 0.00861 -0.99993 0.0136 -0.02081 -0.99969 0.02409 0.03469 -0.99911 0.00547 8E-05 -0.99999 0.05549 0.00712 -0.99843 0.01776 0.00649 -0.99982 -0.00613 -0.01046 -0.99993 -0.51495 0.58485 -0.62672 -0.57011 0.43911 -0.69438 -0.30114 -0.27887 -0.91189 -0.25584 0.18118 -0.94959 -0.28903 0.22404 -0.93074 -0.68295 0.12828 -0.71911 -0.27771 -0.02243 -0.9604 -0.68161 -0.27977 -0.67612 -0.27237 -0.26281 -0.92561 -0.56019 -0.259 -0.78683 0.20295 -0.57868 -0.7899 0.13094 -0.23466 -0.96322 0.59017 0.29186 -0.75267 -0.093 0.33357 -0.93813 -0.0662 0.55077 -0.83203 -0.14707 -0.98079 -0.12812 -0.24702 -0.96525 -0.08528 0.4655 -0.88491 0.01551 0.79246 -0.58897 -0.15847 0.93822 -0.3444 -0.03361 0.01119 -0.01076 -0.99988 0.01108 -0.01245 -0.99986 -0.01127 -0.0107 -0.99988 -0.01349 -0.02988 -0.99946 -0.01283 -0.02878 -0.9995 0.0127 -0.00287 -0.99992 0.93381 0.34973 -0.07537 0.9143 0.39254 -0.09985 0.90301 -0.35165 -0.2468 0.92359 -0.09029 -0.37259 0.93006 -0.04505 -0.36465 0.10529 -0.38124 -0.91846 0.12139 -0.70726 -0.69645 0.0972 -0.76316 -0.63886 0.00091 -0.00578 -0.99998 0.0046 -0.00108 -0.99999 -0.00823 0.00705 -0.99994 -0.42652 0.90353 -0.04135 -0.3433 0.93088 -0.12492 -0.44704 0.39237 -0.80386 -0.72067 -0.36207 -0.59123 -0.10056 -0.22572 -0.96899 -0.44472 -0.25132 -0.85969 -0.20284 -0.79926 -0.56572 -0.38006 -0.68456 -0.62204 -0.0876 -0.67828 -0.72956 -0.36994 -0.52373 -0.76737 -0.51677 -0.48708 -0.70406 -0.53918 -0.34581 -0.76792 -0.9342 0.34899 -0.07396 -0.98754 0.15668 0.01501 -0.84644 -0.51659 -0.12911 -0.67681 -0.73602 0.01407 -0.10891 -0.9488 -0.29652 -0.2372 -0.62752 -0.74159 -0.49706 0.02847 -0.86725 -0.31313 -0.70191 -0.63975 0.01508 0.01875 -0.99971 0.0672 -0.03179 -0.99723 -0.00102 -0.00037 -1 -0.0273 0.02334 -0.99935 -0.00091 -0.00427 -0.99999 -0.01596 0.02742 -0.9995 -0.22432 0.15148 -0.96267 -0.10732 0.31298 -0.94368 -0.12162 0.81434 -0.56751 -0.34863 0.77781 -0.52294 -0.59845 0.43485 -0.67288 -0.6187 0.07884 -0.78166 -0.47598 0.21927 -0.85168 -0.05208 0.56625 -0.82259 -0.46221 0.51198 -0.72404 -0.43085 0.57248 -0.69759 -0.37779 0.58429 -0.71825 -0.84207 0.01541 -0.53914 -0.74245 0.08032 -0.66507 -0.72169 0.48384 -0.49503 -0.07807 0.76519 -0.63905 0.12135 0.60191 -0.78929 0.37784 0.73525 -0.56272 0.08793 0.43836 -0.89449 0.22899 0.61421 -0.75519 0.91628 -0.38935 -0.09395 0.93866 -0.34393 -0.02515 0.91139 -0.3679 -0.18445 -0.00241 0.00026 -1 -0.00429 0.00519 -0.99998 -0.01109 0.01274 -0.99986 0.29436 0.52263 -0.80013 0.64154 0.75072 -0.15766 0.64051 0.75115 -0.15973 0.79058 0.58695 -0.17458 0.8969 0.38704 -0.21394 0.59484 0.80125 -0.06458 0.48921 0.86179 -0.13415 0.95938 0.13439 -0.24805 0.96921 0.22427 -0.10169 0.83929 0.53378 -0.10332 0.4233 0.74903 -0.50968 0.75132 0.20601 -0.62695 0.9913 0.06345 0.11535 0.79169 0.5353 -0.29442 0.8269 0.5509 0.11291 0.27317 -0.00203 0.96196 0.31647 0.00086 0.9486 0.28443 -0.00374 0.95869 0.35622 0.00029 0.9344 0.37408 -0.00296 0.92739 0.42672 -0.00728 0.90435 0.46711 0.00923 0.88415 0.50558 0.00227 0.86278 0.52347 0.00923 0.85199 0.55646 -0.00754 0.83084 0.56966 -0.00148 0.82188 0.58829 0.00143 0.80865 0.57209 -0.00152 0.82019 0.60108 0.00017 0.79919 -0.23021 -0.97276 -0.02718 -0.99334 -0.11491 0.00883 -0.97808 -0.20058 -0.05589 -0.90203 -0.4316 0.00847 -0.88218 -0.46824 -0.0502 -0.7416 -0.66841 -0.05702 -0.65063 -0.75872 0.03187 -0.23796 -0.96726 0.08824 -0.53557 -0.83552 -0.12275 0.22696 -0.95009 -0.21408 0.03202 -0.99281 -0.11533 0.22367 -0.97111 0.08319 0.92094 -0.37084 -0.11978 0.78729 -0.57893 -0.21216 0.63885 -0.75632 -0.14093 0.51569 -0.85282 -0.08218 0.99121 -0.07361 -0.10993 0.9659 -0.1497 -0.21127 0.92338 -0.35236 -0.15238 0.74478 -0.6622 -0.08243 0.27289 -0.50235 -0.82048 0.28665 -0.53528 -0.79455 0.18097 -0.97748 -0.10856 0.47763 -0.87091 -0.1157 0.05748 -0.99722 -0.04736 0.28206 -0.95775 -0.05622 0.74299 -0.6476 -0.16907 -0.78126 0.56008 -0.27558 -0.90245 0.41151 -0.12748 -0.69066 -0.16533 -0.70403 -0.56332 -0.11881 -0.81765 -0.54321 -0.83937 -0.01963 0.07557 -0.98155 -0.17561 0.04587 -0.99626 -0.07319 -0.98357 -0.0107 -0.1802 -0.97784 -0.19985 -0.06233 -0.2177 -0.97268 -0.08065 -0.97619 -0.20868 -0.05922 -0.98927 -0.13272 -0.06113 -0.88284 -0.46579 -0.0603 -0.87232 -0.48425 -0.0675 -0.74232 -0.66727 -0.06096 -0.71966 -0.69068 -0.07106 -0.52948 -0.84632 -0.0582 -0.51468 -0.8559 -0.05038 -0.2445 -0.96745 -0.06525 -0.99731 0.00805 -0.07285 -0.15043 0.9874 -0.04905 -0.9938 0.09974 -0.04921 -0.4164 0.90607 -0.07522 -0.16209 0.98522 -0.05536 -0.92984 0.36266 -0.06228 -0.93122 0.35884 -0.06379 -0.82875 0.55761 -0.04734 -0.75926 0.64685 -0.07147 -0.68054 0.73064 -0.05503 -0.60952 0.78959 -0.07096 -0.47655 0.87768 -0.05079 -0.89881 0.3528 -0.26014 0.1099 0.87435 -0.47268 0.93208 0.36221 -0.00536 0.30542 0.53735 -0.78611 0.14403 0.98757 -0.06292 0.16381 0.98332 -0.07908 0.37293 0.90769 -0.1924 0.24606 0.96919 0.01122 0.3539 0.93188 -0.07977 0.10094 0.9789 -0.17764 0.4349 0.86582 0.24742 0.42339 0.90389 0.06099 -0.1813 0.9745 -0.13221 0.03554 0.99615 0.08009 -0.47329 0.87996 -0.04074 -0.43464 0.9006 -0.00184 -0.97662 0.19979 -0.07936 -0.99088 0.10512 0.08428 -0.93129 0.35658 -0.07455 -0.86141 0.50745 -0.0215 -0.83014 0.5544 -0.05922 -0.70107 0.71304 -0.0088 -0.67977 0.73161 -0.05163 0.06549 0.06215 -0.99592 -0.1475 -0.07989 -0.98583 -0.07215 0.12299 -0.98978 0.00723 -0.07165 -0.9974 -0.67812 0.73287 -0.05523 -0.58288 0.8027 0.12617 0.86958 0.47039 -0.15023 0.47917 0.81231 0.33249 0.92503 -0.21626 0.31232 0.48974 -0.83327 -0.25657 -0.86689 -0.38843 -0.31243 -0.52272 -0.76728 0.37155 -1E-05 -2E-05 1 -0.00017 -0.00027 1 1E-05 -3E-05 1 0 -0 1 -0.99341 0.11433 0.00808 0.44166 0.8904 0.11011 0.72453 -0.68357 0.0882 0.60324 -0.79723 -0.02296 -0.99061 -0.06919 -0.11793 0.50291 0.85256 0.14222 -0.93718 0.17019 -0.30451 -0.70975 0.29888 0.63791 -0.80322 0.58121 -0.13053 -0.4802 0.7235 0.49594 -0.50467 0.84158 0.19249 -0.12138 0.96933 0.21368 -0.03326 0.78777 0.61507 0.25941 0.93185 -0.25368 0.35224 0.53 0.77138 0.69046 0.70372 -0.16745 0.90993 0.31897 0.26512 0.82242 0.26006 0.50595 0.00191 -0.00116 1 0.00163 -0.00042 1 -0.00493 0.00225 0.99999 0.00603 0.00026 0.99998 -0.00705 -6E-05 0.99998 -0.0033 -0.00073 0.99999 -5E-05 -0.00082 1 0.00097 -0.0007 1 0.00222 4E-05 1 0.9802 -0.17304 0.09622 0.8137 -0.21058 0.54181 0.84812 -0.5268 -0.05633 0.52279 -0.53249 0.6657 0.55546 -0.80827 -0.19537 0.15573 -0.83899 0.52138 0.08673 -0.98052 -0.17624 -0.26736 -0.67976 0.68297 -0.47129 -0.74209 -0.47664 -0.61623 -0.42343 0.66405 -0.86631 -0.382 -0.32183 -0.74221 -0.05839 0.66762 0.06925 -0.78286 0.61833 0.29351 -0.91085 -0.29019 0.48203 -0.70142 0.52503 0.67619 -0.67689 -0.29083 0.7846 -0.48734 0.38328 0.90773 -0.32685 -0.26303 0.85634 -0.15117 0.4938 -0.11586 -0.90962 -0.39895 -0.4596 -0.72366 0.51486 -0.53686 -0.78882 0.29924 -0.86679 -0.47019 -0.16613 -0.7957 -0.35086 0.49372 -0.10806 0.86295 0.49361 -0.34034 0.85832 -0.384 -0.44591 0.74361 0.4982 -0.76093 0.61734 -0.19969 -0.80121 0.57975 0.14818 -0.95864 0.17409 0.22517 -0.97061 0.1306 -0.20212 0.23579 0.84704 -0.47637 0.12236 0.79003 0.60074 0.48646 0.79497 -0.36246 0.59544 0.60687 0.52645 0.8105 0.51527 -0.27853 0.77956 0.27327 0.56358 0.92611 0.11772 -0.35841 -0.0012 0.00031 -1 0.00677 0.00189 -0.99998 0.001 0.00048 -1 0.0001 0.00106 -1 0.0059 -0.00323 -0.99998 -0.00431 -0.00262 -0.99999 0.00159 0.00058 -1 0.00021 0.00076 -1 0.00164 -0.00051 -1 -0.00279 0.00053 -1 -0.00335 -0.00247 -0.99999 -0.0023 0.00261 0.99999 -0.00025 -0.00145 1 -0.00029 -5E-05 1 -0.00019 -0.0003 1 -0.00203 0.00233 1 -0.0021 0.00472 0.99999 -0.00088 0.00297 1 0.00158 -0.00295 0.99999 -0.00012 -0.00209 1 -0.00333 0.00452 0.99998 -0.0016 0.00053 1 -0.00112 0.00066 1 -0.00016 -0.00102 1 0.26584 -0.94577 -0.18669 0.00386 -0.93689 0.34961 0.0528 -0.99271 0.10838 -0.0245 -0.95448 -0.29726 0.00565 -0.99979 0.01947 0.05262 -0.97866 -0.19866 0.13615 -0.97484 0.17647 0.09751 -0.99519 -0.00973 0.06845 -0.99747 -0.01913 0.25733 -0.95157 -0.16823 0.25329 -0.95866 0.12971 0.08682 -0.99576 0.03045 0.41452 -0.8702 0.26633 0.08295 -0.99563 0.0429 0.20392 -0.97215 0.11553 -0.9987 -0.03802 0.03395 -0.41949 -0.90675 0.04278 -0.29856 -0.95163 0.07252 -0.1429 -0.98903 0.03735 -0.12855 -0.99152 -0.01902 -0.9685 -0.2375 0.07485 -0.85379 -0.51839 0.04811 -0.91478 -0.40269 0.03186 -0.76495 -0.64324 0.03308 -0.64258 -0.76478 0.0469 -0.63011 -0.7748 0.05148 -0.99927 -0.035 0.01521 -0.99611 -0.0844 -0.02534 -0.91594 -0.40021 0.02985 -0.16659 -0.98602 0.00206 -0.41221 -0.91109 0.00289 -0.51328 -0.85673 -0.05061 0.99401 -0.10705 -0.02223 0.9174 -0.33646 0.21254 0.91128 -0.40342 0.08261 0.69744 -0.71487 -0.05033 0.59149 -0.7982 0.11408 0.45527 -0.89017 -0.01841 0.18248 -0.97978 0.08202 0.18283 -0.23533 0.95456 0.28683 0.10447 0.95227 0.98386 -0.11886 0.13377 0.24827 -0.49788 0.83095 0.18116 -0.23455 0.95507 0.14207 -0.57192 0.80791 0.47132 -0.534 0.70193 0.53887 -0.7944 0.28026 0.20188 -0.71783 0.66631 0.19618 -0.87421 0.44416 0.10497 -0.8791 0.46494 0.46057 -0.7338 0.4994 0.03565 -0.82025 0.57089 0.76397 -0.57188 0.29884 0.70353 -0.27848 0.65383 0.60767 -0.67542 0.41779 0.09596 0.96351 -0.24987 0.01499 0.99983 -0.01045 0.07144 0.93943 0.33521 0.06403 0.93353 -0.35272 0.04329 0.99762 0.05362 0.1907 0.87737 0.4403 0.02817 0.98951 0.14169 0.0839 0.9964 -0.01212 0.19046 0.97659 0.09999 0.08188 0.99353 0.07873 0.08521 0.99629 -0.01175 0.09124 0.99583 -9E-05 0.19062 0.98098 0.03661 0.46728 0.83541 0.28937 0.39691 0.89219 0.21554 0.6991 0.51316 0.49792 0.13103 0.76846 0.62634 -0.14989 0.3204 0.93535 0.56747 0.5149 0.64254 0.18908 0.95317 0.23606 0.2003 0.84108 0.50246 0.39359 0.61667 0.68176 -0.01025 0.60276 0.79786 0.0426 0.81323 0.58038 0.10315 0.56993 0.81519 0.37792 0.07402 0.92288 0.69043 0.5925 0.41503 0.28807 0.88732 0.3601 0.57117 0.25847 0.77907 0.46592 0.329 0.82139 0.58769 0.79827 0.13189 0.77845 0.62735 -0.02123 0.91721 0.33638 0.21348 0.89279 0.36147 0.26883 0.99347 0.09316 -0.06584 0.20963 0.97604 0.0584 0.4916 0.87007 -0.0361 -0.07777 0.99536 0.05669 -0.17744 0.98343 0.03722 -0.48363 0.87445 0.03793 -0.42199 0.90474 0.05801 -0.61861 0.78482 0.0372 -0.70919 0.70249 0.05964 -0.14211 0.98964 -0.02045 -0.42963 0.903 0.00374 -0.19369 0.981 0.01103 -0.9593 0.2821 -0.01302 -0.96096 0.27659 -0.0077 -0.9889 0.12845 0.07473 -0.82169 0.56938 0.02524 -0.95746 0.28578 0.03992 -0.90411 0.42193 0.06744 -0.81904 0.57281 0.03245 -0.77448 0.63024 -0.05462 -0.52079 0.05771 -0.85173 -0.48069 -0.00014 -0.87689 -0.48622 0.0009 -0.87384 -0.54184 -0.0001 -0.84048 -0.55325 -0.00276 -0.83301 -0.56323 7E-05 -0.8263 -0.59088 -0.00039 -0.80676 -0.58677 -0.00106 -0.80975 0.279 0.94789 -0.15384 0.26096 0.95304 -0.15371 0.60529 -0.013 -0.7959 -0.03308 0.50968 -0.85973 0.15003 0.73326 -0.66319 0.08191 0.92196 -0.37853 0.30972 0.88766 -0.34079 0.02304 0.8916 -0.45223 0.85534 0.1606 -0.49254 0.52125 0.77218 -0.36338 0.65496 0.36889 -0.65951 0.75358 0.45638 -0.47311 -0.44632 0.31455 -0.83776 0.55244 0.75907 -0.34441 0.30468 0.71252 -0.63204 -0.38497 -0.00284 -0.92293 -0.40228 0.00053 -0.91552 -0.44744 -0.00011 -0.89431 -0.44683 -0.00018 -0.89462 -0.36524 0.0069 -0.93089 -0.32589 -0.00178 -0.94541 -0.27202 -0.00295 -0.96229 -0.26083 -0.00683 -0.96536 -0.30027 0.02004 -0.95364 0.52199 -0.81985 -0.23531 0.22324 -0.89133 -0.39459 0.51838 -0.47288 -0.7125 0.85376 -0.4126 -0.31759 0.38946 -0.72542 -0.56752 0.21651 -0.88114 -0.42038 0.44437 -0.74003 -0.50486 0.3496 -0.89072 -0.29052 0.63395 -0.69339 -0.34252 -0.04818 -0.70336 -0.7092 0.51218 -0.49799 -0.69976 0.66934 -0.43321 -0.60358 0.8464 -0.25619 -0.46687 0.69905 -0.03619 -0.71415 0.12967 -0.79233 -0.59616 0.63263 -0.63656 -0.44109 0.99998 -0.00474 -0.00361 0.99993 -0.01008 -0.00612 0.99999 -0.00353 0.00086 0.99921 -0.03971 -0.00322 1 -6E-05 0.00073 0.99974 0.0194 0.01187 0.99992 0.00782 0.01037 1 -0.00076 -0.00088 0.99998 0.00515 0.00253 0.99966 0.01882 0.01821 0.99938 -0.01714 -0.03073 0.99998 0.00226 0.00666 0.99967 0.02205 0.01297 0.99987 -0.00532 -0.01548 -0.35851 -0.04782 -0.9323 -0.30207 -0.22359 -0.92669 0.18111 -0.45586 -0.87143 0.37121 0.13428 0.91879 0.12644 0.72792 -0.6739 0.05153 0.41026 -0.91051 0.56625 0.18584 -0.80301 0.63904 0.19093 -0.7451 0.07748 -0.0707 -0.99448 0.13322 0.22359 -0.96553 -0.04554 0.05675 -0.99735 0.00859 -0.07226 -0.99735 -0.72389 0.66034 -0.19983 -0.15763 0.95313 0.25825 0.48785 0.78981 -0.37177 0.96931 -0.16977 0.17779 0.96415 -0.2488 0.09227 -0.96811 -0.10266 0.22852 -0.50953 -0.85517 -0.09523 -0.35621 -0.92334 0.14334 0.00031 -0.00051 1 -5E-05 2E-05 1 -0.00018 3E-05 1 0.99316 0.11674 -0.00249 0.99771 0.00112 0.06769 -0.36312 -0.92619 0.10156 -0.35794 -0.92784 0.10486 -0.51668 0.8554 -0.03644 -0.52448 0.85087 -0.03055 0.0665 0.06767 -0.99549 -0.15143 -0.07124 -0.9859 -0.07028 0.1195 -0.99034 0.01053 -0.07118 -0.99741 -0.90891 0.20254 0.36449 -0.58336 0.80752 -0.0872 0.8968 0.42132 -0.13502 0.36997 0.81818 0.44011 0.93992 -0.18483 0.28704 0.49298 -0.83702 -0.23741 -0.86702 -0.45872 -0.19458 -0.35374 -0.892 0.28144 2E-05 -4E-05 1 -0.87831 0.45431 0.14889 0.41111 0.90923 0.06541 0.71708 0.65968 0.22497 0.48968 -0.8519 -0.18566 -0.00114 -0.99221 0.12459 -0.97583 0.21747 0.02178</float_array>
          <technique_common>
            <accessor source="#norm_0-array" count="1920" stride="3">
              <param name="X" type="float"/>
              <param name="Y" type="float"/>
              <param name="Z" type="float"/>
            </accessor>
          </technique_common>
        </source>
        <vertices id="vert_0">
          <input semantic="POSITION" source="#pos_0"/>
        </vertices>
        <triangles count="642" material="mat_0">
          <input semantic="VERTEX" source="#vert_0" offset="0"/>
          <input semantic="NORMAL" source="#norm_0" offset="1"/>
          <p>0 0 1 0 2 0 3 1 4 1 5 1 5 2 4 2 6 2 3 3 7 3 4 3 7 4 3 4 8 4 6 5 2 5 5 5 0 6 2 6 6 6 9 7 10 7 11 7 9 8 11 8 12 8 10 9 9 9 13 9 14 10 15 10 16 10 17 11 18 11 19 11 17 12 19 12 20 12 14 13 19 13 21 13 18 14 21 14 19 14 22 15 23 15 24 15 24 16 25 16 22 16 26 17 22 17 27 17 28 18 29 18 30 18 30 19 22 19 26 19 23 20 22 20 30 20 23 21 30 21 29 21 26 22 31 22 32 22 26 23 33 23 31 23 34 24 35 24 36 24 36 25 35 25 33 25 33 26 26 26 36 26 29 27 24 27 23 27 24 28 29 28 37 28 29 29 38 29 37 29 38 30 29 30 28 30 38 31 28 31 39 31 33 32 17 32 40 32 33 33 18 33 17 33 39 34 30 34 41 34 30 35 39 35 28 35 31 36 41 36 30 36 30 37 32 37 31 37 18 38 33 38 35 38 31 39 40 39 41 39 33 40 40 40 31 40 37 41 42 41 24 41 42 42 43 42 24 42 25 43 27 43 22 43 26 44 34 44 36 44 24 45 43 45 44 45 44 46 26 46 27 46 35 47 45 47 46 47 44 48 35 48 34 48 44 49 34 49 26 49 30 50 26 50 32 50 47 51 18 51 46 51 18 52 35 52 46 52 45 53 35 53 44 53 25 54 24 54 44 54 25 55 44 55 27 55 47 56 48 56 18 56 18 57 48 57 21 57 49 58 50 58 51 58 52 59 53 59 54 59 55 60 50 60 49 60 52 61 54 61 55 61 49 62 52 62 55 62 43 63 55 63 44 63 44 64 55 64 54 64 50 65 55 65 43 65 42 66 56 66 43 66 43 67 56 67 50 67 57 68 56 68 42 68 37 69 57 69 42 69 44 70 54 70 58 70 44 71 58 71 45 71 58 72 59 72 45 72 45 73 59 73 46 73 46 74 59 74 48 74 46 75 48 75 47 75 59 76 60 76 48 76 48 77 60 77 21 77 14 78 21 78 15 78 61 79 20 79 62 79 63 80 19 80 14 80 19 81 63 81 64 81 19 82 64 82 20 82 20 83 64 83 62 83 65 84 66 84 67 84 68 85 66 85 65 85 69 86 61 86 66 86 69 87 70 87 71 87 72 88 70 88 73 88 69 89 66 89 68 89 71 90 70 90 74 90 69 91 68 91 73 91 69 92 73 92 70 92 70 93 75 93 74 93 76 94 74 94 77 94 71 95 78 95 79 95 79 96 78 96 80 96 71 97 74 97 76 97 71 98 76 98 78 98 74 99 75 99 77 99 80 100 10 100 79 100 62 101 67 101 66 101 62 102 66 102 61 102 81 103 65 103 67 103 72 104 75 104 70 104 78 105 76 105 82 105 83 106 80 106 82 106 82 107 80 107 78 107 83 108 10 108 80 108 13 109 84 109 79 109 13 110 79 110 10 110 61 111 69 111 85 111 71 112 79 112 86 112 69 113 87 113 85 113 88 114 71 114 86 114 71 115 88 115 69 115 69 116 88 116 87 116 84 117 86 117 79 117 85 118 17 118 20 118 85 119 20 119 61 119 40 120 17 120 85 120 41 121 86 121 39 121 84 122 39 122 86 122 41 123 88 123 86 123 88 124 41 124 40 124 40 125 87 125 88 125 85 126 87 126 40 126 84 127 89 127 39 127 90 128 38 128 89 128 39 129 89 129 38 129 90 130 91 130 38 130 37 131 38 131 91 131 37 132 91 132 57 132 9 133 89 133 13 133 13 134 89 134 84 134 89 135 9 135 90 135 90 136 9 136 12 136 90 137 12 137 91 137 91 138 92 138 57 138 92 139 93 139 57 139 94 140 50 140 56 140 57 141 93 141 56 141 56 142 93 142 94 142 51 143 50 143 94 143 91 144 12 144 92 144 12 145 11 145 92 145 11 146 95 146 96 146 11 147 96 147 97 147 92 148 11 148 97 148 93 149 92 149 97 149 96 150 98 150 93 150 97 151 96 151 93 151 99 152 100 152 101 152 99 153 102 153 103 153 99 154 103 154 100 154 101 155 49 155 104 155 101 156 104 156 99 156 49 157 51 157 104 157 105 158 104 158 106 158 93 159 107 159 94 159 51 160 94 160 104 160 107 161 98 161 108 161 107 162 108 162 109 162 93 163 98 163 107 163 107 164 109 164 94 164 94 165 109 165 106 165 94 166 106 166 104 166 100 167 49 167 101 167 100 168 52 168 49 168 52 169 100 169 103 169 52 170 103 170 53 170 110 171 53 171 111 171 110 172 112 172 53 172 113 173 112 173 110 173 112 174 54 174 53 174 21 175 60 175 15 175 112 176 58 176 54 176 58 177 113 177 59 177 59 178 113 178 114 178 58 179 112 179 113 179 59 180 114 180 60 180 113 181 115 181 114 181 60 182 114 182 116 182 117 183 116 183 118 183 118 184 116 184 119 184 120 185 121 185 122 185 113 186 110 186 122 186 113 187 122 187 115 187 60 188 116 188 123 188 115 189 121 189 114 189 114 190 121 190 119 190 114 191 119 191 116 191 110 192 111 192 124 192 110 193 124 193 122 193 115 194 122 194 121 194 116 195 117 195 123 195 15 196 125 196 16 196 16 197 125 197 126 197 15 198 60 198 123 198 123 199 125 199 15 199 63 200 14 200 16 200 63 201 16 201 126 201 63 202 126 202 127 202 63 203 127 203 67 203 63 204 67 204 64 204 67 205 62 205 64 205 128 206 81 206 67 206 129 207 68 207 81 207 81 208 68 208 65 208 68 209 129 209 73 209 73 210 130 210 72 210 129 211 81 211 131 211 131 212 81 212 128 212 1 213 75 213 72 213 1 214 72 214 130 214 130 215 73 215 129 215 131 216 132 216 129 216 133 217 1 217 130 217 2 218 1 218 133 218 130 219 129 219 133 219 133 220 129 220 132 220 133 221 5 221 2 221 132 222 3 222 5 222 132 223 5 223 133 223 8 224 3 224 132 224 134 225 8 225 132 225 135 226 136 226 8 226 8 227 134 227 135 227 135 228 137 228 136 228 138 229 135 229 139 229 137 230 135 230 138 230 138 231 139 231 140 231 141 232 138 232 142 232 140 233 142 233 138 233 142 234 143 234 141 234 144 235 136 235 145 235 143 236 146 236 141 236 141 237 146 237 147 237 141 238 147 238 138 238 138 239 147 239 148 239 138 240 148 240 149 240 138 241 149 241 137 241 145 242 136 242 137 242 145 243 137 243 149 243 8 244 150 244 7 244 150 245 136 245 144 245 150 246 8 246 136 246 77 247 0 247 76 247 76 248 6 248 82 248 4 249 83 249 82 249 83 250 4 250 7 250 75 251 1 251 0 251 75 252 0 252 77 252 76 253 0 253 6 253 82 254 6 254 4 254 10 255 83 255 11 255 11 256 83 256 95 256 150 257 98 257 96 257 7 258 95 258 83 258 150 259 144 259 98 259 7 260 150 260 96 260 7 261 96 261 95 261 99 262 104 262 105 262 105 263 151 263 99 263 151 264 152 264 99 264 99 265 152 265 102 265 152 266 111 266 102 266 103 267 102 267 111 267 111 268 53 268 103 268 111 269 152 269 124 269 147 270 146 270 151 270 144 271 108 271 98 271 146 272 152 272 151 272 147 273 151 273 105 273 147 274 105 274 148 274 148 275 105 275 106 275 148 276 106 276 149 276 149 277 106 277 109 277 149 278 109 278 108 278 149 279 108 279 145 279 145 280 108 280 144 280 146 281 124 281 152 281 153 282 154 282 117 282 155 283 124 283 146 283 118 284 119 284 153 284 118 285 153 285 117 285 124 286 155 286 120 286 120 287 155 287 156 287 120 288 156 288 157 288 120 289 157 289 121 289 121 290 157 290 158 290 121 291 158 291 119 291 119 292 158 292 153 292 122 293 124 293 120 293 125 294 123 294 117 294 127 295 126 295 128 295 67 296 127 296 128 296 154 297 159 297 117 297 159 298 125 298 117 298 125 299 128 299 126 299 128 300 125 300 131 300 125 301 159 301 131 301 134 302 159 302 154 302 132 303 131 303 159 303 159 304 134 304 132 304 153 305 135 305 154 305 135 306 134 306 154 306 158 307 139 307 153 307 153 308 139 308 135 308 146 309 143 309 142 309 146 310 142 310 155 310 155 311 142 311 156 311 156 312 142 312 140 312 156 313 140 313 157 313 157 314 140 314 139 314 157 315 139 315 158 315 160 316 161 316 162 316 163 317 164 317 162 317 162 318 164 318 160 318 161 319 163 319 162 319 165 320 163 320 166 320 166 321 163 321 161 321 167 322 164 322 163 322 167 323 163 323 165 323 168 324 164 324 167 324 168 325 160 325 164 325 166 326 161 326 160 326 166 327 160 327 168 327 165 328 166 328 169 328 169 329 166 329 168 329 169 330 168 330 167 330 170 331 171 331 172 331 165 332 171 332 170 332 167 333 170 333 172 333 167 334 171 334 169 334 167 335 172 335 171 335 169 336 171 336 165 336 165 337 170 337 167 337 173 338 174 338 175 338 175 339 174 339 176 339 175 340 176 340 177 340 177 341 176 341 178 341 177 342 178 342 179 342 179 343 178 343 180 343 180 344 178 344 181 344 180 345 181 345 182 345 182 346 181 346 183 346 182 347 183 347 184 347 184 348 183 348 185 348 185 349 183 349 186 349 181 350 187 350 188 350 189 351 186 351 181 351 187 352 181 352 178 352 187 353 178 353 176 353 176 354 174 354 190 354 176 355 190 355 187 355 181 356 188 356 191 356 181 357 191 357 189 357 181 358 186 358 183 358 185 359 186 359 192 359 192 360 186 360 189 360 192 361 189 361 193 361 193 362 189 362 191 362 193 363 191 363 194 363 194 364 191 364 188 364 194 365 188 365 195 365 195 366 188 366 187 366 195 367 187 367 196 367 196 368 187 368 190 368 196 369 190 369 173 369 173 370 190 370 174 370 195 371 197 371 194 371 194 372 197 372 198 372 194 373 198 373 193 373 193 374 198 374 199 374 193 375 199 375 192 375 192 376 199 376 200 376 192 377 200 377 185 377 197 378 195 378 201 378 201 379 195 379 196 379 201 380 196 380 202 380 202 381 196 381 203 381 203 382 196 382 173 382 180 383 204 383 179 383 179 384 204 384 205 384 179 385 205 385 177 385 177 386 205 386 206 386 177 387 206 387 175 387 175 388 206 388 173 388 173 389 206 389 203 389 204 390 180 390 182 390 204 391 182 391 207 391 207 392 182 392 208 392 208 393 182 393 184 393 208 394 184 394 209 394 209 395 184 395 185 395 209 396 185 396 200 396 197 397 201 397 204 397 201 398 206 398 205 398 208 399 209 399 197 399 197 400 209 400 200 400 200 401 199 401 198 401 201 402 202 402 206 402 197 403 204 403 207 403 197 404 207 404 208 404 200 405 198 405 197 405 205 406 204 406 201 406 206 407 202 407 203 407 210 408 211 408 212 408 213 409 212 409 214 409 213 410 215 410 212 410 212 411 215 411 216 411 212 412 216 412 210 412 210 413 217 413 218 413 218 414 217 414 219 414 210 415 218 415 211 415 213 416 214 416 220 416 221 417 222 417 223 417 223 418 222 418 213 418 213 419 220 419 224 419 213 420 224 420 223 420 225 421 226 421 227 421 228 422 229 422 230 422 229 423 228 423 231 423 232 424 231 424 233 424 231 425 228 425 234 425 231 426 234 426 227 426 230 427 235 427 228 427 236 428 237 428 225 428 234 429 236 429 225 429 234 430 225 430 227 430 228 431 235 431 238 431 234 432 228 432 236 432 235 433 239 433 238 433 223 434 236 434 228 434 228 435 238 435 223 435 240 436 212 436 241 436 242 437 224 437 243 437 224 438 242 438 223 438 223 439 242 439 236 439 237 440 236 440 244 440 240 441 214 441 212 441 245 442 220 442 214 442 245 443 214 443 240 443 220 444 245 444 246 444 220 445 246 445 243 445 220 446 243 446 224 446 241 447 247 447 240 447 240 448 247 448 248 448 240 449 248 449 245 449 244 450 236 450 242 450 244 451 242 451 243 451 244 452 243 452 246 452 249 453 213 453 250 453 250 454 213 454 222 454 250 455 222 455 251 455 251 456 222 456 239 456 239 457 222 457 221 457 221 458 238 458 239 458 223 459 238 459 221 459 252 460 253 460 254 460 249 461 252 461 255 461 249 462 250 462 253 462 256 463 254 463 253 463 252 464 249 464 253 464 253 465 257 465 256 465 253 466 258 466 257 466 239 467 235 467 258 467 257 468 259 468 256 468 258 469 235 469 230 469 230 470 229 470 259 470 258 471 230 471 257 471 257 472 230 472 259 472 253 473 251 473 258 473 253 474 250 474 251 474 258 475 251 475 239 475 260 476 261 476 262 476 263 477 260 477 264 477 265 478 266 478 267 478 263 479 261 479 260 479 263 480 264 480 265 480 268 481 266 481 265 481 264 482 268 482 265 482 269 483 270 483 271 483 264 484 272 484 268 484 264 485 269 485 272 485 260 486 270 486 269 486 269 487 264 487 260 487 269 488 210 488 272 488 273 489 274 489 272 489 268 490 272 490 274 490 275 491 276 491 273 491 277 492 278 492 267 492 279 493 280 493 255 493 277 494 276 494 275 494 266 495 268 495 274 495 266 496 276 496 277 496 277 497 275 497 280 497 277 498 280 498 278 498 267 499 266 499 277 499 279 500 278 500 280 500 281 501 249 501 255 501 276 502 266 502 273 502 273 503 266 503 274 503 255 504 280 504 281 504 281 505 280 505 275 505 273 506 216 506 215 506 273 507 215 507 275 507 275 508 215 508 213 508 275 509 213 509 281 509 281 510 213 510 249 510 210 511 216 511 272 511 216 512 273 512 272 512 217 513 210 513 269 513 217 514 269 514 282 514 283 515 219 515 282 515 282 516 219 516 217 516 283 517 284 517 219 517 284 518 218 518 219 518 271 519 285 519 269 519 285 520 283 520 282 520 285 521 282 521 269 521 286 522 247 522 287 522 287 523 247 523 241 523 241 524 212 524 211 524 284 525 286 525 287 525 241 526 211 526 287 526 211 527 218 527 287 527 287 528 218 528 284 528 286 529 284 529 283 529 244 530 246 530 245 530 271 531 237 531 244 531 271 532 244 532 285 532 244 533 283 533 285 533 244 534 245 534 283 534 286 535 283 535 245 535 248 536 247 536 286 536 248 537 286 537 245 537 260 538 262 538 288 538 260 539 288 539 270 539 289 540 290 540 291 540 292 541 293 541 294 541 294 542 293 542 295 542 261 543 263 543 296 543 261 544 295 544 262 544 261 545 296 545 295 545 291 546 297 546 289 546 262 547 298 547 288 547 291 548 298 548 297 548 297 549 298 549 293 549 292 550 297 550 293 550 293 551 298 551 262 551 262 552 295 552 293 552 226 553 225 553 288 553 270 554 288 554 225 554 225 555 237 555 270 555 270 556 237 556 271 556 299 557 226 557 298 557 298 558 226 558 288 558 299 559 298 559 291 559 291 560 290 560 299 560 299 561 290 561 300 561 227 562 226 562 299 562 227 563 233 563 231 563 301 564 302 564 303 564 304 565 300 565 290 565 303 566 233 566 305 566 305 567 233 567 227 567 304 568 303 568 305 568 299 569 305 569 227 569 305 570 299 570 304 570 233 571 303 571 306 571 304 572 290 572 303 572 303 573 290 573 301 573 301 574 290 574 307 574 307 575 290 575 289 575 306 576 232 576 233 576 304 577 299 577 300 577 252 578 296 578 263 578 302 579 229 579 231 579 252 580 254 580 302 580 302 581 254 581 256 581 302 582 294 582 252 582 302 583 256 583 259 583 231 584 232 584 302 584 302 585 232 585 306 585 252 586 294 586 296 586 263 587 265 587 252 587 252 588 265 588 267 588 252 589 267 589 278 589 302 590 259 590 229 590 278 591 279 591 252 591 289 592 302 592 307 592 302 593 301 593 307 593 306 594 303 594 302 594 255 595 252 595 279 595 294 596 295 596 296 596 292 597 294 597 297 597 302 598 297 598 294 598 302 599 289 599 297 599 308 600 309 600 310 600 309 601 311 601 310 601 312 602 311 602 309 602 309 603 308 603 312 603 313 604 308 604 310 604 314 605 308 605 313 605 314 606 312 606 308 606 315 607 312 607 314 607 315 608 311 608 312 608 313 609 310 609 316 609 316 610 310 610 311 610 316 611 311 611 315 611 317 612 314 612 316 612 316 613 314 613 313 613 315 614 314 614 317 614 318 331 319 331 320 331 317 615 318 615 315 615 315 616 318 616 320 616 315 617 320 617 319 617 315 618 319 618 316 618 316 619 319 619 318 619 316 620 318 620 317 620 321 621 322 621 323 621 323 622 324 622 325 622 323 623 325 623 321 623 322 624 324 624 323 624 326 625 322 625 327 625 326 626 324 626 322 626 328 627 325 627 324 627 328 628 324 628 326 628 329 629 325 629 328 629 329 630 321 630 325 630 327 631 322 631 321 631 327 632 321 632 329 632 327 633 329 633 328 633 330 331 331 331 332 331 326 634 331 634 330 634 326 635 330 635 328 635 328 636 330 636 332 636 328 637 332 637 327 637 327 638 332 638 331 638 327 639 331 639 326 639</p>
        </triangles>
      </mesh>
    </geometry>
  </library_geometries>
  <library_visual_scenes>
    <visual_scene id="DefaultScene">
      <node id="node_5432aef4_6cb2_4b89_b5d5_4d2cba48ae5e" type="NODE">
        <matrix>1 0 0 0 0 1 0 0 0 0 1 0 0 0 0 1</matrix>
        <node id="node_13823258_410e_45bf_87d7_f76808857b0b" type="NODE">
          <matrix>1 0 0 0 0 1 0 0 0 0 1 0 0 0 0 1</matrix>
          <node id="node_13823258_410e_45bf_87d7_f76808857b0b_mesh0" type="NODE">
            <matrix>1 0 0 0 0 1 0 0 0 0 1 0 0 0 0 1</matrix>
            <instance_geometry url="#geometry_30797863_5f13_4f5e_8902_47ad92e7db0e">
              <bind_material>
                <technique_common>
                  <instance_material symbol="mat_0" target="#mat_0"/>
                </technique_common>
              </bind_material>
            </instance_geometry>
          </node>
        </node>
      </node>
    </visual_scene>
  </library_visual_scenes>
  <scene>
    <instance_visual_scene url="#DefaultScene"/>
  </scene>
</COLLADA>
