<?xml version="1.0" encoding="UTF-8"?>
<COLLADA xmlns="http://www.collada.org/2005/11/COLLADASchema" version="1.4.1">
<!--
# File generated by ImageToStl.com - Free Image and 3D model conversion tools
-->
  <asset>
    <contributor>
      <author>ImageToStl.com</author>
      <authoring_tool>ImageToStl.com</authoring_tool>
    </contributor>
    <created>2026-09-30T02:03:13</created>
    <modified>2026-09-30T02:03:13</modified>
    <up_axis>Z_UP</up_axis>
  </asset>
  <library_effects>
    <effect id="effect_0">
        <profile_COMMON>
          <technique sid="common">
            <phong>
              <diffuse>
                <color>0.9 0.9 0.9 1</color>
              </diffuse>
              <specular>
                <color>0.05 0.05 0.05 1</color>
              </specular>
              <shininess>
                <float>64</float>
              </shininess>
            </phong>
          </technique>
        </profile_COMMON>
    </effect>
  </library_effects>
  <library_materials>
    <material id="mat_0">
      <instance_effect url="#effect_0"/>
    </material>
  </library_materials>
  <library_geometries>
    <geometry id="geometry_926512aa_8f93_4107_9fc9_0c8572631898">
      <mesh>
        <source id="pos_0">
          <float_array id="pos_0-array" count="999">0.15668058 0.1364709 0.94907719 0.15691863 0.12336048 0.94812989 0.15479699 0.13522179 0.94761753 0.14979593 0.16184834 0.96379054 0.15277407 0.16083533 0.9634856 0.15274325 0.15279117 0.95498079 0.15546721 0.14978296 0.95395678 0.14973453 0.16700613 0.97320616 0.14551312 0.16839054 0.97501975 0.16085312 0.15769194 0.97877872 0.16085303 0.15456823 0.97673202 0.16081417 0.16164845 0.96750665 0.16081099 0.16591409 0.97524828 0.16086465 0.15434852 0.97303355 0.16328657 0.16151419 0.96658266 0.16032794 0.16183144 0.96637142 0.16785985 0.09460267 0.97886515 0.16830878 0.09146393 0.97854096 0.16621588 0.08916415 0.97637594 0.16617355 0.09807251 0.9781602 0.16703162 0.10059691 0.97518057 0.16718346 0.09838454 0.97916341 0.16656651 0.09975192 0.97480214 0.16840589 0.09549664 0.97996736 0.16817413 0.13111137 0.98691022 0.16790535 0.1382421 0.98650199 0.16791192 0.13983472 1.00504053 0.16796149 0.13368091 1.00511992 0.16808085 0.12073635 1.00475991 0.16810215 0.12643136 1.00509727 0.16738497 0.14917429 0.98060411 0.16768672 0.14718945 0.98649812 0.16831543 0.12907547 0.98058146 0.16804713 0.11868122 0.98049861 0.16828422 0.12316361 0.99464774 0.16771206 0.11020955 0.98024309 0.16779262 0.11529464 1.00511754 0.16808489 0.11545265 0.99468404 0.16789635 0.11003983 1.00489664 0.16705139 0.13633515 0.96328479 0.1670067 0.12045788 0.96251339 0.16700774 0.15692623 0.9994927 0.16712885 0.15515691 0.97911382 0.16680382 0.15356189 0.97496551 0.16703945 0.09601071 0.9889645 0.1670569 0.1523525 0.97501791 0.16705361 0.10924609 1.01709986 0.16702744 0.09734969 1.00087392 0.16701573 0.14411321 1.01662087 0.16704173 0.12747982 1.0219605 0.1684133 0.0929733 0.99346322 0.16688694 0.13278536 1.02422929 0.16796593 0.13059363 1.02686107 0.16765332 0.13294029 1.0228523 0.16696697 0.13585806 1.02400792 0.16845199 0.13727154 1.02374411 0.16850416 0.13034754 1.02463174 0.16844067 0.15604466 1.00838518 0.16843858 0.160366 0.99324834 0.16843295 0.11244497 1.02209187 0.16844782 0.09760036 1.0081743 0.16848014 0.08900776 0.99459535 0.16824867 0.09929036 0.97245038 0.16085544 0.0986906 0.97258306 0.16086234 0.09606898 0.97881728 0.16084397 0.09926505 0.97589839 0.16288076 0.09186316 0.96682477 0.16684993 0.09423582 0.96861631 0.16085736 0.09185176 0.96755016 0.16846828 0.09676144 0.96920311 0.16297588 0.09851965 0.9591462 0.16830245 0.11752138 0.95555741 0.16678651 0.10057885 0.96117264 0.16534051 0.11449587 0.95198631 0.16323774 0.12771504 0.94915414 0.16719139 0.13259834 0.95277524 0.16825837 0.14331487 0.95762634 0.16851588 0.15608771 0.96928924 0.16678625 0.15938269 0.96851152 0.16317211 0.14158565 0.95162725 0.16377063 0.15311225 0.95818347 0.16828533 0.1541578 0.9724257 0.16015576 0.09163034 0.96636987 0.16232164 0.11211891 0.95131403 0.16843329 0.10632142 0.96580577 0.16842023 0.12283672 0.95904022 0.16844161 0.14213416 0.96264118 0.16615641 0.15524927 0.97797203 0.16747555 0.1579065 0.97894526 0.16840459 0.15793861 0.97984183 0.16822569 0.16152434 0.97794282 0.16833863 0.16520897 0.99226874 0.1683383 0.15360948 1.01830745 0.16843826 0.13946207 1.02600622 0.16026066 0.16684406 0.97546005 0.16314705 0.16682699 0.9759922 0.16694853 0.16450273 0.97758633 0.16320597 0.16894445 0.98207521 0.16360363 0.17015114 0.99491799 0.16083764 0.13999699 1.03182256 0.16083489 0.13165358 1.03361726 0.16086501 0.13233835 1.02484381 0.16086771 0.13093099 1.02747262 0.16081131 0.13698266 1.02450156 0.16630349 0.14002746 1.02991629 0.16261879 0.14144064 1.0322293 0.16341051 0.15259902 1.02597368 0.16709912 0.16491449 1.00487351 0.16266656 0.16730216 1.00782788 0.1635229 0.16085477 1.01803923 0.16643478 0.13049166 1.03191793 0.16313247 0.13127962 1.03404677 0.1683735 0.12950046 1.02847862 0.1684275 0.11677875 1.02765381 0.16840234 0.09683831 1.01445913 0.16313952 0.08718352 1.00977659 0.16643098 0.09114116 1.0122323 0.16261199 0.09397233 1.01989317 0.16656347 0.10083514 1.02303278 0.16216886 0.10388955 1.02850747 0.16549997 0.11193424 1.03070927 0.1641399 0.08356099 0.99654841 0.1628703 0.11752072 1.03383589 0.16618568 0.08593267 0.98442471 0.16289391 0.0868528 0.97563666 0.1608218 0.08744822 0.97528809 0.16023129 0.08634737 0.97572112 0.1540053 0.0964487 0.95926887 0.15065244 0.08775501 0.97061509 0.15610202 0.10943845 0.95126551 0.15015151 0.09176594 0.96291482 0.15429953 0.11151239 0.94919288 0.14144929 0.08228287 0.9844138 0.13153127 0.0824106 1.00318408 0.13625093 0.17214882 0.9947201 0.12445559 0.16612661 1.01488221 0.11499442 0.15375918 1.02884078 0.1219922 0.0898208 1.01857901 0.11533108 0.09921142 1.02821362 0.10976686 0.13856146 1.03606355 0.11116388 0.10922147 1.0342145 0.10858972 0.12490757 1.03763258 0.144721 0.17130511 0.98803359 0.1409277 0.1714758 0.99829602 0.12296432 0.13254353 1.03679872 0.1242227 0.14170638 1.0346483 0.12740216 0.15331838 1.02832758 0.13111696 0.16142255 1.02069402 0.13608526 0.16803305 1.0097636 0.16021399 0.14104053 1.03238857 0.16000465 0.13061558 1.0347929 0.13772671 0.08377051 1.00597572 0.14332393 0.08187254 0.99169225 0.12334248 0.11636333 1.03598297 0.1257402 0.10530901 1.03155029 0.12863132 0.09702946 1.02582252 0.13244815 0.08995603 1.01793039 0.16212088 0.08339025 0.9857353 0.14744866 0.0837932 0.98032504 0.16355376 0.13403857 1.02791965 0.16379604 0.13583437 1.03092134 0.16379566 0.13217056 1.02932119 0.16365311 0.13726121 1.02699566 0.16379599 0.13382144 1.02482474 0.1607959 0.13355662 1.03063166 0.16079578 0.13210128 1.02772605 0.16079578 0.13432758 1.02567887 0.1607959 0.1373336 1.02645457 0.16079585 0.13637251 1.02948439 0.15479586 0.13327163 1.02897644 0.15479586 0.1361843 1.02692556 0.05339584 0.1226497 1.03562343 0.05101664 0.13606378 1.03412461 0.05095604 0.11931357 1.03424394 0.05339584 0.10662476 1.03063691 0.05095325 0.10339723 1.028005 0.05106274 0.09005962 1.01404941 0.05339584 0.09178987 1.01812732 0.05339617 0.08351709 0.99514669 0.05105019 0.08418511 0.99120289 0.05339584 0.08896696 0.97270709 0.05090674 0.09408902 0.96503961 0.05339584 0.10193485 0.95764077 0.05339584 0.11709549 0.95100969 0.05101641 0.11755536 0.95145679 0.05339584 0.14204878 0.95223737 0.05096287 0.15877017 1.02117443 0.0510192 0.16844878 0.99906832 0.05101639 0.1668967 0.97938359 0.0510164 0.15479565 0.96109432 0.05101921 0.1372942 0.95197088 0.05339584 0.16037978 0.96634662 0.05339524 0.16939393 0.98550403 0.05339584 0.16673721 1.00815976 0.05339584 0.15594739 1.02438951 0.05339584 0.14026916 1.03326106 0.05580821 0.16686502 0.97599214 0.05577465 0.15177612 0.95744896 0.05579401 0.13361239 0.95020038 0.05583766 0.16962166 0.99746037 0.05586417 0.16178334 1.01869464 0.05574521 0.14530697 1.03180611 0.05577468 0.12635756 1.03616571 0.05580102 0.08311215 0.99013728 0.05577464 0.08974215 1.01544249 0.05582858 0.10537191 1.03051567 0.05577465 0.09266172 0.96600252 0.05577893 0.11193685 0.95185941 0.05592005 0.12905219 1.03584206 0.05589555 0.12928756 0.94964194 0.05589598 0.11059383 0.95253205 0.05593279 0.08390284 0.99022096 0.05595364 0.11443678 1.03395081 0.05594063 0.1440495 1.03216755 0.05589531 0.08989581 0.96890533 0.05594591 0.16992897 0.99531472 0.05589594 0.14759828 0.95477885 0.05595593 0.0849429 1.00354958 0.05592665 0.1021344 1.02820897 0.05594876 0.09155977 1.01773548 0.05596206 0.15459599 1.02576518 0.05589586 0.16436549 0.97088104 0.05594284 0.16400608 1.0141927 0.12804469 0.16872707 0.96744078 0.13792105 0.17177217 0.99048674 0.1445449 0.16871737 0.97658861 0.13792042 0.16414085 0.96077728 0.14766361 0.16509868 0.96850294 0.10057317 0.16962446 0.96857935 0.09583884 0.16775289 0.9431113 0.0890633 0.16526219 0.9522633 0.1140007 0.16974279 0.94324255 0.12920956 0.16500929 0.94312179 0.13317482 0.16353731 0.95235723 0.11184543 0.17046608 0.97259939 0.08620226 0.16628626 0.96330428 0.10848451 0.17209052 0.99408817 0.06705499 0.16776739 0.97871572 0.0659042 0.1623117 0.9680019 0.09106434 0.13639948 1.03675818 0.08857176 0.12097292 1.03726065 0.10067584 0.17015085 1.00547194 0.10330037 0.16503613 1.01679516 0.12996851 0.17031354 1.00519931 0.11295769 0.15140057 1.03091705 0.11775267 0.15985857 1.02401221 0.10819284 0.12238514 1.0375098 0.10926012 0.13939705 1.03604138 0.06493659 0.12868872 0.94925976 0.06555837 0.13619478 0.95008206 0.06469326 0.15167737 0.9570145 0.06655788 0.13059589 0.94318199 0.06876956 0.14545815 0.95076448 0.06964882 0.14316559 0.9432236 0.06658904 0.12007056 0.94691253 0.07571156 0.15349841 0.94365382 0.07627205 0.15634488 0.95192552 0.07344982 0.1588282 0.95894212 0.08502436 0.1620649 0.94337702 0.12066448 0.08358367 0.96857816 0.12423922 0.08587137 0.95491707 0.13379428 0.08681888 0.96410614 0.11695393 0.08392628 0.94314259 0.10475187 0.08338518 0.97072798 0.10019852 0.0848143 0.9434312 0.08884727 0.08797878 0.95508093 0.08805512 0.08917003 0.94313252 0.08798545 0.08590282 0.96662146 0.10744468 0.08125927 0.99393308 0.14286233 0.08315669 0.98036879 0.13672054 0.08170745 0.99283975 0.06649974 0.08576839 0.97859108 0.06627196 0.09457155 0.96299374 0.07979469 0.08797157 0.96641904 0.06739312 0.10610647 0.95372832 0.07056676 0.09841553 0.95711333 0.0803391 0.09432973 0.94975579 0.07791534 0.09742616 0.94318134 0.0697165 0.10916489 0.94311684 0.07129772 0.10624649 0.94674587 0.06547745 0.11540205 0.9505415 0.09877676 0.0840321 1.00748312 0.12117533 0.08934958 1.01885414 0.10020675 0.09537216 1.02523386 0.12900418 0.0835398 1.00671124 0.11193916 0.10520244 1.03240597 0.09146249 0.10747607 1.03335261 0.14952615 0.09143124 0.96357411 0.15258861 0.12350435 0.94565791 0.15413766 0.13849898 0.94801676 0.15433872 0.11732215 0.94782639 0.14525244 0.10182398 0.94920343 0.14594451 0.10309495 0.94312239 0.15067929 0.11312739 0.94652587 0.13459551 0.09122614 0.95096439 0.13186195 0.09003966 0.94322532 0.14246385 0.09313193 0.95770937 0.15273067 0.10298733 0.95348656 0.15033117 0.16000879 0.961541 0.15281394 0.14977333 0.95297295 0.14953643 0.14317559 0.94689429 0.15303896 0.13376011 0.94311893 0.14419004 0.15271218 0.94824535 0.1467316 0.15355623 0.95253855 0.14154997 0.15572485 0.94312555 0.15202439 0.13454093 0.94565296 0.16355376 0.15721549 0.97481978 0.16379614 0.15937912 0.97757494 0.16379561 0.15537466 0.97645992 0.16364737 0.16043746 0.97405928 0.16379571 0.15761 0.97173595 0.16079585 0.15739985 0.97789145 0.16079576 0.15543252 0.97473371 0.16079584 0.15820155 0.97167438 0.16079578 0.16016184 0.97431493 0.16079585 0.15744816 0.97650611 0.15479586 0.15961692 0.97445619 0.15479586 0.15635154 0.97370458 0.15479586 0.15738107 0.97634512 0.16379695 0.0985893 0.97629595 0.16366579 0.09403297 0.97715527 0.16354685 0.0959238 0.97426939 0.16379693 0.09273689 0.9732343 0.16379598 0.09708049 0.97237927 0.16079578 0.09327637 0.97273493 0.16079584 0.09343587 0.97685182 0.16079579 0.09621166 0.97704762 0.16079587 0.09853008 0.97355813 0.16079585 0.09685364 0.97366822 0.16079585 0.09385836 0.97475123 0.15479586 0.09380343 0.97530198 0.15479586 0.09648123 0.976331 0.15479586 0.09668384 0.97347307</float_array>
          <technique_common>
            <accessor source="#pos_0-array" count="999" stride="3">
              <param name="X" type="float"/>
              <param name="Y" type="float"/>
              <param name="Z" type="float"/>
            </accessor>
          </technique_common>
        </source>
        <source id="norm_0">
          <float_array id="norm_0-array" count="1923">0.58204 0.06911 -0.81022 0.17393 0.71512 -0.67702 0.47687 0.63772 -0.60491 0.24207 0.85161 -0.46493 0.0812 0.87436 -0.47844 0.09126 0.39397 -0.91458 0.42066 0.34579 -0.83874 0.99999 0.00182 -0.00282 0.99999 0.00429 -0.00195 0.99996 0.00889 0.00261 0.09758 0.98827 0.1175 0.61393 0.16748 -0.77139 0.61042 -0.68231 -0.40228 0.89112 -0.4389 -0.11522 0.76861 0.25428 -0.58701 0.68764 0.09053 -0.72039 0.99929 0.03746 -0.00357 0.99991 0.00819 0.01052 0.99999 -0.00391 0.00295 0.9983 0.04626 -0.03553 0.99969 0.01893 0.01623 0.99922 0.03824 0.01001 0.99921 0.02443 0.03139 0.99781 -0.06607 0.00421 0.99921 -0.03958 0.00196 0.9897 -0.14086 0.02559 0.99977 0.02004 -0.00734 0.99736 0.00072 -0.07258 0.98361 0.15986 -0.08343 0.9997 0.02443 -0.00245 0.99837 0.0561 0.01013 0.99757 0.06973 -0.00013 0.997 -0.00191 -0.07738 0.9931 0.11671 -0.01154 0.99892 -0.04381 -0.01515 0.99841 0.04626 -0.03232 0.97648 0.20696 0.0604 0.99963 -0.02573 -0.0086 0.99776 -0.06646 -0.00792 0.99786 -0.02528 -0.06022 0.99732 -0.03755 -0.06274 0.99761 0.04058 -0.05587 0.99739 -0.03794 -0.06145 0.99413 -0.08802 0.06293 0.99626 0.06941 0.05146 0.99977 0.01937 0.00894 0.99832 -0.05109 0.02719 0.99737 0.02354 0.06849 0.99712 -0.00819 0.07538 0.99783 -0.01635 0.06376 0.99807 -0.0505 0.03607 0.99416 0.09869 0.04368 0.99743 -0.07115 0.00901 0.99741 0.01675 0.06997 0.99829 0.00879 0.05776 0.99792 0.01917 0.06156 0.84413 0.52708 0.09809 0.9032 0.41392 0.11352 0.98461 0.166 0.05467 0.55037 0.73855 0.38941 0.87312 0.01237 0.48734 0.39912 -0.25494 0.88074 0.88766 -0.02432 -0.45986 0.94736 -0.11301 -0.29956 0.9711 -0.07158 -0.2277 0.63632 -0.48825 -0.59725 0.9553 -0.23653 -0.17738 0.74384 -0.64266 -0.18357 0.83972 0.073 -0.53809 0.94516 0.0847 -0.31543 0.72441 0.47189 -0.50255 0.94581 0.26114 -0.19299 0.81159 0.55676 -0.17702 0.93123 0.36227 -0.03979 0.99987 0.01485 -0.00702 0.99984 0.01764 0.00275 0.81917 0.17362 -0.54664 0.08275 -0.96507 0.2486 -0.0388 -0.21702 -0.97539 0.16067 -0.6651 -0.72927 -0.00981 -0.89388 -0.44819 0.11582 -0.97862 0.16997 0.21126 -0.78902 0.5769 0.68663 -0.55035 0.47504 0.59881 -0.60882 -0.52036 0.83708 -0.23814 -0.49253 0.81688 -0.43558 -0.37813 0.9428 -0.17781 -0.28197 0.6033 -0.60447 -0.52023 0.58962 -0.40138 -0.70089 0.70176 -0.04075 -0.71125 0.79067 -0.05426 -0.60983 0.96472 0.02269 -0.26231 0.8465 0.34958 -0.40154 0.56259 0.1477 -0.81344 0.70811 0.23147 -0.66708 0.66558 0.34258 -0.66305 0.63468 0.56433 -0.52793 0.79296 0.38985 -0.46822 0.78624 0.4988 0.36472 0.23227 0.83411 0.50031 0.09211 -0.59019 0.802 0.06395 -0.61428 0.78649 0.0593 -0.98692 0.1499 0.49661 -0.41512 -0.76227 0.32488 -0.14844 -0.93404 0.08017 0.61226 0.78658 0.09465 0.60133 0.79337 0.99848 0.02166 0.05066 0.99913 0.00503 -0.04147 0.99936 0.00547 -0.03523 0.99936 0.01086 -0.03396 0.99974 -0.00804 -0.02155 0.9999 -0.00143 -0.01433 0.99804 -0.03114 0.0542 0.60565 -0.5782 0.54669 0.93083 -0.02035 0.36489 0.94327 -0.19642 0.2677 0.93186 -0.22164 0.28724 0.77482 -0.11679 0.6213 0.85277 0.19856 0.48307 0.95975 0.15187 0.23624 0.92308 0.25108 0.29133 0.82638 0.1958 0.52798 0.48361 0.80361 -0.34688 0.74903 -0.13422 -0.64879 0.6908 -0.1307 -0.71114 0.89866 -0.43202 0.07594 0.9433 -0.33017 0.03427 0.04558 0.96631 0.25331 0.14965 0.98703 -0.05816 0.00233 0.87226 -0.48904 0.12423 0.5438 -0.82997 0.0127 0.33832 -0.94095 0.66264 -0.32443 -0.67502 0.99896 0.04426 -0.01055 0.99976 0.0181 -0.01254 0.99974 0.02187 0.00611 0.99841 0.05143 0.02292 0.99999 0.00311 0.00306 0.9998 0.01463 0.01391 0.03303 -0.27323 -0.96138 0.10016 -0.39213 -0.91444 0.17386 0.31533 -0.93292 0.33538 -0.09436 -0.93735 0.36466 0.04505 -0.93005 0.58246 0.76591 -0.27225 0.91846 0.38124 -0.1053 0.6951 0.71343 -0.08856 0.70838 0.69862 -0.10067 0.99999 0.00042 0.00347 0.99994 0.00975 0.00419 0.99991 0.01096 -0.00811 0.07653 -0.90025 0.4286 0.1365 -0.9162 0.37674 0.73719 -0.48316 0.47235 0.59124 0.36206 0.72065 0.96899 0.22571 0.10056 0.86557 0.24408 0.43728 0.5708 0.7921 0.21624 0.62205 0.68455 0.38005 0.74253 0.66394 0.08853 0.76738 0.52371 0.36993 0.70407 0.48707 0.51677 0.76791 0.34581 0.53919 0.09229 0.06916 0.99333 0.09578 0.07426 0.99263 0.00795 0.77 0.63799 0.0951 0.0852 0.99182 0.08228 0.87866 0.47031 0.29661 0.94876 0.10894 0.74162 0.62749 0.23721 0.86723 -0.02855 0.49708 0.83816 0.526 0.14429 0.89545 0.41108 0.17081 0.99972 -0.01926 -0.01362 0.99945 -0.00853 0.03207 0.99998 -0.00394 0.00405 0.99999 0.0044 -0.00245 0.99996 -0.00519 0.00661 0.99996 -0.00644 0.00646 0.48307 -0.71519 0.50512 0.61215 -0.59219 0.52401 0.57279 -0.42844 0.69882 0.93675 -0.19396 0.29133 0.91427 -0.37564 0.15166 0.77988 -0.07972 0.62083 0.85957 -0.2324 0.45511 0.81993 -0.43099 0.37678 0.79926 -0.5785 0.16284 0.66609 -0.70502 0.24344 0.53777 -0.02316 0.84277 0.68609 -0.08165 0.72292 0.81421 -0.53982 -0.21367 0.58894 -0.75075 -0.29921 0.78391 -0.62077 0.01084 0.90179 -0.42565 -0.07475 0.18079 0.05426 -0.98202 0.08847 0.39231 -0.91557 0.06608 0.37777 -0.92354 0.99999 -0.00219 0.00335 0.99997 -0.00147 -0.0079 0.99999 -0.00207 0.00382 0.7437 -0.57946 -0.33337 0.78459 -0.54041 -0.30393 0.16314 -0.74499 -0.64682 0.17122 -0.74549 -0.64414 0.06044 -0.80087 -0.59578 0.13355 -0.8624 -0.48829 0.25638 -0.14736 -0.95528 0.10424 -0.22434 -0.96892 0.23776 -0.53704 -0.80935 0.10195 -0.49279 -0.86416 0.50967 -0.74903 -0.42331 0.62693 -0.206 -0.75135 -0.11531 -0.06345 -0.9913 0.29442 -0.5353 -0.79169 -0.1129 -0.5509 -0.8269 -0.96197 0.00203 -0.27316 -0.9486 -0.00086 -0.31647 -0.95869 0.00374 -0.28443 -0.9344 -0.00029 -0.35621 -0.92739 0.00296 -0.37408 -0.90441 0.00733 -0.42661 -0.88415 -0.00923 -0.46711 -0.86284 -0.0023 -0.50547 -0.85199 -0.00923 -0.52347 -0.83084 0.00754 -0.55647 -0.82188 0.00148 -0.56966 -0.80865 -0.00143 -0.58828 -0.82019 0.00152 -0.57209 -0.79919 -0.00017 -0.60108 0.12116 0.99223 0.02828 -0.00316 0.11443 0.99343 0.04703 0.2221 0.97389 -0.00536 0.43074 0.90246 0.05309 0.46616 0.88311 0.05442 0.67131 0.73918 -0.03187 0.75872 0.65063 -0.05634 0.96521 0.25534 -0.03754 0.96135 0.27276 0.10595 0.82881 0.54941 0.22683 0.95324 -0.19968 -0.07879 0.97176 -0.22243 0.24346 0.46995 -0.84845 0.12747 0.78598 -0.60497 0.15898 0.70257 -0.69363 0.08431 0.85296 -0.51512 0.10993 0.07362 -0.99121 0.24021 0.17149 -0.95545 0.09048 0.35001 -0.93237 0.11002 0.66425 -0.73937 0.8242 0.49614 -0.27303 0.79343 0.53544 -0.28944 0.06615 0.94215 -0.3286 0.09557 0.99078 -0.09605 0.05909 0.99824 0.00524 0.11597 0.87011 -0.47903 0.03702 0.96307 -0.26671 0.08644 0.9378 -0.33625 0.27559 -0.56012 0.78123 0.12836 -0.41246 0.90189 0.77487 0.12724 0.61918 0.74652 0.13969 0.65053 -0.00152 0.75016 0.66126 0.18031 0.97699 -0.11393 0.04159 0.99687 -0.06719 0.08963 0.97119 0.22083 0.06299 0.01858 0.99784 0.06519 0.22301 0.97263 0.06415 0.21965 0.97347 0.05888 0.46477 0.88347 0.0667 0.48432 0.87234 0.06178 0.6692 0.74051 0.07106 0.69068 0.71966 0.0582 0.84632 0.52948 0.06224 0.84125 0.53706 0.04842 0.95083 0.3059 0.04536 -0.98779 0.14903 0.05146 -0.04909 0.99747 0.23588 -0.01939 0.97159 0.08851 -0.95898 0.26931 0.06116 -0.36612 0.92856 0.06375 -0.35948 0.93097 0.04755 -0.557 0.82915 0.07299 -0.65216 0.75456 0.05301 -0.73075 0.68058 0.07369 -0.82632 0.55835 0.04691 -0.87857 0.4753 0.05591 -0.0606 0.9966 0.28675 -0.36155 0.88716 0.45265 -0.57313 0.6831 0.45102 -0.85429 -0.25839 0.50947 -0.85661 -0.0816 0.04406 -0.38608 -0.92141 0.03034 -0.98732 -0.15581 0.08069 -0.99674 0.00067 0.16797 -0.93638 -0.3082 0.01114 -0.95843 -0.28512 0.10223 -0.93239 -0.3467 0.17764 -0.9789 -0.10094 -0.2474 -0.86583 -0.4349 -0.061 -0.90389 -0.42339 0.13221 -0.9745 0.1813 -0.08008 -0.99615 -0.03553 0.08336 -0.04823 0.99535 0.04074 -0.87996 0.47329 0.00184 -0.9006 0.43464 -0.01552 -0.21531 0.97642 0.07429 -0.35723 0.93106 0.02121 -0.50755 0.86136 0.05839 -0.55409 0.83041 0.0091 -0.71294 0.70117 0.05166 -0.73114 0.68027 0.99298 0.04725 -0.10841 0.99754 -0.04595 -0.05302 0.98233 0.17565 0.06456 0.99687 -0.0082 0.0786 0.21057 -0.39128 0.89586 -0.21252 -0.87369 0.43761 -0.30801 -0.64397 -0.70031 0.20076 -0.91962 -0.33763 -0.22739 0.24332 -0.94291 0.17064 0.53095 -0.83004 -0.35184 0.35318 0.86687 0.02615 0.95287 0.30226 -0.04111 0.93857 0.34263 -1 0 4E-05 -1 4E-05 -0 -0.27447 -0.65088 -0.70783 -0.32871 -0.54373 -0.77221 0.17165 0.8678 -0.46632 -0.34433 0.54052 0.76764 0.11763 -0.37803 0.91829 -0.50041 0.00798 0.86575 -0.13242 -0.2945 0.94643 -0.46212 -0.32357 0.82568 0.20437 -0.70687 0.67717 -0.65122 -0.48922 0.58016 0.10517 -0.93567 0.33683 -0.5707 -0.79521 0.20479 0.11919 -0.96482 -0.23433 -0.64751 -0.71387 -0.26668 0.41028 -0.69119 -0.59492 -0.82507 -0.22642 -0.51767 -0.25106 -0.48403 -0.83826 -0.17541 0.04838 -0.98331 -1 0.00223 -0.00157 -0.99999 -0.00293 0.00437 -1 -0.00155 0.00095 -0.99997 -0.00071 -0.00717 -0.99996 0.00356 -0.00863 -0.99998 0.00088 0.00569 -1 0.0015 2E-05 -1 0.00173 -0.00115 -0.99999 0.00159 -0.00336 -0.99997 0.00034 -0.00749 0.05992 0.02598 -0.99787 -0.63644 0.35647 -0.68401 0.30287 0.58129 -0.75523 -0.59441 0.67065 -0.44373 0.14401 0.89541 -0.42131 -0.64525 0.76162 -0.05996 0.26045 0.95892 0.11244 -0.65501 0.6928 0.30166 0.22838 0.81075 0.539 -0.49851 0.42858 0.75353 -0.485 0.43068 0.76111 0.12389 0.13186 0.9835 -0.58966 0.73079 -0.34388 0.40379 0.70925 -0.57786 -0.60409 0.48607 -0.63152 0.45912 0.32969 -0.82493 -0.55976 0.04072 -0.82765 0.4714 0.87465 -0.11296 -0.55248 0.82785 0.09709 0.377 0.86906 0.32033 -0.56881 0.68492 0.45535 0.3214 0.58822 0.74209 -0.45928 0.43746 0.7731 0.12143 0.22273 0.96729 -0.3974 0.12194 0.9095 0.34355 -0.90838 0.23836 -0.39321 -0.8651 0.31142 0.20936 -0.67916 0.70349 -0.28197 -0.61849 0.73346 -0.10485 -0.29548 0.94958 0.18133 -0.25523 0.94972 -0.54806 -0.81281 -0.1974 0.37615 -0.86143 -0.34126 -0.55168 -0.63214 -0.5441 0.46651 -0.52333 -0.71309 -0.47568 -0.35249 -0.8059 0.18669 -0.0751 -0.97954 1 0.00071 -0.00146 1 -0.00031 -0.00136 1 -0.00113 -0.0024 0.99999 0.00265 -0.00396 1 -0.00032 -0.00122 1 -0.00131 0.00138 1 -0.00072 -0.00037 0.99994 0.00172 0.01124 1 0.00202 0.00203 1 -0.00061 -0.00052 -1 2E-05 0.00028 -0.99999 -0.00259 0.00229 -1 0.00144 0.00029 -1 0.00022 0.00024 -1 -0.00038 0.00144 -1 -0.0016 0.00131 -0.99999 -0.00472 0.0021 -1 -0.00295 0.00087 -0.99999 0.00292 -0.00156 -1 0.00213 0.00016 -0.99999 -0.00252 0.00262 -1 -0.00069 0.0011 -1 0.00105 0.00017 0.09499 0.9808 -0.1703 0.1926 0.91809 -0.34643 0.18111 0.92182 -0.3427 -0.34961 0.93689 -0.00386 -0.10838 0.99271 -0.0528 0.29726 0.95448 0.0245 -0.06404 0.99752 -0.02928 0.10135 0.9947 -0.01707 -0.17647 0.97484 -0.13615 0.00159 0.99717 -0.07513 0.05665 0.98635 -0.15461 -0.12971 0.95866 -0.25329 -0.04498 0.99559 -0.0823 -0.26633 0.8702 -0.41452 -0.0429 0.99563 -0.08295 -0.11553 0.97215 -0.20392 -0.03398 0.03802 0.9987 -0.04277 0.90675 0.4195 -0.07252 0.95163 0.29856 -0.03735 0.98903 0.1429 0.02441 0.99344 0.11168 -0.07488 0.2374 0.96852 -0.04811 0.5184 0.85378 -0.03185 0.40269 0.91478 -0.03308 0.64324 0.76495 -0.0469 0.76478 0.64258 -0.05148 0.7748 0.63011 -0.01521 0.03501 0.99927 0.02534 0.08439 0.99611 -0.02985 0.40021 0.91594 -0.00394 0.98623 0.16534 -0.00123 0.91123 0.41189 0.05231 0.85808 0.51084 -0.0228 0.27004 -0.96258 -0.30653 0.12871 -0.94312 0.04131 0.41023 -0.91104 -0.13658 0.68617 -0.71451 -0.05113 0.72043 -0.69164 0.05057 0.88777 -0.4575 -0.14019 0.96548 -0.21955 -0.95456 0.23533 -0.18285 -0.95227 -0.10447 -0.28681 -0.13382 0.11887 -0.98385 -0.83095 0.49789 -0.24826 -0.95507 0.23456 -0.18117 -0.80792 0.57192 -0.14206 -0.70193 0.53399 -0.47132 -0.28026 0.7944 -0.53887 -0.66631 0.71783 -0.20187 -0.44416 0.87421 -0.19618 -0.46495 0.87909 -0.10497 -0.4994 0.7338 -0.46058 -0.57089 0.82025 -0.03565 -0.29884 0.57188 -0.76397 -0.65383 0.27848 -0.70354 -0.41779 0.67542 -0.60767 0.20231 -0.97312 -0.11002 0.01045 -0.99983 -0.01499 -0.33521 -0.93943 -0.07144 0.35273 -0.93353 -0.06403 -0.05362 -0.99762 -0.04329 -0.44031 -0.87736 -0.1907 -0.14168 -0.98951 -0.02817 0.01111 -0.99387 -0.11003 -0.1 -0.97659 -0.19046 -0.07873 -0.99353 -0.08188 0.02299 -0.99658 -0.07937 9E-05 -0.99583 -0.09124 -0.03661 -0.98098 -0.19062 -0.28937 -0.83541 -0.46728 -0.21553 -0.89219 -0.39691 -0.49792 -0.51316 -0.6991 -0.62634 -0.76846 -0.13102 -0.93535 -0.3204 0.14988 -0.64253 -0.5149 -0.56748 -0.23607 -0.95316 -0.18909 -0.50246 -0.84108 -0.2003 -0.68176 -0.61667 -0.39361 -0.79786 -0.60276 0.01026 -0.58038 -0.81323 -0.0426 -0.81519 -0.56993 -0.10314 -0.92288 -0.07402 -0.37792 -0.41503 -0.5925 -0.69043 -0.3601 -0.88732 -0.28808 -0.77908 -0.25848 -0.57116 -0.82139 -0.32901 -0.46592 -0.16496 -0.61191 -0.77354 -0.15688 -0.60917 -0.77737 -0.03054 -0.32978 -0.94356 -0.15349 -0.10107 -0.98297 -0.05183 -0.15258 -0.98693 -0.12666 -0.95498 -0.26827 0.11069 -0.86482 -0.48972 -0.05669 -0.99536 0.07777 -0.03722 -0.98343 0.17744 -0.03792 -0.87445 0.48363 -0.05801 -0.90475 0.42198 -0.0372 -0.78482 0.61861 -0.05964 -0.70251 0.70917 0.02046 -0.98964 0.14211 -0.00374 -0.903 0.42963 -0.01103 -0.981 0.19369 0.01303 -0.2821 0.9593 0.00771 -0.2766 0.96096 -0.07467 -0.12814 0.98894 -0.02523 -0.56938 0.82169 -0.03989 -0.28578 0.95746 -0.06746 -0.42184 0.90416 -0.03245 -0.57282 0.81904 0.05462 -0.63024 0.77448 0.85159 -0.0574 0.52106 0.87968 0.0007 0.47556 0.87382 -0.00124 0.48625 0.84048 0.0001 0.54184 0.8331 0.0028 0.55311 0.8263 -6E-05 0.56323 0.80676 0.00039 0.59087 0.80975 0.00106 0.58677 0.13517 -0.9478 -0.28881 0.25333 -0.90385 -0.3448 0.7959 0.013 -0.60529 0.90259 -0.43031 0.01278 0.69762 -0.71308 -0.06964 0.37853 -0.92196 -0.0819 0.3555 -0.89249 -0.27763 0.45222 -0.89161 -0.02304 0.4899 -0.16179 -0.85664 0.37471 -0.6665 -0.6445 0.63854 -0.34355 -0.68865 0.49943 -0.41936 -0.75809 0.43487 -0.69721 -0.5699 0.22566 -0.82877 -0.51208 0.43385 -0.86187 -0.26259 0.57516 -0.65892 -0.48478 0.9297 -0.00114 0.36833 0.93264 -0.0024 0.3608 0.90282 0.00124 0.43001 0.89713 -0.00042 0.44178 0.93371 -0.00035 0.35802 0.95382 -0.00229 0.30038 0.96101 0.00138 0.27652 0.96535 0.00682 0.26086 0.95365 -0.02003 0.30027 0.30309 0.82089 -0.48402 0.38025 0.90667 -0.18263 0.71254 0.4729 -0.51832 0.31759 0.4126 -0.85376 0.57437 0.72722 -0.37584 0.28116 0.93283 -0.22533 0.49222 0.75157 -0.43915 0.27981 0.72383 -0.63069 0.7092 0.70336 0.04817 0.69977 0.498 -0.51217 0.60359 0.43321 -0.66933 0.46688 0.2562 -0.84639 0.71414 0.0362 -0.69906 0.59616 0.79233 -0.12968 0.44109 0.63657 -0.63263 0.00361 0.00474 -0.99998 0.00612 0.01008 -0.99993 -0.00086 0.00352 -0.99999 0.00322 0.03971 -0.99921 -0.00073 6E-05 -1 -0.01187 -0.0194 -0.99974 -0.01037 -0.00782 -0.99992 0.00088 0.00076 -1 -0.00253 -0.00515 -0.99998 -0.01822 -0.01883 -0.99966 0.03073 0.01714 -0.99938 -0.00665 -0.00226 -0.99998 -0.01297 -0.02205 -0.99967 0.01548 0.00532 -0.99987 0.93229 0.04782 0.35853 0.92668 0.22357 0.30213 0.87143 0.45587 -0.18111 -0.91879 -0.13429 -0.37121 0.6739 -0.72792 -0.12643 0.80162 -0.18552 -0.56832 0.74628 -0.19066 -0.63774 0.99326 0.03097 -0.1117 0.99761 -0.04193 -0.05484 0.96984 0.22032 0.10428 0.99698 -0.01083 0.07684 0.26838 -0.25843 0.928 -0.30534 -0.80822 0.50354 -0.13128 -0.73499 -0.66525 0.22293 -0.88116 -0.41695 0.14044 0.63296 -0.76134 -0.12994 0.79612 -0.59103 -0.41614 0.71968 0.55578 -0.06626 0.95467 0.29019 -1 4E-05 0 -1 -3E-05 -0 -1 0 -2E-05 -1 0 -0 0.00067 -0.93169 0.36326 0.15543 -0.08713 -0.984 -0.04328 0.2241 -0.9736 -0.03871 0.62776 0.77745 -0.0277 0.64511 0.76359 -0.22411 -0.64354 0.73187 0.9968 -0.04158 -0.06833 0.98851 0.02941 0.14829 0.99711 0.07552 0.00839 0.99009 -0.13111 0.05026 0.1275 -0.19154 -0.97317 -0.09046 -0.07008 0.99343 0.16135 -0.93541 0.3146 -0.18293 -0.98239 0.03806 0.10115 0.18157 0.97816 -0.29906 0.14772 -0.94273 0.29574 0.89139 -0.34346 -0.46224 0.7386 0.49072 -1 1E-05 -2E-05 -1 9E-05 1E-05 -1 -2E-05 -1E-05 -1 1E-05 3E-05 -1 1E-05 4E-05 -0.07239 -0.53462 -0.84199 0.04018 -0.33976 -0.93966 -0.03051 0.99703 0.07068 0.02184 0.9822 0.18659 -0.12658 -0.35582 0.92594 0.0719 -0.69659 0.71386</float_array>
          <technique_common>
            <accessor source="#norm_0-array" count="1923" stride="3">
              <param name="X" type="float"/>
              <param name="Y" type="float"/>
              <param name="Z" type="float"/>
            </accessor>
          </technique_common>
        </source>
        <vertices id="vert_0">
          <input semantic="POSITION" source="#pos_0"/>
        </vertices>
        <triangles count="642" material="mat_0">
          <input semantic="VERTEX" source="#vert_0" offset="0"/>
          <input semantic="NORMAL" source="#norm_0" offset="1"/>
          <p>0 0 1 0 2 0 3 1 4 1 5 1 5 2 4 2 6 2 3 3 7 3 4 3 7 4 3 4 8 4 6 5 2 5 5 5 0 6 2 6 6 6 9 7 10 7 11 7 9 8 11 8 12 8 11 9 10 9 13 9 11 10 14 10 15 10 16 11 17 11 18 11 19 12 20 12 21 12 20 13 19 13 22 13 16 14 19 14 23 14 21 15 23 15 19 15 24 16 25 16 26 16 26 17 27 17 24 17 28 18 24 18 29 18 30 19 31 19 32 19 32 20 24 20 28 20 25 21 24 21 32 21 25 22 32 22 31 22 28 23 33 23 34 23 28 24 35 24 33 24 36 25 35 25 37 25 35 26 36 26 38 26 39 27 32 27 40 27 35 28 28 28 37 28 31 29 26 29 25 29 26 30 31 30 41 30 31 31 42 31 41 31 31 32 43 32 42 32 43 33 31 33 30 33 20 34 38 34 44 34 32 35 45 35 30 35 30 36 45 36 43 36 32 37 34 37 33 37 20 38 35 38 38 38 33 39 40 39 32 39 35 40 20 40 33 40 45 41 32 41 39 41 33 42 20 42 40 42 38 43 46 43 47 43 41 44 48 44 26 44 27 45 29 45 24 45 28 46 36 46 37 46 26 47 48 47 49 47 46 48 28 48 29 48 46 49 29 49 49 49 46 50 36 50 28 50 32 51 28 51 34 51 44 52 38 52 47 52 38 53 36 53 46 53 27 54 26 54 49 54 27 55 49 55 29 55 44 56 50 56 23 56 44 57 23 57 21 57 21 58 20 58 44 58 51 59 52 59 53 59 54 60 51 60 53 60 55 61 54 61 53 61 49 62 53 62 56 62 55 63 53 63 48 63 48 64 53 64 49 64 48 65 57 65 55 65 41 66 57 66 48 66 41 67 58 67 57 67 49 68 56 68 59 68 49 69 59 69 46 69 46 70 59 70 60 70 46 71 60 71 47 71 47 72 60 72 50 72 47 73 50 73 44 73 60 74 61 74 50 74 50 75 61 75 23 75 16 76 23 76 17 76 62 77 22 77 63 77 64 78 19 78 16 78 19 79 64 79 65 79 19 80 65 80 22 80 22 81 65 81 63 81 66 82 67 82 68 82 67 83 69 83 62 83 70 84 67 84 66 84 71 85 72 85 73 85 69 86 67 86 72 86 69 87 72 87 71 87 72 88 67 88 70 88 72 89 70 89 73 89 73 90 74 90 75 90 71 91 73 91 75 91 71 92 75 92 76 92 77 93 76 93 78 93 75 94 74 94 79 94 75 95 79 95 76 95 76 96 79 96 80 96 80 97 14 97 78 97 76 98 80 98 78 98 78 99 81 99 77 99 11 100 78 100 14 100 63 101 68 101 67 101 63 102 67 102 62 102 82 103 66 103 68 103 70 104 83 104 73 104 83 105 74 105 73 105 13 106 81 106 78 106 13 107 78 107 11 107 69 108 84 108 62 108 76 109 85 109 71 109 85 110 76 110 86 110 86 111 76 111 77 111 71 112 85 112 84 112 71 113 84 113 69 113 81 114 86 114 77 114 62 115 20 115 22 115 39 116 40 116 85 116 39 117 86 117 45 117 81 118 45 118 86 118 39 119 85 119 86 119 40 120 84 120 85 120 20 121 84 121 40 121 62 122 84 122 20 122 81 123 43 123 45 123 87 124 42 124 43 124 88 125 42 125 87 125 88 126 89 126 42 126 42 127 89 127 58 127 42 128 58 128 41 128 13 129 43 129 81 129 43 130 13 130 10 130 43 131 10 131 87 131 87 132 10 132 9 132 87 133 9 133 88 133 89 134 88 134 90 134 89 135 90 135 58 135 90 136 91 136 58 136 58 137 91 137 57 137 57 138 91 138 92 138 93 139 55 139 57 139 93 140 57 140 92 140 88 141 9 141 90 141 9 142 12 142 90 142 12 143 94 143 95 143 12 144 95 144 96 144 90 145 12 145 96 145 96 146 95 146 97 146 91 147 90 147 96 147 97 148 98 148 91 148 96 149 97 149 91 149 99 150 100 150 101 150 101 151 100 151 102 151 99 152 101 152 103 152 103 153 55 153 104 153 103 154 104 154 99 154 104 155 55 155 93 155 105 156 104 156 106 156 91 157 107 157 92 157 93 158 92 158 104 158 107 159 98 159 108 159 107 160 108 160 109 160 91 161 98 161 107 161 107 162 109 162 92 162 92 163 109 163 106 163 92 164 106 164 104 164 103 165 51 165 54 165 51 166 103 166 101 166 51 167 101 167 52 167 103 168 54 168 55 168 102 169 52 169 101 169 110 170 52 170 111 170 110 171 112 171 52 171 113 172 112 172 110 172 112 173 56 173 52 173 53 174 52 174 56 174 23 175 61 175 17 175 112 176 59 176 56 176 59 177 113 177 114 177 59 178 112 178 113 178 59 179 114 179 60 179 60 180 114 180 61 180 115 181 116 181 117 181 117 182 116 182 118 182 119 183 118 183 120 183 113 184 118 184 114 184 114 185 116 185 61 185 113 186 110 186 120 186 113 187 120 187 118 187 114 188 118 188 116 188 61 189 116 189 121 189 116 190 115 190 121 190 110 191 111 191 122 191 110 192 122 192 120 192 17 193 123 193 18 193 18 194 123 194 124 194 123 195 61 195 121 195 17 196 61 196 123 196 124 197 125 197 18 197 64 198 16 198 18 198 64 199 18 199 125 199 63 200 125 200 68 200 65 201 64 201 125 201 63 202 65 202 125 202 126 203 82 203 68 203 126 204 68 204 125 204 127 205 70 205 82 205 82 206 70 206 66 206 127 207 82 207 128 207 128 208 82 208 126 208 1 209 74 209 83 209 1 210 83 210 129 210 129 211 83 211 127 211 127 212 83 212 70 212 128 213 130 213 127 213 131 214 1 214 129 214 2 215 1 215 131 215 129 216 127 216 131 216 131 217 127 217 130 217 131 218 5 218 2 218 130 219 3 219 5 219 130 220 5 220 131 220 8 221 3 221 130 221 132 222 8 222 130 222 133 223 134 223 8 223 8 224 132 224 133 224 133 225 135 225 134 225 136 226 133 226 137 226 135 227 133 227 136 227 136 228 137 228 138 228 139 229 136 229 140 229 138 230 140 230 136 230 140 231 141 231 139 231 142 232 134 232 143 232 141 233 144 233 139 233 139 234 144 234 145 234 139 235 145 235 136 235 136 236 145 236 146 236 136 237 146 237 147 237 136 238 147 238 135 238 143 239 134 239 135 239 143 240 135 240 148 240 148 241 135 241 147 241 8 242 142 242 7 242 142 243 8 243 134 243 6 244 80 244 79 244 15 245 14 245 4 245 14 246 80 246 4 246 15 247 4 247 7 247 74 248 1 248 0 248 74 249 0 249 79 249 79 250 0 250 6 250 80 251 6 251 4 251 11 252 15 252 12 252 12 253 15 253 94 253 97 254 95 254 94 254 142 255 98 255 97 255 143 256 98 256 142 256 7 257 94 257 15 257 7 258 142 258 97 258 7 259 97 259 94 259 99 260 104 260 105 260 105 261 149 261 99 261 149 262 150 262 99 262 99 263 150 263 100 263 150 264 111 264 100 264 102 265 100 265 111 265 111 266 52 266 102 266 143 267 108 267 98 267 145 268 149 268 105 268 150 269 149 269 145 269 144 270 150 270 145 270 145 271 105 271 146 271 146 272 105 272 106 272 146 273 106 273 147 273 147 274 106 274 109 274 147 275 109 275 108 275 147 276 108 276 148 276 148 277 108 277 143 277 151 278 152 278 121 278 153 279 150 279 144 279 111 280 150 280 122 280 115 281 151 281 121 281 122 282 153 282 119 282 119 283 153 283 154 283 119 284 154 284 155 284 119 285 155 285 117 285 117 286 155 286 156 286 117 287 156 287 115 287 115 288 156 288 151 288 122 289 150 289 153 289 120 290 122 290 119 290 118 291 119 291 117 291 124 292 123 292 157 292 157 293 123 293 121 293 125 294 124 294 126 294 152 295 158 295 157 295 152 296 157 296 121 296 157 297 126 297 124 297 126 298 157 298 128 298 157 299 158 299 128 299 132 300 158 300 152 300 130 301 128 301 158 301 158 302 132 302 130 302 151 303 133 303 152 303 133 304 132 304 152 304 153 305 144 305 141 305 156 306 137 306 151 306 151 307 137 307 133 307 153 308 141 308 140 308 153 309 140 309 154 309 154 310 140 310 138 310 154 311 138 311 155 311 155 312 138 312 137 312 155 313 137 313 156 313 159 314 160 314 161 314 160 315 159 315 162 315 161 316 163 316 159 316 159 317 163 317 162 317 164 318 161 318 160 318 165 319 161 319 164 319 166 320 163 320 165 320 165 321 163 321 161 321 167 322 163 322 166 322 167 323 162 323 163 323 164 324 160 324 168 324 168 325 160 325 167 325 167 326 160 326 162 326 165 327 164 327 168 327 168 328 167 328 166 328 166 329 165 329 169 329 166 330 169 330 170 330 166 331 170 331 168 331 168 332 170 332 169 332 168 333 169 333 165 333 171 334 172 334 173 334 171 335 173 335 174 335 174 336 173 336 175 336 174 337 175 337 176 337 174 338 176 338 177 338 177 339 176 339 178 339 178 340 176 340 179 340 178 341 179 341 180 341 180 342 179 342 181 342 180 343 181 343 182 343 182 344 181 344 183 344 183 345 181 345 184 345 183 346 184 346 185 346 181 347 186 347 187 347 186 348 181 348 179 348 179 349 176 349 186 349 186 350 176 350 175 350 175 351 173 351 172 351 175 352 172 352 186 352 187 353 188 353 181 353 181 354 188 354 189 354 181 355 189 355 190 355 181 356 190 356 184 356 185 357 184 357 190 357 185 358 190 358 189 358 185 359 189 359 191 359 191 360 189 360 188 360 191 361 188 361 192 361 192 362 188 362 187 362 192 363 187 363 193 363 193 364 187 364 186 364 193 365 186 365 194 365 194 366 186 366 172 366 194 367 172 367 195 367 195 368 172 368 171 368 192 369 196 369 191 369 191 370 196 370 197 370 191 371 197 371 185 371 185 372 197 372 198 372 185 373 198 373 183 373 192 374 199 374 196 374 199 375 192 375 193 375 199 376 193 376 200 376 200 377 193 377 194 377 200 378 194 378 201 378 201 379 194 379 195 379 201 380 195 380 202 380 202 381 195 381 171 381 178 382 203 382 204 382 178 383 204 383 177 383 177 384 204 384 205 384 177 385 205 385 174 385 174 386 205 386 171 386 171 387 205 387 202 387 203 388 178 388 180 388 203 389 180 389 206 389 206 390 180 390 182 390 206 391 182 391 207 391 207 392 182 392 183 392 207 393 183 393 198 393 196 394 199 394 198 394 203 395 199 395 200 395 200 396 205 396 204 396 198 397 197 397 196 397 203 398 206 398 199 398 200 399 204 399 203 399 207 400 198 400 199 400 205 401 200 401 201 401 205 402 201 402 202 402 199 403 206 403 207 403 208 404 209 404 210 404 211 405 212 405 208 405 209 406 208 406 213 406 208 407 210 407 214 407 209 408 215 408 216 408 208 409 214 409 211 409 211 410 217 410 218 410 218 411 217 411 219 411 211 412 218 412 212 412 209 413 213 413 220 413 221 414 216 414 215 414 209 415 220 415 222 415 209 416 222 416 215 416 223 417 224 417 225 417 223 418 225 418 226 418 225 419 227 419 226 419 228 420 229 420 230 420 229 421 228 421 231 421 232 422 231 422 233 422 231 423 228 423 234 423 231 424 234 424 223 424 230 425 235 425 228 425 234 426 236 426 224 426 234 427 224 427 223 427 228 428 235 428 237 428 234 429 228 429 236 429 235 430 238 430 237 430 215 431 236 431 228 431 228 432 237 432 215 432 239 433 208 433 240 433 241 434 222 434 242 434 222 435 241 435 215 435 215 436 241 436 236 436 224 437 236 437 243 437 239 438 213 438 208 438 244 439 220 439 213 439 244 440 213 440 239 440 220 441 244 441 245 441 220 442 245 442 242 442 220 443 242 443 222 443 240 444 246 444 239 444 239 445 246 445 247 445 239 446 247 446 244 446 243 447 236 447 241 447 243 448 241 448 242 448 243 449 242 449 245 449 248 450 209 450 216 450 248 451 216 451 249 451 249 452 216 452 250 452 250 453 216 453 221 453 250 454 221 454 238 454 221 455 237 455 238 455 215 456 237 456 221 456 251 457 252 457 253 457 248 458 251 458 254 458 248 459 249 459 252 459 255 460 253 460 252 460 251 461 248 461 252 461 252 462 256 462 255 462 252 463 257 463 256 463 238 464 235 464 257 464 256 465 258 465 255 465 257 466 235 466 230 466 230 467 229 467 258 467 257 468 230 468 256 468 256 469 230 469 258 469 252 470 250 470 257 470 252 471 249 471 250 471 257 472 250 472 238 472 259 473 260 473 261 473 262 474 259 474 263 474 264 475 265 475 266 475 262 476 260 476 259 476 262 477 263 477 264 477 267 478 265 478 264 478 263 479 267 479 264 479 268 480 269 480 270 480 263 481 271 481 267 481 263 482 268 482 271 482 259 483 269 483 268 483 268 484 263 484 259 484 268 485 211 485 271 485 272 486 273 486 271 486 267 487 271 487 273 487 274 488 275 488 272 488 276 489 277 489 266 489 278 490 279 490 254 490 276 491 275 491 274 491 265 492 267 492 273 492 265 493 275 493 276 493 276 494 274 494 279 494 276 495 279 495 277 495 266 496 265 496 276 496 278 497 277 497 279 497 280 498 248 498 254 498 275 499 265 499 272 499 272 500 265 500 273 500 254 501 279 501 280 501 280 502 279 502 274 502 272 503 214 503 210 503 272 504 210 504 274 504 274 505 210 505 280 505 280 506 210 506 248 506 248 507 210 507 209 507 211 508 214 508 271 508 214 509 272 509 271 509 217 510 211 510 268 510 217 511 268 511 281 511 282 512 219 512 281 512 281 513 219 513 217 513 282 514 283 514 219 514 283 515 218 515 219 515 270 516 284 516 268 516 284 517 282 517 281 517 284 518 281 518 268 518 285 519 246 519 286 519 286 520 246 520 240 520 240 521 208 521 212 521 283 522 285 522 286 522 240 523 212 523 286 523 212 524 218 524 286 524 286 525 218 525 283 525 285 526 283 526 282 526 243 527 245 527 244 527 270 528 224 528 243 528 270 529 243 529 284 529 243 530 282 530 284 530 243 531 244 531 282 531 285 532 282 532 244 532 247 533 246 533 285 533 247 534 285 534 244 534 259 535 261 535 269 535 287 536 269 536 261 536 288 537 289 537 290 537 291 538 292 538 293 538 292 539 291 539 294 539 260 540 262 540 295 540 260 541 294 541 261 541 260 542 295 542 294 542 290 543 293 543 288 543 296 544 297 544 287 544 290 545 297 545 293 545 293 546 297 546 291 546 291 547 297 547 296 547 261 548 296 548 287 548 296 549 261 549 294 549 296 550 294 550 291 550 287 551 227 551 269 551 227 552 225 552 269 552 225 553 224 553 269 553 269 554 224 554 270 554 298 555 227 555 287 555 287 556 297 556 298 556 298 557 297 557 290 557 290 558 289 558 298 558 298 559 289 559 299 559 226 560 227 560 298 560 223 561 233 561 231 561 300 562 301 562 302 562 303 563 299 563 289 563 302 564 233 564 226 564 226 565 233 565 223 565 303 566 302 566 226 566 226 567 298 567 303 567 233 568 302 568 304 568 303 569 289 569 302 569 302 570 289 570 300 570 300 571 289 571 305 571 305 572 289 572 288 572 304 573 232 573 233 573 303 574 298 574 299 574 251 575 295 575 262 575 301 576 229 576 231 576 251 577 253 577 301 577 301 578 253 578 255 578 301 579 292 579 251 579 301 580 255 580 258 580 231 581 232 581 301 581 301 582 232 582 304 582 251 583 292 583 295 583 262 584 264 584 251 584 251 585 264 585 266 585 251 586 266 586 277 586 301 587 258 587 229 587 277 588 278 588 251 588 288 589 301 589 305 589 301 590 300 590 305 590 304 591 302 591 301 591 254 592 251 592 278 592 292 593 294 593 295 593 301 594 293 594 292 594 301 595 288 595 293 595 306 596 307 596 308 596 307 597 306 597 309 597 306 598 308 598 310 598 306 599 310 599 309 599 311 600 308 600 307 600 312 601 308 601 311 601 313 602 310 602 312 602 312 603 310 603 308 603 313 604 309 604 310 604 314 605 309 605 313 605 311 606 307 606 314 606 314 607 307 607 309 607 315 608 312 608 311 608 315 609 311 609 314 609 314 610 313 610 312 610 316 611 317 611 318 611 315 612 318 612 317 612 312 613 317 613 314 613 314 614 317 614 316 614 314 615 316 615 315 615 315 616 316 616 318 616 315 617 317 617 312 617 319 618 320 618 321 618 321 619 322 619 323 619 321 620 320 620 322 620 323 621 319 621 321 621 323 622 322 622 324 622 325 623 320 623 326 623 325 624 322 624 320 624 324 625 322 625 325 625 320 626 319 626 326 626 323 627 324 627 327 627 327 628 319 628 323 628 326 629 319 629 327 629 326 630 327 630 328 630 329 631 324 631 325 631 329 632 325 632 326 632 328 633 324 633 329 633 328 634 327 634 324 634 330 611 331 611 332 611 329 635 330 635 332 635 329 636 332 636 328 636 332 637 331 637 328 637 328 638 331 638 326 638 326 639 331 639 330 639 326 640 330 640 329 640</p>
        </triangles>
      </mesh>
    </geometry>
  </library_geometries>
  <library_visual_scenes>
    <visual_scene id="DefaultScene">
      <node id="node_44cefff7_05b5_4a10_97b0_c08f16c91ec8" type="NODE">
        <matrix>1 0 0 0 0 1 0 0 0 0 1 0 0 0 0 1</matrix>
        <node id="node_65d5adbe_c920_485b_b18a_b40c44045a9a" type="NODE">
          <matrix>1 0 0 0 0 1 0 0 0 0 1 0 0 0 0 1</matrix>
          <node id="node_65d5adbe_c920_485b_b18a_b40c44045a9a_mesh0" type="NODE">
            <matrix>1 0 0 0 0 1 0 0 0 0 1 0 0 0 0 1</matrix>
            <instance_geometry url="#geometry_926512aa_8f93_4107_9fc9_0c8572631898">
              <bind_material>
                <technique_common>
                  <instance_material symbol="mat_0" target="#mat_0"/>
                </technique_common>
              </bind_material>
            </instance_geometry>
          </node>
        </node>
      </node>
    </visual_scene>
  </library_visual_scenes>
  <scene>
    <instance_visual_scene url="#DefaultScene"/>
  </scene>
</COLLADA>
