<?xml version="1.0" encoding="UTF-8"?>
<COLLADA xmlns="http://www.collada.org/2005/11/COLLADASchema" version="1.4.1">
<!--
# File generated by ImageToStl.com - Free Image and 3D model conversion tools
-->
  <asset>
    <contributor>
      <author>ImageToStl.com</author>
      <authoring_tool>ImageToStl.com</authoring_tool>
    </contributor>
    <created>2026-09-30T02:12:18</created>
    <modified>2026-09-30T02:12:18</modified>
    <up_axis>Z_UP</up_axis>
  </asset>
  <library_effects>
    <effect id="effect_0">
        <profile_COMMON>
          <technique sid="common">
            <phong>
              <diffuse>
                <color>0.9 0.9 0.9 1</color>
              </diffuse>
              <specular>
                <color>0.05 0.05 0.05 1</color>
              </specular>
              <shininess>
                <float>64</float>
              </shininess>
            </phong>
          </technique>
        </profile_COMMON>
    </effect>
  </library_effects>
  <library_materials>
    <material id="mat_0">
      <instance_effect url="#effect_0"/>
    </material>
  </library_materials>
  <library_geometries>
    <geometry id="geometry_caf23707_cd91_4bc5_b456_5e911a5a9e68">
      <mesh>
        <source id="pos_0">
          <float_array id="pos_0-array" count="603">0.16996589 0.20097348 0.01031757 0.08690988 0.2011406 0.01023246 0.10018893 0.19955802 0.02299617 0.12259255 0.19856912 0.03388491 0.14369366 0.1988373 0.03130506 0.14672859 0.21093373 0.0098966 0.10676748 0.20993358 0.00989449 0.18401285 0.187713 3E-08 0.18811597 0.18750262 0.0100837 0.18261893 0.187713 0.01000002 0.17716317 0.18189441 3E-08 0.17732097 0.18102114 0.01000002 0.18421066 0.17562823 3E-08 0.18568256 0.17575714 0.01000002 0.18913068 0.18206383 3E-08 0.19509804 0.16686191 0.02254417 0.19936171 0.17182979 0.0115078 0.19126758 0.16484669 0.01105447 0.18920928 0.16390982 0.03489025 0.18125302 0.16300435 0.05056907 0.18178518 0.16348054 0.01025104 0.17139594 0.16761212 0.01034036 0.17046456 0.16793257 0.06529326 0.16497009 0.17746709 0.05485728 0.16504173 0.17806038 0.01080592 0.16644903 0.18855566 0.01016122 0.16523886 0.18691589 0.03619203 0.17292945 0.19716732 0.01153681 0.16925803 0.19407149 0.02009901 0.19908941 0.17403583 0.01006678 0.19386666 0.16830996 0.00994087 0.17561029 0.19748352 0.01006243 0.19567426 0.17067127 0 0.1939666 0.17428121 0.01000002 0.19006886 0.1743142 3E-08 0.18850106 0.17113706 0.01000002 0.19010623 0.16869302 3E-08 0.17272192 0.19804737 0.0120574 0.07401283 0.07771298 3E-08 0.07746024 0.07610542 0.01000002 0.06730668 0.07431117 0.01000002 0.06751256 0.07291116 3E-08 0.07258847 0.06547796 3E-08 0.06895389 0.06591387 0.01015473 0.07817876 0.06851125 0.01000002 0.07923821 0.07155088 3E-08 0.05724558 0.08144508 0.01124244 0.06248628 0.0868625 0.01090571 0.06070985 0.08572185 0.0204542 0.06598455 0.08900917 0.03197116 0.07094868 0.08972844 0.01030602 0.07337062 0.09051657 0.04672262 0.08049255 0.08878615 0.01045505 0.08457214 0.08705205 0.06521193 0.08850625 0.08201453 0.01037608 0.09027602 0.079587 0.0603826 0.09179756 0.07234576 0.01048902 0.0920907 0.07053121 0.04419358 0.09071759 0.06456819 0.03244457 0.08834158 0.06114597 0.0103255 0.08728711 0.05928695 0.01997318 0.08305674 0.05582912 0.01120607 0.08422693 0.0555754 0.01266325 0.08050307 0.05613104 0.00995566 0.0642966 0.07865377 0.01000002 0.0613979 0.08282914 0.00995501 0.05773393 0.07882946 0.00995299 0.06783116 0.0821955 0.01000002 0.06472759 0.08552799 0.00992188 0.06078442 0.08252966 -0 0.06721462 0.07977919 3E-08 0.06645896 0.08466222 3E-08 0.07642185 0.18676338 3E-08 0.07893088 0.18453586 0.01000002 0.06873235 0.18709561 0.01020176 0.06888659 0.18565299 3E-08 0.06867161 0.17803937 3E-08 0.06888657 0.17778319 0.01000002 0.07810789 0.17745537 3E-08 0.07592379 0.17650944 0.01000002 0.08315895 0.19774874 0.01143095 0.08931798 0.19111411 0.01032367 0.08806054 0.19372788 0.02214378 0.08975413 0.19051893 0.02782495 0.09206348 0.18339084 0.04315606 0.09146818 0.17798677 0.01055317 0.08861588 0.17019789 0.06553353 0.08500402 0.16755034 0.01019794 0.07643905 0.16313839 0.05283832 0.07674058 0.16327812 0.01127956 0.0661707 0.16419229 0.03228331 0.06656449 0.16476616 0.01029028 0.05749419 0.17109917 0.01198738 0.05767409 0.17444631 0.00997421 0.080882 0.19745812 0.01004031 0.05719932 0.17203052 0.01127512 0.17781352 0.2010887 -4.1E-07 0.19068119 0.19034256 0.00508257 0.19797212 0.18148333 -1.4E-07 0.21112604 0.16014111 0.00512859 0.21169047 0.15808919 -8E-07 0.21789448 0.12545522 0.0003548 0.20484453 0.08171809 0.00426992 0.19158511 0.06266412 2.49E-06 0.21486773 0.10372653 0.00121049 0.18684083 0.05981086 0.00455487 0.15734741 0.04199707 0.00549247 0.14775075 0.03954822 9.1E-07 0.11781476 0.0379246 0.00034726 0.09228787 0.04504895 0.00477881 0.0757287 0.05414773 -4.89E-06 0.0629116 0.06649022 0.00476982 0.18966155 0.07264896 3E-08 0.18780786 0.076478 0.01000002 0.180922 0.0772583 3E-08 0.17777565 0.07411195 0.01000002 0.17764947 0.07036786 3E-08 0.17941923 0.06760938 0.01000002 0.18314867 0.06579575 3E-08 0.18734412 0.06589003 0.01021426 0.17329612 0.0556922 0.01161408 0.16816793 0.06131263 0.01029191 0.16986445 0.0588396 0.01844061 0.16688377 0.06243441 0.027973 0.16455691 0.0706023 0.04433446 0.16486847 0.07242816 0.01034618 0.16910367 0.08383691 0.01090395 0.16790301 0.08290265 0.06481372 0.18186441 0.09061181 0.04955155 0.17968537 0.0897937 0.01027439 0.19149072 0.0882105 0.01034497 0.19130275 0.08878221 0.03066823 0.19646904 0.0852257 0.01916151 0.19941877 0.08141821 0.01125463 0.19892602 0.07893161 0.00996317 0.17543627 0.0558528 0.01011847 0.12984513 0.0669692 0.06601072 0.16131939 0.07775201 0.06600153 0.09625816 0.17642032 0.0660007 0.18110025 0.09917608 0.06601065 0.18146276 0.15115796 0.06595614 0.07240995 0.14514296 0.06598298 0.18699691 0.13311961 0.06600199 0.15820023 0.17764176 0.06600556 0.12976593 0.18603095 0.06600559 0.10615686 0.07243026 0.06598745 0.07071862 0.11333156 0.06600338 0.15303306 0.06253251 0.03996009 0.13127503 0.05802229 0.0406502 0.10994551 0.05785574 0.0354574 0.04547127 0.09339192 0.00510493 0.06201626 0.10816008 0.04049169 0.03853554 0.12593426 0.00036203 0.05943937 0.12935665 0.03972217 0.06053368 0.14879426 0.03545742 0.04170629 0.14852089 0.00084831 0.05189042 0.1739748 0.0010188 0.06983227 0.1936717 0.00453739 0.08114601 0.2035125 0.00080609 0.09576537 0.20920004 0.0045869 0.12447657 0.2159107 0.00434587 0.16227536 0.20905152 0.00473633 0.19520479 0.1428068 0.04041633 0.19697711 0.12306657 0.0400053 0.19322062 0.10408895 0.04043265 0.15040576 0.19093932 0.04226725 0.10909993 0.19133613 0.04363588 0.04916986 0.08611479 2.12E-06 0.11338118 0.2144623 1.36E-06 0.14538355 0.2138816 2.9E-07 0.13574992 0.13132253 3E-08 0.12122226 0.24407485 0.02730482 0.1344739 0.24447049 0.02278275 0.12685573 0.24482039 0.0187836 0.13176851 0.24360263 0.03270245 0.12851068 0.20227359 0.0151679 0.12122226 0.20179187 0.02067408 0.12685573 0.20104635 0.0291953 0.13585161 0.2016457 0.02234477 0.11721376 0.20150223 0.02398463 0.12332139 0.20135041 0.0129713 0.13527933 0.20239876 0.01373718 0.13860901 0.2014232 0.02488808 0.12936479 0.2007027 0.03312345 0.11829892 0.20002092 0.0179686 0.11974732 0.19925103 0.02676849 0.12823099 0.19878168 0.03213315 0.13771944 0.19935763 0.02555016 0.13683254 0.20006406 0.0174755 0.13061208 0.20052692 0.01218499 0.11842044 0.19624506 0.0232637 0.12276119 0.19564751 0.0300938 0.13189313 0.19502655 0.03130751 0.13765685 0.19601035 0.02594638 0.13722053 0.19632484 0.01695248 0.13194688 0.19718336 0.01253894 0.12216027 0.19707571 0.01376939 0.11871221 0.19487515 0.01597456 0.12096906 0.19368719 0.02955301 0.13833283 0.19404368 0.02547819 0.13085058 0.19530617 0.01104794</float_array>
          <technique_common>
            <accessor source="#pos_0-array" count="603" stride="3">
              <param name="X" type="float"/>
              <param name="Y" type="float"/>
              <param name="Z" type="float"/>
            </accessor>
          </technique_common>
        </source>
        <source id="norm_0">
          <float_array id="norm_0-array" count="1236">0.00187 0.99264 0.12113 -0.00031 0.9949 0.10088 -0.00274 0.99537 0.09604 -0.00107 0.04083 0.99917 -0.00094 0.04003 0.9992 -0.03816 -0.99926 -0.00532 0.64479 -0.75905 0.08988 0.7823 -0.61935 -0.06643 0.66347 0.7462 0.05469 0.53065 0.84291 -0.08897 -0.78975 0.60376 0.10846 -0.95826 0.19999 -0.20429 -0.71224 -0.64525 0.27635 -0.65357 0.75197 0.086 -0.45539 0.89028 -0.00433 -0.09255 0.99565 0.01054 -0.14474 0.98912 0.02638 0.3696 0.92905 0.01585 0.41751 0.90867 0.00178 0.86082 0.50879 0.01162 0.85454 0.51932 0.00838 0.99072 -0.13052 0.03784 0.99966 -0.02591 0.00128 0.78461 -0.609 0.11624 0.88257 -0.47004 0.01142 -0.49243 0.43256 0.75525 0.14123 0.04182 0.98909 0.4671 -0.47103 0.7483 -0.13369 0.39288 0.90982 -0.54989 0.59963 0.58143 -0.53333 -0.82065 0.20517 0.48922 -0.85043 -0.19349 0.98759 0.00657 0.15692 -0.98446 0.01821 -0.17468 0.46032 0.87659 -0.14035 -0.33043 0.93003 0.16083 -0.01362 -0.01236 0.99983 -0.01349 -0.00968 0.99986 0.01935 0.0158 0.99969 0.01603 0.01871 0.9997 0.01767 0.01078 0.99979 0.0125 0.01985 0.99972 0 0 1 -0.00122 -0.00687 0.99998 0.02481 0.01441 0.99959 -0.0159 -0.01779 0.99972 0.01001 0.00079 0.99995 0.00957 -0.00758 0.99993 0.48192 -0.35914 0.79923 0.24928 -0.90648 -0.3408 0.92075 -0.01353 0.38992 0.17001 -0.96209 -0.21327 0.5896 -0.79814 0.12388 0.82424 0.56285 -0.06183 0.92728 0.18786 0.32383 -0.27058 0.95279 -0.13775 -0.6666 0.72991 0.15124 -0.98672 -0.09336 -0.13292 -0.75324 -0.63874 0.15699 0.71938 -0.69274 0.05108 0.53223 -0.84659 -0.00211 0.32319 -0.94537 0.04267 0.18238 -0.98318 0.00915 -0.09865 -0.99473 0.02809 -0.28122 -0.9596 -0.00944 -0.64511 -0.76372 0.02388 -0.79501 -0.6066 -0.00131 -0.94657 -0.32201 0.01787 -0.98114 -0.19327 -0.00187 -0.98176 0.18918 0.01872 -0.95422 0.29361 0.05707 -0.84842 0.52925 0.00925 -0.70301 0.70867 0.05972 -0.49378 0.8412 -0.2204 -0.74233 -0.41851 0.52326 0.05381 0.99016 0.12919 -0.00701 0.00592 0.99996 0.01688 -0.00041 0.99986 -0.04004 -0.0111 0.99914 -0.01884 -0.03279 0.99928 -0.04757 -0.02088 0.99865 0.00662 -0.03744 0.99928 -0.01702 -0.03179 0.99935 -0.0348 -0.00385 0.99939 -0.03495 -0.00331 0.99938 -0.03407 8E-05 0.99942 0.00417 0.01924 0.99981 -0.0073 -0.00506 0.99996 -0.0372 0.00247 0.9993 0.38423 0.89828 0.21321 -0.70218 0.70076 -0.12603 -0.98354 -0.15221 0.09742 -0.72931 -0.68081 -0.06786 0.81991 0.56848 -0.06763 0.62951 -0.77684 -0.01542 0.34824 -0.92664 0.14163 0.23894 -0.2834 0.92876 0.32633 -0.29939 0.89659 0.40742 -0.34148 0.84699 -0.34144 0.47383 0.81173 0.18675 -0.36018 0.914 -0.24343 -0.95789 -0.15229 0.14433 -0.97948 0.14069 0.99942 -0.02822 0.0191 0.99963 0.01701 -0.02105 0.06175 0.9978 0.02423 0.17658 0.97555 0.13085 -0.92299 0.3458 -0.16888 -0.96353 -0.17453 0.20287 -0.72463 -0.68511 0.07441 -0.88914 -0.45759 0.0066 -0.95989 -0.28001 0.0144 -0.98599 -0.16072 0.04464 -0.97477 0.22239 -0.01906 -0.85021 0.52557 0.03035 -0.49423 0.86928 -0.00933 -0.45929 0.88829 -0.00035 0.09411 0.99555 0.00403 0.14193 0.98947 0.02836 0.57616 0.81672 0.03163 0.45313 0.44145 0.77446 -0.04433 0.32492 0.9447 -0.40322 -0.50201 0.76512 -0.3502 0.49653 0.79424 0.00412 -0.02159 0.99976 0.00145 0.02355 0.99972 0.00391 0.0216 0.99976 0.0183 -0.00588 0.99982 -0.03225 0.00175 0.99948 -0.01591 0.00596 0.99986 -0.04672 -0.00506 0.9989 -0.03823 0.01121 0.99921 -0.00944 0.02397 0.99967 0.67648 0.69557 -0.242 0.81025 0.54881 0.20568 0.85769 0.50295 -0.10682 0.9818 0.18701 0.03322 0.75839 -0.41523 -0.50242 0.71677 -0.5841 0.38089 0.51706 -0.85595 0.00238 0.42997 -0.81531 -0.38781 0.05497 -0.94413 0.32496 -0.31214 -0.82016 -0.47948 -0.52636 -0.72096 0.45073 -0.45234 -0.85766 0.24455 0.22351 -0.9477 -0.22785 0.89341 -0.42431 0.14759 0.96431 0.24374 -0.10343 0.6362 0.76521 0.09849 0.21353 0.97214 -0.09668 -0.69593 0.66137 0.27975 -0.97973 0.03893 -0.19652 0.73126 0.67995 0.05411 0.79397 0.60765 0.01911 0.97203 0.23389 0.02148 0.95745 0.28395 0.05152 0.93715 -0.34862 0.01483 0.96693 -0.25499 -0.00483 0.47958 -0.87749 -0.00453 0.49012 -0.87161 -0.00904 -0.13303 -0.99075 0.02664 -0.13565 -0.99036 0.02815 -0.53831 -0.84254 0.01872 -0.65387 -0.74765 0.1161 0.10891 -0.08883 0.99007 -0.40306 -0.35764 0.8424 0.4427 0.56729 0.69441 -0.00116 0.02028 0.99979 -0.00952 -0.0264 0.99961 0.00425 -0.01801 0.99983 0.01053 -0.03269 0.99941 -0.02314 0.01791 0.99957 0.02505 0.00159 0.99969 0.02955 -0.02108 0.99934 0.02642 0.00296 0.99965 0.02272 0.00574 0.99973 0.39478 0.89361 -0.21355 -0.00114 0.00417 0.99999 -0.03973 -0.02619 0.99887 -0.00027 -0.00017 1 0.01517 0.04941 0.99866 0.01273 0.0097 0.99987 0.0001 0.00024 1 0.0014 0.00297 0.99999 0.00133 -0.07149 0.99744 -7E-05 -0.00025 1 0.00112 0.00058 1 -0.00108 -0.00044 1 -0.08704 -0.0758 0.99332 0.47639 -0.76603 0.43157 0.42576 -0.73297 0.53054 0.50838 -0.60893 0.60889 0.45456 -0.74654 0.48586 0.42864 -0.75156 0.50143 0.18916 -0.83298 0.51996 0.03582 -0.89906 0.43636 -0.10816 -0.87476 0.47234 -0.16403 -0.8732 0.45893 -0.3526 -0.77393 0.52602 -0.47651 -0.73088 0.48862 -0.46942 -0.73073 0.49566 -0.54993 -0.7533 0.3607 -0.54003 -0.64845 0.53655 -0.59873 -0.51049 0.61719 -0.75719 -0.49617 0.42483 -0.71362 -0.4124 0.56628 -0.73977 -0.42371 0.5227 -0.87913 -0.12015 0.46118 -0.8764 -0.08937 0.47322 -0.87862 0.149 0.45367 -0.87324 0.11238 0.47416 -0.83053 0.32929 0.44921 -0.78689 0.38713 0.48055 -0.78637 0.3881 0.48062 -0.77567 0.41057 0.47934 -0.64745 0.55665 0.52052 -0.70548 0.56656 0.42579 -0.77707 0.47534 0.41256 -0.73277 -0.4688 0.49323 -0.79745 -0.37541 0.47238 0.38829 -0.80125 0.45522 -0.816 -0.36758 0.44613 0.20138 -0.9201 0.33595 -0.09502 -0.90289 0.41923 -0.35732 -0.85933 0.36589 -0.56338 -0.70831 0.42533 -0.9181 0.13356 0.37317 -0.84325 0.38585 0.37423 0.61808 -0.71438 0.32809 0.44953 -0.82612 0.33977 -0.82154 -0.37793 0.4269 -0.49642 -0.70604 0.50505 -0.48856 -0.78368 0.38361 -0.21356 -0.925 0.31429 0.29569 -0.86276 0.41014 -0.74857 0.49216 0.44433 -0.90681 0.04848 0.41874 -0.93512 -0.10136 0.33953 -0.81771 -0.44216 0.36856 0.91784 -0.01282 -0.39674 -0.5371 -0.79292 -0.28776 -0.40042 0.77152 0.49439 -0.4863 0.73704 0.46934 -0.46151 0.74021 0.48898 -0.51091 0.60849 0.60722 -0.4012 0.75981 0.5116 -0.50949 0.70762 0.48959 -0.42262 0.78349 0.45556 -0.32485 0.75548 0.56896 -0.21352 0.92483 0.31479 -0.01776 0.70799 0.706 0.1742 0.96973 0.17113 0.29613 0.71752 0.63046 0.74867 0.65823 -0.07893 0.4674 0.75246 0.46405 0.49775 0.76335 0.41175 0.49511 0.62165 0.60697 0.61869 0.50338 0.60319 0.75794 0.5137 0.40204 0.72398 0.43766 0.53321 0.73284 0.46808 0.49382 0.72146 0.51176 0.46648 0.77319 0.35693 0.52419 0.88455 0.11023 0.45324 0.88061 0.0693 0.46874 0.88219 -0.10481 0.45908 0.83002 -0.31393 0.461 0.75983 -0.41463 0.50073 0.4858 -0.74947 0.44976 0.68266 -0.52552 0.50773 0.72336 -0.42569 0.54363 0.63523 -0.55377 0.53835 0.69452 -0.56497 0.44548 0.48717 -0.45012 0.74837 0.71533 -0.60574 0.3484 0.76402 0.51622 0.38702 0.88178 0.27151 0.38567 0.90036 -0.15631 0.4061 0.90278 -0.1698 0.39517 0.81962 -0.49176 0.29393 0.59398 0.72467 0.34934 0.50136 0.81459 0.29169 0.2586 0.87649 0.40607 0.15646 0.93141 0.32863 -0.19632 0.89777 0.39429 -0.24835 0.86564 0.43473 -0.16811 0.88869 0.42659 0.28276 0.85196 0.44068 -0.40649 0.77483 0.48415 0.40988 0.76799 0.49213 0.4735 0.73477 0.48571 -0.38483 0.79705 0.46542 0.86358 -0.16017 0.4781 0.05796 0.82648 0.55997 0.39372 0.81783 0.41968 0.73769 0.53978 0.40552 0.86993 0.34056 0.35672 0.8106 -0.38374 0.44234 -0.60775 0.72152 0.33175 -0.40609 0.85057 0.3341 0.94042 0.07754 0.33105 -0.71094 -0.59058 -0.3818 -0.82621 -0.53772 0.168 -0.91629 -0.24182 -0.31928 -0.68071 0.67211 -0.29139 -0.321 0.93305 -0.1624 -0.21879 0.94483 0.24377 0.01695 0.93474 -0.35492 0.16329 0.92012 0.35598 0.34525 0.87523 -0.33878 0.51008 0.78111 0.36012 -2E-05 -3E-05 -1 -7E-05 -7E-05 -1 -2E-05 2E-05 -1 -2E-05 1E-05 -1 2E-05 -2E-05 -1 -3E-05 -2E-05 -1 0 0 -1 -3E-05 9E-05 -1 -0.00739 0.05015 -0.99871 -0.1675 0.15889 -0.97298 -0.00042 -0.00671 -0.99998 -0.04556 0.06084 -0.99711 -0.06101 0.00172 -0.99814 -0.06882 0.03421 -0.99704 -0.06485 0.03058 -0.99743 0 0 -1 0.00284 0.0098 -0.99995 0 -0 -1 -0.00406 0.00603 -0.99997 -0.00262 0.007 -0.99997 -0.00023 -0.00017 -1 0.00956 0.00308 -0.99995 0.00011 0.00031 -1 0.00107 0.00073 -1 -0.01149 -0.00151 -0.99993 -6E-05 3E-05 -1 0.00022 -0.00021 -1 0.03902 0.00727 -0.99921 0.11564 -0.05516 -0.99176 0.00276 0.00524 -0.99998 -1E-05 -2E-05 -1 0.00019 -0.00029 -1 -1E-05 -1E-05 -1 0.00014 -0.00018 -1 0.00391 -0.00569 -0.99998 -5E-05 -0 -1 -0.01012 -0.01282 -0.99987 0.00237 -0.00668 -0.99997 0.00461 -0.00504 -0.99998 0.00493 -0.00467 -0.99998 -0 0 -1 0.00652 -0.01203 -0.99991 -0.00375 0.00044 -0.99999 0.00436 0.00056 -0.99999 -0.06537 0.05748 -0.9962 0 0.99619 0.08716 -0 0.99619 0.08716 -0.60406 0.04413 -0.79572 -0.83456 0.08535 -0.54427 -0.83456 -0.08535 0.54427 -0.45624 -0.02065 0.88962 0.606 -0.13457 0.784 0.96375 0.02829 0.26532 0.70006 0.02982 -0.71346 0.46613 0.0929 -0.87983 0 0.99619 0.08716 -0.13586 0.9863 -0.09355 -0.15178 0.98357 -0.09773 -0.06926 0.96755 -0.24302 0 0.99619 0.08715 -0 0.99619 0.08716 1E-05 0.9962 0.08715 -0 0.99619 0.08715 -0 0.99619 0.08715 -0.69436 -0.71778 0.05149 -0.46466 0.43253 0.77266 -0.60247 -0.05489 0.79625 0.47697 -0.60847 0.63425 0.66651 -0.0486 0.74391 0.89344 -0.42824 -0.1356 0.94259 0.20514 -0.26351 0.4616 -0.65348 -0.59991 -0.00841 0.65064 -0.75934 -0.50481 0.81265 -0.29115 0.14998 -0.98248 -0.11064 -0.83099 -0.2259 0.50836 -0.0563 0.65126 0.75677 -0.45458 -0.59003 0.66725 0.58149 0.41297 0.70094 0.56433 0.08663 0.82099 0.99848 -0.0245 -0.0493 0.98833 0.11631 -0.09838 0.64857 0.17104 -0.74169 0.64511 0.1789 -0.74285 -0.12164 -0.15239 -0.98081 -0.12273 -0.14983 -0.98106 -0.91974 0.18521 -0.34608 -0.83763 0.5289 -0.13651 -0.79788 -0.59744 0.08034 -0.70559 0.50906 0.49296 -0.13992 -0.1424 0.97987 0.67476 0.05675 0.73585 0.94262 0.33212 -0.03412 0.64759 0.20477 -0.73396 -0.10141 0.65439 -0.74932 -0.34336 -0.33951 -0.87569 -0.60523 0.77761 -0.17037 0.40345 -0.8694 -0.28525 -0 -0.99619 -0.08716 -0.15584 -0.98777 -0.00561 0.12485 -0.99197 -0.02012</float_array>
          <technique_common>
            <accessor source="#norm_0-array" count="1236" stride="3">
              <param name="X" type="float"/>
              <param name="Y" type="float"/>
              <param name="Z" type="float"/>
            </accessor>
          </technique_common>
        </source>
        <vertices id="vert_0">
          <input semantic="POSITION" source="#pos_0"/>
        </vertices>
        <triangles count="418" material="mat_0">
          <input semantic="VERTEX" source="#vert_0" offset="0"/>
          <input semantic="NORMAL" source="#norm_0" offset="1"/>
          <p>0 0 1 0 2 0 3 1 4 1 0 1 2 2 3 2 0 2 5 3 6 3 1 3 1 4 0 4 5 4 7 5 8 5 9 5 7 6 9 6 10 6 10 7 9 7 11 7 10 8 11 8 12 8 12 9 11 9 13 9 12 10 13 10 14 10 14 11 13 11 8 11 14 12 8 12 7 12 15 13 16 13 17 13 15 14 17 14 18 14 19 15 18 15 20 15 18 16 17 16 20 16 19 17 20 17 21 17 19 18 21 18 22 18 22 19 21 19 23 19 24 20 23 20 21 20 25 21 26 21 24 21 24 22 26 22 23 22 27 23 28 23 25 23 25 24 28 24 26 24 16 25 29 25 30 25 25 26 24 26 21 26 25 27 31 27 27 27 30 28 20 28 17 28 30 29 17 29 16 29 32 30 33 30 34 30 34 31 33 31 35 31 34 32 35 32 36 32 33 33 32 33 30 33 36 34 35 34 30 34 36 35 30 35 32 35 8 36 33 36 29 36 29 37 33 37 30 37 20 38 30 38 35 38 21 39 20 39 35 39 13 40 21 40 35 40 11 41 21 41 13 41 13 42 35 42 33 42 33 43 8 43 13 43 11 44 25 44 21 44 8 45 31 45 9 45 9 46 31 46 25 46 9 47 25 47 11 47 37 48 27 48 31 48 28 49 37 49 26 49 28 50 27 50 37 50 38 51 39 51 40 51 38 52 40 52 41 52 41 53 40 53 42 53 42 54 40 54 43 54 42 55 43 55 44 55 42 56 44 56 45 56 45 57 44 57 39 57 45 58 39 58 38 58 46 59 47 59 48 59 47 60 49 60 48 60 49 61 47 61 50 61 49 62 50 62 51 62 52 63 51 63 50 63 52 64 53 64 51 64 52 65 54 65 53 65 54 66 55 66 53 66 55 67 54 67 56 67 56 68 57 68 55 68 56 69 58 69 57 69 59 70 58 70 56 70 59 71 60 71 58 71 60 72 59 72 61 72 62 73 58 73 60 73 60 74 61 74 62 74 63 75 62 75 61 75 64 76 65 76 66 76 43 77 63 77 44 77 44 78 63 78 59 78 52 79 50 79 67 79 67 80 50 80 68 80 40 81 39 81 52 81 39 82 54 82 52 82 44 83 59 83 56 83 44 84 56 84 39 84 39 85 56 85 54 85 43 86 40 86 66 86 64 87 66 87 40 87 52 88 67 88 40 88 40 42 67 42 64 42 69 89 64 89 70 89 70 90 64 90 67 90 70 91 67 91 71 91 71 92 67 92 68 92 64 93 69 93 65 93 65 94 69 94 68 94 71 95 68 95 69 95 65 96 68 96 47 96 65 97 47 97 66 97 66 98 47 98 46 98 63 99 61 99 59 99 50 100 47 100 68 100 72 101 73 101 74 101 72 102 74 102 75 102 75 103 74 103 76 103 76 104 74 104 77 104 76 105 77 105 78 105 78 106 77 106 79 106 78 107 79 107 73 107 78 108 73 108 72 108 80 109 81 109 82 109 81 110 83 110 82 110 84 111 83 111 81 111 84 112 81 112 85 112 85 113 86 113 84 113 86 114 85 114 87 114 88 115 86 115 87 115 88 116 87 116 89 116 89 117 90 117 88 117 91 118 90 118 89 118 92 119 90 119 91 119 93 120 92 120 91 120 91 121 89 121 87 121 94 122 81 122 80 122 93 123 95 123 92 123 93 124 77 124 74 124 87 125 79 125 91 125 91 126 79 126 77 126 74 127 73 127 94 127 94 128 73 128 81 128 79 129 87 129 73 129 73 130 87 130 85 130 73 131 85 131 81 131 91 132 77 132 93 132 96 133 97 133 98 133 98 134 97 134 99 134 98 135 99 135 100 135 99 136 101 136 100 136 102 137 103 137 104 137 103 138 102 138 105 138 103 139 105 139 106 139 103 140 106 140 107 140 107 141 106 141 108 141 108 142 109 142 110 142 110 143 109 143 111 143 112 144 113 144 114 144 114 145 113 145 115 145 114 146 115 146 116 146 116 147 115 147 117 147 116 148 117 148 118 148 118 149 117 149 119 149 118 150 119 150 112 150 112 151 119 151 113 151 120 152 121 152 122 152 121 153 123 153 122 153 124 154 123 154 125 154 123 155 121 155 125 155 126 156 127 156 125 156 125 157 127 157 124 157 128 158 127 158 126 158 128 159 126 159 129 159 130 160 131 160 129 160 129 161 131 161 128 161 130 162 132 162 131 162 132 163 130 163 133 163 129 164 126 164 125 164 134 165 133 165 130 165 135 166 121 166 120 166 134 167 113 167 119 167 113 168 130 168 129 168 113 169 129 169 115 169 113 170 134 170 130 170 135 171 119 171 117 171 135 172 117 172 121 172 115 173 129 173 125 173 115 174 125 174 121 174 115 175 121 175 117 175 122 176 123 176 120 176 86 177 136 177 137 177 86 178 137 178 138 178 138 179 137 179 139 179 138 180 140 180 22 180 136 181 86 181 141 181 138 182 139 182 142 182 142 183 140 183 138 183 22 184 143 184 138 184 138 185 143 185 144 185 145 186 141 186 146 186 141 187 145 187 136 187 146 188 53 188 145 188 105 189 135 189 106 189 135 190 120 190 106 190 135 191 105 191 119 191 120 192 123 192 106 192 106 193 123 193 147 193 106 194 147 194 148 194 106 195 148 195 108 195 108 196 148 196 149 196 108 197 149 197 109 197 109 198 149 198 58 198 109 199 58 199 62 199 109 200 62 200 63 200 109 201 63 201 111 201 111 202 63 202 43 202 66 203 111 203 43 203 111 204 66 204 150 204 66 205 46 205 150 205 150 206 48 206 151 206 150 207 151 207 152 207 152 208 151 208 153 208 152 209 153 209 154 209 152 210 154 210 155 210 155 211 154 211 156 211 156 212 154 212 90 212 156 213 90 213 95 213 95 214 93 214 156 214 74 215 157 215 93 215 93 216 157 216 156 216 88 217 90 217 141 217 150 218 46 218 48 218 48 219 49 219 151 219 123 220 124 220 147 220 49 221 51 221 151 221 147 222 136 222 148 222 148 223 145 223 149 223 149 224 145 224 58 224 58 225 145 225 57 225 153 226 141 226 154 226 154 227 141 227 90 227 124 228 127 228 137 228 124 229 137 229 147 229 51 230 53 230 151 230 53 231 55 231 145 231 145 232 55 232 57 232 136 233 145 233 148 233 137 234 136 234 147 234 86 235 88 235 141 235 141 236 153 236 146 236 146 237 153 237 151 237 146 238 151 238 53 238 90 239 92 239 95 239 82 240 83 240 84 240 94 241 80 241 158 241 157 242 94 242 158 242 158 243 80 243 82 243 94 244 157 244 74 244 82 245 2 245 1 245 158 246 82 246 1 246 158 247 1 247 159 247 159 248 1 248 6 248 6 249 160 249 159 249 5 250 160 250 6 250 5 251 161 251 160 251 0 252 161 252 5 252 161 253 0 253 37 253 161 254 37 254 31 254 161 255 31 255 97 255 97 256 31 256 8 256 97 257 8 257 29 257 97 258 29 258 99 258 99 259 29 259 16 259 16 260 15 260 99 260 99 261 15 261 18 261 99 262 18 262 162 262 99 263 162 263 101 263 101 264 162 264 163 264 101 265 163 265 104 265 104 266 164 266 102 266 102 267 164 267 131 267 102 268 131 268 132 268 132 269 133 269 102 269 133 270 134 270 102 270 119 271 105 271 134 271 134 272 105 272 102 272 137 273 127 273 139 273 139 274 127 274 128 274 19 275 22 275 140 275 140 276 142 276 162 276 163 277 142 277 139 277 163 278 139 278 164 278 164 279 139 279 128 279 143 280 22 280 23 280 143 281 23 281 165 281 143 282 165 282 144 282 144 283 165 283 3 283 144 284 3 284 166 284 144 285 166 285 138 285 2 286 166 286 3 286 4 287 165 287 0 287 82 288 166 288 2 288 0 289 165 289 26 289 0 290 26 290 37 290 82 291 84 291 166 291 163 292 164 292 104 292 4 293 3 293 165 293 165 294 23 294 26 294 19 295 140 295 18 295 18 296 140 296 162 296 131 297 164 297 128 297 84 298 86 298 138 298 84 299 138 299 166 299 162 300 142 300 163 300 111 301 167 301 110 301 167 302 111 302 150 302 167 303 150 303 152 303 156 304 157 304 158 304 159 305 168 305 158 305 168 306 159 306 160 306 168 307 160 307 169 307 161 308 169 308 160 308 169 309 161 309 96 309 96 310 161 310 97 310 98 311 14 311 96 311 96 312 14 312 7 312 170 313 12 313 98 313 98 314 12 314 14 314 7 315 10 315 96 315 96 316 10 316 169 316 169 317 78 317 72 317 169 318 72 318 168 318 75 319 158 319 72 319 158 320 75 320 156 320 152 321 76 321 78 321 168 322 72 322 158 322 75 323 76 323 156 323 156 324 76 324 155 324 155 325 76 325 152 325 70 326 41 326 69 326 152 327 69 327 167 327 70 328 71 328 170 328 41 328 70 328 170 328 170 329 71 329 152 329 71 330 69 330 152 330 167 331 69 331 41 331 42 332 108 332 110 332 167 333 41 333 110 333 110 334 41 334 42 334 108 335 170 335 107 335 114 336 116 336 107 336 103 337 118 337 112 337 103 338 112 338 104 338 104 339 112 339 101 339 101 340 112 340 114 340 107 341 116 341 118 341 107 342 118 342 103 342 34 328 36 328 170 328 98 343 32 343 34 343 98 344 34 344 170 344 170 345 36 345 101 345 32 346 98 346 100 346 32 347 100 347 101 347 101 348 36 348 32 348 170 328 45 328 38 328 108 349 42 349 45 349 108 350 45 350 170 350 170 328 38 328 41 328 12 328 170 328 10 328 170 351 169 351 10 351 78 352 169 352 152 352 152 353 169 353 170 353 170 354 101 354 107 354 107 355 101 355 114 355 171 356 172 356 173 356 171 357 174 357 172 357 173 358 175 358 176 358 173 359 176 359 171 359 171 360 176 360 177 360 171 361 177 361 174 361 174 362 177 362 178 362 174 363 178 363 172 363 172 364 178 364 175 364 172 365 175 365 173 365 176 366 179 366 177 366 175 367 180 367 176 367 176 368 180 368 179 368 175 369 181 369 180 369 178 370 181 370 175 370 178 371 182 371 181 371 179 372 183 372 177 372 177 373 183 373 178 373 178 374 183 374 182 374 179 375 184 375 185 375 179 376 185 376 186 376 179 377 186 377 183 377 183 378 186 378 187 378 183 379 187 379 182 379 182 380 187 380 188 380 182 381 188 381 181 381 181 382 188 382 189 382 181 383 189 383 180 383 180 384 184 384 179 384 185 385 184 385 180 385 185 386 190 386 191 386 185 387 191 387 192 387 185 388 192 388 186 388 186 389 192 389 193 389 186 390 193 390 187 390 187 391 193 391 194 391 187 392 194 392 188 392 188 393 194 393 195 393 188 394 195 394 189 394 189 395 195 395 196 395 189 396 196 396 180 396 180 397 196 397 190 397 180 398 190 398 185 398 190 399 197 399 198 399 190 400 198 400 191 400 191 401 198 401 192 401 192 402 199 402 193 402 193 403 199 403 194 403 194 404 200 404 195 404 195 405 200 405 196 405 196 406 200 406 197 406 196 407 197 407 190 407 199 408 200 408 194 408 198 409 197 409 200 409 199 410 192 410 200 410 200 411 192 411 198 411</p>
        </triangles>
      </mesh>
    </geometry>
  </library_geometries>
  <library_visual_scenes>
    <visual_scene id="DefaultScene">
      <node id="node_e6b38431_67d3_41ca_930a_9df68221343e" type="NODE">
        <matrix>1 0 0 0 0 1 0 0 0 0 1 0 0 0 0 1</matrix>
        <node id="node_a5dd0bf8_4451_41f6_a023_1f1a05c72563" type="NODE">
          <matrix>1 0 0 0 0 1 0 0 0 0 1 0 0 0 0 1</matrix>
          <node id="node_a5dd0bf8_4451_41f6_a023_1f1a05c72563_mesh0" type="NODE">
            <matrix>1 0 0 0 0 1 0 0 0 0 1 0 0 0 0 1</matrix>
            <instance_geometry url="#geometry_caf23707_cd91_4bc5_b456_5e911a5a9e68">
              <bind_material>
                <technique_common>
                  <instance_material symbol="mat_0" target="#mat_0"/>
                </technique_common>
              </bind_material>
            </instance_geometry>
          </node>
        </node>
      </node>
    </visual_scene>
  </library_visual_scenes>
  <scene>
    <instance_visual_scene url="#DefaultScene"/>
  </scene>
</COLLADA>
