<?xml version="1.0" encoding="utf-8"?>
<COLLADA xmlns="http://www.collada.org/2005/11/COLLADASchema" version="1.4.1" xmlns:xsi="http://www.w3.org/2001/XMLSchema-instance">
  <asset>
    <contributor>
      <author>Blender User</author>
      <authoring_tool>Blender 4.0.0 commit date:2023-11-13, commit time:17:26, hash:878f71061b8e</authoring_tool>
    </contributor>
    <created>2026-10-09T20:33:04</created>
    <modified>2026-10-09T20:33:04</modified>
    <unit name="meter" meter="1"/>
    <up_axis>Z_UP</up_axis>
  </asset>
  <library_cameras>
    <camera id="Camera-camera" name="Camera">
      <optics>
        <technique_common>
          <perspective>
            <xfov sid="xfov">39.59775</xfov>
            <aspect_ratio>1.777778</aspect_ratio>
            <znear sid="znear">0.1</znear>
            <zfar sid="zfar">100</zfar>
          </perspective>
        </technique_common>
      </optics>
      <extra>
        <technique profile="blender">
          <shiftx sid="shiftx" type="float">0</shiftx>
          <shifty sid="shifty" type="float">0</shifty>
          <dof_distance sid="dof_distance" type="float">10</dof_distance>
        </technique>
      </extra>
    </camera>
  </library_cameras>
  <library_lights>
    <light id="Light-light" name="Light">
      <technique_common>
        <point>
          <color sid="color">1000 1000 1000</color>
          <constant_attenuation>1</constant_attenuation>
          <linear_attenuation>0</linear_attenuation>
          <quadratic_attenuation>0</quadratic_attenuation>
        </point>
      </technique_common>
      <extra>
        <technique profile="blender">
          <type sid="type" type="int">0</type>
          <flag sid="flag" type="int">0</flag>
          <mode sid="mode" type="int">1</mode>
          <red sid="red" type="float">1</red>
          <green sid="green" type="float">1</green>
          <blue sid="blue" type="float">1</blue>
          <shadow_r sid="blender_shadow_r" type="float">0</shadow_r>
          <shadow_g sid="blender_shadow_g" type="float">0</shadow_g>
          <shadow_b sid="blender_shadow_b" type="float">0</shadow_b>
          <energy sid="blender_energy" type="float">1000</energy>
          <spotsize sid="spotsize" type="float">75</spotsize>
          <spotblend sid="spotblend" type="float">0.15</spotblend>
          <clipsta sid="clipsta" type="float">0.04999995</clipsta>
          <clipend sid="clipend" type="float">30.002</clipend>
          <bias sid="bias" type="float">1</bias>
          <radius sid="radius" type="float">0.1</radius>
          <area_shape sid="area_shape" type="int">1</area_shape>
          <area_size sid="area_size" type="float">0.1</area_size>
          <area_sizey sid="area_sizey" type="float">0.1</area_sizey>
          <area_sizez sid="area_sizez" type="float">1</area_sizez>
        </technique>
      </extra>
    </light>
  </library_lights>
  <library_effects>
    <effect id="Material_001-effect">
      <profile_COMMON>
        <technique sid="common">
          <lambert>
            <emission>
              <color sid="emission">0 0 0 1</color>
            </emission>
            <diffuse>
              <color sid="diffuse">0.8022358 0.6516233 0.07266149 1</color>
            </diffuse>
            <reflectivity>
              <float sid="specular">0.7614679</float>
            </reflectivity>
            <index_of_refraction>
              <float sid="ior">1.45</float>
            </index_of_refraction>
          </lambert>
        </technique>
      </profile_COMMON>
    </effect>
  </library_effects>
  <library_images/>
  <library_materials>
    <material id="Material_001-material" name="Material.001">
      <instance_effect url="#Material_001-effect"/>
    </material>
  </library_materials>
  <library_geometries>
    <geometry id="tray-mesh" name="tray">
      <mesh>
        <source id="tray-mesh-positions">
          <float_array id="tray-mesh-positions-array" count="1164">0 0.7141429 1 0 0.7141429 17 0 1 1 0 1 17 28.96168 0.7015163 18 29 0.7069066 18 29 1 18 1 1 18 1.3 0.7141429 18 1 0.7141429 18 28.40594 0.4141429 18 1.705941 0.3 18 28.52585 0.5184314 18 28.66076 0.6024093 18 28.80727 0.6639556 18 2.420084 0 18 27.57992 0 18 28.29406 0.3 18 27.73833 0.01262652 18 27.89274 0.05018723 18 28.03925 0.1117336 18 28.17416 0.1957114 18 1.825845 0.1957114 18 1.960755 0.1117336 18 2.261674 0.01262652 18 2.107265 0.05018723 18 30 1 1 30 1 17 30 0.7141429 1 30 0.7141429 17 1 0.7141429 0 1 1 0 1.3 0.7141429 0 29 1 0 29 0.7069066 0 28.96168 0.7015163 0 28.80727 0.6639556 0 28.66076 0.6024093 0 28.52585 0.5184314 0 28.40594 0.4141429 0 1.705941 0.3 0 28.29406 0.3 0 28.17416 0.1957114 0 28.03925 0.1117336 0 27.89274 0.05018723 0 2.107265 0.05018723 0 1.960755 0.1117336 0 2.261674 0.01262652 0 2.420084 0 0 27.73833 0.01262652 0 27.57992 0 0 1.825845 0.1957114 0 16.7 1 17.2 16.54357 1 17.18769 14 1 17.2015 15.80899 1 1.336009 15.89098 1 1.202215 14.95106 1 1.480983 27.59101 1 7.95399 27.50902 1 8.087785 27.7 1 16.2 27.68769 1 16.35643 27.40711 1 16.90711 27.28779 1 17.00902 27.15399 1 17.09101 27.00902 1 17.15106 26.85643 1 17.18769 26.7 1 17.2 27.65106 1 7.809017 29.45399 1 17.89101 29.58779 1 17.80902 27.59101 1 16.65399 14.58778 1 17.01051 14.45399 1 17.0925 14.98769 1 16.35793 16.24601 1 17.09101 16.11221 1 17.00902 15.99289 1 16.90711 15.89098 1 16.78779 15.80899 1 16.65399 29.98769 1 17.15644 27.65106 1 16.50902 29.95106 1 17.30902 29.70711 1 17.70711 29.80902 1 17.58778 29.89101 1 17.45399 27.50902 1 16.78779 29.15644 1 17.98769 29.30902 1 17.95106 14.95106 1 16.51051 14.89101 1 16.65549 16.39098 1 17.15106 14.80902 1 16.78928 14.70711 1 16.9086 14.30902 1 17.15255 14.15643 1 17.18918 27.28779 1 9.390983 27.40711 1 9.492894 27.50902 1 9.612215 27.59101 1 9.74601 3 1 17.2015 27.65106 1 9.890983 27.68769 1 10.04356 27.7 1 10.2 27.7 1 7.5 27.68769 1 7.656435 15.74894 1 16.50902 15.71231 1 16.35643 15 1 16.2015 15.7 1 16.2 15.7 1 10.2 27.15399 1 9.308995 27.40711 1 8.207107 27.28779 1 8.309018 27.15399 1 8.391007 27.00902 1 8.451057 27.00902 1 9.248944 27.15399 1 0.8989934 27.28779 1 0.980983 27.40711 1 1.082893 29.17365 1 0.01519221 27.50902 1 1.202215 29.34202 1 0.06030738 27.59101 1 1.336009 29.5 1 0.1339746 29.93969 1 0.6579799 27.65106 1 1.480983 29.98481 1 0.8263518 27.68769 1 1.633566 27.7 1 1.79 2.843565 1 17.18918 2.690983 1 17.15255 2.54601 1 17.0925 14.89101 1 1.336009 15.99289 1 1.082893 14.80902 1 1.202215 16.11221 1 0.980983 16.24601 1 0.8989934 15.71231 1 10.04356 15.71231 1 7.656435 15.74894 1 9.890983 15.80899 1 9.74601 15.99289 1 8.207107 15.89098 1 8.087785 15.99289 1 9.492894 15.80899 1 7.95399 15.7 1 7.5 15 1 1.79 15.7 1 1.79 14.98769 1 1.633566 15.71231 1 1.633566 15.74894 1 1.480983 0 1 17 0.01519221 1 17.17365 2.048943 1 16.51051 29.86602 1 0.5 29.76604 1 0.3572124 29.64279 1 0.2339555 16.11221 1 9.390983 16.24601 1 9.308995 16.11221 1 8.309018 16.39098 1 9.248944 16.24601 1 8.391007 26.85643 1 8.487689 26.7 1 8.5 26.85643 1 9.212312 15.89098 1 9.612215 15.74894 1 7.809017 2.412215 1 17.01051 2.292893 1 16.9086 0.8263518 1 17.98481 2.190983 1 16.78928 0.6579799 1 17.93969 0.5 1 17.86602 2.108994 1 16.65549 0.3572124 1 17.76604 0.06030738 1 17.34202 0.1339746 1 17.5 0.2339555 1 17.64279 16.39098 1 0.8389435 16.54357 1 0.8023117 14.70711 1 1.082893 14.58778 1 0.980983 26.7 1 0.79 26.85643 1 0.8023117 27.00902 1 0.8389435 0.3572124 1 0.2339555 0.2339555 1 0.3572124 2.108994 1 1.336009 2.292893 1 1.082893 2.412215 1 0.980983 16.39098 1 8.451057 16.54357 1 9.212312 16.54357 1 8.487689 2.012312 1 1.633566 0.01519221 1 0.8263518 2.048943 1 1.480983 0.06030738 1 0.6579799 0.1339746 1 0.5 2.190983 1 1.202215 2.012312 1 16.35793 2 1 16.2015 2 1 1.79 0.8263518 1 0.01519221 0.6579799 1 0.06030738 0.5 1 0.1339746 2.54601 1 0.8989934 2.690983 1 0.8389435 2.843565 1 0.8023117 16.7 1 0.79 14.30902 1 0.8389435 14.45399 1 0.8989934 3 1 0.79 14 1 0.79 14.15643 1 0.8023117 16.7 1 8.5 16.7 1 9.2 26.7 1 9.2 0 0.7141429 17 0 0.7141429 1 0.01519221 0.7141429 0.8263518 0.06030738 0.7141429 0.6579799 0.5 0.7141429 17.86602 0.3572124 0.7141429 17.76604 0.2339555 0.7141429 17.64279 0.8263518 0.7141429 17.98481 0.6579799 0.7141429 17.93969 0.01519221 0.7141429 17.17365 0.06030738 0.7141429 17.34202 0.1339746 0.7141429 0.5 0.2339555 0.7141429 0.3572124 0.3572124 0.7141429 0.2339555 0.5 0.7141429 0.1339746 0.6579799 0.7141429 0.06030738 0.8263518 0.7141429 0.01519221 0.1339746 0.7141429 17.5 29.12009 0.7141429 0.007236242 29.12009 0.7141429 17.99276 29.17365 0.7141429 0.01519221 29.95106 0.7141429 17.30902 29.89101 0.7141429 17.45399 29.15644 0.7141429 17.98769 29.98769 0.7141429 17.15644 29.34202 0.7141429 0.06030738 29.93969 0.7141429 0.6579799 29.98481 0.7141429 0.8263518 29.76604 0.7141429 0.3572124 29.86602 0.7141429 0.5 29.64279 0.7141429 0.2339555 29.5 0.7141429 0.1339746 29.80902 0.7141429 17.58778 29.70711 0.7141429 17.70711 29.30902 0.7141429 17.95106 29.58779 0.7141429 17.80902 29.45399 0.7141429 17.89101 27.7 0.3 10.2 27.68769 0.3 10.04356 27.65106 0.3 9.890983 27.59101 0.3 9.74601 27.50902 0.3 9.612215 27.40711 0.3 9.492894 27.28779 0.3 9.390983 27.15399 0.3 9.308995 27.00902 0.3 9.248944 26.85643 0.3 9.212312 26.7 0.3 9.2 27.7 0.3 16.2 26.7 0.3 17.2 26.85643 0.3 17.18769 27.00902 0.3 17.15106 27.15399 0.3 17.09101 27.28779 0.3 17.00902 27.40711 0.3 16.90711 27.50902 0.3 16.78779 27.59101 0.3 16.65399 27.65106 0.3 16.50902 27.68769 0.3 16.35643 16.7 0.3 17.2 15.7 0.3 16.2 15.71231 0.3 16.35643 15.74894 0.3 16.50902 15.80899 0.3 16.65399 15.89098 0.3 16.78779 15.99289 0.3 16.90711 16.11221 0.3 17.00902 16.24601 0.3 17.09101 16.39098 0.3 17.15106 16.54357 0.3 17.18769 15.7 0.3 10.2 16.7 0.3 9.2 16.54357 0.3 9.212312 16.39098 0.3 9.248944 16.24601 0.3 9.308995 16.11221 0.3 9.390983 15.99289 0.3 9.492894 15.89098 0.3 9.612215 15.80899 0.3 9.74601 15.74894 0.3 9.890983 15.71231 0.3 10.04356 27.7 0.3 1.79 27.68769 0.3 1.633566 27.65106 0.3 1.480983 27.59101 0.3 1.336009 27.50902 0.3 1.202215 27.40711 0.3 1.082893 27.28779 0.3 0.980983 27.15399 0.3 0.8989934 27.00902 0.3 0.8389435 26.85643 0.3 0.8023117 26.7 0.3 0.79 27.7 0.3 7.5 26.7 0.3 8.5 26.85643 0.3 8.487689 27.00902 0.3 8.451057 27.15399 0.3 8.391007 27.28779 0.3 8.309018 27.40711 0.3 8.207107 27.50902 0.3 8.087785 27.59101 0.3 7.95399 27.65106 0.3 7.809017 27.68769 0.3 7.656435 16.7 0.3 8.5 15.7 0.3 7.5 15.71231 0.3 7.656435 15.74894 0.3 7.809017 15.80899 0.3 7.95399 15.89098 0.3 8.087785 15.99289 0.3 8.207107 16.11221 0.3 8.309018 16.24601 0.3 8.391007 16.39098 0.3 8.451057 16.54357 0.3 8.487689 15.7 0.3 1.79 16.7 0.3 0.79 16.54357 0.3 0.8023117 16.39098 0.3 0.8389435 16.24601 0.3 0.8989934 16.11221 0.3 0.980983 15.99289 0.3 1.082893 15.89098 0.3 1.202215 15.80899 0.3 1.336009 15.74894 0.3 1.480983 15.71231 0.3 1.633566 2 0.3 16.2015 2.012312 0.3 16.35793 2.048943 0.3 16.51051 2.108994 0.3 16.65549 2.190983 0.3 16.78928 2.292893 0.3 16.9086 2.412215 0.3 17.01051 2.54601 0.3 17.0925 2.690983 0.3 17.15255 2.843565 0.3 17.18918 3 0.3 17.2015 2 0.3 1.79 3 0.3 0.79 2.843565 0.3 0.8023117 2.690983 0.3 0.8389435 2.54601 0.3 0.8989934 2.412215 0.3 0.980983 2.292893 0.3 1.082893 2.190983 0.3 1.202215 2.108994 0.3 1.336009 2.048943 0.3 1.480983 2.012312 0.3 1.633566 14 0.3 0.79 15 0.3 1.79 14.98769 0.3 1.633566 14.95106 0.3 1.480983 14.89101 0.3 1.336009 14.80902 0.3 1.202215 14.70711 0.3 1.082893 14.58778 0.3 0.980983 14.45399 0.3 0.8989934 14.30902 0.3 0.8389435 14.15643 0.3 0.8023117 15 0.3 16.2015 14 0.3 17.2015 14.15643 0.3 17.18918 14.30902 0.3 17.15255 14.45399 0.3 17.0925 14.58778 0.3 17.01051 14.70711 0.3 16.9086 14.80902 0.3 16.78928 14.89101 0.3 16.65549 14.95106 0.3 16.51051 14.98769 0.3 16.35793 0 1 1</float_array>
          <technique_common>
            <accessor source="#tray-mesh-positions-array" count="388" stride="3">
              <param name="X" type="float"/>
              <param name="Y" type="float"/>
              <param name="Z" type="float"/>
            </accessor>
          </technique_common>
        </source>
        <source id="tray-mesh-normals">
          <float_array id="tray-mesh-normals-array" count="1176">-1 0 0 -1 0 0 0 0 1 -2.06176e-7 0 1 0 0 1 -5.33982e-6 0 1 -9.28768e-6 0 1 -4.00692e-5 0 1 5.96018e-5 0 1 1.23835e-5 0 1 -1.01457e-5 0 1 2.00352e-5 0 1 -5.95999e-5 0 1 1 0 0 0 0 -1 0 1 0 0 1 9.07016e-7 0 1 -2.38152e-7 0 1 4.22366e-7 0 1 -6.77798e-7 0 1 7.05963e-7 0 1 -6.38166e-7 0 1 -4.55995e-7 0 1 1.7926e-7 0 -1 0 -0.7141429 -0.7000001 0 0 -1 0 0 -1 5.17219e-7 0 -1 -2.31865e-7 0 -1 2.82425e-6 0 -1 8.09111e-7 0 -1 6.0683e-7 0 -1 -8.87127e-7 0 -1 -1.93142e-6 0 -1 4.82866e-7 0 -1 -8.87124e-7 0.7141265 -0.7000168 0 0.7141371 -0.700006 0 0.06015413 -0.9981892 0 0.06015008 -0.9981894 0 0.1392804 -0.990253 0 0.2363578 -0.9716661 0 0.3873092 -0.9219499 0 0.387294 -0.9219563 0 0.5284417 -0.8489696 0 0.5284609 -0.8489578 0 0.6562563 -0.7545381 0 0.656288 -0.7545105 0 0 -1 6.45495e-7 0 -1 -4.97512e-7 0 -1 4.25168e-7 0 -1 -8.94228e-7 0 -1 2.46356e-7 0 -1 -5.64793e-6 0 -1 9.51004e-7 0 -1 1.20453e-6 0 -1 -2.63269e-6 0 -1 3.86805e-6 -0.9969174 0 0.07845973 -0.9969173 0 0.07846039 -0.9723717 0 0.2334383 -0.9723712 0 0.2334402 -0.9238803 0 0.3826814 -0.9238816 0 0.3826784 -0.852636 0 0.5225054 -0.8526359 0 0.5225055 -0.76041 0 0.6494433 -0.7604064 0 0.6494476 -0.6494451 0 0.7604085 -0.649455 0 0.7604 -0.522494 0 0.8526431 -0.5225002 0 0.8526391 -0.3826912 0 0.9238764 -0.3826838 0 0.9238795 -0.2334523 0 0.9723683 -0.2334359 0 0.9723722 -0.07846057 0 0.9969173 -0.07846057 0 0.9969173 -1 0 0 -0.07846921 0 -0.9969166 -0.07845193 0 -0.9969179 -0.2334441 0 -0.9723703 -0.2334441 0 -0.9723702 -0.3826912 0 -0.9238764 -0.3826912 0 -0.9238764 -0.5225003 0 -0.8526392 -0.5225002 0 -0.8526391 -0.6494451 0 -0.7604085 -0.649445 0 -0.7604086 -0.7604064 0 -0.6494476 -0.7603991 0 -0.6494562 -0.8526408 0 -0.5224977 -0.8526359 0 -0.5225055 -0.9238829 0 -0.3826753 -0.9238829 0 -0.3826754 -0.9723717 0 -0.2334383 -0.9723708 0 -0.2334423 -0.9969173 0 -0.07846039 -0.9969172 0 -0.07846176 0.9969172 0 -0.07846176 0.9969173 0 -0.07846039 0.972368 0 -0.2334537 0.972369 0 -0.2334498 0.9238808 0 -0.3826804 0.9238807 0 -0.3826805 0.8526414 0 -0.5224965 0.8526462 0 -0.5224889 0.7603991 0 -0.6494562 0.7604064 0 -0.6494476 0.649451 0 -0.7604035 0.649451 0 -0.7604036 0.5224894 0 -0.8526458 0.5224894 0 -0.8526458 0.3826912 0 -0.9238764 0.3826912 0 -0.9238764 0.2334469 0 -0.9723696 0.2334469 0 -0.9723697 0.07845288 0 -0.9969179 0.07847011 0 -0.9969165 0.07846152 0 0.9969171 0.07846152 0 0.9969172 0.2334387 0 0.9723715 0.2334551 0 0.9723677 0.3826837 0 0.9238795 0.3826912 0 0.9238764 0.5224894 0 0.8526458 0.5224831 0 0.8526497 0.6494611 0 0.7603949 0.649451 0 0.7604036 0.7604064 0 0.6494476 0.76041 0 0.6494433 0.8526414 0 0.5224965 0.8526414 0 0.5224967 0.9238796 0 0.3826836 0.9238783 0 0.3826867 0.9723684 0 0.2334517 0.972369 0 0.2334498 0.9969173 0 0.07846039 0.9969174 0 0.07845973 0 1 0 0 1 1.54603e-7 0 1 0 0 1 0 0 1 0 0 1 0 0 1 0 0 1 0 0 1 0 0 1 6.50121e-7 0 1 -9.66894e-7 0 1 2.73296e-7 0 1 1.3665e-7 0 1 -2.00746e-7 0 1 1.30024e-6 0 1 -1.93379e-6 0 1 4.09944e-7 0 1 -6.58227e-7 -0.9969172 0 0.07846093 -0.9723718 0 0.2334378 -0.9238817 0 0.3826784 -0.8526358 0 0.5225059 -0.8526354 0 0.5225064 -0.7604073 0 0.6494465 -0.7604078 0 0.649446 -0.6494482 0 0.7604059 -0.6494463 0 0.7604076 -0.5225042 0 0.8526367 -0.5225042 0 0.8526368 -0.3826828 0 0.9238798 -0.3826828 0 0.9238799 -0.2334431 0 0.9723705 -0.2334431 0 0.9723705 -0.0784595 0 0.9969173 -0.07845729 0 0.9969175 -0.07846057 0 -0.9969173 -0.07846057 0 -0.9969173 -0.2334359 0 -0.9723722 -0.3826763 0 -0.9238826 -0.5225065 0 -0.8526353 -0.64945 0 -0.7604044 -0.76041 0 -0.6494433 -0.852636 0 -0.5225054 -0.8526336 0 -0.5225093 -0.9238817 0 -0.3826784 -0.9723712 0 -0.2334402 -0.9969172 0 -0.07846111 0.9969172 0 -0.07846111 0.972369 0 -0.2334498 0.9723684 0 -0.2334517 0.9238795 0 -0.3826836 0.852639 0 -0.5225004 0.8526414 0 -0.5224967 0.76041 0 -0.6494433 0.649456 0 -0.7603992 0.5224958 0 -0.8526419 0.3826763 0 -0.9238825 0.2334387 0 -0.9723715 0.07846152 0 -0.9969171 0.07846152 0 -0.9969172 0.07845824 0 0.9969175 0.07846039 0 0.9969173 0.2334459 0 0.9723698 0.2334458 0 0.9723699 0.3826828 0 0.9238798 0.3826828 0 0.9238799 0.5224934 0 0.8526434 0.5224934 0 0.8526434 0.6494523 0 0.7604025 0.6494542 0 0.7604008 0.7604078 0 0.649446 0.7604073 0 0.6494465 0.8526408 0 0.5224975 0.8526411 0 0.5224971 0.9238795 0 0.3826836 0.9723691 0 0.2334493 0.9969172 0 0.07846093 0 1 -2.31898e-7 0 1 -1.95024e-6 0 1 1.93421e-6 0 1 1.54601e-7 0 1 0 0 1 0 0 1 1.93403e-6 0 1 0 0 1 0 0 1 4.00343e-7 0 1 0 0 1 -2.0075e-7 0 1 3.291e-7 0 1 0 0 1 2.00749e-7 0 1 0 0 1 -1.36648e-7 0.9969173 0 -0.07846027 0.9969175 0 -0.07845753 0.97237 0 -0.2334455 0.972369 0 -0.2334494 0.9238757 0 -0.3826929 0.8526462 0 -0.5224888 0.7604042 0 -0.6494502 0.7604115 0 -0.6494417 0.6494459 0 -0.7604079 0.6494457 0 -0.760408 0.5224949 0 -0.8526424 0.5224948 0 -0.8526425 0.3826918 0 -0.9238762 0.3826768 0 -0.9238824 0.2334466 0 -0.9723697 0.2334465 0 -0.9723697 0.07845216 0 -0.996918 0.07846939 0 -0.9969165 0.07845753 0 0.9969176 0.07845973 0 0.9969174 0.2334455 0 0.9723699 0.2334455 0 0.9723699 0.3826833 0 0.9238796 0.3826833 0 0.9238796 0.5224989 0 0.85264 0.5224987 0 0.8526401 0.6494471 0 0.7604068 0.6494488 0 0.7604054 0.7604056 0 0.6494486 0.760405 0 0.6494492 0.9723701 0 0.233445 0.97237 0 0.2334455 0.9969173 0 0.07845938 0.9969173 0 0.07845944 -0.9723703 0 0.233444 -0.9723704 0 0.2334436 -0.8526384 0 0.5225015 -0.8526381 0 0.522502 -0.6494452 0 0.7604084 -0.6494432 0 0.7604101 -0.5224989 0 0.85264 -0.5224987 0 0.8526401 -0.382685 0 0.9238789 -0.2334459 0 0.9723698 -0.2334458 0 0.9723699 -0.2334469 0 -0.9723696 -0.2334469 0 -0.9723697 -0.3826785 0 -0.9238816 -0.3826933 0 -0.9238755 -0.5224949 0 -0.8526424 -0.5224948 0 -0.8526425 -0.6494421 0 -0.760411 -0.649442 0 -0.7604113 -0.7604137 0 -0.649439 -0.8526387 0 -0.522501 -0.8526435 0 -0.5224933 -0.9238778 0 -0.3826876 -0.9723693 0 -0.2334479 -0.9723703 0 -0.233444 -0.9969174 0 -0.07845908 0 1 0 0 1 2.73299e-7 0 1 -4.01497e-7 0 1 -6.18414e-7 0 1 1.55088e-7 0 1 -1.86571e-7 0 1 3.0921e-7 0 1 -1.55088e-7 0 1 6.58186e-7 0 1 2.48761e-7 0 1 -1.54602e-7 0 1 2.00163e-7 0 1 2.00753e-7 0.9969182 0 0.07844901 0.9969182 0 0.07844889 0.9723667 0 0.233459 0.9723656 0 0.2334636 0.9238824 0 0.3826767 0.8526349 0 0.5225074 0.8526408 0 0.5224977 0.7604097 0 0.6494438 0.7604187 0 0.6494331 0.6494488 0 0.7604054 0.6494365 0 0.760416 0.5225018 0 0.8526382 0.522502 0 0.8526381 0.3826907 0 0.9238765 0.3826547 0 0.9238916 0.2334633 0 0.9723656 0.2334433 0 0.9723705 0.07846397 0 0.996917 0.0595141 0.01015204 0.9981759 0.1383445 0 0.9903842 0.0601505 0 -0.9981893 0.08714979 0.0113942 -0.9961301 0.1469201 0 -0.9891484 0.2588201 0 -0.9659256 0.2588202 0 -0.9659256 0.4226181 0 -0.9063079 0.422618 0 -0.9063079 0.5735807 0 -0.8191491 0.5735808 0 -0.819149 0.7071071 0 -0.7071065 0.7071074 0 -0.7071062 0.8191511 0 -0.5735778 0.8191512 0 -0.5735777 0.9063071 0 -0.4226198 0.9063072 0 -0.4226197 0.965924 0 -0.2588262 0.9659242 0 -0.2588257 0.9961949 0 -0.0871545 0.9961949 0 -0.0871545 -0.9961947 0 0.0871554 -0.9961947 0 0.08715546 -0.9659268 0 0.2588157 -0.9659242 0 0.2588254 -0.9063067 0 0.4226207 -0.9063101 0 0.4226136 -0.8191423 0 0.5735906 -0.8191547 0 0.5735728 -0.7071034 0 0.7071102 -0.7071127 0 0.7071008 -0.5735689 0 0.8191574 -0.5735818 0 0.8191483 -0.4226304 0 0.9063022 -0.4226147 0 0.9063095 -0.2588201 0 0.9659256 -0.08717912 0 0.9961927 -0.08714115 0 0.996196 -0.08715575 0 -0.9961948 -0.2588191 0 -0.9659259 -0.2588191 0 -0.9659259 -0.4226183 0 -0.9063078 -0.4226182 0 -0.9063078 -0.5735765 0 -0.8191521 -0.7071068 0 -0.7071068 -0.8191523 0 -0.5735762 -0.8191519 0 -0.5735767 -0.9063079 0 -0.4226182 -0.9063078 0 -0.4226184 -0.9659258 0 -0.2588191 -0.9659259 0 -0.2588189 -0.9961948 0 -0.08715569 -0.9961948 0 -0.08715575 -0.07945585 -0.9968385 0 -0.07945609 -0.9968383 0 -0.2363618 -0.9716652 0 -0.3872981 -0.9219546 0 -0.5284561 -0.8489607 0 -0.5284537 -0.8489623 0 -0.6562662 -0.7545295 0 -0.6562655 -0.75453 0 0.6562669 -0.7545289 0 0.5284705 -0.8489518 0 0.5284513 -0.8489637 0 0.3872943 -0.9219563 0 0.2363575 -0.9716662 0 0.2363673 -0.9716638 0 0.07945585 -0.9968385 0</float_array>
          <technique_common>
            <accessor source="#tray-mesh-normals-array" count="392" stride="3">
              <param name="X" type="float"/>
              <param name="Y" type="float"/>
              <param name="Z" type="float"/>
            </accessor>
          </technique_common>
        </source>
        <vertices id="tray-mesh-vertices">
          <input semantic="POSITION" source="#tray-mesh-positions"/>
        </vertices>
        <triangles material="Material_001-material" count="764">
          <input semantic="VERTEX" source="#tray-mesh-vertices" offset="0"/>
          <input semantic="NORMAL" source="#tray-mesh-normals" offset="1"/>
          <p>0 0 1 0 2 0 2 1 1 1 3 1 4 2 5 2 6 2 6 2 7 2 8 2 8 2 7 2 9 2 10 2 8 2 11 2 10 2 12 2 8 2 8 3 12 3 13 3 8 4 13 4 6 4 6 2 13 2 14 2 6 5 14 5 4 5 11 2 15 2 10 2 10 2 15 2 16 2 10 2 16 2 17 2 17 6 16 6 18 6 18 2 19 2 17 2 17 7 19 7 20 7 17 8 20 8 21 8 11 9 22 9 15 9 15 10 22 10 23 10 15 11 23 11 24 11 24 12 23 12 25 12 26 13 27 13 28 13 28 13 27 13 29 13 30 14 31 14 32 14 32 14 31 14 33 14 34 14 35 14 33 14 33 14 35 14 36 14 33 14 36 14 32 14 32 14 36 14 37 14 37 14 38 14 32 14 32 14 38 14 39 14 32 14 39 14 40 14 41 14 42 14 39 14 39 14 42 14 43 14 39 14 43 14 44 14 45 14 46 14 47 14 47 14 46 14 48 14 44 14 49 14 39 14 39 14 49 14 50 14 39 14 50 14 40 14 40 14 50 14 48 14 40 14 48 14 51 14 51 14 48 14 46 14 52 15 53 15 54 15 55 15 56 15 57 15 58 15 59 15 27 15 60 15 61 15 27 15 62 15 63 15 6 15 6 15 63 15 64 15 64 15 65 15 6 15 6 15 65 15 66 15 6 15 66 15 67 15 58 15 27 15 68 15 69 15 70 15 71 15 53 15 72 15 73 15 74 15 75 15 76 15 76 15 77 15 74 15 74 15 77 15 78 15 74 15 78 15 79 15 27 15 61 15 80 15 80 15 61 15 81 15 80 15 81 15 82 15 70 15 83 15 71 15 71 15 83 15 84 15 71 15 84 15 81 15 81 15 84 15 85 15 81 15 85 15 82 15 62 15 6 15 86 15 86 15 6 15 87 15 86 15 87 15 71 15 71 15 87 15 88 15 71 15 88 15 69 15 74 15 89 15 75 15 75 15 89 15 90 15 75 15 90 15 91 15 91 15 90 15 92 15 91 15 92 15 53 15 53 15 92 15 93 15 53 15 93 15 72 15 73 15 94 15 53 15 53 15 94 15 95 15 53 15 95 15 54 15 96 15 97 15 59 15 59 15 97 15 98 15 59 15 98 15 99 15 100 15 7 15 54 15 54 15 7 15 6 15 54 15 6 15 52 15 52 15 6 15 67 15 99 15 101 15 59 15 59 15 101 15 102 15 59 15 102 15 27 15 27 15 102 15 103 15 27 15 103 15 60 15 26 15 104 15 27 15 27 15 104 15 105 15 27 15 105 15 68 15 79 15 106 15 74 15 74 15 106 15 107 15 74 15 107 15 108 15 108 15 107 15 109 15 108 15 109 15 110 15 96 15 59 15 111 15 111 15 59 15 112 15 111 15 112 15 113 15 113 15 114 15 111 15 111 15 114 15 115 15 111 15 115 15 116 15 117 15 118 15 33 15 33 15 118 15 119 15 33 15 119 15 120 15 120 15 119 15 121 15 120 15 121 15 122 15 122 15 121 15 123 15 122 15 123 15 124 15 125 15 126 15 127 15 127 15 126 15 128 15 127 15 128 15 26 15 26 15 128 15 129 15 26 15 129 15 104 15 100 15 130 15 7 15 7 15 130 15 131 15 7 15 131 15 132 15 57 15 56 15 133 15 133 15 56 15 134 15 133 15 134 15 135 15 135 15 134 15 136 15 135 15 136 15 137 15 110 15 138 15 139 15 139 15 138 15 140 15 139 15 140 15 141 15 142 15 143 15 144 15 144 15 143 15 145 15 110 15 139 15 108 15 108 15 139 15 146 15 108 15 146 15 147 15 147 15 146 15 148 15 147 15 148 15 149 15 149 15 148 15 150 15 149 15 150 15 57 15 57 15 150 15 151 15 57 15 151 15 55 15 152 15 153 15 154 15 125 15 155 15 126 15 126 15 155 15 156 15 126 15 156 15 123 15 123 15 156 15 157 15 123 15 157 15 124 15 144 15 158 15 142 15 142 15 158 15 159 15 142 15 159 15 160 15 160 15 159 15 161 15 160 15 161 15 162 15 115 15 163 15 116 15 116 15 163 15 164 15 116 15 164 15 165 15 141 15 166 15 139 15 139 15 166 15 144 15 139 15 144 15 167 15 167 15 144 15 145 15 132 15 168 15 7 15 7 15 168 15 169 15 7 15 169 15 170 15 170 15 169 15 171 15 170 16 171 16 172 16 172 15 171 15 173 15 173 15 171 15 174 15 173 15 174 15 175 15 153 15 176 15 154 15 154 17 176 17 177 17 154 15 177 15 174 15 174 15 177 15 178 15 174 18 178 18 175 18 137 15 179 15 135 15 135 15 179 15 180 15 135 15 180 15 181 15 181 15 180 15 182 15 183 15 184 15 33 15 33 15 184 15 185 15 33 15 185 15 117 15 186 19 187 19 188 19 31 15 189 15 190 15 162 15 161 15 191 15 191 15 161 15 192 15 191 15 192 15 193 15 2 15 194 15 195 15 195 15 194 15 196 15 195 15 196 15 197 15 197 20 196 20 188 20 197 21 188 21 198 21 198 15 188 15 187 15 189 15 31 15 199 15 154 15 200 15 152 15 152 15 200 15 201 15 152 15 201 15 2 15 2 15 201 15 202 15 2 15 202 15 194 15 31 15 203 15 199 15 199 22 203 22 204 22 199 15 204 15 188 15 188 15 204 15 205 15 188 23 205 23 186 23 190 15 206 15 31 15 31 15 206 15 207 15 31 15 207 15 208 15 183 15 33 15 209 15 209 15 33 15 210 15 209 15 210 15 180 15 180 15 210 15 211 15 180 15 211 15 182 15 208 15 212 15 31 15 31 15 212 15 213 15 31 15 213 15 33 15 33 15 213 15 214 15 33 15 214 15 210 15 193 15 192 15 215 15 215 15 192 15 216 15 215 15 216 15 164 15 164 15 216 15 217 15 164 15 217 15 165 15 16 24 15 24 50 24 50 24 15 24 48 24 11 25 8 25 40 25 40 25 8 25 32 25 32 24 8 24 9 24 9 24 218 24 32 24 32 26 218 26 219 26 32 24 219 24 30 24 30 27 219 27 220 27 30 28 220 28 221 28 222 29 223 29 224 29 9 24 225 24 218 24 218 24 225 24 226 24 218 24 226 24 227 24 227 30 226 30 228 30 221 24 229 24 30 24 30 31 229 31 230 31 30 32 230 32 231 32 231 33 232 33 30 33 30 24 232 24 233 24 30 24 233 24 234 24 222 24 224 24 226 24 226 34 224 34 235 34 226 35 235 35 228 35 41 36 39 36 17 36 17 37 39 37 10 37 236 38 237 38 34 38 34 39 237 39 5 39 34 40 5 40 35 40 35 40 5 40 4 40 35 41 4 41 36 41 36 41 4 41 14 41 36 42 14 42 37 42 37 43 14 43 13 43 37 44 13 44 38 44 38 45 13 45 12 45 38 46 12 46 39 46 39 47 12 47 10 47 28 48 236 48 238 48 239 24 240 24 241 24 236 24 28 24 237 24 237 24 28 24 29 24 237 24 29 24 241 24 241 49 29 49 242 49 241 50 242 50 239 50 243 24 244 24 238 24 238 51 244 51 245 51 238 52 245 52 28 52 246 53 247 53 248 53 248 54 247 54 244 54 248 24 244 24 249 24 249 24 244 24 243 24 240 24 250 24 241 24 241 55 250 55 251 55 241 56 251 56 252 56 252 24 251 24 253 24 252 57 253 57 254 57 255 58 103 58 256 58 256 59 103 59 102 59 256 60 102 60 257 60 257 61 102 61 101 61 257 62 101 62 258 62 258 63 101 63 99 63 258 64 99 64 259 64 259 65 99 65 98 65 259 66 98 66 260 66 260 67 98 67 97 67 260 68 97 68 261 68 261 69 97 69 96 69 261 70 96 70 262 70 262 71 96 71 111 71 262 72 111 72 263 72 263 73 111 73 116 73 263 74 116 74 264 74 264 75 116 75 165 75 264 76 165 76 265 76 265 77 165 77 217 77 255 78 266 78 103 78 103 78 266 78 60 78 267 79 67 79 268 79 268 80 67 80 66 80 268 81 66 81 269 81 269 82 66 82 65 82 269 83 65 83 270 83 270 84 65 84 64 84 270 85 64 85 271 85 271 86 64 86 63 86 271 87 63 87 272 87 272 88 63 88 62 88 272 89 62 89 273 89 273 90 62 90 86 90 273 91 86 91 274 91 274 92 86 92 71 92 274 93 71 93 275 93 275 94 71 94 81 94 275 95 81 95 276 95 276 96 81 96 61 96 276 97 61 97 266 97 266 98 61 98 60 98 267 14 277 14 67 14 67 14 277 14 52 14 278 99 109 99 279 99 279 100 109 100 107 100 279 101 107 101 280 101 280 102 107 102 106 102 280 103 106 103 281 103 281 104 106 104 79 104 281 105 79 105 282 105 282 106 79 106 78 106 282 107 78 107 283 107 283 108 78 108 77 108 283 109 77 109 284 109 284 110 77 110 76 110 284 111 76 111 285 111 285 112 76 112 75 112 285 113 75 113 286 113 286 114 75 114 91 114 286 115 91 115 287 115 287 116 91 116 53 116 287 117 53 117 277 117 277 118 53 118 52 118 278 13 288 13 109 13 109 13 288 13 110 13 289 119 216 119 290 119 290 120 216 120 192 120 290 121 192 121 291 121 291 122 192 122 161 122 291 123 161 123 292 123 292 124 161 124 159 124 292 125 159 125 293 125 293 126 159 126 158 126 293 127 158 127 294 127 294 128 158 128 144 128 294 129 144 129 295 129 295 130 144 130 166 130 295 131 166 131 296 131 296 132 166 132 141 132 296 133 141 133 297 133 297 134 141 134 140 134 297 135 140 135 298 135 298 136 140 136 138 136 298 137 138 137 288 137 288 138 138 138 110 138 289 2 265 2 216 2 216 2 265 2 217 2 266 15 255 15 288 15 264 15 265 15 257 15 257 15 265 15 256 15 288 15 278 15 266 15 266 15 278 15 277 15 266 139 277 139 267 139 297 140 289 140 290 140 297 15 298 15 289 15 289 141 298 141 288 141 289 142 288 142 265 142 265 15 288 15 255 15 265 143 255 143 256 143 279 15 286 15 278 15 278 15 286 15 287 15 278 144 287 144 277 144 268 15 275 15 267 15 267 15 275 15 276 15 267 145 276 145 266 145 257 15 258 15 264 15 264 146 258 146 259 146 264 147 259 147 260 147 260 15 261 15 264 15 264 15 261 15 262 15 264 15 262 15 263 15 284 148 281 148 283 148 283 149 281 149 282 149 279 15 280 15 286 15 286 150 280 150 281 150 286 15 281 15 285 15 285 15 281 15 284 15 290 15 291 15 297 15 297 151 291 151 292 151 297 152 292 152 293 152 294 15 295 15 293 15 293 15 295 15 296 15 293 15 296 15 297 15 273 153 270 153 272 153 272 154 270 154 271 154 268 15 269 15 275 15 275 155 269 155 270 155 275 15 270 15 274 15 274 156 270 156 273 156 299 157 129 157 300 157 300 157 129 157 128 157 300 60 128 60 301 60 301 158 128 158 126 158 301 159 126 159 302 159 302 63 126 63 123 63 302 160 123 160 303 160 303 161 123 161 121 161 303 162 121 162 304 162 304 163 121 163 119 163 304 164 119 164 305 164 305 165 119 165 118 165 305 166 118 166 306 166 306 167 118 167 117 167 306 168 117 168 307 168 307 169 117 169 185 169 307 170 185 170 308 170 308 171 185 171 184 171 308 172 184 172 309 172 309 173 184 173 183 173 299 78 310 78 129 78 129 78 310 78 104 78 311 174 164 174 312 174 312 175 164 175 163 175 312 81 163 81 313 81 313 176 163 176 115 176 313 177 115 177 314 177 314 84 115 84 114 84 314 85 114 85 315 85 315 178 114 178 113 178 315 87 113 87 316 87 316 179 113 179 112 179 316 180 112 180 317 180 317 89 112 89 59 89 317 181 59 181 318 181 318 182 59 182 58 182 318 183 58 183 319 183 319 94 58 94 68 94 319 184 68 184 320 184 320 95 68 95 105 95 320 185 105 185 310 185 310 97 105 97 104 97 311 14 321 14 164 14 164 14 321 14 215 14 322 100 146 100 323 100 323 186 146 186 139 186 323 187 139 187 324 187 324 188 139 188 167 188 324 103 167 103 325 103 325 189 167 189 145 189 325 190 145 190 326 190 326 191 145 191 143 191 326 108 143 108 327 108 327 192 143 192 142 192 327 193 142 193 328 193 328 110 142 110 160 110 328 194 160 194 329 194 329 112 160 112 162 112 329 113 162 113 330 113 330 195 162 195 191 195 330 196 191 196 331 196 331 116 191 116 193 116 331 197 193 197 321 197 321 198 193 198 215 198 322 13 332 13 146 13 146 13 332 13 148 13 333 199 209 199 334 199 334 200 209 200 180 200 334 201 180 201 335 201 335 202 180 202 179 202 335 203 179 203 336 203 336 204 179 204 137 204 336 205 137 205 337 205 337 206 137 206 136 206 337 207 136 207 338 207 338 208 136 208 134 208 338 209 134 209 339 209 339 210 134 210 56 210 339 211 56 211 340 211 340 212 56 212 55 212 340 133 55 133 341 133 341 213 55 213 151 213 341 214 151 214 342 214 342 136 151 136 150 136 342 215 150 215 332 215 332 215 150 215 148 215 333 2 309 2 209 2 209 2 309 2 183 2 309 15 333 15 321 15 321 15 311 15 309 15 309 15 311 15 310 15 309 15 310 15 299 15 299 15 300 15 309 15 309 15 300 15 301 15 309 216 301 216 302 216 322 15 321 15 332 15 332 15 321 15 333 15 332 15 333 15 342 15 305 15 306 15 309 15 309 217 306 217 307 217 309 218 307 218 308 218 339 15 340 15 333 15 333 219 340 219 341 219 333 220 341 220 342 220 322 15 323 15 321 15 321 221 323 221 324 221 321 15 324 15 331 15 331 15 324 15 330 15 313 222 314 222 315 222 317 15 318 15 312 15 312 223 318 223 319 223 312 15 319 15 311 15 311 15 319 15 320 15 311 224 320 224 310 224 302 225 303 225 309 225 309 226 303 226 304 226 309 227 304 227 305 227 336 15 337 15 335 15 335 15 337 15 334 15 313 15 315 15 312 15 312 228 315 228 316 228 312 229 316 229 317 229 334 15 337 15 333 15 333 230 337 230 338 230 333 231 338 231 339 231 327 15 328 15 326 15 326 15 328 15 325 15 325 15 328 15 324 15 324 230 328 230 329 230 324 232 329 232 330 232 343 233 201 233 344 233 344 234 201 234 200 234 344 235 200 235 345 235 345 236 200 236 154 236 345 103 154 103 346 103 346 237 154 237 174 237 346 238 174 238 347 238 347 191 174 191 171 191 347 239 171 239 348 239 348 240 171 240 169 240 348 241 169 241 349 241 349 242 169 242 168 242 349 243 168 243 350 243 350 244 168 244 132 244 350 245 132 245 351 245 351 246 132 246 131 246 351 247 131 247 352 247 352 248 131 248 130 248 352 249 130 249 353 249 353 250 130 250 100 250 343 13 354 13 201 13 201 13 354 13 202 13 355 251 212 251 356 251 356 252 212 252 208 252 356 253 208 253 357 253 357 254 208 254 207 254 357 255 207 255 358 255 358 256 207 256 206 256 358 257 206 257 359 257 359 258 206 258 190 258 359 259 190 259 360 259 360 260 190 260 189 260 360 261 189 261 361 261 361 262 189 262 199 262 361 211 199 211 362 211 362 212 199 212 188 212 362 133 188 133 363 133 363 213 188 213 196 213 363 263 196 263 364 263 364 264 196 264 194 264 364 265 194 265 354 265 354 266 194 266 202 266 355 2 365 2 212 2 212 2 365 2 213 2 366 157 147 157 367 157 367 157 147 157 149 157 367 267 149 267 368 267 368 268 149 268 57 268 368 159 57 159 369 159 369 63 57 63 133 63 369 269 133 269 370 269 370 270 133 270 135 270 370 162 135 162 371 162 371 163 135 163 181 163 371 271 181 271 372 271 372 272 181 272 182 272 372 273 182 273 373 273 373 274 182 274 211 274 373 275 211 275 374 275 374 275 211 275 210 275 374 276 210 276 375 276 375 277 210 277 214 277 375 172 214 172 365 172 365 173 214 173 213 173 366 78 376 78 147 78 147 78 376 78 108 78 377 79 54 79 378 79 378 80 54 80 95 80 378 278 95 278 379 278 379 279 95 279 94 279 379 280 94 280 380 280 380 281 94 281 73 281 380 282 73 282 381 282 381 283 73 283 72 283 381 284 72 284 382 284 382 285 72 285 93 285 382 286 93 286 383 286 383 89 93 89 92 89 383 287 92 287 384 287 384 288 92 288 90 288 384 289 90 289 385 289 385 94 90 94 89 94 385 290 89 290 386 290 386 291 89 291 74 291 386 292 74 292 376 292 376 98 74 98 108 98 377 14 353 14 54 14 54 14 353 14 100 14 343 15 376 15 354 15 354 15 376 15 366 15 351 293 343 293 344 293 344 15 345 15 351 15 351 294 345 294 346 294 351 295 346 295 347 295 385 296 377 296 384 296 384 15 377 15 378 15 384 15 378 15 379 15 351 15 352 15 343 15 343 297 352 297 353 297 343 15 353 15 376 15 376 15 353 15 377 15 376 15 377 15 386 15 386 15 377 15 385 15 366 15 367 15 365 15 365 298 367 298 368 298 365 299 368 299 375 299 375 15 368 15 374 15 366 15 365 15 354 15 354 15 365 15 355 15 354 300 355 300 356 300 348 15 349 15 347 15 347 15 349 15 350 15 347 15 350 15 351 15 379 15 380 15 384 15 384 301 380 301 381 301 384 15 381 15 383 15 383 15 381 15 382 15 371 15 372 15 370 15 370 15 372 15 369 15 356 302 357 302 354 302 354 303 357 303 358 303 354 304 358 304 359 304 369 15 372 15 368 15 368 15 372 15 373 15 368 15 373 15 374 15 359 15 360 15 354 15 354 305 360 305 361 305 354 15 361 15 364 15 364 15 361 15 362 15 364 15 362 15 363 15 29 306 27 306 80 306 29 307 80 307 242 307 242 308 80 308 82 308 242 309 82 309 239 309 239 310 82 310 85 310 239 310 85 310 240 310 240 311 85 311 84 311 240 312 84 312 250 312 250 313 84 313 83 313 250 314 83 314 251 314 251 315 83 315 70 315 251 316 70 316 253 316 253 317 70 317 69 317 253 318 69 318 254 318 254 319 69 319 88 319 254 320 88 320 252 320 252 321 88 321 87 321 252 322 87 322 241 322 6 323 5 323 87 323 87 324 5 324 237 324 87 325 237 325 241 325 34 326 33 326 236 326 236 327 33 327 120 327 236 328 120 328 238 328 238 329 120 329 122 329 238 330 122 330 243 330 243 331 122 331 124 331 243 332 124 332 249 332 249 333 124 333 157 333 249 334 157 334 248 334 248 335 157 335 156 335 248 336 156 336 246 336 246 337 156 337 155 337 246 338 155 338 247 338 247 339 155 339 125 339 247 340 125 340 244 340 244 341 125 341 127 341 244 342 127 342 245 342 245 343 127 343 26 343 245 344 26 344 28 344 152 345 218 345 227 345 152 346 227 346 153 346 153 347 227 347 228 347 153 348 228 348 176 348 176 349 228 349 235 349 176 350 235 350 177 350 177 351 235 351 224 351 177 352 224 352 178 352 178 353 224 353 223 353 178 354 223 354 175 354 175 355 223 355 222 355 175 356 222 356 173 356 173 357 222 357 226 357 173 358 226 358 172 358 172 359 226 359 225 359 172 359 225 359 170 359 170 360 225 360 9 360 170 361 9 361 7 361 31 362 30 362 234 362 31 362 234 362 203 362 203 363 234 363 233 363 203 364 233 364 204 364 204 365 233 365 232 365 204 366 232 366 205 366 205 367 232 367 231 367 205 367 231 367 186 367 186 368 231 368 230 368 186 368 230 368 187 368 187 369 230 369 229 369 187 370 229 370 198 370 198 371 229 371 221 371 198 372 221 372 197 372 197 373 221 373 220 373 197 374 220 374 195 374 195 375 220 375 219 375 195 376 219 376 387 376 48 377 15 377 24 377 48 378 24 378 47 378 47 379 24 379 25 379 47 379 25 379 45 379 45 380 25 380 23 380 45 380 23 380 46 380 46 381 23 381 22 381 46 382 22 382 51 382 51 383 22 383 11 383 51 384 11 384 40 384 41 385 17 385 21 385 41 385 21 385 42 385 42 386 21 386 20 386 42 387 20 387 43 387 43 388 20 388 19 388 43 388 19 388 44 388 44 389 19 389 18 389 44 390 18 390 49 390 49 391 18 391 16 391 49 391 16 391 50 391</p>
        </triangles>
      </mesh>
    </geometry>
  </library_geometries>
  <library_visual_scenes>
    <visual_scene id="Scene" name="Scene">
      <node id="tray" name="tray" type="NODE">
        <matrix sid="transform">0.001 0 0 0 0 1.03251e-5 -9.99947e-4 0 0 9.99947e-4 1.03251e-5 0 0 0 0 1</matrix>
        <instance_geometry url="#tray-mesh" name="tray">
          <bind_material>
            <technique_common>
              <instance_material symbol="Material_001-material" target="#Material_001-material"/>
            </technique_common>
          </bind_material>
        </instance_geometry>
      </node>
      <node id="Camera" name="Camera" type="NODE">
        <matrix sid="transform">0.6859207 -0.3240135 0.6515582 7.358891 0.7276763 0.3054208 -0.6141704 -6.925791 0 0.8953956 0.4452714 4.958309 0 0 0 1</matrix>
        <instance_camera url="#Camera-camera"/>
      </node>
      <node id="Light" name="Light" type="NODE">
        <matrix sid="transform">-0.2908646 -0.7711008 0.5663932 4.076245 0.9551712 -0.1998834 0.2183912 1.005454 -0.05518906 0.6045247 0.7946723 5.903862 0 0 0 1</matrix>
        <instance_light url="#Light-light"/>
      </node>
    </visual_scene>
  </library_visual_scenes>
  <scene>
    <instance_visual_scene url="#Scene"/>
  </scene>
</COLLADA>